  0
SECTION
  2
HEADER
  9
$ACADVER
  1
AC1006
  9
$EXTMIN
 10
0.000000
 20
0.000000
 30
0.000000
  9
$EXTMAX
 10
311.000000
 20
349.000000
 30
0.000000
  0
ENDSEC
  0
SECTION
  2
ENTITIES
  0
POLYLINE
  8
0
 66
1
 70
1
  0
VERTEX
  8
0
 10
254.250674
 20
307.454857
 42
0.014295
  0
VERTEX
  8
0
 10
251.943108
 20
306.762163
 42
0.009569
  0
VERTEX
  8
0
 10
249.343766
 20
305.844581
 42
0.009640
  0
VERTEX
  8
0
 10
246.857276
 20
304.857881
 42
0.018677
  0
VERTEX
  8
0
 10
244.917700
 20
303.958014
 42
-0.022784
  0
VERTEX
  8
0
 10
242.309090
 20
302.773680
 42
-0.082622
  0
VERTEX
  8
0
 10
240.535372
 20
302.384945
 42
-0.064066
  0
VERTEX
  8
0
 10
238.509502
 20
302.541397
 42
-0.010173
  0
VERTEX
  8
0
 10
234.618446
 20
303.433507
 42
0.044134
  0
VERTEX
  8
0
 10
211.014287
 20
307.182474
 42
0.053175
  0
VERTEX
  8
0
 10
188.581852
 20
306.353197
 42
0.054103
  0
VERTEX
  8
0
 10
167.149228
 20
300.850802
 42
0.048329
  0
VERTEX
  8
0
 10
146.513632
 20
290.729836
 42
0.030274
  0
VERTEX
  8
0
 10
128.324260
 20
277.932798
 42
0.023166
  0
VERTEX
  8
0
 10
110.035282
 20
261.893582
 42
0.023530
  0
VERTEX
  8
0
 10
93.758322
 20
244.680916
 42
0.037357
  0
VERTEX
  8
0
 10
81.720663
 20
228.368238
 42
0.018877
  0
VERTEX
  8
0
 10
78.401924
 20
222.616084
 42
0.005626
  0
VERTEX
  8
0
 10
73.770949
 20
213.595681
 42
0.005861
  0
VERTEX
  8
0
 10
69.215916
 20
204.197933
 42
0.012641
  0
VERTEX
  8
0
 10
65.979519
 20
196.838848
 42
0.023844
  0
VERTEX
  8
0
 10
59.973948
 20
179.934738
 42
0.015731
  0
VERTEX
  8
0
 10
54.626446
 20
160.011571
 42
0.013993
  0
VERTEX
  8
0
 10
49.935878
 20
137.198338
 42
0.010063
  0
VERTEX
  8
0
 10
45.929062
 20
111.500000
 42
-0.003544
  0
VERTEX
  8
0
 10
44.990586
 20
104.918369
 42
-0.005414
  0
VERTEX
  8
0
 10
44.074291
 20
99.224232
 42
-0.002126
  0
VERTEX
  8
0
 10
43.217038
 20
94.365292
 42
-0.132415
  0
VERTEX
  8
0
 10
42.846422
 20
93.582491
 42
-0.207741
  0
VERTEX
  8
0
 10
42.217225
 20
93.274149
 42
-0.028553
  0
VERTEX
  8
0
 10
40.723726
 20
93.290705
 42
-0.026879
  0
VERTEX
  8
0
 10
38.764252
 20
93.530796
 42
-0.014946
  0
VERTEX
  8
0
 10
36.407744
 20
94.022132
 42
0.008257
  0
VERTEX
  8
0
 10
33.063710
 20
94.766178
 42
0.062928
  0
VERTEX
  8
0
 10
31.459378
 20
94.889517
 42
0.134057
  0
VERTEX
  8
0
 10
30.421455
 20
94.550751
 42
0.089592
  0
VERTEX
  8
0
 10
29.511015
 20
93.684177
 42
0.101210
  0
VERTEX
  8
0
 10
28.210268
 20
90.845251
 42
0.009990
  0
VERTEX
  8
0
 10
26.652202
 20
83.460118
 42
0.013213
  0
VERTEX
  8
0
 10
25.286416
 20
75.077925
 42
0.015101
  0
VERTEX
  8
0
 10
24.435964
 20
67.000000
 42
0.033318
  0
VERTEX
  8
0
 10
24.337489
 20
54.817122
 42
0.027545
  0
VERTEX
  8
0
 10
25.809460
 20
41.916160
 42
0.023649
  0
VERTEX
  8
0
 10
28.257373
 20
30.758625
 42
0.184119
  0
VERTEX
  8
0
 10
31.329376
 20
26.522396
 42
0.119491
  0
VERTEX
  8
0
 10
37.629171
 20
24.284272
 42
0.003042
  0
VERTEX
  8
0
 10
67.889246
 20
21.326840
 42
0.006872
  0
VERTEX
  8
0
 10
101.248101
 20
18.733088
 42
0.006807
  0
VERTEX
  8
0
 10
134.771893
 20
17.047471
 42
0.014900
  0
VERTEX
  8
0
 10
178.572004
 20
16.748419
 42
0.027357
  0
VERTEX
  8
0
 10
214.128619
 20
19.515672
 42
0.032920
  0
VERTEX
  8
0
 10
241.104211
 20
24.932957
 42
0.114631
  0
VERTEX
  8
0
 10
256.662806
 20
33.277090
 42
0.084904
  0
VERTEX
  8
0
 10
261.380418
 20
39.100687
 42
0.055370
  0
VERTEX
  8
0
 10
264.763638
 20
47.084241
 42
0.045441
  0
VERTEX
  8
0
 10
266.809131
 20
57.206930
 42
0.027019
  0
VERTEX
  8
0
 10
267.480278
 20
69.500000
 42
0.019555
  0
VERTEX
  8
0
 10
267.105284
 20
79.213103
 42
0.037479
  0
VERTEX
  8
0
 10
265.920205
 20
86.917823
 42
0.037912
  0
VERTEX
  8
0
 10
263.609227
 20
94.301500
 42
0.020509
  0
VERTEX
  8
0
 10
259.723391
 20
103.000000
 42
0.013136
  0
VERTEX
  8
0
 10
256.796028
 20
108.522631
 42
0.098838
  0
VERTEX
  8
0
 10
254.876103
 20
110.753085
 42
0.192100
  0
VERTEX
  8
0
 10
252.834271
 20
111.347893
 42
0.077658
  0
VERTEX
  8
0
 10
249.974028
 20
110.614160
 42
-0.211545
  0
VERTEX
  8
0
 10
249.087748
 20
110.623755
 42
-0.089657
  0
VERTEX
  8
0
 10
248.090054
 20
111.316033
 42
-0.049400
  0
VERTEX
  8
0
 10
246.896005
 20
112.772733
 42
-0.014478
  0
VERTEX
  8
0
 10
245.359611
 20
115.228979
 42
0.000949
  0
VERTEX
  8
0
 10
243.756387
 20
117.953316
 42
0.000296
  0
VERTEX
  8
0
 10
241.340083
 20
122.036012
 42
0.000296
  0
VERTEX
  8
0
 10
238.635526
 20
126.593439
 42
0.000327
  0
VERTEX
  8
0
 10
236.013076
 20
131.000000
 42
-0.000890
  0
VERTEX
  8
0
 10
228.544406
 20
143.582036
 42
-0.004702
  0
VERTEX
  8
0
 10
224.526123
 20
150.527202
 42
-0.007597
  0
VERTEX
  8
0
 10
221.578747
 20
155.923372
 42
-0.005553
  0
VERTEX
  8
0
 10
218.464298
 20
162.000000
 42
-0.012583
  0
VERTEX
  8
0
 10
214.518688
 20
170.438961
 42
-0.032550
  0
VERTEX
  8
0
 10
212.233907
 20
176.754810
 42
-0.036851
  0
VERTEX
  8
0
 10
210.946884
 20
182.842040
 42
-0.020559
  0
VERTEX
  8
0
 10
210.238585
 20
190.388718
 42
-0.042509
  0
VERTEX
  8
0
 10
210.811575
 20
208.014231
 42
-0.060975
  0
VERTEX
  8
0
 10
214.511255
 20
223.180690
 42
-0.075796
  0
VERTEX
  8
0
 10
220.756573
 20
234.284019
 42
-0.155236
  0
VERTEX
  8
0
 10
228.919006
 20
239.857587
 42
-0.030010
  0
VERTEX
  8
0
 10
231.292639
 20
240.416100
 42
-0.127898
  0
VERTEX
  8
0
 10
232.732119
 20
240.295883
 42
-0.093792
  0
VERTEX
  8
0
 10
234.157379
 20
239.470779
 42
-0.012157
  0
VERTEX
  8
0
 10
236.776027
 20
237.098279
 42
0.045905
  0
VERTEX
  8
0
 10
241.183012
 20
233.616221
 42
0.033280
  0
VERTEX
  8
0
 10
246.643570
 20
230.558879
 42
0.032404
  0
VERTEX
  8
0
 10
252.650270
 20
228.166073
 42
0.036180
  0
VERTEX
  8
0
 10
258.700193
 20
226.672885
 42
0.085183
  0
VERTEX
  8
0
 10
271.683098
 20
226.676903
 42
0.080019
  0
VERTEX
  8
0
 10
284.230437
 20
230.974170
 42
0.079376
  0
VERTEX
  8
0
 10
294.877223
 20
239.035743
 42
0.081774
  0
VERTEX
  8
0
 10
302.353784
 20
249.938252
 42
0.053565
  0
VERTEX
  8
0
 10
304.865359
 20
257.249417
 42
0.042706
  0
VERTEX
  8
0
 10
306.017238
 20
265.512535
 42
0.042878
  0
VERTEX
  8
0
 10
305.746980
 20
273.810994
 42
0.055453
  0
VERTEX
  8
0
 10
304.018216
 20
281.226015
 42
0.093330
  0
VERTEX
  8
0
 10
296.288721
 20
294.541001
 42
0.093691
  0
VERTEX
  8
0
 10
284.254958
 20
304.111520
 42
0.093793
  0
VERTEX
  8
0
 10
269.569735
 20
308.621969
 42
0.093772
  0
SEQEND
  0
POLYLINE
  8
0
 66
1
 70
1
  0
VERTEX
  8
0
 10
281.286142
 20
303.246872
 42
-0.102501
  0
VERTEX
  8
0
 10
294.581796
 20
293.306793
 42
-0.105919
  0
VERTEX
  8
0
 10
302.644238
 20
279.010075
 42
-0.106588
  0
VERTEX
  8
0
 10
304.113334
 20
262.740679
 42
-0.105014
  0
VERTEX
  8
0
 10
298.767997
 20
247.215157
 42
-0.093221
  0
VERTEX
  8
0
 10
289.057889
 20
236.293633
 42
-0.095189
  0
VERTEX
  8
0
 10
276.110823
 20
229.744066
 42
-0.094464
  0
VERTEX
  8
0
 10
261.573548
 20
228.429841
 42
-0.090226
  0
VERTEX
  8
0
 10
247.315320
 20
232.501688
 42
-0.111412
  0
VERTEX
  8
0
 10
233.860813
 20
243.382894
 42
-0.112323
  0
VERTEX
  8
0
 10
226.431266
 20
258.956430
 42
-0.112273
  0
VERTEX
  8
0
 10
226.469036
 20
276.217134
 42
-0.111229
  0
VERTEX
  8
0
 10
233.959847
 20
291.829987
 42
-0.042551
  0
VERTEX
  8
0
 10
237.877996
 20
296.002712
 42
-0.031423
  0
VERTEX
  8
0
 10
242.849646
 20
299.933254
 42
-0.031456
  0
VERTEX
  8
0
 10
248.266779
 20
303.204516
 42
-0.043037
  0
VERTEX
  8
0
 10
253.525068
 20
305.392754
 42
-0.055515
  0
VERTEX
  8
0
 10
260.022761
 20
306.692415
 42
-0.040934
  0
VERTEX
  8
0
 10
267.365755
 20
306.726757
 42
-0.040439
  0
VERTEX
  8
0
 10
274.727513
 20
305.553986
 42
-0.049760
  0
SEQEND
  0
POLYLINE
  8
0
 66
1
 70
1
  0
VERTEX
  8
0
 10
226.500000
 20
302.547344
 42
-0.003673
  0
VERTEX
  8
0
 10
235.161484
 20
300.758681
 42
-0.177140
  0
VERTEX
  8
0
 10
236.638983
 20
299.828996
 42
-0.334650
  0
VERTEX
  8
0
 10
236.656542
 20
298.440845
 42
-0.011767
  0
VERTEX
  8
0
 10
233.173302
 20
293.922545
 42
0.038808
  0
VERTEX
  8
0
 10
228.725716
 20
287.459206
 42
0.053778
  0
VERTEX
  8
0
 10
225.874488
 20
281.034596
 42
0.052427
  0
VERTEX
  8
0
 10
224.413262
 20
274.023500
 42
0.034559
  0
VERTEX
  8
0
 10
224.152594
 20
265.784185
 42
0.011367
  0
VERTEX
  8
0
 10
224.468816
 20
260.537412
 42
0.033488
  0
VERTEX
  8
0
 10
225.008314
 20
256.964879
 42
0.038032
  0
VERTEX
  8
0
 10
225.977109
 20
253.751920
 42
0.018378
  0
VERTEX
  8
0
 10
227.673342
 20
249.802157
 42
0.000000
  0
VERTEX
  8
0
 10
230.846107
 20
243.104315
 42
0.000000
  0
VERTEX
  8
0
 10
227.337283
 20
241.946299
 42
0.130816
  0
VERTEX
  8
0
 10
219.153278
 20
236.596903
 42
0.083715
  0
VERTEX
  8
0
 10
213.040002
 20
226.946503
 42
0.064051
  0
VERTEX
  8
0
 10
209.260517
 20
213.274303
 42
0.035627
  0
VERTEX
  8
0
 10
208.039799
 20
196.000000
 42
0.006844
  0
VERTEX
  8
0
 10
208.118723
 20
190.504525
 42
0.007404
  0
VERTEX
  8
0
 10
208.348087
 20
185.155691
 42
0.007032
  0
VERTEX
  8
0
 10
208.676907
 20
180.579159
 42
0.035190
  0
VERTEX
  8
0
 10
209.076522
 20
178.040650
 42
0.035570
  0
VERTEX
  8
0
 10
209.828774
 20
175.587989
 42
0.007171
  0
VERTEX
  8
0
 10
211.534768
 20
171.354293
 42
0.007537
  0
VERTEX
  8
0
 10
213.668714
 20
166.477453
 42
0.006984
  0
VERTEX
  8
0
 10
216.001965
 20
161.540650
 42
0.003353
  0
VERTEX
  8
0
 10
220.155473
 20
153.203083
 42
0.011039
  0
VERTEX
  8
0
 10
223.052898
 20
147.783553
 42
0.008767
  0
VERTEX
  8
0
 10
226.503914
 20
141.901359
 42
0.001535
  0
VERTEX
  8
0
 10
233.229107
 20
130.961226
 42
-0.005873
  0
VERTEX
  8
0
 10
238.618533
 20
122.021093
 42
-0.014992
  0
VERTEX
  8
0
 10
242.250750
 20
115.384573
 42
-0.013782
  0
VERTEX
  8
0
 10
244.601100
 20
110.433687
 42
-0.198049
  0
VERTEX
  8
0
 10
244.648112
 20
108.525379
 42
-0.166215
  0
VERTEX
  8
0
 10
244.107350
 20
107.877898
 42
-0.011343
  0
VERTEX
  8
0
 10
242.003286
 20
106.665168
 42
-0.015237
  0
VERTEX
  8
0
 10
239.365027
 20
105.325985
 42
-0.010798
  0
VERTEX
  8
0
 10
236.329969
 20
103.979185
 42
-0.040603
  0
VERTEX
  8
0
 10
196.763814
 20
91.091621
 42
-0.036342
  0
VERTEX
  8
0
 10
154.135269
 20
84.165394
 42
-0.034721
  0
VERTEX
  8
0
 10
109.044948
 20
83.308329
 42
-0.030300
  0
VERTEX
  8
0
 10
62.133526
 20
88.536558
 42
-0.002477
  0
VERTEX
  8
0
 10
56.563871
 20
89.530101
 42
-0.003748
  0
VERTEX
  8
0
 10
51.727668
 20
90.455083
 42
-0.001477
  0
VERTEX
  8
0
 10
47.590472
 20
91.291277
 42
-0.088024
  0
VERTEX
  8
0
 10
46.883526
 20
91.571985
 42
-0.282524
  0
VERTEX
  8
0
 10
45.811450
 20
93.700791
 42
-0.009020
  0
VERTEX
  8
0
 10
46.838892
 20
103.718341
 42
-0.011756
  0
VERTEX
  8
0
 10
48.882882
 20
117.838630
 42
-0.003632
  0
VERTEX
  8
0
 10
52.614193
 20
139.000000
 42
-0.021295
  0
VERTEX
  8
0
 10
59.706414
 20
170.075736
 42
-0.029210
  0
VERTEX
  8
0
 10
68.871100
 20
197.241894
 42
-0.032322
  0
VERTEX
  8
0
 10
80.184341
 20
220.758601
 42
-0.040292
  0
VERTEX
  8
0
 10
93.740263
 20
240.849952
 42
-0.028753
  0
VERTEX
  8
0
 10
106.457639
 20
255.015381
 42
-0.019287
  0
VERTEX
  8
0
 10
122.487232
 20
269.744762
 42
-0.019423
  0
VERTEX
  8
0
 10
139.310645
 20
282.957005
 42
-0.033348
  0
VERTEX
  8
0
 10
154.409130
 20
292.427852
 42
-0.024725
  0
VERTEX
  8
0
 10
161.020486
 20
295.573692
 42
-0.013744
  0
VERTEX
  8
0
 10
169.353657
 20
298.778956
 42
-0.013611
  0
VERTEX
  8
0
 10
178.079432
 20
301.598028
 42
-0.019665
  0
VERTEX
  8
0
 10
185.940961
 20
303.571478
 42
-0.043607
  0
VERTEX
  8
0
 10
193.673868
 20
304.499668
 42
-0.014387
  0
VERTEX
  8
0
 10
205.129031
 20
304.540076
 42
-0.014787
  0
VERTEX
  8
0
 10
217.008558
 20
303.888224
 42
-0.027985
  0
SEQEND
  0
POLYLINE
  8
0
 66
1
 70
1
  0
VERTEX
  8
0
 10
257.811900
 20
100.750000
 42
-0.026822
  0
VERTEX
  8
0
 10
261.036740
 20
93.123336
 42
-0.030564
  0
VERTEX
  8
0
 10
263.267615
 20
85.517209
 42
-0.030425
  0
VERTEX
  8
0
 10
264.561824
 20
77.665320
 42
-0.026131
  0
VERTEX
  8
0
 10
264.982636
 20
69.302595
 42
-0.033631
  0
VERTEX
  8
0
 10
264.153179
 20
57.337063
 42
-0.046984
  0
VERTEX
  8
0
 10
261.706114
 20
46.902194
 42
-0.055425
  0
VERTEX
  8
0
 10
257.906543
 20
38.725180
 42
-0.110566
  0
VERTEX
  8
0
 10
252.985872
 20
33.609349
 42
-0.104142
  0
VERTEX
  8
0
 10
230.348306
 20
24.644481
 42
-0.027196
  0
VERTEX
  8
0
 10
191.299333
 20
20.127855
 42
-0.023358
  0
VERTEX
  8
0
 10
140.666528
 20
19.415482
 42
-0.013101
  0
VERTEX
  8
0
 10
79.215592
 20
23.035376
 42
-0.003122
  0
VERTEX
  8
0
 10
59.939990
 20
24.799839
 42
-0.007568
  0
VERTEX
  8
0
 10
45.736938
 20
26.406827
 42
-0.005021
  0
VERTEX
  8
0
 10
35.023788
 20
27.892979
 42
-0.137059
  0
VERTEX
  8
0
 10
32.445286
 20
29.045408
 42
-0.191692
  0
VERTEX
  8
0
 10
29.255127
 20
34.894930
 42
-0.016428
  0
VERTEX
  8
0
 10
27.733025
 20
52.218228
 42
-0.022615
  0
VERTEX
  8
0
 10
27.558897
 20
70.425824
 42
-0.048416
  0
VERTEX
  8
0
 10
29.412673
 20
84.343415
 42
-0.006314
  0
VERTEX
  8
0
 10
30.548997
 20
88.950872
 42
-0.059509
  0
VERTEX
  8
0
 10
31.290688
 20
90.844527
 42
-0.174757
  0
VERTEX
  8
0
 10
32.152792
 20
91.620072
 42
-0.151078
  0
VERTEX
  8
0
 10
33.371164
 20
91.725950
 42
0.006323
  0
VERTEX
  8
0
 10
61.735840
 20
85.959678
 42
0.016345
  0
VERTEX
  8
0
 10
82.366287
 20
82.731358
 42
0.018869
  0
VERTEX
  8
0
 10
101.377057
 20
81.115306
 42
0.011366
  0
VERTEX
  8
0
 10
124.000000
 20
80.564615
 42
0.007184
  0
VERTEX
  8
0
 10
141.995967
 20
80.794288
 42
0.014173
  0
VERTEX
  8
0
 10
156.269152
 20
81.586866
 42
0.015589
  0
VERTEX
  8
0
 10
169.554922
 20
83.121386
 42
0.011053
  0
VERTEX
  8
0
 10
184.349769
 20
85.634731
 42
0.017277
  0
VERTEX
  8
0
 10
201.239958
 20
89.499217
 42
0.014171
  0
VERTEX
  8
0
 10
218.991064
 20
94.754241
 42
0.014553
  0
VERTEX
  8
0
 10
235.397489
 20
100.655118
 42
0.028541
  0
VERTEX
  8
0
 10
248.000000
 20
106.456765
 42
-0.004292
  0
VERTEX
  8
0
 10
249.770817
 20
107.378483
 42
-0.006033
  0
VERTEX
  8
0
 10
251.367491
 20
108.168095
 42
-0.003702
  0
VERTEX
  8
0
 10
252.719935
 20
108.804462
 42
-0.078990
  0
VERTEX
  8
0
 10
253.144651
 20
108.924175
 42
-0.296320
  0
VERTEX
  8
0
 10
253.505903
 20
108.745611
 42
-0.004192
  0
VERTEX
  8
0
 10
254.781574
 20
106.554289
 42
-0.010035
  0
VERTEX
  8
0
 10
256.223347
 20
103.907191
 42
-0.006250
  0
SEQEND
  0
ENDSEC
  0
EOF
