999
"DXF R12 Output" (www.mydxf.blogspot.com)
 0 
SECTION
 2 
HEADER
 9 
$ACADVER
 1 
AC1009
 9 
$EXTMIN
 10 
 0 
 20 
 0 
 9 
$EXTMAX
 10 
 8.5 
 20 
 11 
 0 
ENDSEC
 0 
SECTION
 2 
ENTITIES
0
LINE
8
Image
10
83.202800
20
0.826149
11
80.992873
21
1.869108
0
LINE
8
Image
10
80.992873
20
1.869108
11
80.265061
21
2.459938
0
LINE
8
Image
10
80.265061
20
2.459938
11
79.739415
21
3.189759
0
LINE
8
Image
10
79.739415
20
3.189759
11
79.378983
21
4.128140
0
LINE
8
Image
10
79.378983
20
4.128140
11
79.146812
21
5.344650
0
LINE
8
Image
10
79.146812
20
5.344650
11
78.919450
21
8.890329
0
LINE
8
Image
10
78.919450
20
8.890329
11
78.613323
21
13.169842
0
LINE
8
Image
10
78.613323
20
13.169842
11
77.612020
21
17.639209
0
LINE
8
Image
10
77.612020
20
17.639209
11
76.276861
21
22.220962
0
LINE
8
Image
10
76.276861
20
22.220962
11
74.861054
21
26.070775
0
LINE
8
Image
10
74.861054
20
26.070775
11
73.462645
21
28.954081
0
LINE
8
Image
10
73.462645
20
28.954081
11
72.800604
21
29.959990
0
LINE
8
Image
10
72.800604
20
29.959990
11
72.179680
21
30.636309
0
LINE
8
Image
10
72.179680
20
30.636309
11
71.556677
21
31.096513
0
LINE
8
Image
10
71.556677
20
31.096513
11
70.855001
21
31.243744
0
LINE
8
Image
10
70.855001
20
31.243744
11
69.633512
21
31.072496
0
LINE
8
Image
10
69.633512
20
31.072496
11
67.451070
21
30.577257
0
LINE
8
Image
10
67.451070
20
30.577257
11
64.804605
21
30.193672
0
LINE
8
Image
10
64.804605
20
30.193672
11
60.818850
21
30.095419
0
LINE
8
Image
10
60.818850
20
30.095419
11
58.186730
21
30.127424
0
LINE
8
Image
10
58.186730
20
30.127424
11
56.322859
21
30.267036
0
LINE
8
Image
10
56.322859
20
30.267036
11
54.484485
21
30.611334
0
LINE
8
Image
10
54.484485
20
30.611334
11
51.928860
21
31.257399
0
LINE
8
Image
10
51.928860
20
31.257399
11
48.320087
21
32.114618
0
LINE
8
Image
10
48.320087
20
32.114618
11
47.542786
21
32.176329
0
LINE
8
Image
10
47.542786
20
32.176329
11
47.173160
21
32.038973
0
LINE
8
Image
10
47.173160
20
32.038973
11
46.728870
21
31.088511
0
LINE
8
Image
10
46.728870
20
31.088511
11
46.191664
21
29.018516
0
LINE
8
Image
10
46.191664
20
29.018516
11
44.868990
21
21.657273
0
LINE
8
Image
10
44.868990
20
21.657273
11
43.732310
21
15.195323
0
LINE
8
Image
10
43.732310
20
15.195323
11
43.145353
21
13.952139
0
LINE
8
Image
10
43.145353
20
13.952139
11
42.142836
21
12.773517
0
LINE
8
Image
10
42.142836
20
12.773517
11
40.868641
21
11.795735
0
LINE
8
Image
10
40.868641
20
11.795735
11
39.466650
21
11.155073
0
LINE
8
Image
10
39.466650
20
11.155073
11
36.870228
21
10.590678
0
LINE
8
Image
10
36.870228
20
10.590678
11
34.601850
21
10.530125
0
LINE
8
Image
10
34.601850
20
10.530125
11
32.771300
21
10.963433
0
LINE
8
Image
10
32.771300
20
10.963433
11
32.054517
21
11.362163
0
LINE
8
Image
10
32.054517
20
11.362163
11
31.488360
21
11.880615
0
LINE
8
Image
10
31.488360
20
11.880615
11
30.928630
21
12.792161
0
LINE
8
Image
10
30.928630
20
12.792161
11
30.821096
21
13.798327
0
LINE
8
Image
10
30.821096
20
13.798327
11
31.186507
21
15.083467
0
LINE
8
Image
10
31.186507
20
15.083467
11
32.045613
21
16.831935
0
LINE
8
Image
10
32.045613
20
16.831935
11
33.329023
21
19.186385
0
LINE
8
Image
10
33.329023
20
19.186385
11
33.386167
21
27.161665
0
LINE
8
Image
10
33.386167
20
27.161665
11
33.384450
21
32.592990
0
LINE
8
Image
10
33.384450
20
32.592990
11
33.275005
21
34.401877
0
LINE
8
Image
10
33.275005
20
34.401877
11
33.031358
21
35.862008
0
LINE
8
Image
10
33.031358
20
35.862008
11
32.607152
21
37.165205
0
LINE
8
Image
10
32.607152
20
37.165205
11
31.956029
21
38.503289
0
LINE
8
Image
10
31.956029
20
38.503289
11
29.787600
21
42.051400
0
LINE
8
Image
10
29.787600
20
42.051400
11
27.130763
21
46.655212
0
LINE
8
Image
10
27.130763
20
46.655212
11
26.316652
21
48.540245
0
LINE
8
Image
10
26.316652
20
48.540245
11
25.623000
21
50.604200
0
LINE
8
Image
10
25.623000
20
50.604200
11
25.296159
21
51.867931
0
LINE
8
Image
10
25.296159
20
51.867931
11
25.104000
21
53.296925
0
LINE
8
Image
10
25.104000
20
53.296925
11
24.966000
21
58.561400
0
LINE
8
Image
10
24.966000
20
58.561400
11
24.880800
21
64.789300
0
LINE
8
Image
10
24.880800
20
64.789300
11
24.413600
21
65.141462
0
LINE
8
Image
10
24.413600
20
65.141462
11
23.353900
21
65.565100
0
LINE
8
Image
10
23.353900
20
65.565100
11
20.484694
21
66.812684
0
LINE
8
Image
10
20.484694
20
66.812684
11
17.702900
21
68.593200
0
LINE
8
Image
10
17.702900
20
68.593200
11
15.346656
21
70.653841
0
LINE
8
Image
10
15.346656
20
70.653841
11
14.433784
21
71.710206
0
LINE
8
Image
10
14.433784
20
71.710206
11
13.754100
21
72.741800
0
LINE
8
Image
10
13.754100
20
72.741800
11
12.851344
21
74.823619
0
LINE
8
Image
10
12.851344
20
74.823619
11
12.315075
21
77.011450
0
LINE
8
Image
10
12.315075
20
77.011450
11
12.167569
21
79.163806
0
LINE
8
Image
10
12.167569
20
79.163806
11
12.431100
21
81.139200
0
LINE
8
Image
10
12.431100
20
81.139200
11
13.235198
21
83.124448
0
LINE
8
Image
10
13.235198
20
83.124448
11
14.757860
21
86.312240
0
LINE
8
Image
10
14.757860
20
86.312240
11
16.792200
21
90.356400
0
LINE
8
Image
10
16.792200
20
90.356400
11
16.974300
21
99.294400
0
LINE
8
Image
10
16.974300
20
99.294400
11
17.230939
21
107.089921
0
LINE
8
Image
10
17.230939
20
107.089921
11
17.436909
21
109.204580
0
LINE
8
Image
10
17.436909
20
109.204580
11
17.746703
21
110.913600
0
LINE
8
Image
10
17.746703
20
110.913600
11
18.340714
21
113.665260
0
LINE
8
Image
10
18.340714
20
113.665260
11
17.991644
21
113.736039
0
LINE
8
Image
10
17.991644
20
113.736039
11
15.809844
21
114.601524
0
LINE
8
Image
10
15.809844
20
114.601524
11
13.901125
21
115.812174
0
LINE
8
Image
10
13.901125
20
115.812174
11
11.914159
21
117.576940
0
LINE
8
Image
10
11.914159
20
117.576940
11
10.126257
21
119.616118
0
LINE
8
Image
10
10.126257
20
119.616118
11
8.814730
21
121.650000
0
LINE
8
Image
10
8.814730
20
121.650000
11
7.939092
21
123.925297
0
LINE
8
Image
10
7.939092
20
123.925297
11
7.550903
21
126.231625
0
LINE
8
Image
10
7.550903
20
126.231625
11
7.660252
21
128.406891
0
LINE
8
Image
10
7.660252
20
128.406891
11
7.904657
21
129.394721
0
LINE
8
Image
10
7.904657
20
129.394721
11
8.277230
21
130.289000
0
LINE
8
Image
10
8.277230
20
130.289000
11
8.945408
21
131.262672
0
LINE
8
Image
10
8.945408
20
131.262672
11
9.942714
21
132.307125
0
LINE
8
Image
10
9.942714
20
132.307125
11
11.176995
21
133.336766
0
LINE
8
Image
10
11.176995
20
133.336766
11
12.556100
21
134.266000
0
LINE
8
Image
10
12.556100
20
134.266000
11
16.239825
21
136.624750
0
LINE
8
Image
10
16.239825
20
136.624750
11
17.166266
21
137.398844
0
LINE
8
Image
10
17.166266
20
137.398844
11
17.648500
21
138.025000
0
LINE
8
Image
10
17.648500
20
138.025000
11
17.885534
21
138.728125
0
LINE
8
Image
10
17.885534
20
138.728125
11
17.804775
21
139.439500
0
LINE
8
Image
10
17.804775
20
139.439500
11
17.365478
21
140.280625
0
LINE
8
Image
10
17.365478
20
140.280625
11
16.526900
21
141.373000
0
LINE
8
Image
10
16.526900
20
141.373000
11
15.760438
21
142.490000
0
LINE
8
Image
10
15.760438
20
142.490000
11
15.578300
21
143.343000
0
LINE
8
Image
10
15.578300
20
143.343000
11
15.662807
21
143.733524
0
LINE
8
Image
10
15.662807
20
143.733524
11
15.857709
21
143.966909
0
LINE
8
Image
10
15.857709
20
143.966909
11
16.904390
21
144.163874
0
LINE
8
Image
10
16.904390
20
144.163874
11
17.596765
21
144.170422
0
LINE
8
Image
10
17.596765
20
144.170422
11
18.194031
21
144.046085
0
LINE
8
Image
10
18.194031
20
144.046085
11
19.651320
21
143.215548
0
LINE
8
Image
10
19.651320
20
143.215548
11
21.734344
21
141.549353
0
LINE
8
Image
10
21.734344
20
141.549353
11
22.500193
21
140.712014
0
LINE
8
Image
10
22.500193
20
140.712014
11
23.099926
21
139.841530
0
LINE
8
Image
10
23.099926
20
139.841530
11
23.546787
21
138.915163
0
LINE
8
Image
10
23.546787
20
138.915163
11
23.854020
21
137.910175
0
LINE
8
Image
10
23.854020
20
137.910175
11
24.102580
21
135.573378
0
LINE
8
Image
10
24.102580
20
135.573378
11
24.090377
21
134.245399
0
LINE
8
Image
10
24.090377
20
134.245399
11
23.952861
21
133.280718
0
LINE
8
Image
10
23.952861
20
133.280718
11
23.597203
21
132.316202
0
LINE
8
Image
10
23.597203
20
132.316202
11
22.930570
21
130.988718
0
LINE
8
Image
10
22.930570
20
130.988718
11
22.090886
21
129.241204
0
LINE
8
Image
10
22.090886
20
129.241204
11
21.772726
21
128.090590
0
LINE
8
Image
10
21.772726
20
128.090590
11
21.962933
21
127.341538
0
LINE
8
Image
10
21.962933
20
127.341538
11
22.648348
21
126.798708
0
LINE
8
Image
10
22.648348
20
126.798708
11
24.235909
21
126.380421
0
LINE
8
Image
10
24.235909
20
126.380421
11
26.491745
21
126.299371
0
LINE
8
Image
10
26.491745
20
126.299371
11
28.924909
21
126.538958
0
LINE
8
Image
10
28.924909
20
126.538958
11
31.044448
21
127.082583
0
LINE
8
Image
10
31.044448
20
127.082583
11
33.243315
21
127.777700
0
LINE
8
Image
10
33.243315
20
127.777700
11
35.603225
21
128.196908
0
LINE
8
Image
10
35.603225
20
128.196908
11
38.353297
21
128.366613
0
LINE
8
Image
10
38.353297
20
128.366613
11
41.722648
21
128.313223
0
LINE
8
Image
10
41.722648
20
128.313223
11
45.466518
21
128.063561
0
LINE
8
Image
10
45.466518
20
128.063561
11
48.259988
21
127.721416
0
LINE
8
Image
10
48.259988
20
127.721416
11
53.647292
21
126.599325
0
LINE
8
Image
10
53.647292
20
126.599325
11
57.708318
21
125.590516
0
LINE
8
Image
10
57.708318
20
125.590516
11
59.638359
21
125.139822
0
LINE
8
Image
10
59.638359
20
125.139822
11
61.056468
21
125.087255
0
LINE
8
Image
10
61.056468
20
125.087255
11
62.123375
21
125.453076
0
LINE
8
Image
10
62.123375
20
125.453076
11
62.999808
21
126.257545
0
LINE
8
Image
10
62.999808
20
126.257545
11
63.388516
21
126.998095
0
LINE
8
Image
10
63.388516
20
126.998095
11
63.437846
21
127.907756
0
LINE
8
Image
10
63.437846
20
127.907756
11
63.137258
21
129.073595
0
LINE
8
Image
10
63.137258
20
129.073595
11
62.476210
21
130.582675
0
LINE
8
Image
10
62.476210
20
130.582675
11
61.910160
21
131.784713
0
LINE
8
Image
10
61.910160
20
131.784713
11
61.619781
21
132.670610
0
LINE
8
Image
10
61.619781
20
132.670610
11
61.534700
21
133.576134
0
LINE
8
Image
10
61.534700
20
133.576134
11
61.584547
21
134.837055
0
LINE
8
Image
10
61.584547
20
134.837055
11
61.843402
21
136.829344
0
LINE
8
Image
10
61.843402
20
136.829344
11
62.387460
21
138.516966
0
LINE
8
Image
10
62.387460
20
138.516966
11
63.263752
21
140.005076
0
LINE
8
Image
10
63.263752
20
140.005076
11
64.519307
21
141.398825
0
LINE
8
Image
10
64.519307
20
141.398825
11
65.890358
21
142.526580
0
LINE
8
Image
10
65.890358
20
142.526580
11
66.371832
21
142.730043
0
LINE
8
Image
10
66.371832
20
142.730043
11
66.818737
21
142.752985
0
LINE
8
Image
10
66.818737
20
142.752985
11
67.242214
21
142.671619
0
LINE
8
Image
10
67.242214
20
142.671619
11
67.472253
21
142.484784
0
LINE
8
Image
10
67.472253
20
142.484784
11
67.575038
21
141.393945
0
LINE
8
Image
10
67.575038
20
141.393945
11
67.161854
21
138.776385
0
LINE
8
Image
10
67.161854
20
138.776385
11
66.911485
21
137.487850
0
LINE
8
Image
10
66.911485
20
137.487850
11
67.290598
21
136.454375
0
LINE
8
Image
10
67.290598
20
136.454375
11
68.190013
21
135.179049
0
LINE
8
Image
10
68.190013
20
135.179049
11
69.615518
21
133.481215
0
LINE
8
Image
10
69.615518
20
133.481215
11
72.255912
21
130.382528
0
LINE
8
Image
10
72.255912
20
130.382528
11
73.830665
21
127.992277
0
LINE
8
Image
10
73.830665
20
127.992277
11
74.296984
21
126.909293
0
LINE
8
Image
10
74.296984
20
126.909293
11
74.591164
21
125.819191
0
LINE
8
Image
10
74.591164
20
125.819191
11
74.788800
21
123.372000
0
LINE
8
Image
10
74.788800
20
123.372000
11
74.686547
21
121.554583
0
LINE
8
Image
10
74.686547
20
121.554583
11
74.372873
21
119.852005
0
LINE
8
Image
10
74.372873
20
119.852005
11
73.837402
21
118.223572
0
LINE
8
Image
10
73.837402
20
118.223572
11
73.069760
21
116.628590
0
LINE
8
Image
10
73.069760
20
116.628590
11
72.443957
21
115.357985
0
LINE
8
Image
10
72.443957
20
115.357985
11
72.517515
21
115.179767
0
LINE
8
Image
10
72.517515
20
115.179767
11
72.822074
21
115.146920
0
LINE
8
Image
10
72.822074
20
115.146920
11
73.607997
21
114.974829
0
LINE
8
Image
10
73.607997
20
114.974829
11
74.549745
21
114.548369
0
LINE
8
Image
10
74.549745
20
114.548369
11
75.399200
21
114.002259
0
LINE
8
Image
10
75.399200
20
114.002259
11
75.908244
21
113.471220
0
LINE
8
Image
10
75.908244
20
113.471220
11
76.184818
21
112.590222
0
LINE
8
Image
10
76.184818
20
112.590222
11
76.189536
21
111.595208
0
LINE
8
Image
10
76.189536
20
111.595208
11
75.938549
21
110.615669
0
LINE
8
Image
10
75.938549
20
110.615669
11
75.448008
21
109.781100
0
LINE
8
Image
10
75.448008
20
109.781100
11
74.978581
21
109.180561
0
LINE
8
Image
10
74.978581
20
109.180561
11
74.918471
21
108.960137
0
LINE
8
Image
10
74.918471
20
108.960137
11
75.009957
21
108.749731
0
LINE
8
Image
10
75.009957
20
108.749731
11
75.753302
21
108.229338
0
LINE
8
Image
10
75.753302
20
108.229338
11
77.419778
21
107.360110
0
LINE
8
Image
10
77.419778
20
107.360110
11
82.599851
21
105.048056
0
LINE
8
Image
10
82.599851
20
105.048056
11
87.794578
21
103.194470
0
LINE
8
Image
10
87.794578
20
103.194470
11
90.800641
21
102.486319
0
LINE
8
Image
10
90.800641
20
102.486319
11
95.058159
21
101.685177
0
LINE
8
Image
10
95.058159
20
101.685177
11
104.422078
21
100.308260
0
LINE
8
Image
10
104.422078
20
100.308260
11
107.206692
21
99.943815
0
LINE
8
Image
10
107.206692
20
99.943815
11
109.047193
21
99.540817
0
LINE
8
Image
10
109.047193
20
99.540817
11
110.396129
21
98.959621
0
LINE
8
Image
10
110.396129
20
98.959621
11
111.706048
21
98.060580
0
LINE
8
Image
10
111.706048
20
98.060580
11
113.704166
21
96.709167
0
LINE
8
Image
10
113.704166
20
96.709167
11
116.097768
21
95.343167
0
LINE
8
Image
10
116.097768
20
95.343167
11
118.435075
21
94.202007
0
LINE
8
Image
10
118.435075
20
94.202007
11
120.264308
21
93.525110
0
LINE
8
Image
10
120.264308
20
93.525110
11
121.615947
21
93.272675
0
LINE
8
Image
10
121.615947
20
93.272675
11
122.942889
21
93.205229
0
LINE
8
Image
10
122.942889
20
93.205229
11
124.221343
21
93.315344
0
LINE
8
Image
10
124.221343
20
93.315344
11
125.427517
21
93.595592
0
LINE
8
Image
10
125.427517
20
93.595592
11
126.537619
21
94.038544
0
LINE
8
Image
10
126.537619
20
94.038544
11
127.527858
21
94.636771
0
LINE
8
Image
10
127.527858
20
94.636771
11
128.374441
21
95.382846
0
LINE
8
Image
10
128.374441
20
95.382846
11
129.053578
21
96.269340
0
LINE
8
Image
10
129.053578
20
96.269340
11
129.641041
21
97.532139
0
LINE
8
Image
10
129.641041
20
97.532139
11
129.980344
21
98.950145
0
LINE
8
Image
10
129.980344
20
98.950145
11
130.054886
21
100.407998
0
LINE
8
Image
10
130.054886
20
100.407998
11
129.848067
21
101.790340
0
LINE
8
Image
10
129.848067
20
101.790340
11
129.462693
21
102.788187
0
LINE
8
Image
10
129.462693
20
102.788187
11
128.843078
21
103.836416
0
LINE
8
Image
10
128.843078
20
103.836416
11
126.988382
21
105.999011
0
LINE
8
Image
10
126.988382
20
105.999011
11
124.458485
21
108.108111
0
LINE
8
Image
10
124.458485
20
108.108111
11
121.427897
21
109.993700
0
LINE
8
Image
10
121.427897
20
109.993700
11
118.552113
21
111.669647
0
LINE
8
Image
10
118.552113
20
111.669647
11
116.789864
21
113.111763
0
LINE
8
Image
10
116.789864
20
113.111763
11
116.266605
21
113.810775
0
LINE
8
Image
10
116.266605
20
113.810775
11
115.950075
21
114.530099
0
LINE
8
Image
10
115.950075
20
114.530099
11
115.816391
21
115.295992
0
LINE
8
Image
10
115.816391
20
115.295992
11
115.841667
21
116.134710
0
LINE
8
Image
10
115.841667
20
116.134710
11
116.085730
21
119.380260
0
LINE
8
Image
10
116.085730
20
119.380260
11
116.246150
21
120.811776
0
LINE
8
Image
10
116.246150
20
120.811776
11
116.612011
21
121.962417
0
LINE
8
Image
10
116.612011
20
121.962417
11
117.247085
21
122.969662
0
LINE
8
Image
10
117.247085
20
122.969662
11
118.215140
21
123.970990
0
LINE
8
Image
10
118.215140
20
123.970990
11
119.429182
21
124.885796
0
LINE
8
Image
10
119.429182
20
124.885796
11
120.715892
21
125.383840
0
LINE
8
Image
10
120.715892
20
125.383840
11
122.334730
21
125.521929
0
LINE
8
Image
10
122.334730
20
125.521929
11
124.545150
21
125.356870
0
LINE
8
Image
10
124.545150
20
125.356870
11
127.011516
21
125.176055
0
LINE
8
Image
10
127.011516
20
125.176055
11
128.899820
21
125.205383
0
LINE
8
Image
10
128.899820
20
125.205383
11
130.148363
21
125.266624
0
LINE
8
Image
10
130.148363
20
125.266624
11
130.558894
21
125.167107
0
LINE
8
Image
10
130.558894
20
125.167107
11
130.852231
21
124.951306
0
LINE
8
Image
10
130.852231
20
124.951306
11
131.163229
21
124.082275
0
LINE
8
Image
10
131.163229
20
124.082275
11
131.233160
21
122.482373
0
LINE
8
Image
10
131.233160
20
122.482373
11
131.089739
21
120.421549
0
LINE
8
Image
10
131.089739
20
120.421549
11
130.456714
21
118.805093
0
LINE
8
Image
10
130.456714
20
118.805093
11
129.842114
21
117.853646
0
LINE
8
Image
10
129.842114
20
117.853646
11
129.055810
21
116.999373
0
LINE
8
Image
10
129.055810
20
116.999373
11
128.123538
21
116.255216
0
LINE
8
Image
10
128.123538
20
116.255216
11
127.071034
21
115.634119
0
LINE
8
Image
10
127.071034
20
115.634119
11
125.924034
21
115.149026
0
LINE
8
Image
10
125.924034
20
115.149026
11
124.708273
21
114.812880
0
LINE
8
Image
10
124.708273
20
114.812880
11
123.449488
21
114.638625
0
LINE
8
Image
10
123.449488
20
114.638625
11
122.173414
21
114.639203
0
LINE
8
Image
10
122.173414
20
114.639203
11
121.068798
21
114.643524
0
LINE
8
Image
10
121.068798
20
114.643524
11
120.832507
21
114.560031
0
LINE
8
Image
10
120.832507
20
114.560031
11
120.809544
21
114.413816
0
LINE
8
Image
10
120.809544
20
114.413816
11
121.411553
21
113.916349
0
LINE
8
Image
10
121.411553
20
113.916349
11
122.890724
21
113.117393
0
LINE
8
Image
10
122.890724
20
113.117393
11
126.513302
21
111.005173
0
LINE
8
Image
10
126.513302
20
111.005173
11
129.668386
21
108.570623
0
LINE
8
Image
10
129.668386
20
108.570623
11
132.170315
21
105.978708
0
LINE
8
Image
10
132.170315
20
105.978708
11
133.118326
21
104.675290
0
LINE
8
Image
10
133.118326
20
104.675290
11
133.833424
21
103.394393
0
LINE
8
Image
10
133.833424
20
103.394393
11
134.574313
21
101.413393
0
LINE
8
Image
10
134.574313
20
101.413393
11
134.716787
21
99.208173
0
LINE
8
Image
10
134.716787
20
99.208173
11
134.552760
21
97.103650
0
LINE
8
Image
10
134.552760
20
97.103650
11
134.059466
21
95.284987
0
LINE
8
Image
10
134.059466
20
95.284987
11
133.186893
21
93.624797
0
LINE
8
Image
10
133.186893
20
93.624797
11
131.885027
21
91.995693
0
LINE
8
Image
10
131.885027
20
91.995693
11
130.357893
21
90.618672
0
LINE
8
Image
10
130.357893
20
90.618672
11
128.556255
21
89.450738
0
LINE
8
Image
10
128.556255
20
89.450738
11
126.591120
21
88.552774
0
LINE
8
Image
10
126.591120
20
88.552774
11
124.573497
21
87.985663
0
LINE
8
Image
10
124.573497
20
87.985663
11
122.875967
21
87.663063
0
LINE
8
Image
10
122.875967
20
87.663063
11
124.364607
21
85.684233
0
LINE
8
Image
10
124.364607
20
85.684233
11
125.851485
21
83.435533
0
LINE
8
Image
10
125.851485
20
83.435533
11
127.274432
21
80.794619
0
LINE
8
Image
10
127.274432
20
80.794619
11
128.491436
21
78.051138
0
LINE
8
Image
10
128.491436
20
78.051138
11
129.360487
21
75.494733
0
LINE
8
Image
10
129.360487
20
75.494733
11
131.037367
21
68.406013
0
LINE
8
Image
10
131.037367
20
68.406013
11
132.035943
21
64.431230
0
LINE
8
Image
10
132.035943
20
64.431230
11
133.060957
21
61.350463
0
LINE
8
Image
10
133.060957
20
61.350463
11
134.527642
21
57.704550
0
LINE
8
Image
10
134.527642
20
57.704550
11
135.366286
21
55.110145
0
LINE
8
Image
10
135.366286
20
55.110145
11
135.796207
21
52.702450
0
LINE
8
Image
10
135.796207
20
52.702450
11
136.036727
21
49.616663
0
LINE
8
Image
10
136.036727
20
49.616663
11
136.768709
21
40.499153
0
LINE
8
Image
10
136.768709
20
40.499153
11
137.051277
21
36.524842
0
LINE
8
Image
10
137.051277
20
36.524842
11
137.024723
21
33.114112
0
LINE
8
Image
10
137.024723
20
33.114112
11
136.681995
21
30.249303
0
LINE
8
Image
10
136.681995
20
30.249303
11
136.016039
21
27.912753
0
LINE
8
Image
10
136.016039
20
27.912753
11
135.019804
21
26.086803
0
LINE
8
Image
10
135.019804
20
26.086803
11
133.686237
21
24.753794
0
LINE
8
Image
10
133.686237
20
24.753794
11
132.008286
21
23.896064
0
LINE
8
Image
10
132.008286
20
23.896064
11
129.978899
21
23.495953
0
LINE
8
Image
10
129.978899
20
23.495953
11
127.634709
21
23.499840
0
LINE
8
Image
10
127.634709
20
23.499840
11
126.731805
21
23.671075
0
LINE
8
Image
10
126.731805
20
23.671075
11
126.003120
21
23.957988
0
LINE
8
Image
10
126.003120
20
23.957988
11
125.444723
21
24.362690
0
LINE
8
Image
10
125.444723
20
24.362690
11
125.052683
21
24.887296
0
LINE
8
Image
10
125.052683
20
24.887296
11
124.823069
21
25.533916
0
LINE
8
Image
10
124.823069
20
25.533916
11
124.751949
21
26.304663
0
LINE
8
Image
10
124.751949
20
26.304663
11
125.142795
21
29.292793
0
LINE
8
Image
10
125.142795
20
29.292793
11
125.356652
21
31.049148
0
LINE
8
Image
10
125.356652
20
31.049148
11
125.305217
21
32.967244
0
LINE
8
Image
10
125.305217
20
32.967244
11
125.000113
21
34.920863
0
LINE
8
Image
10
125.000113
20
34.920863
11
124.452963
21
36.783783
0
LINE
8
Image
10
124.452963
20
36.783783
11
123.910491
21
38.005750
0
LINE
8
Image
10
123.910491
20
38.005750
11
123.205172
21
39.209463
0
LINE
8
Image
10
123.205172
20
39.209463
11
121.317245
21
41.550435
0
LINE
8
Image
10
121.317245
20
41.550435
11
118.811687
21
43.783311
0
LINE
8
Image
10
118.811687
20
43.783311
11
115.711000
21
45.884700
0
LINE
8
Image
10
115.711000
20
45.884700
11
113.795971
21
46.883230
0
LINE
8
Image
10
113.795971
20
46.883230
11
113.129846
21
47.055426
0
LINE
8
Image
10
113.129846
20
47.055426
11
112.492710
21
47.070470
0
LINE
8
Image
10
112.492710
20
47.070470
11
111.391080
21
46.990313
0
LINE
8
Image
10
111.391080
20
46.990313
11
110.744487
21
44.615513
0
LINE
8
Image
10
110.744487
20
44.615513
11
109.719016
21
41.278472
0
LINE
8
Image
10
109.719016
20
41.278472
11
108.529465
21
38.049385
0
LINE
8
Image
10
108.529465
20
38.049385
11
107.364644
21
35.399712
0
LINE
8
Image
10
107.364644
20
35.399712
11
106.413367
21
33.800913
0
LINE
8
Image
10
106.413367
20
33.800913
11
105.261113
21
32.722544
0
LINE
8
Image
10
105.261113
20
32.722544
11
103.907598
21
31.951180
0
LINE
8
Image
10
103.907598
20
31.951180
11
102.356655
21
31.488449
0
LINE
8
Image
10
102.356655
20
31.488449
11
100.612117
21
31.335983
0
LINE
8
Image
10
100.612117
20
31.335983
11
99.312591
21
31.413454
0
LINE
8
Image
10
99.312591
20
31.413454
11
98.177723
21
31.632738
0
LINE
8
Image
10
98.177723
20
31.632738
11
97.223249
21
31.981349
0
LINE
8
Image
10
97.223249
20
31.981349
11
96.464907
21
32.446803
0
LINE
8
Image
10
96.464907
20
32.446803
11
95.918432
21
33.016615
0
LINE
8
Image
10
95.918432
20
33.016615
11
95.599561
21
33.678299
0
LINE
8
Image
10
95.599561
20
33.678299
11
95.524031
21
34.419370
0
LINE
8
Image
10
95.524031
20
34.419370
11
95.707577
21
35.227343
0
LINE
8
Image
10
95.707577
20
35.227343
11
96.308541
21
36.173318
0
LINE
8
Image
10
96.308541
20
36.173318
11
97.360837
21
37.415133
0
LINE
8
Image
10
97.360837
20
37.415133
11
98.334822
21
38.615215
0
LINE
8
Image
10
98.334822
20
38.615215
11
98.954406
21
39.824783
0
LINE
8
Image
10
98.954406
20
39.824783
11
99.258463
21
41.150541
0
LINE
8
Image
10
99.258463
20
41.150541
11
99.285867
21
42.699193
0
LINE
8
Image
10
99.285867
20
42.699193
11
99.102319
21
43.964583
0
LINE
8
Image
10
99.102319
20
43.964583
11
98.841282
21
44.099905
0
LINE
8
Image
10
98.841282
20
44.099905
11
98.355525
21
44.068283
0
LINE
8
Image
10
98.355525
20
44.068283
11
95.106616
21
43.341864
0
LINE
8
Image
10
95.106616
20
43.341864
11
92.080975
21
42.302473
0
LINE
8
Image
10
92.080975
20
42.302473
11
91.131658
21
41.716713
0
LINE
8
Image
10
91.131658
20
41.716713
11
90.555555
21
41.134403
0
LINE
8
Image
10
90.555555
20
41.134403
11
90.343489
21
38.023961
0
LINE
8
Image
10
90.343489
20
38.023961
11
90.287179
21
31.513786
0
LINE
8
Image
10
90.287179
20
31.513786
11
90.379813
21
24.197569
0
LINE
8
Image
10
90.379813
20
24.197569
11
90.614573
21
18.669003
0
LINE
8
Image
10
90.614573
20
18.669003
11
90.898177
21
15.848573
0
LINE
8
Image
10
90.898177
20
15.848573
11
91.282677
21
13.474020
0
LINE
8
Image
10
91.282677
20
13.474020
11
91.827312
21
11.252296
0
LINE
8
Image
10
91.827312
20
11.252296
11
92.591323
21
8.890353
0
LINE
8
Image
10
92.591323
20
8.890353
11
93.357477
21
6.061452
0
LINE
8
Image
10
93.357477
20
6.061452
11
93.485507
21
4.863580
0
LINE
8
Image
10
93.485507
20
4.863580
11
93.442591
21
3.803011
0
LINE
8
Image
10
93.442591
20
3.803011
11
93.228040
21
2.874433
0
LINE
8
Image
10
93.228040
20
2.874433
11
92.841166
21
2.072535
0
LINE
8
Image
10
92.841166
20
2.072535
11
92.281283
21
1.392006
0
LINE
8
Image
10
92.281283
20
1.392006
11
91.547703
21
0.827533
0
LINE
8
Image
10
91.547703
20
0.827533
11
90.915536
21
0.577286
0
LINE
8
Image
10
90.915536
20
0.577286
11
89.998393
21
0.398462
0
LINE
8
Image
10
89.998393
20
0.398462
11
87.644303
21
0.255134
0
LINE
8
Image
10
87.644303
20
0.255134
11
85.155678
21
0.397652
0
LINE
8
Image
10
85.155678
20
0.397652
11
83.202763
21
0.826122
0
LINE
8
Image
10
83.202763
20
0.826122
11
83.202800
21
0.826149
0
LINE
8
Image
10
90.782990
20
1.273620
11
91.528026
21
1.680463
0
LINE
8
Image
10
91.528026
20
1.680463
11
92.095605
21
2.212970
0
LINE
8
Image
10
92.095605
20
2.212970
11
92.487258
21
2.881593
0
LINE
8
Image
10
92.487258
20
2.881593
11
92.704516
21
3.696786
0
LINE
8
Image
10
92.704516
20
3.696786
11
92.748909
21
4.669002
0
LINE
8
Image
10
92.748909
20
4.669002
11
92.621967
21
5.808694
0
LINE
8
Image
10
92.621967
20
5.808694
11
91.860200
21
8.632320
0
LINE
8
Image
10
91.860200
20
8.632320
11
90.843049
21
11.915931
0
LINE
8
Image
10
90.843049
20
11.915931
11
90.264380
21
15.244718
0
LINE
8
Image
10
90.264380
20
15.244718
11
89.958801
21
20.160831
0
LINE
8
Image
10
89.958801
20
20.160831
11
89.760920
21
28.206420
0
LINE
8
Image
10
89.760920
20
28.206420
11
89.655844
21
37.035966
0
LINE
8
Image
10
89.655844
20
37.035966
11
89.741898
21
41.047520
0
LINE
8
Image
10
89.741898
20
41.047520
11
90.042333
21
41.589963
0
LINE
8
Image
10
90.042333
20
41.589963
11
90.527193
21
42.101089
0
LINE
8
Image
10
90.527193
20
42.101089
11
92.145498
21
43.111220
0
LINE
8
Image
10
92.145498
20
43.111220
11
93.515047
21
43.653386
0
LINE
8
Image
10
93.515047
20
43.653386
11
95.245776
21
44.151488
0
LINE
8
Image
10
95.245776
20
44.151488
11
97.013865
21
44.524871
0
LINE
8
Image
10
97.013865
20
44.524871
11
98.495498
21
44.692880
0
LINE
8
Image
10
98.495498
20
44.692880
11
99.765498
21
44.732546
0
LINE
8
Image
10
99.765498
20
44.732546
11
99.854505
21
42.615886
0
LINE
8
Image
10
99.854505
20
42.615886
11
99.835613
21
40.740330
0
LINE
8
Image
10
99.835613
20
40.740330
11
99.552020
21
39.304555
0
LINE
8
Image
10
99.552020
20
39.304555
11
98.936022
21
38.110654
0
LINE
8
Image
10
98.936022
20
38.110654
11
97.919915
21
36.960716
0
LINE
8
Image
10
97.919915
20
36.960716
11
96.740693
21
35.614834
0
LINE
8
Image
10
96.740693
20
35.614834
11
96.268314
21
34.499893
0
LINE
8
Image
10
96.268314
20
34.499893
11
96.295192
21
34.012227
0
LINE
8
Image
10
96.295192
20
34.012227
11
96.496381
21
33.562141
0
LINE
8
Image
10
96.496381
20
33.562141
11
97.418494
21
32.747826
0
LINE
8
Image
10
97.418494
20
32.747826
11
98.476085
21
32.269722
0
LINE
8
Image
10
98.476085
20
32.269722
11
99.690672
21
32.009780
0
LINE
8
Image
10
99.690672
20
32.009780
11
101.011972
21
31.973868
0
LINE
8
Image
10
101.011972
20
31.973868
11
102.389704
21
32.167851
0
LINE
8
Image
10
102.389704
20
32.167851
11
103.931337
21
32.728923
0
LINE
8
Image
10
103.931337
20
32.728923
11
105.389164
21
33.968951
0
LINE
8
Image
10
105.389164
20
33.968951
11
106.185474
21
34.847699
0
LINE
8
Image
10
106.185474
20
34.847699
11
106.793482
21
35.768459
0
LINE
8
Image
10
106.793482
20
35.768459
11
108.091044
21
38.920801
0
LINE
8
Image
10
108.091044
20
38.920801
11
110.071714
21
44.988571
0
LINE
8
Image
10
110.071714
20
44.988571
11
110.782391
21
47.554781
0
LINE
8
Image
10
110.782391
20
47.554781
11
112.169671
21
47.642916
0
LINE
8
Image
10
112.169671
20
47.642916
11
113.392739
21
47.664135
0
LINE
8
Image
10
113.392739
20
47.664135
11
114.408609
21
47.447019
0
LINE
8
Image
10
114.408609
20
47.447019
11
115.606718
21
46.848008
0
LINE
8
Image
10
115.606718
20
46.848008
11
117.376501
21
45.723546
0
LINE
8
Image
10
117.376501
20
45.723546
11
119.264137
21
44.392405
0
LINE
8
Image
10
119.264137
20
44.392405
11
120.897361
21
43.039771
0
LINE
8
Image
10
120.897361
20
43.039771
11
122.286615
21
41.650920
0
LINE
8
Image
10
122.286615
20
41.650920
11
123.442336
21
40.211126
0
LINE
8
Image
10
123.442336
20
40.211126
11
124.374967
21
38.705667
0
LINE
8
Image
10
124.374967
20
38.705667
11
125.094946
21
37.119816
0
LINE
8
Image
10
125.094946
20
37.119816
11
125.612715
21
35.438851
0
LINE
8
Image
10
125.612715
20
35.438851
11
125.938711
21
33.648046
0
LINE
8
Image
10
125.938711
20
33.648046
11
126.123756
21
31.084133
0
LINE
8
Image
10
126.123756
20
31.084133
11
125.778536
21
28.684566
0
LINE
8
Image
10
125.778536
20
28.684566
11
125.488818
21
26.457068
0
LINE
8
Image
10
125.488818
20
26.457068
11
125.570820
21
25.671661
0
LINE
8
Image
10
125.570820
20
25.671661
11
125.823560
21
25.076295
0
LINE
8
Image
10
125.823560
20
25.076295
11
126.261661
21
24.649332
0
LINE
8
Image
10
126.261661
20
24.649332
11
126.899745
21
24.369132
0
LINE
8
Image
10
126.899745
20
24.369132
11
128.834356
21
24.162466
0
LINE
8
Image
10
128.834356
20
24.162466
11
131.111616
21
24.424529
0
LINE
8
Image
10
131.111616
20
24.424529
11
132.101420
21
24.761272
0
LINE
8
Image
10
132.101420
20
24.761272
11
132.989631
21
25.233625
0
LINE
8
Image
10
132.989631
20
25.233625
11
133.774466
21
25.840437
0
LINE
8
Image
10
133.774466
20
25.840437
11
134.454142
21
26.580560
0
LINE
8
Image
10
134.454142
20
26.580560
11
135.026876
21
27.452842
0
LINE
8
Image
10
135.026876
20
27.452842
11
135.490886
21
28.456136
0
LINE
8
Image
10
135.490886
20
28.456136
11
136.004383
21
30.635130
0
LINE
8
Image
10
136.004383
20
30.635130
11
136.253263
21
33.706698
0
LINE
8
Image
10
136.253263
20
33.706698
11
136.232528
21
37.520010
0
LINE
8
Image
10
136.232528
20
37.520010
11
135.937178
21
41.924236
0
LINE
8
Image
10
135.937178
20
41.924236
11
135.325448
21
49.812566
0
LINE
8
Image
10
135.325448
20
49.812566
11
135.109576
21
52.460909
0
LINE
8
Image
10
135.109576
20
52.460909
11
134.713155
21
54.688943
0
LINE
8
Image
10
134.713155
20
54.688943
11
134.035454
21
56.914316
0
LINE
8
Image
10
134.035454
20
56.914316
11
132.975738
21
59.554676
0
LINE
8
Image
10
132.975738
20
59.554676
11
132.043362
21
61.915476
0
LINE
8
Image
10
132.043362
20
61.915476
11
131.224961
21
64.503975
0
LINE
8
Image
10
131.224961
20
64.503975
11
129.398928
21
72.249176
0
LINE
8
Image
10
129.398928
20
72.249176
11
128.441132
21
75.991294
0
LINE
8
Image
10
128.441132
20
75.991294
11
127.216505
21
79.284046
0
LINE
8
Image
10
127.216505
20
79.284046
11
125.600432
21
82.408964
0
LINE
8
Image
10
125.600432
20
82.408964
11
123.468298
21
85.647576
0
LINE
8
Image
10
123.468298
20
85.647576
11
122.418562
21
87.264823
0
LINE
8
Image
10
122.418562
20
87.264823
11
122.115158
21
88.058276
0
LINE
8
Image
10
122.115158
20
88.058276
11
124.417778
21
88.722404
0
LINE
8
Image
10
124.417778
20
88.722404
11
125.880730
21
89.123063
0
LINE
8
Image
10
125.880730
20
89.123063
11
127.267805
21
89.658419
0
LINE
8
Image
10
127.267805
20
89.658419
11
128.564522
21
90.317924
0
LINE
8
Image
10
128.564522
20
90.317924
11
129.756397
21
91.091030
0
LINE
8
Image
10
129.756397
20
91.091030
11
130.828949
21
91.967190
0
LINE
8
Image
10
130.828949
20
91.967190
11
131.767694
21
92.935856
0
LINE
8
Image
10
131.767694
20
92.935856
11
132.558152
21
93.986480
0
LINE
8
Image
10
132.558152
20
93.986480
11
133.185838
21
95.108514
0
LINE
8
Image
10
133.185838
20
95.108514
11
133.780281
21
96.842306
0
LINE
8
Image
10
133.780281
20
96.842306
11
133.911352
21
99.201394
0
LINE
8
Image
10
133.911352
20
99.201394
11
133.762986
21
101.620003
0
LINE
8
Image
10
133.762986
20
101.620003
11
133.484958
21
102.483741
0
LINE
8
Image
10
133.484958
20
102.483741
11
132.985926
21
103.513484
0
LINE
8
Image
10
132.985926
20
103.513484
11
132.286616
21
104.671822
0
LINE
8
Image
10
132.286616
20
104.671822
11
131.395717
21
105.834597
0
LINE
8
Image
10
131.395717
20
105.834597
11
129.076308
21
108.141619
0
LINE
8
Image
10
129.076308
20
108.141619
11
126.102008
21
110.370874
0
LINE
8
Image
10
126.102008
20
110.370874
11
122.547126
21
112.458684
0
LINE
8
Image
10
122.547126
20
112.458684
11
120.287428
21
113.925992
0
LINE
8
Image
10
120.287428
20
113.925992
11
119.514921
21
114.664276
0
LINE
8
Image
10
119.514921
20
114.664276
11
119.050196
21
115.348174
0
LINE
8
Image
10
119.050196
20
115.348174
11
117.904586
21
116.532894
0
LINE
8
Image
10
117.904586
20
116.532894
11
116.860446
21
117.495517
0
LINE
8
Image
10
116.860446
20
117.495517
11
116.559476
21
116.703908
0
LINE
8
Image
10
116.559476
20
116.703908
11
116.397745
21
116.023246
0
LINE
8
Image
10
116.397745
20
116.023246
11
116.435168
21
115.345152
0
LINE
8
Image
10
116.435168
20
115.345152
11
116.675875
21
114.664442
0
LINE
8
Image
10
116.675875
20
114.664442
11
117.123996
21
113.975936
0
LINE
8
Image
10
117.123996
20
113.975936
11
118.659002
21
112.554802
0
LINE
8
Image
10
118.659002
20
112.554802
11
121.073226
21
111.040288
0
LINE
8
Image
10
121.073226
20
111.040288
11
124.321936
21
109.067555
0
LINE
8
Image
10
124.321936
20
109.067555
11
126.947325
21
107.075405
0
LINE
8
Image
10
126.947325
20
107.075405
11
128.895912
21
105.110114
0
LINE
8
Image
10
128.895912
20
105.110114
11
130.114216
21
103.217958
0
LINE
8
Image
10
130.114216
20
103.217958
11
130.528162
21
101.733919
0
LINE
8
Image
10
130.528162
20
101.733919
11
130.671020
21
99.923718
0
LINE
8
Image
10
130.671020
20
99.923718
11
130.541551
21
98.121497
0
LINE
8
Image
10
130.541551
20
98.121497
11
130.138516
21
96.661398
0
LINE
8
Image
10
130.138516
20
96.661398
11
129.567609
21
95.664527
0
LINE
8
Image
10
129.567609
20
95.664527
11
128.821017
21
94.768035
0
LINE
8
Image
10
128.821017
20
94.768035
11
127.914163
21
93.987562
0
LINE
8
Image
10
127.914163
20
93.987562
11
126.862466
21
93.338748
0
LINE
8
Image
10
126.862466
20
93.338748
11
125.349503
21
92.845257
0
LINE
8
Image
10
125.349503
20
92.845257
11
123.412153
21
92.611980
0
LINE
8
Image
10
123.412153
20
92.611980
11
121.358144
21
92.653687
0
LINE
8
Image
10
121.358144
20
92.653687
11
119.495206
21
92.985146
0
LINE
8
Image
10
119.495206
20
92.985146
11
117.666400
21
93.734079
0
LINE
8
Image
10
117.666400
20
93.734079
11
115.201527
21
94.991613
0
LINE
8
Image
10
115.201527
20
94.991613
11
112.783989
21
96.386486
0
LINE
8
Image
10
112.783989
20
96.386486
11
111.097186
21
97.547436
0
LINE
8
Image
10
111.097186
20
97.547436
11
110.032240
21
98.315170
0
LINE
8
Image
10
110.032240
20
98.315170
11
108.771053
21
98.834686
0
LINE
8
Image
10
108.771053
20
98.834686
11
106.886913
21
99.230116
0
LINE
8
Image
10
106.886913
20
99.230116
11
103.953106
21
99.625586
0
LINE
8
Image
10
103.953106
20
99.625586
11
98.687161
21
100.339562
0
LINE
8
Image
10
98.687161
20
100.339562
11
93.843349
21
101.139078
0
LINE
8
Image
10
93.843349
20
101.139078
11
89.755191
21
101.963495
0
LINE
8
Image
10
89.755191
20
101.963495
11
86.756206
21
102.752176
0
LINE
8
Image
10
86.756206
20
102.752176
11
82.715859
21
104.219061
0
LINE
8
Image
10
82.715859
20
104.219061
11
78.622642
21
105.967708
0
LINE
8
Image
10
78.622642
20
105.967708
11
75.349132
21
107.597902
0
LINE
8
Image
10
75.349132
20
107.597902
11
74.292447
21
108.243511
0
LINE
8
Image
10
74.292447
20
108.243511
11
73.767906
21
108.709426
0
LINE
8
Image
10
73.767906
20
108.709426
11
73.837855
21
109.108300
0
LINE
8
Image
10
73.837855
20
109.108300
11
74.302116
21
109.619773
0
LINE
8
Image
10
74.302116
20
109.619773
11
74.891501
21
110.242626
0
LINE
8
Image
10
74.891501
20
110.242626
11
75.309353
21
110.984290
0
LINE
8
Image
10
75.309353
20
110.984290
11
75.515098
21
111.746893
0
LINE
8
Image
10
75.515098
20
111.746893
11
75.468166
21
112.432563
0
LINE
8
Image
10
75.468166
20
112.432563
11
75.178581
21
113.086049
0
LINE
8
Image
10
75.178581
20
113.086049
11
74.733782
21
113.595816
0
LINE
8
Image
10
74.733782
20
113.595816
11
74.099583
21
113.990523
0
LINE
8
Image
10
74.099583
20
113.990523
11
73.241796
21
114.298823
0
LINE
8
Image
10
73.241796
20
114.298823
11
72.005266
21
114.645028
0
LINE
8
Image
10
72.005266
20
114.645028
11
70.432006
21
113.363458
0
LINE
8
Image
10
70.432006
20
113.363458
11
68.132912
21
111.755859
0
LINE
8
Image
10
68.132912
20
111.755859
11
65.808376
21
110.719938
0
LINE
8
Image
10
65.808376
20
110.719938
11
63.270180
21
110.195292
0
LINE
8
Image
10
63.270180
20
110.195292
11
60.330106
21
110.121518
0
LINE
8
Image
10
60.330106
20
110.121518
11
57.634008
21
110.368482
0
LINE
8
Image
10
57.634008
20
110.368482
11
56.721359
21
110.649493
0
LINE
8
Image
10
56.721359
20
110.649493
11
55.727106
21
111.115854
0
LINE
8
Image
10
55.727106
20
111.115854
11
54.200241
21
112.050957
0
LINE
8
Image
10
54.200241
20
112.050957
11
52.870091
21
113.181108
0
LINE
8
Image
10
52.870091
20
113.181108
11
51.756503
21
114.486525
0
LINE
8
Image
10
51.756503
20
114.486525
11
50.879326
21
115.947424
0
LINE
8
Image
10
50.879326
20
115.947424
11
50.455451
21
116.898304
0
LINE
8
Image
10
50.455451
20
116.898304
11
50.219103
21
117.784803
0
LINE
8
Image
10
50.219103
20
117.784803
11
50.094400
21
120.650000
0
LINE
8
Image
10
50.094400
20
120.650000
11
50.207716
21
123.438874
0
LINE
8
Image
10
50.207716
20
123.438874
11
50.414591
21
124.217953
0
LINE
8
Image
10
50.414591
20
124.217953
11
50.779593
21
124.950730
0
LINE
8
Image
10
50.779593
20
124.950730
11
51.344037
21
126.266140
0
LINE
8
Image
10
51.344037
20
126.266140
11
50.388363
21
126.572712
0
LINE
8
Image
10
50.388363
20
126.572712
11
48.374391
21
126.940326
0
LINE
8
Image
10
48.374391
20
126.940326
11
43.264077
21
127.531090
0
LINE
8
Image
10
43.264077
20
127.531090
11
38.493019
21
127.640078
0
LINE
8
Image
10
38.493019
20
127.640078
11
36.381848
21
127.500414
0
LINE
8
Image
10
36.381848
20
127.500414
11
34.419176
21
127.225059
0
LINE
8
Image
10
34.419176
20
127.225059
11
32.579197
21
126.809323
0
LINE
8
Image
10
32.579197
20
126.809323
11
30.836108
21
126.248516
0
LINE
8
Image
10
30.836108
20
126.248516
11
29.164103
21
125.537948
0
LINE
8
Image
10
29.164103
20
125.537948
11
27.537377
21
124.672930
0
LINE
8
Image
10
27.537377
20
124.672930
11
25.719603
21
123.413924
0
LINE
8
Image
10
25.719603
20
123.413924
11
23.948432
21
121.829324
0
LINE
8
Image
10
23.948432
20
121.829324
11
22.359556
21
120.054784
0
LINE
8
Image
10
22.359556
20
120.054784
11
21.088667
21
118.225960
0
LINE
8
Image
10
21.088667
20
118.225960
11
20.177719
21
116.425584
0
LINE
8
Image
10
20.177719
20
116.425584
11
19.397091
21
114.347343
0
LINE
8
Image
10
19.397091
20
114.347343
11
18.749800
21
112.009639
0
LINE
8
Image
10
18.749800
20
112.009639
11
18.238864
21
109.430875
0
LINE
8
Image
10
18.238864
20
109.430875
11
17.867302
21
106.629453
0
LINE
8
Image
10
17.867302
20
106.629453
11
17.638132
21
103.623775
0
LINE
8
Image
10
17.638132
20
103.623775
11
17.619037
21
97.073260
0
LINE
8
Image
10
17.619037
20
97.073260
11
17.680679
21
93.265833
0
LINE
8
Image
10
17.680679
20
93.265833
11
17.511508
21
91.005490
0
LINE
8
Image
10
17.511508
20
91.005490
11
16.700566
21
88.825744
0
LINE
8
Image
10
16.700566
20
88.825744
11
15.168668
21
85.550970
0
LINE
8
Image
10
15.168668
20
85.550970
11
13.123300
21
81.496700
0
LINE
8
Image
10
13.123300
20
81.496700
11
13.125163
21
78.636840
0
LINE
8
Image
10
13.125163
20
78.636840
11
13.213752
21
76.620556
0
LINE
8
Image
10
13.213752
20
76.620556
11
13.529286
21
74.998494
0
LINE
8
Image
10
13.529286
20
74.998494
11
14.150858
21
73.507927
0
LINE
8
Image
10
14.150858
20
73.507927
11
15.157563
21
71.886130
0
LINE
8
Image
10
15.157563
20
71.886130
11
16.567513
21
70.366459
0
LINE
8
Image
10
16.567513
20
70.366459
11
18.658734
21
68.792879
0
LINE
8
Image
10
18.658734
20
68.792879
11
21.218999
21
67.305067
0
LINE
8
Image
10
21.218999
20
67.305067
11
24.036083
21
66.042700
0
LINE
8
Image
10
24.036083
20
66.042700
11
25.920529
21
65.539817
0
LINE
8
Image
10
25.920529
20
65.539817
11
28.388714
21
65.177692
0
LINE
8
Image
10
28.388714
20
65.177692
11
31.032386
21
64.999477
0
LINE
8
Image
10
31.032386
20
64.999477
11
33.443293
21
65.048325
0
LINE
8
Image
10
33.443293
20
65.048325
11
35.690675
21
65.310595
0
LINE
8
Image
10
35.690675
20
65.310595
11
37.637553
21
65.719000
0
LINE
8
Image
10
37.637553
20
65.719000
11
39.321879
21
66.298102
0
LINE
8
Image
10
39.321879
20
66.298102
11
40.781606
21
67.072462
0
LINE
8
Image
10
40.781606
20
67.072462
11
42.054688
21
68.066642
0
LINE
8
Image
10
42.054688
20
68.066642
11
43.179078
21
69.305203
0
LINE
8
Image
10
43.179078
20
69.305203
11
44.192728
21
70.812707
0
LINE
8
Image
10
44.192728
20
70.812707
11
45.133593
21
72.613715
0
LINE
8
Image
10
45.133593
20
72.613715
11
46.123390
21
74.568999
0
LINE
8
Image
10
46.123390
20
74.568999
11
47.303713
21
76.159972
0
LINE
8
Image
10
47.303713
20
76.159972
11
49.344721
21
78.126797
0
LINE
8
Image
10
49.344721
20
78.126797
11
52.916573
21
81.209635
0
LINE
8
Image
10
52.916573
20
81.209635
11
55.359253
21
83.367786
0
LINE
8
Image
10
55.359253
20
83.367786
11
57.262276
21
85.253132
0
LINE
8
Image
10
57.262276
20
85.253132
11
58.867675
21
87.124862
0
LINE
8
Image
10
58.867675
20
87.124862
11
60.417483
21
89.242165
0
LINE
8
Image
10
60.417483
20
89.242165
11
61.517438
21
90.694930
0
LINE
8
Image
10
61.517438
20
90.694930
11
62.172103
21
91.299175
0
LINE
8
Image
10
62.172103
20
91.299175
11
62.566851
21
90.946408
0
LINE
8
Image
10
62.566851
20
90.946408
11
62.903780
21
90.071350
0
LINE
8
Image
10
62.903780
20
90.071350
11
63.108375
21
88.948867
0
LINE
8
Image
10
63.108375
20
88.948867
11
63.106122
21
87.853825
0
LINE
8
Image
10
63.106122
20
87.853825
11
62.885144
21
86.826430
0
LINE
8
Image
10
62.885144
20
86.826430
11
62.481748
21
85.764460
0
LINE
8
Image
10
62.481748
20
85.764460
11
61.077597
21
83.469844
0
LINE
8
Image
10
61.077597
20
83.469844
11
58.793453
21
80.836068
0
LINE
8
Image
10
58.793453
20
80.836068
11
55.529102
21
77.729225
0
LINE
8
Image
10
55.529102
20
77.729225
11
53.507702
21
75.836334
0
LINE
8
Image
10
53.507702
20
75.836334
11
51.920304
21
74.084329
0
LINE
8
Image
10
51.920304
20
74.084329
11
50.417068
21
72.043932
0
LINE
8
Image
10
50.417068
20
72.043932
11
48.648152
21
69.285865
0
LINE
8
Image
10
48.648152
20
69.285865
11
46.893434
21
66.694852
0
LINE
8
Image
10
46.893434
20
66.694852
11
45.373722
21
64.824815
0
LINE
8
Image
10
45.373722
20
64.824815
11
44.109115
21
63.767539
0
LINE
8
Image
10
44.109115
20
63.767539
11
42.551859
21
62.819650
0
LINE
8
Image
10
42.551859
20
62.819650
11
40.763472
21
62.013406
0
LINE
8
Image
10
40.763472
20
62.013406
11
38.805472
21
61.381065
0
LINE
8
Image
10
38.805472
20
61.381065
11
36.643930
21
60.992950
0
LINE
8
Image
10
36.643930
20
60.992950
11
33.962090
21
60.778661
0
LINE
8
Image
10
33.962090
20
60.778661
11
31.135116
21
60.754442
0
LINE
8
Image
10
31.135116
20
60.754442
11
28.538172
21
60.936534
0
LINE
8
Image
10
28.538172
20
60.936534
11
26.617114
21
61.115710
0
LINE
8
Image
10
26.617114
20
61.115710
11
25.715952
21
61.088028
0
LINE
8
Image
10
25.715952
20
61.088028
11
25.563416
21
57.479458
0
LINE
8
Image
10
25.563416
20
57.479458
11
25.817562
21
53.492143
0
LINE
8
Image
10
25.817562
20
53.492143
11
26.141601
21
51.692478
0
LINE
8
Image
10
26.141601
20
51.692478
11
26.621507
21
49.946462
0
LINE
8
Image
10
26.621507
20
49.946462
11
27.275698
21
48.197332
0
LINE
8
Image
10
27.275698
20
48.197332
11
28.122591
21
46.388329
0
LINE
8
Image
10
28.122591
20
46.388329
11
30.468156
21
42.363658
0
LINE
8
Image
10
30.468156
20
42.363658
11
32.757141
21
38.516909
0
LINE
8
Image
10
32.757141
20
38.516909
11
33.473981
21
36.906704
0
LINE
8
Image
10
33.473981
20
36.906704
11
33.953927
21
35.289054
0
LINE
8
Image
10
33.953927
20
35.289054
11
34.233136
21
33.501792
0
LINE
8
Image
10
34.233136
20
33.501792
11
34.347765
21
31.382751
0
LINE
8
Image
10
34.347765
20
31.382751
11
34.227906
21
25.500658
0
LINE
8
Image
10
34.227906
20
25.500658
11
33.966362
21
18.686568
0
LINE
8
Image
10
33.966362
20
18.686568
11
32.787612
21
16.702438
0
LINE
8
Image
10
32.787612
20
16.702438
11
31.931737
21
15.054276
0
LINE
8
Image
10
31.931737
20
15.054276
11
31.606629
21
13.805727
0
LINE
8
Image
10
31.606629
20
13.805727
11
31.804844
21
12.826103
0
LINE
8
Image
10
31.804844
20
12.826103
11
32.518939
21
11.984718
0
LINE
8
Image
10
32.518939
20
11.984718
11
33.083927
21
11.556800
0
LINE
8
Image
10
33.083927
20
11.556800
11
33.656326
21
11.344388
0
LINE
8
Image
10
33.656326
20
11.344388
11
35.976159
21
11.356658
0
LINE
8
Image
10
35.976159
20
11.356658
11
37.898151
21
11.548037
0
LINE
8
Image
10
37.898151
20
11.548037
11
39.414860
21
11.915711
0
LINE
8
Image
10
39.414860
20
11.915711
11
40.645610
21
12.501074
0
LINE
8
Image
10
40.645610
20
12.501074
11
41.709729
21
13.345518
0
LINE
8
Image
10
41.709729
20
13.345518
11
42.459671
21
14.299253
0
LINE
8
Image
10
42.459671
20
14.299253
11
43.037217
21
15.749737
0
LINE
8
Image
10
43.037217
20
15.749737
11
43.567572
21
18.129866
0
LINE
8
Image
10
43.567572
20
18.129866
11
44.175939
21
21.872538
0
LINE
8
Image
10
44.175939
20
21.872538
11
45.426518
21
29.020115
0
LINE
8
Image
10
45.426518
20
29.020115
11
45.964637
21
31.192660
0
LINE
8
Image
10
45.964637
20
31.192660
11
46.429469
21
32.360438
0
LINE
8
Image
10
46.429469
20
32.360438
11
46.891502
21
32.812514
0
LINE
8
Image
10
46.891502
20
32.812514
11
47.558317
21
32.996475
0
LINE
8
Image
10
47.558317
20
32.996475
11
48.506385
21
32.917284
0
LINE
8
Image
10
48.506385
20
32.917284
11
49.812179
21
32.579902
0
LINE
8
Image
10
49.812179
20
32.579902
11
54.431349
21
31.408935
0
LINE
8
Image
10
54.431349
20
31.408935
11
58.841200
21
30.805563
0
LINE
8
Image
10
58.841200
20
30.805563
11
63.051515
21
30.769058
0
LINE
8
Image
10
63.051515
20
30.769058
11
67.072079
21
31.298692
0
LINE
8
Image
10
67.072079
20
31.298692
11
70.096224
21
31.807590
0
LINE
8
Image
10
70.096224
20
31.807590
11
71.151655
21
31.823518
0
LINE
8
Image
10
71.151655
20
31.823518
11
71.989851
21
31.648020
0
LINE
8
Image
10
71.989851
20
31.648020
11
72.676209
21
31.256785
0
LINE
8
Image
10
72.676209
20
31.256785
11
73.276125
21
30.625504
0
LINE
8
Image
10
73.276125
20
30.625504
11
74.478209
21
28.545562
0
LINE
8
Image
10
74.478209
20
28.545562
11
75.601458
21
26.160806
0
LINE
8
Image
10
75.601458
20
26.160806
11
76.526394
21
23.849383
0
LINE
8
Image
10
76.526394
20
23.849383
11
78.224269
21
18.226362
0
LINE
8
Image
10
78.224269
20
18.226362
11
79.196999
21
13.881064
0
LINE
8
Image
10
79.196999
20
13.881064
11
79.545909
21
9.161172
0
LINE
8
Image
10
79.545909
20
9.161172
11
79.750858
21
5.798658
0
LINE
8
Image
10
79.750858
20
5.798658
11
80.172584
21
3.845051
0
LINE
8
Image
10
80.172584
20
3.845051
11
80.540388
21
3.218325
0
LINE
8
Image
10
80.540388
20
3.218325
11
81.053167
21
2.729911
0
LINE
8
Image
10
81.053167
20
2.729911
11
82.634689
21
1.882802
0
LINE
8
Image
10
82.634689
20
1.882802
11
84.814978
21
1.113609
0
LINE
8
Image
10
84.814978
20
1.113609
11
86.966777
21
0.750673
0
LINE
8
Image
10
86.966777
20
0.750673
11
88.989613
21
0.801507
0
LINE
8
Image
10
88.989613
20
0.801507
11
90.783009
21
1.273623
0
LINE
8
Image
10
90.783009
20
1.273623
11
90.782990
21
1.273620
0
LINE
8
Image
10
32.173300
20
69.610100
11
31.257405
21
70.221258
0
LINE
8
Image
10
31.257405
20
70.221258
11
30.820666
21
71.056333
0
LINE
8
Image
10
30.820666
20
71.056333
11
30.881967
21
72.024621
0
LINE
8
Image
10
30.881967
20
72.024621
11
31.460190
21
73.035420
0
LINE
8
Image
10
31.460190
20
73.035420
11
32.260738
21
73.706694
0
LINE
8
Image
10
32.260738
20
73.706694
11
33.344513
21
74.172890
0
LINE
8
Image
10
33.344513
20
74.172890
11
34.680274
21
74.424736
0
LINE
8
Image
10
34.680274
20
74.424736
11
36.236780
21
74.452960
0
LINE
8
Image
10
36.236780
20
74.452960
11
37.691084
21
74.249949
0
LINE
8
Image
10
37.691084
20
74.249949
11
38.097346
21
74.020269
0
LINE
8
Image
10
38.097346
20
74.020269
11
38.431530
21
73.653467
0
LINE
8
Image
10
38.431530
20
73.653467
11
38.741846
21
73.002151
0
LINE
8
Image
10
38.741846
20
73.002151
11
38.752651
21
72.331336
0
LINE
8
Image
10
38.752651
20
72.331336
11
38.494156
21
71.670479
0
LINE
8
Image
10
38.494156
20
71.670479
11
37.996570
21
71.049035
0
LINE
8
Image
10
37.996570
20
71.049035
11
37.290103
21
70.496460
0
LINE
8
Image
10
37.290103
20
70.496460
11
36.404966
21
70.042211
0
LINE
8
Image
10
36.404966
20
70.042211
11
35.371368
21
69.715745
0
LINE
8
Image
10
35.371368
20
69.715745
11
34.219520
21
69.546517
0
LINE
8
Image
10
34.219520
20
69.546517
11
32.173300
21
69.610096
0
LINE
8
Image
10
32.173300
20
69.610096
11
32.173300
21
69.610100
0
LINE
8
Image
10
36.124410
20
70.614170
11
37.266076
21
71.283776
0
LINE
8
Image
10
37.266076
20
71.283776
11
37.934915
21
72.156242
0
LINE
8
Image
10
37.934915
20
72.156242
11
38.063437
21
72.604164
0
LINE
8
Image
10
38.063437
20
72.604164
11
38.039447
21
73.025540
0
LINE
8
Image
10
38.039447
20
73.025540
11
37.851510
21
73.394616
0
LINE
8
Image
10
37.851510
20
73.394616
11
37.488190
21
73.685640
0
LINE
8
Image
10
37.488190
20
73.685640
11
36.579229
21
73.873793
0
LINE
8
Image
10
36.579229
20
73.873793
11
35.248763
21
73.837721
0
LINE
8
Image
10
35.248763
20
73.837721
11
33.845599
21
73.610960
0
LINE
8
Image
10
33.845599
20
73.610960
11
32.718540
21
73.227046
0
LINE
8
Image
10
32.718540
20
73.227046
11
32.109435
21
72.778145
0
LINE
8
Image
10
32.109435
20
72.778145
11
31.671487
21
72.193640
0
LINE
8
Image
10
31.671487
20
72.193640
11
31.453867
21
71.564558
0
LINE
8
Image
10
31.453867
20
71.564558
11
31.505750
21
70.981926
0
LINE
8
Image
10
31.505750
20
70.981926
11
31.723759
21
70.680196
0
LINE
8
Image
10
31.723759
20
70.680196
11
32.101481
21
70.446998
0
LINE
8
Image
10
32.101481
20
70.446998
11
33.221968
21
70.195283
0
LINE
8
Image
10
33.221968
20
70.195283
11
34.639011
21
70.244949
0
LINE
8
Image
10
34.639011
20
70.244949
11
36.124410
21
70.614168
0
LINE
8
Image
10
36.124410
20
70.614168
11
36.124410
21
70.614170
0
LINE
8
Image
10
18.993410
20
72.502660
11
18.038668
21
73.420101
0
LINE
8
Image
10
18.038668
20
73.420101
11
17.387960
21
74.511140
0
LINE
8
Image
10
17.387960
20
74.511140
11
17.056968
21
75.619606
0
LINE
8
Image
10
17.056968
20
75.619606
11
17.352313
21
76.374350
0
LINE
8
Image
10
17.352313
20
76.374350
11
17.683622
21
76.730444
0
LINE
8
Image
10
17.683622
20
76.730444
11
18.108270
21
76.949401
0
LINE
8
Image
10
18.108270
20
76.949401
11
19.169319
21
76.988757
0
LINE
8
Image
10
19.169319
20
76.988757
11
20.398932
21
76.518122
0
LINE
8
Image
10
20.398932
20
76.518122
11
21.660583
21
75.563202
0
LINE
8
Image
10
21.660583
20
75.563202
11
22.302194
21
74.724876
0
LINE
8
Image
10
22.302194
20
74.724876
11
22.580174
21
73.843185
0
LINE
8
Image
10
22.580174
20
73.843185
11
22.486553
21
72.993004
0
LINE
8
Image
10
22.486553
20
72.993004
11
22.013361
21
72.249212
0
LINE
8
Image
10
22.013361
20
72.249212
11
21.397609
21
71.823797
0
LINE
8
Image
10
21.397609
20
71.823797
11
20.706564
21
71.722764
0
LINE
8
Image
10
20.706564
20
71.722764
11
19.913933
21
71.948319
0
LINE
8
Image
10
19.913933
20
71.948319
11
18.993421
21
72.502670
0
LINE
8
Image
10
18.993421
20
72.502670
11
18.993410
21
72.502660
0
LINE
8
Image
10
21.747060
20
73.266731
11
21.819342
21
73.959602
0
LINE
8
Image
10
21.819342
20
73.959602
11
21.542170
21
74.640141
0
LINE
8
Image
10
21.542170
20
74.640141
11
20.933695
21
75.281260
0
LINE
8
Image
10
20.933695
20
75.281260
11
20.012070
21
75.855871
0
LINE
8
Image
10
20.012070
20
75.855871
11
19.194921
21
76.182329
0
LINE
8
Image
10
19.194921
20
76.182329
11
18.547163
21
76.286429
0
LINE
8
Image
10
18.547163
20
76.286429
11
18.080902
21
76.192556
0
LINE
8
Image
10
18.080902
20
76.192556
11
17.808242
21
75.925095
0
LINE
8
Image
10
17.808242
20
75.925095
11
17.741291
21
75.508433
0
LINE
8
Image
10
17.741291
20
75.508433
11
17.892151
21
74.966954
0
LINE
8
Image
10
17.892151
20
74.966954
11
18.272929
21
74.325045
0
LINE
8
Image
10
18.272929
20
74.325045
11
18.895730
21
73.607091
0
LINE
8
Image
10
18.895730
20
73.607091
11
19.818496
21
72.872126
0
LINE
8
Image
10
19.818496
20
72.872126
11
20.648039
21
72.564834
0
LINE
8
Image
10
20.648039
20
72.564834
11
21.314259
21
72.693580
0
LINE
8
Image
10
21.314259
20
72.693580
11
21.747060
21
73.266731
0
LINE
8
Image
10
21.747060
20
73.266731
11
21.747060
21
73.266731
0
LINE
8
Image
10
44.306000
20
93.486400
11
43.398032
21
94.220791
0
LINE
8
Image
10
43.398032
20
94.220791
11
42.747142
21
95.027843
0
LINE
8
Image
10
42.747142
20
95.027843
11
42.329620
21
95.945843
0
LINE
8
Image
10
42.329620
20
95.945843
11
42.121750
21
97.013080
0
LINE
8
Image
10
42.121750
20
97.013080
11
41.989007
21
98.394580
0
LINE
8
Image
10
41.989007
20
98.394580
11
45.234867
21
100.420760
0
LINE
8
Image
10
45.234867
20
100.420760
11
47.656421
21
101.851720
0
LINE
8
Image
10
47.656421
20
101.851720
11
48.920400
21
102.447000
0
LINE
8
Image
10
48.920400
20
102.447000
11
49.463145
21
102.142569
0
LINE
8
Image
10
49.463145
20
102.142569
11
50.150580
21
101.410640
0
LINE
8
Image
10
50.150580
20
101.410640
11
50.577112
21
100.785105
0
LINE
8
Image
10
50.577112
20
100.785105
11
50.815168
21
100.168327
0
LINE
8
Image
10
50.815168
20
100.168327
11
50.941053
21
98.044670
0
LINE
8
Image
10
50.941053
20
98.044670
11
50.828484
21
96.007322
0
LINE
8
Image
10
50.828484
20
96.007322
11
50.648365
21
95.413818
0
LINE
8
Image
10
50.648365
20
95.413818
11
50.350659
21
94.918260
0
LINE
8
Image
10
50.350659
20
94.918260
11
49.544219
21
94.025377
0
LINE
8
Image
10
49.544219
20
94.025377
11
48.635457
21
93.378220
0
LINE
8
Image
10
48.635457
20
93.378220
11
47.638282
21
92.984368
0
LINE
8
Image
10
47.638282
20
92.984368
11
46.566600
21
92.851400
0
LINE
8
Image
10
46.566600
20
92.851400
11
45.334596
21
93.005285
0
LINE
8
Image
10
45.334596
20
93.005285
11
44.305950
21
93.486399
0
LINE
8
Image
10
44.305950
20
93.486399
11
44.306000
21
93.486400
0
LINE
8
Image
10
48.779110
20
94.230244
11
49.328813
21
94.733586
0
LINE
8
Image
10
49.328813
20
94.733586
11
49.779825
21
95.371641
0
LINE
8
Image
10
49.779825
20
95.371641
11
50.357925
21
96.918969
0
LINE
8
Image
10
50.357925
20
96.918969
11
50.457697
21
98.606381
0
LINE
8
Image
10
50.457697
20
98.606381
11
50.310801
21
99.419543
0
LINE
8
Image
10
50.310801
20
99.419543
11
50.023430
21
100.168034
0
LINE
8
Image
10
50.023430
20
100.168034
11
49.429661
21
101.128268
0
LINE
8
Image
10
49.429661
20
101.128268
11
49.117086
21
101.357009
0
LINE
8
Image
10
49.117086
20
101.357009
11
48.737103
21
101.414238
0
LINE
8
Image
10
48.737103
20
101.414238
11
47.604077
21
101.002384
0
LINE
8
Image
10
47.604077
20
101.002384
11
45.688900
21
99.869147
0
LINE
8
Image
10
45.688900
20
99.869147
11
43.489809
21
98.375002
0
LINE
8
Image
10
43.489809
20
98.375002
11
42.902676
21
97.852675
0
LINE
8
Image
10
42.902676
20
97.852675
11
42.678000
21
97.496607
0
LINE
8
Image
10
42.678000
20
97.496607
11
42.811361
21
96.739133
0
LINE
8
Image
10
42.811361
20
96.739133
11
43.242444
21
95.694507
0
LINE
8
Image
10
43.242444
20
95.694507
11
43.728716
21
94.934705
0
LINE
8
Image
10
43.728716
20
94.934705
11
44.314203
21
94.329007
0
LINE
8
Image
10
44.314203
20
94.329007
11
44.978697
21
93.882755
0
LINE
8
Image
10
44.978697
20
93.882755
11
45.701995
21
93.601296
0
LINE
8
Image
10
45.701995
20
93.601296
11
46.463890
21
93.489971
0
LINE
8
Image
10
46.463890
20
93.489971
11
47.244177
21
93.554126
0
LINE
8
Image
10
47.244177
20
93.554126
11
48.022650
21
93.799103
0
LINE
8
Image
10
48.022650
20
93.799103
11
48.779104
21
94.230247
0
LINE
8
Image
10
48.779104
20
94.230247
11
48.779110
21
94.230244
0
LINE
8
Image
10
38.241100
20
61.999000
11
39.886200
21
62.428283
0
LINE
8
Image
10
39.886200
20
62.428283
11
41.322693
21
62.944109
0
LINE
8
Image
10
41.322693
20
62.944109
11
42.597574
21
63.584085
0
LINE
8
Image
10
42.597574
20
63.584085
11
43.757838
21
64.385818
0
LINE
8
Image
10
43.757838
20
64.385818
11
44.850478
21
65.386912
0
LINE
8
Image
10
44.850478
20
65.386912
11
45.922490
21
66.624975
0
LINE
8
Image
10
45.922490
20
66.624975
11
48.192610
21
69.962430
0
LINE
8
Image
10
48.192610
20
69.962430
11
49.521183
21
72.033457
0
LINE
8
Image
10
49.521183
20
72.033457
11
50.859293
21
73.781601
0
LINE
8
Image
10
50.859293
20
73.781601
11
55.621580
21
78.740270
0
LINE
8
Image
10
55.621580
20
78.740270
11
59.937100
21
83.208974
0
LINE
8
Image
10
59.937100
20
83.208974
11
61.021088
21
84.543320
0
LINE
8
Image
10
61.021088
20
84.543320
11
61.642320
21
85.564530
0
LINE
8
Image
10
61.642320
20
85.564530
11
62.112878
21
86.812108
0
LINE
8
Image
10
62.112878
20
86.812108
11
62.385071
21
88.104055
0
LINE
8
Image
10
62.385071
20
88.104055
11
62.432828
21
89.242349
0
LINE
8
Image
10
62.432828
20
89.242349
11
62.230081
21
90.028970
0
LINE
8
Image
10
62.230081
20
90.028970
11
62.050439
21
89.998630
0
LINE
8
Image
10
62.050439
20
89.998630
11
61.700615
21
89.682008
0
LINE
8
Image
10
61.700615
20
89.682008
11
60.670681
21
88.380480
0
LINE
8
Image
10
60.670681
20
88.380480
11
59.135439
21
86.360303
0
LINE
8
Image
10
59.135439
20
86.360303
11
57.364287
21
84.379104
0
LINE
8
Image
10
57.364287
20
84.379104
11
55.189772
21
82.262993
0
LINE
8
Image
10
55.189772
20
82.262993
11
52.444441
21
79.838080
0
LINE
8
Image
10
52.444441
20
79.838080
11
49.400804
21
77.183079
0
LINE
8
Image
10
49.400804
20
77.183079
11
47.563981
21
75.365945
0
LINE
8
Image
10
47.563981
20
75.365945
11
46.479978
21
73.872031
0
LINE
8
Image
10
46.479978
20
73.872031
11
45.694801
21
72.186690
0
LINE
8
Image
10
45.694801
20
72.186690
11
45.014384
21
70.730751
0
LINE
8
Image
10
45.014384
20
70.730751
11
44.208546
21
69.434360
0
LINE
8
Image
10
44.208546
20
69.434360
11
43.271339
21
68.292747
0
LINE
8
Image
10
43.271339
20
68.292747
11
42.196817
21
67.301146
0
LINE
8
Image
10
42.196817
20
67.301146
11
40.979035
21
66.454789
0
LINE
8
Image
10
40.979035
20
66.454789
11
39.612046
21
65.748907
0
LINE
8
Image
10
39.612046
20
65.748907
11
38.089903
21
65.178733
0
LINE
8
Image
10
38.089903
20
65.178733
11
36.406661
21
64.739500
0
LINE
8
Image
10
36.406661
20
64.739500
11
33.850366
21
64.415831
0
LINE
8
Image
10
33.850366
20
64.415831
11
30.127221
21
64.427306
0
LINE
8
Image
10
30.127221
20
64.427306
11
25.964400
21
64.565100
0
LINE
8
Image
10
25.964400
20
64.565100
11
25.964400
21
63.318300
0
LINE
8
Image
10
25.964400
20
63.318300
11
26.062129
21
62.381603
0
LINE
8
Image
10
26.062129
20
62.381603
11
26.317177
21
61.944090
0
LINE
8
Image
10
26.317177
20
61.944090
11
28.927727
21
61.549019
0
LINE
8
Image
10
28.927727
20
61.549019
11
31.189696
21
61.396874
0
LINE
8
Image
10
31.189696
20
61.396874
11
33.646788
21
61.428455
0
LINE
8
Image
10
33.646788
20
61.428455
11
36.072682
21
61.632823
0
LINE
8
Image
10
36.072682
20
61.632823
11
38.241057
21
61.999045
0
LINE
8
Image
10
38.241057
20
61.999045
11
38.241100
21
61.999000
0
LINE
8
Image
10
63.816600
20
110.755100
11
65.349725
21
111.156418
0
LINE
8
Image
10
65.349725
20
111.156418
11
66.765898
21
111.686123
0
LINE
8
Image
10
66.765898
20
111.686123
11
68.066436
21
112.345214
0
LINE
8
Image
10
68.066436
20
112.345214
11
69.252654
21
113.134684
0
LINE
8
Image
10
69.252654
20
113.134684
11
70.325869
21
114.055532
0
LINE
8
Image
10
70.325869
20
114.055532
11
71.287397
21
115.108753
0
LINE
8
Image
10
71.287397
20
115.108753
11
72.138556
21
116.295344
0
LINE
8
Image
10
72.138556
20
116.295344
11
72.880660
21
117.616300
0
LINE
8
Image
10
72.880660
20
117.616300
11
73.573493
21
119.065433
0
LINE
8
Image
10
73.573493
20
119.065433
11
73.930788
21
120.131866
0
LINE
8
Image
10
73.930788
20
120.131866
11
74.063671
21
121.328689
0
LINE
8
Image
10
74.063671
20
121.328689
11
74.083270
21
123.168990
0
LINE
8
Image
10
74.083270
20
123.168990
11
73.983296
21
125.549501
0
LINE
8
Image
10
73.983296
20
125.549501
11
73.551256
21
127.333332
0
LINE
8
Image
10
73.551256
20
127.333332
11
72.588974
21
129.012715
0
LINE
8
Image
10
72.588974
20
129.012715
11
70.898270
21
131.079880
0
LINE
8
Image
10
70.898270
20
131.079880
11
67.725456
21
134.934148
0
LINE
8
Image
10
67.725456
20
134.934148
11
66.828449
21
136.235620
0
LINE
8
Image
10
66.828449
20
136.235620
11
66.423750
21
137.076150
0
LINE
8
Image
10
66.423750
20
137.076150
11
66.465832
21
138.115621
0
LINE
8
Image
10
66.465832
20
138.115621
11
66.813434
21
139.650560
0
LINE
8
Image
10
66.813434
20
139.650560
11
67.171653
21
141.084864
0
LINE
8
Image
10
67.171653
20
141.084864
11
67.242403
21
141.887480
0
LINE
8
Image
10
67.242403
20
141.887480
11
66.930100
21
142.210416
0
LINE
8
Image
10
66.930100
20
142.210416
11
66.402657
21
142.151730
0
LINE
8
Image
10
66.402657
20
142.151730
11
65.685257
21
141.721318
0
LINE
8
Image
10
65.685257
20
141.721318
11
64.803083
21
140.929073
0
LINE
8
Image
10
64.803083
20
140.929073
11
63.646330
21
139.581231
0
LINE
8
Image
10
63.646330
20
139.581231
11
62.853609
21
138.209208
0
LINE
8
Image
10
62.853609
20
138.209208
11
62.371720
21
136.692427
0
LINE
8
Image
10
62.371720
20
136.692427
11
62.147463
21
134.910313
0
LINE
8
Image
10
62.147463
20
134.910313
11
62.102635
21
133.671564
0
LINE
8
Image
10
62.102635
20
133.671564
11
62.190610
21
132.779132
0
LINE
8
Image
10
62.190610
20
132.779132
11
62.481077
21
131.908328
0
LINE
8
Image
10
62.481077
20
131.908328
11
63.043721
21
130.734463
0
LINE
8
Image
10
63.043721
20
130.734463
11
63.832847
21
128.791185
0
LINE
8
Image
10
63.832847
20
128.791185
11
64.009493
21
127.245093
0
LINE
8
Image
10
64.009493
20
127.245093
11
63.865619
21
126.594828
0
LINE
8
Image
10
63.865619
20
126.594828
11
63.565606
21
126.012464
0
LINE
8
Image
10
63.565606
20
126.012464
11
62.493134
21
125.009573
0
LINE
8
Image
10
62.493134
20
125.009573
11
61.548463
21
124.597536
0
LINE
8
Image
10
61.548463
20
124.597536
11
60.336087
21
124.504824
0
LINE
8
Image
10
60.336087
20
124.504824
11
58.698577
21
124.739264
0
LINE
8
Image
10
58.698577
20
124.739264
11
56.478504
21
125.308687
0
LINE
8
Image
10
56.478504
20
125.308687
11
54.317145
21
125.894011
0
LINE
8
Image
10
54.317145
20
125.894011
11
53.005609
21
126.101716
0
LINE
8
Image
10
53.005609
20
126.101716
11
52.227908
21
125.938536
0
LINE
8
Image
10
52.227908
20
125.938536
11
51.668054
21
125.411206
0
LINE
8
Image
10
51.668054
20
125.411206
11
51.104272
21
124.452979
0
LINE
8
Image
10
51.104272
20
124.452979
11
50.740077
21
123.247106
0
LINE
8
Image
10
50.740077
20
123.247106
11
50.568129
21
121.756660
0
LINE
8
Image
10
50.568129
20
121.756660
11
50.581084
21
119.944716
0
LINE
8
Image
10
50.581084
20
119.944716
11
50.735912
21
118.521222
0
LINE
8
Image
10
50.735912
20
118.521222
11
51.045908
21
117.197707
0
LINE
8
Image
10
51.045908
20
117.197707
11
51.508410
21
115.978266
0
LINE
8
Image
10
51.508410
20
115.978266
11
52.120756
21
114.866994
0
LINE
8
Image
10
52.120756
20
114.866994
11
52.880286
21
113.867984
0
LINE
8
Image
10
52.880286
20
113.867984
11
53.784336
21
112.985331
0
LINE
8
Image
10
53.784336
20
112.985331
11
54.830246
21
112.223130
0
LINE
8
Image
10
54.830246
20
112.223130
11
56.015354
21
111.585476
0
LINE
8
Image
10
56.015354
20
111.585476
11
57.950733
21
110.848509
0
LINE
8
Image
10
57.950733
20
110.848509
11
59.811660
21
110.473443
0
LINE
8
Image
10
59.811660
20
110.473443
11
61.724744
21
110.446800
0
LINE
8
Image
10
61.724744
20
110.446800
11
63.816594
21
110.755103
0
LINE
8
Image
10
63.816594
20
110.755103
11
63.816600
21
110.755100
0
LINE
8
Image
10
23.008300
20
121.604000
11
24.760362
21
123.292375
0
LINE
8
Image
10
24.760362
20
123.292375
11
26.392800
21
124.617000
0
LINE
8
Image
10
26.392800
20
124.617000
11
27.940000
21
125.772000
0
LINE
8
Image
10
27.940000
20
125.772000
11
26.723200
21
125.694000
0
LINE
8
Image
10
26.723200
20
125.694000
11
25.371823
21
125.669891
0
LINE
8
Image
10
25.371823
20
125.669891
11
23.882513
21
125.879125
0
LINE
8
Image
10
23.882513
20
125.879125
11
22.559195
21
126.258047
0
LINE
8
Image
10
22.559195
20
126.258047
11
21.705800
21
126.743000
0
LINE
8
Image
10
21.705800
20
126.743000
11
21.271580
21
127.456734
0
LINE
8
Image
10
21.271580
20
127.456734
11
21.223188
21
128.387125
0
LINE
8
Image
10
21.223188
20
128.387125
11
21.568677
21
129.592203
0
LINE
8
Image
10
21.568677
20
129.592203
11
22.316100
21
131.130000
0
LINE
8
Image
10
22.316100
20
131.130000
11
23.003890
21
132.561961
0
LINE
8
Image
10
23.003890
20
132.561961
11
23.454977
21
133.938750
0
LINE
8
Image
10
23.454977
20
133.938750
11
23.669122
21
135.262477
0
LINE
8
Image
10
23.669122
20
135.262477
11
23.646088
21
136.535250
0
LINE
8
Image
10
23.646088
20
136.535250
11
23.385636
21
137.759180
0
LINE
8
Image
10
23.385636
20
137.759180
11
22.887530
21
138.936375
0
LINE
8
Image
10
22.887530
20
138.936375
11
22.151530
21
140.068945
0
LINE
8
Image
10
22.151530
20
140.068945
11
21.177400
21
141.159000
0
LINE
8
Image
10
21.177400
20
141.159000
11
19.804111
21
142.368375
0
LINE
8
Image
10
19.804111
20
142.368375
11
18.522163
21
143.248500
0
LINE
8
Image
10
18.522163
20
143.248500
11
17.432233
21
143.740875
0
LINE
8
Image
10
17.432233
20
143.740875
11
16.635000
21
143.787000
0
LINE
8
Image
10
16.635000
20
143.787000
11
16.219784
21
143.550125
0
LINE
8
Image
10
16.219784
20
143.550125
11
16.131550
21
143.170750
0
LINE
8
Image
10
16.131550
20
143.170750
11
16.378641
21
142.599000
0
LINE
8
Image
10
16.378641
20
142.599000
11
16.969400
21
141.785000
0
LINE
8
Image
10
16.969400
20
141.785000
11
18.186323
21
139.915188
0
LINE
8
Image
10
18.186323
20
139.915188
11
18.420722
21
139.124867
0
LINE
8
Image
10
18.420722
20
139.124867
11
18.397862
21
138.394500
0
LINE
8
Image
10
18.397862
20
138.394500
11
18.111833
21
137.696758
0
LINE
8
Image
10
18.111833
20
137.696758
11
17.556720
21
137.004312
0
LINE
8
Image
10
17.556720
20
137.004312
11
15.615600
21
135.526000
0
LINE
8
Image
10
15.615600
20
135.526000
11
12.470750
21
133.486031
0
LINE
8
Image
10
12.470750
20
133.486031
11
10.587501
21
132.113750
0
LINE
8
Image
10
10.587501
20
132.113750
11
9.528910
21
131.047094
0
LINE
8
Image
10
9.528910
20
131.047094
11
8.858030
21
129.924000
0
LINE
8
Image
10
8.858030
20
129.924000
11
8.199335
21
128.111274
0
LINE
8
Image
10
8.199335
20
128.111274
11
8.018129
21
126.299688
0
LINE
8
Image
10
8.018129
20
126.299688
11
8.316292
21
124.430063
0
LINE
8
Image
10
8.316292
20
124.430063
11
9.095704
21
122.443220
0
LINE
8
Image
10
9.095704
20
122.443220
11
10.657245
21
119.908423
0
LINE
8
Image
10
10.657245
20
119.908423
11
12.645248
21
117.634876
0
LINE
8
Image
10
12.645248
20
117.634876
11
14.880554
21
115.796991
0
LINE
8
Image
10
14.880554
20
115.796991
11
16.034958
21
115.095926
0
LINE
8
Image
10
16.034958
20
115.095926
11
17.184004
21
114.569180
0
LINE
8
Image
10
17.184004
20
114.569180
11
18.474624
21
114.079268
0
LINE
8
Image
10
18.474624
20
114.079268
11
19.822784
21
116.868098
0
LINE
8
Image
10
19.822784
20
116.868098
11
21.280398
21
119.468137
0
LINE
8
Image
10
21.280398
20
119.468137
11
23.008300
21
121.604000
0
LINE
8
Image
10
23.008300
20
121.604000
11
23.008300
21
121.604000
0
LINE
8
Image
10
126.327000
20
116.220000
11
127.484259
21
116.898935
0
LINE
8
Image
10
127.484259
20
116.898935
11
128.460079
21
117.656645
0
LINE
8
Image
10
128.460079
20
117.656645
11
129.236907
21
118.477323
0
LINE
8
Image
10
129.236907
20
118.477323
11
129.797190
21
119.345160
0
LINE
8
Image
10
129.797190
20
119.345160
11
130.204862
21
120.404390
0
LINE
8
Image
10
130.204862
20
120.404390
11
130.480609
21
121.614285
0
LINE
8
Image
10
130.480609
20
121.614285
11
130.593136
21
122.783118
0
LINE
8
Image
10
130.593136
20
122.783118
11
130.511147
21
123.719160
0
LINE
8
Image
10
130.511147
20
123.719160
11
130.366090
21
124.132331
0
LINE
8
Image
10
130.366090
20
124.132331
11
130.063221
21
124.343020
0
LINE
8
Image
10
130.063221
20
124.343020
11
128.169977
21
124.390340
0
LINE
8
Image
10
128.169977
20
124.390340
11
123.603617
21
124.574157
0
LINE
8
Image
10
123.603617
20
124.574157
11
121.399003
21
124.681277
0
LINE
8
Image
10
121.399003
20
124.681277
11
120.731066
21
124.535811
0
LINE
8
Image
10
120.731066
20
124.535811
11
120.040787
21
124.227294
0
LINE
8
Image
10
120.040787
20
124.227294
11
118.789094
21
123.407119
0
LINE
8
Image
10
118.789094
20
123.407119
11
117.861256
21
122.424785
0
LINE
8
Image
10
117.861256
20
122.424785
11
117.262059
21
121.336482
0
LINE
8
Image
10
117.262059
20
121.336482
11
116.996289
21
120.198403
0
LINE
8
Image
10
116.996289
20
120.198403
11
117.068733
21
119.066739
0
LINE
8
Image
10
117.068733
20
119.066739
11
117.484176
21
117.997684
0
LINE
8
Image
10
117.484176
20
117.997684
11
118.247405
21
117.047428
0
LINE
8
Image
10
118.247405
20
117.047428
11
119.363206
21
116.272164
0
LINE
8
Image
10
119.363206
20
116.272164
11
121.008363
21
115.696607
0
LINE
8
Image
10
121.008363
20
115.696607
11
122.857142
21
115.495013
0
LINE
8
Image
10
122.857142
20
115.495013
11
124.699901
21
115.668951
0
LINE
8
Image
10
124.699901
20
115.668951
11
126.326996
21
116.219990
0
LINE
8
Image
10
126.326996
20
116.219990
11
126.327000
21
116.220000
 0 
ENDSEC
 0 
EOF