999
"DXF R12 Output" (www.mydxf.blogspot.com)
 0 
SECTION
 2 
HEADER
 9 
$ACADVER
 1 
AC1009
 9 
$EXTMIN
 10 
 0 
 20 
 0 
 9 
$EXTMAX
 10 
 8.5 
 20 
 11 
 0 
ENDSEC
 0 
SECTION
 2 
ENTITIES
0
LINE
8
Image
10
129.446000
20
1.748870
11
120.414900
21
3.058860
0
LINE
8
Image
10
120.414900
20
3.058860
11
111.948240
21
4.176680
0
LINE
8
Image
10
111.948240
20
4.176680
11
108.964484
21
4.758503
0
LINE
8
Image
10
108.964484
20
4.758503
11
103.577874
21
6.092153
0
LINE
8
Image
10
103.577874
20
6.092153
11
98.393971
21
7.501479
0
LINE
8
Image
10
98.393971
20
7.501479
11
96.018340
21
8.310330
0
LINE
8
Image
10
96.018340
20
8.310330
11
95.603132
21
8.554117
0
LINE
8
Image
10
95.603132
20
8.554117
11
94.781010
21
8.655516
0
LINE
8
Image
10
94.781010
20
8.655516
11
92.195819
21
9.399669
0
LINE
8
Image
10
92.195819
20
9.399669
11
87.578465
21
11.100285
0
LINE
8
Image
10
87.578465
20
11.100285
11
82.991584
21
12.959599
0
LINE
8
Image
10
82.991584
20
12.959599
11
80.497810
21
14.179846
0
LINE
8
Image
10
80.497810
20
14.179846
11
79.896872
21
14.530429
0
LINE
8
Image
10
79.896872
20
14.530429
11
79.286300
21
14.676246
0
LINE
8
Image
10
79.286300
20
14.676246
11
78.487621
21
14.878035
0
LINE
8
Image
10
78.487621
20
14.878035
11
77.434450
21
15.363203
0
LINE
8
Image
10
77.434450
20
15.363203
11
70.837820
21
18.812863
0
LINE
8
Image
10
70.837820
20
18.812863
11
67.050752
21
20.911322
0
LINE
8
Image
10
67.050752
20
20.911322
11
65.898713
21
21.664318
0
LINE
8
Image
10
65.898713
20
21.664318
11
65.475600
21
22.077013
0
LINE
8
Image
10
65.475600
20
22.077013
11
65.252785
21
22.431159
0
LINE
8
Image
10
65.252785
20
22.431159
11
64.717083
21
22.578465
0
LINE
8
Image
10
64.717083
20
22.578465
11
62.248000
21
23.914834
0
LINE
8
Image
10
62.248000
20
23.914834
11
57.632645
21
26.896863
0
LINE
8
Image
10
57.632645
20
26.896863
11
53.174335
21
29.983932
0
LINE
8
Image
10
53.174335
20
29.983932
11
51.723857
21
31.085414
0
LINE
8
Image
10
51.723857
20
31.085414
11
51.176383
21
31.635425
0
LINE
8
Image
10
51.176383
20
31.635425
11
51.027808
21
31.882916
0
LINE
8
Image
10
51.027808
20
31.882916
11
50.670596
21
31.985860
0
LINE
8
Image
10
50.670596
20
31.985860
11
48.610467
21
33.437305
0
LINE
8
Image
10
48.610467
20
33.437305
11
44.367636
21
36.926950
0
LINE
8
Image
10
44.367636
20
36.926950
11
40.771354
21
40.085588
0
LINE
8
Image
10
40.771354
20
40.085588
11
38.896427
21
42.084293
0
LINE
8
Image
10
38.896427
20
42.084293
11
38.501228
21
42.793088
0
LINE
8
Image
10
38.501228
20
42.793088
11
38.412475
21
43.385201
0
LINE
8
Image
10
38.412475
20
43.385201
11
38.588870
21
43.918399
0
LINE
8
Image
10
38.588870
20
43.918399
11
38.989116
21
44.450450
0
LINE
8
Image
10
38.989116
20
44.450450
11
39.313887
21
44.915035
0
LINE
8
Image
10
39.313887
20
44.915035
11
39.220532
21
45.428441
0
LINE
8
Image
10
39.220532
20
45.428441
11
38.553295
21
46.267677
0
LINE
8
Image
10
38.553295
20
46.267677
11
37.156416
21
47.709750
0
LINE
8
Image
10
37.156416
20
47.709750
11
35.817353
21
49.112466
0
LINE
8
Image
10
35.817353
20
49.112466
11
35.049176
21
50.100241
0
LINE
8
Image
10
35.049176
20
50.100241
11
34.681978
21
50.947724
0
LINE
8
Image
10
34.681978
20
50.947724
11
34.545856
21
51.929560
0
LINE
8
Image
10
34.545856
20
51.929560
11
34.455171
21
52.906475
0
LINE
8
Image
10
34.455171
20
52.906475
11
34.254563
21
53.421939
0
LINE
8
Image
10
34.254563
20
53.421939
11
33.794644
21
53.642388
0
LINE
8
Image
10
33.794644
20
53.642388
11
32.926026
21
53.734260
0
LINE
8
Image
10
32.926026
20
53.734260
11
32.077160
21
53.856074
0
LINE
8
Image
10
32.077160
20
53.856074
11
31.429798
21
54.166398
0
LINE
8
Image
10
31.429798
20
54.166398
11
30.791673
21
54.807536
0
LINE
8
Image
10
30.791673
20
54.807536
11
29.970516
21
55.921790
0
LINE
8
Image
10
29.970516
20
55.921790
11
28.887680
21
57.757556
0
LINE
8
Image
10
28.887680
20
57.757556
11
28.681130
21
58.439052
0
LINE
8
Image
10
28.681130
20
58.439052
11
28.671176
21
59.026630
0
LINE
8
Image
10
28.671176
20
59.026630
11
28.721996
21
59.570124
0
LINE
8
Image
10
28.721996
20
59.570124
11
28.638434
21
59.862277
0
LINE
8
Image
10
28.638434
20
59.862277
11
28.369379
21
59.959534
0
LINE
8
Image
10
28.369379
20
59.959534
11
27.863722
21
59.918339
0
LINE
8
Image
10
27.863722
20
59.918339
11
27.308132
21
59.935355
0
LINE
8
Image
10
27.308132
20
59.935355
11
26.793724
21
60.258664
0
LINE
8
Image
10
26.793724
20
60.258664
11
25.306032
21
62.386089
0
LINE
8
Image
10
25.306032
20
62.386089
11
24.176555
21
64.510717
0
LINE
8
Image
10
24.176555
20
64.510717
11
23.706772
21
65.961139
0
LINE
8
Image
10
23.706772
20
65.961139
11
23.661928
21
66.445472
0
LINE
8
Image
10
23.661928
20
66.445472
11
23.501740
21
66.761221
0
LINE
8
Image
10
23.501740
20
66.761221
11
23.187725
21
66.949266
0
LINE
8
Image
10
23.187725
20
66.949266
11
22.681402
21
67.050489
0
LINE
8
Image
10
22.681402
20
67.050489
11
22.192390
21
67.206010
0
LINE
8
Image
10
22.192390
20
67.206010
11
21.709239
21
67.539614
0
LINE
8
Image
10
21.709239
20
67.539614
11
20.833133
21
68.620364
0
LINE
8
Image
10
20.833133
20
68.620364
11
20.198312
21
70.051316
0
LINE
8
Image
10
20.198312
20
70.051316
11
19.950002
21
71.591049
0
LINE
8
Image
10
19.950002
20
71.591049
11
19.917777
21
72.356661
0
LINE
8
Image
10
19.917777
20
72.356661
11
19.780262
21
72.781160
0
LINE
8
Image
10
19.780262
20
72.781160
11
19.463444
21
72.963382
0
LINE
8
Image
10
19.463444
20
72.963382
11
18.893312
21
73.002159
0
LINE
8
Image
10
18.893312
20
73.002159
11
18.313044
21
73.076505
0
LINE
8
Image
10
18.313044
20
73.076505
11
17.848420
21
73.373577
0
LINE
8
Image
10
17.848420
20
73.373577
11
17.388834
21
74.004425
0
LINE
8
Image
10
17.388834
20
74.004425
11
16.823682
21
75.080099
0
LINE
8
Image
10
16.823682
20
75.080099
11
16.181622
21
76.565581
0
LINE
8
Image
10
16.181622
20
76.565581
11
15.863747
21
77.748765
0
LINE
8
Image
10
15.863747
20
77.748765
11
15.868087
21
78.642714
0
LINE
8
Image
10
15.868087
20
78.642714
11
16.192671
21
79.260489
0
LINE
8
Image
10
16.192671
20
79.260489
11
16.297635
21
79.423607
0
LINE
8
Image
10
16.297635
20
79.423607
11
16.209710
21
79.513875
0
LINE
8
Image
10
16.209710
20
79.513875
11
15.437950
21
79.480876
0
LINE
8
Image
10
15.437950
20
79.480876
11
14.793556
21
79.436392
0
LINE
8
Image
10
14.793556
20
79.436392
11
14.349909
21
79.612603
0
LINE
8
Image
10
14.349909
20
79.612603
11
13.967894
21
80.125637
0
LINE
8
Image
10
13.967894
20
80.125637
11
13.508400
21
81.091626
0
LINE
8
Image
10
13.508400
20
81.091626
11
12.977959
21
82.732175
0
LINE
8
Image
10
12.977959
20
82.732175
11
12.870524
21
84.145016
0
LINE
8
Image
10
12.870524
20
84.145016
11
12.847514
21
85.202501
0
LINE
8
Image
10
12.847514
20
85.202501
11
12.608172
21
85.378233
0
LINE
8
Image
10
12.608172
20
85.378233
11
12.160520
21
85.419926
0
LINE
8
Image
10
12.160520
20
85.419926
11
11.704429
21
85.512470
0
LINE
8
Image
10
11.704429
20
85.512470
11
11.282675
21
85.822456
0
LINE
8
Image
10
11.282675
20
85.822456
11
10.354600
21
87.288886
0
LINE
8
Image
10
10.354600
20
87.288886
11
9.716532
21
88.733053
0
LINE
8
Image
10
9.716532
20
88.733053
11
9.454448
21
89.856582
0
LINE
8
Image
10
9.454448
20
89.856582
11
9.561362
21
90.750321
0
LINE
8
Image
10
9.561362
20
90.750321
11
10.030286
21
91.505116
0
LINE
8
Image
10
10.030286
20
91.505116
11
10.350599
21
91.887768
0
LINE
8
Image
10
10.350599
20
91.887768
11
10.399473
21
92.093747
0
LINE
8
Image
10
10.399473
20
92.093747
11
9.522293
21
92.193258
0
LINE
8
Image
10
9.522293
20
92.193258
11
8.879318
21
92.261499
0
LINE
8
Image
10
8.879318
20
92.261499
11
8.402468
21
92.583232
0
LINE
8
Image
10
8.402468
20
92.583232
11
7.937640
21
93.333970
0
LINE
8
Image
10
7.937640
20
93.333970
11
7.330733
21
94.689228
0
LINE
8
Image
10
7.330733
20
94.689228
11
6.540175
21
96.924320
0
LINE
8
Image
10
6.540175
20
96.924320
11
6.508876
21
97.617732
0
LINE
8
Image
10
6.508876
20
97.617732
11
6.677151
21
98.264018
0
LINE
8
Image
10
6.677151
20
98.264018
11
6.895098
21
99.158831
0
LINE
8
Image
10
6.895098
20
99.158831
11
6.738744
21
99.307568
0
LINE
8
Image
10
6.738744
20
99.307568
11
6.382072
21
99.342868
0
LINE
8
Image
10
6.382072
20
99.342868
11
5.972615
21
99.482269
0
LINE
8
Image
10
5.972615
20
99.482269
11
5.564183
21
99.866782
0
LINE
8
Image
10
5.564183
20
99.866782
11
4.832652
21
101.169018
0
LINE
8
Image
10
4.832652
20
101.169018
11
4.352004
21
102.845316
0
LINE
8
Image
10
4.352004
20
102.845316
11
4.286762
21
104.491418
0
LINE
8
Image
10
4.286762
20
104.491418
11
4.330809
21
105.769715
0
LINE
8
Image
10
4.330809
20
105.769715
11
4.180547
21
106.055399
0
LINE
8
Image
10
4.180547
20
106.055399
11
3.897182
21
106.184748
0
LINE
8
Image
10
3.897182
20
106.184748
11
3.608712
21
106.400750
0
LINE
8
Image
10
3.608712
20
106.400750
11
3.286809
21
106.899193
0
LINE
8
Image
10
3.286809
20
106.899193
11
2.630833
21
108.481591
0
LINE
8
Image
10
2.630833
20
108.481591
11
2.105521
21
110.408320
0
LINE
8
Image
10
2.105521
20
110.408320
11
1.887142
21
112.155758
0
LINE
8
Image
10
1.887142
20
112.155758
11
2.019493
21
113.235468
0
LINE
8
Image
10
2.019493
20
113.235468
11
2.345480
21
113.955488
0
LINE
8
Image
10
2.345480
20
113.955488
11
2.545486
21
114.369699
0
LINE
8
Image
10
2.545486
20
114.369699
11
1.972074
21
114.638327
0
LINE
8
Image
10
1.972074
20
114.638327
11
1.272742
21
115.140328
0
LINE
8
Image
10
1.272742
20
115.140328
11
0.783804
21
116.222301
0
LINE
8
Image
10
0.783804
20
116.222301
11
0.506733
21
117.878976
0
LINE
8
Image
10
0.506733
20
117.878976
11
0.443004
21
120.105077
0
LINE
8
Image
10
0.443004
20
120.105077
11
0.572932
21
122.082222
0
LINE
8
Image
10
0.572932
20
122.082222
11
0.741648
21
122.273515
0
LINE
8
Image
10
0.741648
20
122.273515
11
1.022771
21
122.080627
0
LINE
8
Image
10
1.022771
20
122.080627
11
1.908474
21
121.544343
0
LINE
8
Image
10
1.908474
20
121.544343
11
2.211690
21
121.351395
0
LINE
8
Image
10
2.211690
20
121.351395
11
2.233754
21
120.878053
0
LINE
8
Image
10
2.233754
20
120.878053
11
2.005235
21
120.282566
0
LINE
8
Image
10
2.005235
20
120.282566
11
1.556698
21
119.723183
0
LINE
8
Image
10
1.556698
20
119.723183
11
1.188505
21
119.336037
0
LINE
8
Image
10
1.188505
20
119.336037
11
1.044731
21
118.924751
0
LINE
8
Image
10
1.044731
20
118.924751
11
1.379690
21
117.349013
0
LINE
8
Image
10
1.379690
20
117.349013
11
1.991023
21
115.925499
0
LINE
8
Image
10
1.991023
20
115.925499
11
2.364257
21
115.563912
0
LINE
8
Image
10
2.364257
20
115.563912
11
2.833480
21
115.366293
0
LINE
8
Image
10
2.833480
20
115.366293
11
3.459932
21
115.029291
0
LINE
8
Image
10
3.459932
20
115.029291
11
3.742749
21
114.491286
0
LINE
8
Image
10
3.742749
20
114.491286
11
3.662221
21
113.865670
0
LINE
8
Image
10
3.662221
20
113.865670
11
3.198636
21
113.265833
0
LINE
8
Image
10
3.198636
20
113.265833
11
2.794685
21
112.779899
0
LINE
8
Image
10
2.794685
20
112.779899
11
2.679485
21
112.095082
0
LINE
8
Image
10
2.679485
20
112.095082
11
2.860462
21
111.011805
0
LINE
8
Image
10
2.860462
20
111.011805
11
3.345040
21
109.330493
0
LINE
8
Image
10
3.345040
20
109.330493
11
4.102998
21
107.474610
0
LINE
8
Image
10
4.102998
20
107.474610
11
4.515975
21
107.020719
0
LINE
8
Image
10
4.515975
20
107.020719
11
5.032830
21
106.759133
0
LINE
8
Image
10
5.032830
20
106.759133
11
5.692967
21
106.482050
0
LINE
8
Image
10
5.692967
20
106.482050
11
5.961248
21
106.139785
0
LINE
8
Image
10
5.961248
20
106.139785
11
5.862965
21
105.601309
0
LINE
8
Image
10
5.862965
20
105.601309
11
5.423407
21
104.735593
0
LINE
8
Image
10
5.423407
20
104.735593
11
5.114481
21
104.104770
0
LINE
8
Image
10
5.114481
20
104.104770
11
5.035467
21
103.562275
0
LINE
8
Image
10
5.035467
20
103.562275
11
5.201862
21
102.893259
0
LINE
8
Image
10
5.201862
20
102.893259
11
5.629163
21
101.882873
0
LINE
8
Image
10
5.629163
20
101.882873
11
6.456394
21
100.453549
0
LINE
8
Image
10
6.456394
20
100.453549
11
6.864811
21
100.173895
0
LINE
8
Image
10
6.864811
20
100.173895
11
7.355503
21
100.095473
0
LINE
8
Image
10
7.355503
20
100.095473
11
7.976728
21
99.938979
0
LINE
8
Image
10
7.976728
20
99.938979
11
8.255924
21
99.511774
0
LINE
8
Image
10
8.255924
20
99.511774
11
8.180898
21
98.877274
0
LINE
8
Image
10
8.180898
20
98.877274
11
7.739454
21
98.098893
0
LINE
8
Image
10
7.739454
20
98.098893
11
7.503848
21
97.667377
0
LINE
8
Image
10
7.503848
20
97.667377
11
7.483448
21
97.146676
0
LINE
8
Image
10
7.483448
20
97.146676
11
8.189326
21
95.182613
0
LINE
8
Image
10
8.189326
20
95.182613
11
8.734322
21
93.998276
0
LINE
8
Image
10
8.734322
20
93.998276
11
9.171629
21
93.322143
0
LINE
8
Image
10
9.171629
20
93.322143
11
9.625885
21
93.017050
0
LINE
8
Image
10
9.625885
20
93.017050
11
10.221726
21
92.945833
0
LINE
8
Image
10
10.221726
20
92.945833
11
11.072045
21
92.779749
0
LINE
8
Image
10
11.072045
20
92.779749
11
11.240998
21
92.529198
0
LINE
8
Image
10
11.240998
20
92.529198
11
11.289006
21
92.128800
0
LINE
8
Image
10
11.289006
20
92.128800
11
11.115857
21
91.360455
0
LINE
8
Image
10
11.115857
20
91.360455
11
10.699564
21
90.660460
0
LINE
8
Image
10
10.699564
20
90.660460
11
10.407335
21
90.254371
0
LINE
8
Image
10
10.407335
20
90.254371
11
10.355993
21
89.809635
0
LINE
8
Image
10
10.355993
20
89.809635
11
11.082199
21
88.090830
0
LINE
8
Image
10
11.082199
20
88.090830
11
11.627880
21
87.090388
0
LINE
8
Image
10
11.627880
20
87.090388
11
12.080656
21
86.508821
0
LINE
8
Image
10
12.080656
20
86.508821
11
12.557860
21
86.238679
0
LINE
8
Image
10
12.557860
20
86.238679
11
13.176829
21
86.172510
0
LINE
8
Image
10
13.176829
20
86.172510
11
13.892422
21
86.111664
0
LINE
8
Image
10
13.892422
20
86.111664
11
14.225177
21
85.874590
0
LINE
8
Image
10
14.225177
20
85.874590
11
14.210649
21
85.379483
0
LINE
8
Image
10
14.210649
20
85.379483
11
13.884393
21
84.544540
0
LINE
8
Image
10
13.884393
20
84.544540
11
13.711859
21
84.021728
0
LINE
8
Image
10
13.711859
20
84.021728
11
13.700307
21
83.481602
0
LINE
8
Image
10
13.700307
20
83.481602
11
14.208786
21
81.962270
0
LINE
8
Image
10
14.208786
20
81.962270
11
14.652367
21
81.030505
0
LINE
8
Image
10
14.652367
20
81.030505
11
15.037260
21
80.549964
0
LINE
8
Image
10
15.037260
20
80.549964
11
15.534996
21
80.397658
0
LINE
8
Image
10
15.534996
20
80.397658
11
16.317106
21
80.450600
0
LINE
8
Image
10
16.317106
20
80.450600
11
17.225510
21
80.455265
0
LINE
8
Image
10
17.225510
20
80.455265
11
17.655022
21
80.187097
0
LINE
8
Image
10
17.655022
20
80.187097
11
17.615105
21
79.625950
0
LINE
8
Image
10
17.615105
20
79.625950
11
17.115218
21
78.751680
0
LINE
8
Image
10
17.115218
20
78.751680
11
16.832786
21
78.252149
0
LINE
8
Image
10
16.832786
20
78.252149
11
16.792573
21
77.739039
0
LINE
8
Image
10
16.792573
20
77.739039
11
17.566225
21
75.853230
0
LINE
8
Image
10
17.566225
20
75.853230
11
18.588055
21
73.769750
0
LINE
8
Image
10
18.588055
20
73.769750
11
20.077455
21
74.007917
0
LINE
8
Image
10
20.077455
20
74.007917
11
21.323112
21
74.088484
0
LINE
8
Image
10
21.323112
20
74.088484
11
21.415257
21
73.846571
0
LINE
8
Image
10
21.415257
20
73.846571
11
21.289405
21
73.341901
0
LINE
8
Image
10
21.289405
20
73.341901
11
20.955840
21
72.097713
0
LINE
8
Image
10
20.955840
20
72.097713
11
20.877532
21
71.184300
0
LINE
8
Image
10
20.877532
20
71.184300
11
21.069688
21
70.371047
0
LINE
8
Image
10
21.069688
20
70.371047
11
21.547511
21
69.427341
0
LINE
8
Image
10
21.547511
20
69.427341
11
22.047946
21
68.629462
0
LINE
8
Image
10
22.047946
20
68.629462
11
22.477763
21
68.192014
0
LINE
8
Image
10
22.477763
20
68.192014
11
22.971144
21
68.027509
0
LINE
8
Image
10
22.971144
20
68.027509
11
23.662271
21
68.048461
0
LINE
8
Image
10
23.662271
20
68.048461
11
24.365337
21
68.097845
0
LINE
8
Image
10
24.365337
20
68.097845
11
24.707605
21
68.001171
0
LINE
8
Image
10
24.707605
20
68.001171
11
24.775040
21
67.668315
0
LINE
8
Image
10
24.775040
20
67.668315
11
24.653610
21
67.009151
0
LINE
8
Image
10
24.653610
20
67.009151
11
24.588330
21
66.316168
0
LINE
8
Image
10
24.588330
20
66.316168
11
24.751100
21
65.570410
0
LINE
8
Image
10
24.751100
20
65.570410
11
26.005560
21
63.237761
0
LINE
8
Image
10
26.005560
20
63.237761
11
26.921909
21
61.801312
0
LINE
8
Image
10
26.921909
20
61.801312
11
27.541139
21
61.048016
0
LINE
8
Image
10
27.541139
20
61.048016
11
28.073517
21
60.793935
0
LINE
8
Image
10
28.073517
20
60.793935
11
28.729310
21
60.855131
0
LINE
8
Image
10
28.729310
20
60.855131
11
29.357963
21
60.958392
0
LINE
8
Image
10
29.357963
20
60.958392
11
29.662329
21
60.883957
0
LINE
8
Image
10
29.662329
20
60.883957
11
29.717970
21
60.545081
0
LINE
8
Image
10
29.717970
20
60.545081
11
29.600450
21
59.855021
0
LINE
8
Image
10
29.600450
20
59.855021
11
29.530991
21
59.154353
0
LINE
8
Image
10
29.530991
20
59.154353
11
29.665302
21
58.480824
0
LINE
8
Image
10
29.665302
20
58.480824
11
30.764620
21
56.602161
0
LINE
8
Image
10
30.764620
20
56.602161
11
31.558973
21
55.516867
0
LINE
8
Image
10
31.558973
20
55.516867
11
32.166275
21
54.903936
0
LINE
8
Image
10
32.166275
20
54.903936
11
32.766212
21
54.631603
0
LINE
8
Image
10
32.766212
20
54.631603
11
33.538470
21
54.568101
0
LINE
8
Image
10
33.538470
20
54.568101
11
34.621706
21
54.430697
0
LINE
8
Image
10
34.621706
20
54.430697
11
35.307164
21
54.011943
0
LINE
8
Image
10
35.307164
20
54.011943
11
35.614417
21
53.289326
0
LINE
8
Image
10
35.614417
20
53.289326
11
35.563040
21
52.240331
0
LINE
8
Image
10
35.563040
20
52.240331
11
35.504122
21
51.486833
0
LINE
8
Image
10
35.504122
20
51.486833
11
35.768435
21
50.781595
0
LINE
8
Image
10
35.768435
20
50.781595
11
36.535930
21
49.836857
0
LINE
8
Image
10
36.535930
20
49.836857
11
37.986560
21
48.364861
0
LINE
8
Image
10
37.986560
20
48.364861
11
39.860615
21
46.332396
0
LINE
8
Image
10
39.860615
20
46.332396
11
40.640090
21
45.130601
0
LINE
8
Image
10
40.640090
20
45.130601
11
40.416326
21
44.497069
0
LINE
8
Image
10
40.416326
20
44.497069
11
39.878342
21
43.830941
0
LINE
8
Image
10
39.878342
20
43.830941
11
39.370682
21
43.266793
0
LINE
8
Image
10
39.370682
20
43.266793
11
39.219825
21
42.878498
0
LINE
8
Image
10
39.219825
20
42.878498
11
41.156483
21
41.049283
0
LINE
8
Image
10
41.156483
20
41.049283
11
45.230382
21
37.590863
0
LINE
8
Image
10
45.230382
20
37.590863
11
49.349853
21
34.241260
0
LINE
8
Image
10
49.349853
20
34.241260
11
51.423225
21
32.738498
0
LINE
8
Image
10
51.423225
20
32.738498
11
51.780437
21
32.635554
0
LINE
8
Image
10
51.780437
20
32.635554
11
51.929012
21
32.388063
0
LINE
8
Image
10
51.929012
20
32.388063
11
53.795903
21
30.868930
0
LINE
8
Image
10
53.795903
20
30.868930
11
58.284382
21
27.708683
0
LINE
8
Image
10
58.284382
20
27.708683
11
63.400558
21
24.390678
0
LINE
8
Image
10
63.400558
20
24.390678
11
64.729784
21
23.716713
0
LINE
8
Image
10
64.729784
20
23.716713
11
65.434002
21
23.587483
0
LINE
8
Image
10
65.434002
20
23.587483
11
66.058949
21
23.594549
0
LINE
8
Image
10
66.058949
20
23.594549
11
66.228251
21
23.061675
0
LINE
8
Image
10
66.228251
20
23.061675
11
66.486734
21
22.576152
0
LINE
8
Image
10
66.486734
20
22.576152
11
67.364391
21
21.898256
0
LINE
8
Image
10
67.364391
20
21.898256
11
71.590471
21
19.565505
0
LINE
8
Image
10
71.590471
20
19.565505
11
78.238581
21
16.086925
0
LINE
8
Image
10
78.238581
20
16.086925
11
79.368415
21
15.585254
0
LINE
8
Image
10
79.368415
20
15.585254
11
79.640279
21
15.668698
0
LINE
8
Image
10
79.640279
20
15.668698
11
79.856541
21
15.964412
0
LINE
8
Image
10
79.856541
20
15.964412
11
80.304339
21
16.442057
0
LINE
8
Image
10
80.304339
20
16.442057
11
80.790116
21
16.564155
0
LINE
8
Image
10
80.790116
20
16.564155
11
81.138641
21
16.350031
0
LINE
8
Image
10
81.138641
20
16.350031
11
81.174681
21
15.819011
0
LINE
8
Image
10
81.174681
20
15.819011
11
81.165049
21
15.202924
0
LINE
8
Image
10
81.165049
20
15.202924
11
81.413012
21
14.759071
0
LINE
8
Image
10
81.413012
20
14.759071
11
88.118951
21
11.931746
0
LINE
8
Image
10
88.118951
20
11.931746
11
94.766712
21
9.408141
0
LINE
8
Image
10
94.766712
20
9.408141
11
95.147737
21
9.739752
0
LINE
8
Image
10
95.147737
20
9.739752
11
95.579328
21
10.537031
0
LINE
8
Image
10
95.579328
20
10.537031
11
96.130171
21
11.467946
0
LINE
8
Image
10
96.130171
20
11.467946
11
96.624867
21
11.703940
0
LINE
8
Image
10
96.624867
20
11.703940
11
96.809015
21
11.571409
0
LINE
8
Image
10
96.809015
20
11.571409
11
96.928555
21
11.277231
0
LINE
8
Image
10
96.928555
20
11.277231
11
96.906378
21
10.220039
0
LINE
8
Image
10
96.906378
20
10.220039
11
96.662095
21
8.774129
0
LINE
8
Image
10
96.662095
20
8.774129
11
104.075235
21
6.898709
0
LINE
8
Image
10
104.075235
20
6.898709
11
110.388329
21
5.412982
0
LINE
8
Image
10
110.388329
20
5.412982
11
111.378568
21
5.382476
0
LINE
8
Image
10
111.378568
20
5.382476
11
111.576072
21
5.507137
0
LINE
8
Image
10
111.576072
20
5.507137
11
111.668105
21
5.710529
0
LINE
8
Image
10
111.668105
20
5.710529
11
111.950393
21
6.192108
0
LINE
8
Image
10
111.950393
20
6.192108
11
112.359886
21
6.381960
0
LINE
8
Image
10
112.359886
20
6.381960
11
112.728699
21
6.264467
0
LINE
8
Image
10
112.728699
20
6.264467
11
112.888945
21
5.824010
0
LINE
8
Image
10
112.888945
20
5.824010
11
112.947244
21
5.531725
0
LINE
8
Image
10
112.947244
20
5.531725
11
113.160890
21
5.279373
0
LINE
8
Image
10
113.160890
20
5.279373
11
114.286719
21
4.835560
0
LINE
8
Image
10
114.286719
20
4.835560
11
116.731420
21
4.374755
0
LINE
8
Image
10
116.731420
20
4.374755
11
120.959985
21
3.779140
0
LINE
8
Image
10
120.959985
20
3.779140
11
127.827385
21
2.742230
0
LINE
8
Image
10
127.827385
20
2.742230
11
128.052856
21
2.740470
0
LINE
8
Image
10
128.052856
20
2.740470
11
128.204639
21
2.952306
0
LINE
8
Image
10
128.204639
20
2.952306
11
128.317083
21
4.099750
0
LINE
8
Image
10
128.317083
20
4.099750
11
128.456968
21
5.357943
0
LINE
8
Image
10
128.456968
20
5.357943
11
128.686119
21
5.585774
0
LINE
8
Image
10
128.686119
20
5.585774
11
129.069673
21
5.645200
0
LINE
8
Image
10
129.069673
20
5.645200
11
129.450335
21
5.587058
0
LINE
8
Image
10
129.450335
20
5.587058
11
129.679809
21
5.368214
0
LINE
8
Image
10
129.679809
20
5.368214
11
129.822266
21
4.181910
0
LINE
8
Image
10
129.822266
20
4.181910
11
129.853935
21
3.362274
0
LINE
8
Image
10
129.853935
20
3.362274
11
130.021547
21
2.892811
0
LINE
8
Image
10
130.021547
20
2.892811
11
130.434012
21
2.637438
0
LINE
8
Image
10
130.434012
20
2.637438
11
131.200236
21
2.460070
0
LINE
8
Image
10
131.200236
20
2.460070
11
133.601490
21
2.365607
0
LINE
8
Image
10
133.601490
20
2.365607
11
137.688140
21
2.431227
0
LINE
8
Image
10
137.688140
20
2.431227
11
141.831712
21
2.608819
0
LINE
8
Image
10
141.831712
20
2.608819
11
144.403736
21
2.850270
0
LINE
8
Image
10
144.403736
20
2.850270
11
144.823880
21
2.993422
0
LINE
8
Image
10
144.823880
20
2.993422
11
145.082938
21
3.249889
0
LINE
8
Image
10
145.082938
20
3.249889
11
145.250402
21
4.335350
0
LINE
8
Image
10
145.250402
20
4.335350
11
145.385014
21
5.332826
0
LINE
8
Image
10
145.385014
20
5.332826
11
145.560591
21
5.568992
0
LINE
8
Image
10
145.560591
20
5.568992
11
145.814846
21
5.645200
0
LINE
8
Image
10
145.814846
20
5.645200
11
146.070960
21
5.567250
0
LINE
8
Image
10
146.070960
20
5.567250
11
146.246330
21
5.323541
0
LINE
8
Image
10
146.246330
20
5.323541
11
146.379290
21
4.279700
0
LINE
8
Image
10
146.379290
20
4.279700
11
146.379000
21
2.914140
0
LINE
8
Image
10
146.379000
20
2.914140
11
150.236030
21
3.185553
0
LINE
8
Image
10
150.236030
20
3.185553
11
157.184171
21
3.930232
0
LINE
8
Image
10
157.184171
20
3.930232
11
160.045624
21
4.373464
0
LINE
8
Image
10
160.045624
20
4.373464
11
161.458630
21
4.721603
0
LINE
8
Image
10
161.458630
20
4.721603
11
161.704755
21
5.254061
0
LINE
8
Image
10
161.704755
20
5.254061
11
161.807126
21
6.231803
0
LINE
8
Image
10
161.807126
20
6.231803
11
161.963533
21
7.175686
0
LINE
8
Image
10
161.963533
20
7.175686
11
162.333965
21
7.530419
0
LINE
8
Image
10
162.333965
20
7.530419
11
162.770238
21
7.277330
0
LINE
8
Image
10
162.770238
20
7.277330
11
163.124166
21
6.397750
0
LINE
8
Image
10
163.124166
20
6.397750
11
163.413216
21
5.600472
0
LINE
8
Image
10
163.413216
20
5.600472
11
163.759990
21
5.268860
0
LINE
8
Image
10
163.759990
20
5.268860
11
171.538230
21
7.103530
0
LINE
8
Image
10
171.538230
20
7.103530
11
179.681180
21
8.964980
0
LINE
8
Image
10
179.681180
20
8.964980
11
182.036559
21
9.658651
0
LINE
8
Image
10
182.036559
20
9.658651
11
186.642660
21
11.288880
0
LINE
8
Image
10
186.642660
20
11.288880
11
193.361830
21
13.758320
0
LINE
8
Image
10
193.361830
20
13.758320
11
193.680272
21
14.105658
0
LINE
8
Image
10
193.680272
20
14.105658
11
193.646996
21
14.773840
0
LINE
8
Image
10
193.646996
20
14.773840
11
193.176972
21
16.501600
0
LINE
8
Image
10
193.176972
20
16.501600
11
193.115216
21
17.189992
0
LINE
8
Image
10
193.115216
20
17.189992
11
193.294282
21
17.282280
0
LINE
8
Image
10
193.294282
20
17.282280
11
193.640079
21
17.249883
0
LINE
8
Image
10
193.640079
20
17.249883
11
194.179745
21
16.933777
0
LINE
8
Image
10
194.179745
20
16.933777
11
194.483008
21
16.365258
0
LINE
8
Image
10
194.483008
20
16.365258
11
194.914819
21
15.302378
0
LINE
8
Image
10
194.914819
20
15.302378
11
195.265931
21
15.247560
0
LINE
8
Image
10
195.265931
20
15.247560
11
195.967869
21
15.406269
0
LINE
8
Image
10
195.967869
20
15.406269
11
198.227179
21
16.277849
0
LINE
8
Image
10
198.227179
20
16.277849
11
201.298662
21
17.744275
0
LINE
8
Image
10
201.298662
20
17.744275
11
204.788229
21
19.632708
0
LINE
8
Image
10
204.788229
20
19.632708
11
207.941972
21
21.593681
0
LINE
8
Image
10
207.941972
20
21.593681
11
208.541657
21
22.160732
0
LINE
8
Image
10
208.541657
20
22.160732
11
208.626099
21
22.555908
0
LINE
8
Image
10
208.626099
20
22.555908
11
208.193100
21
23.801408
0
LINE
8
Image
10
208.193100
20
23.801408
11
208.226459
21
24.317403
0
LINE
8
Image
10
208.226459
20
24.317403
11
208.586679
21
24.462379
0
LINE
8
Image
10
208.586679
20
24.462379
11
209.053977
21
24.253353
0
LINE
8
Image
10
209.053977
20
24.253353
11
209.408570
21
23.707343
0
LINE
8
Image
10
209.408570
20
23.707343
11
209.651392
21
23.165999
0
LINE
8
Image
10
209.651392
20
23.165999
11
210.015602
21
23.014901
0
LINE
8
Image
10
210.015602
20
23.014901
11
210.651131
21
23.269594
0
LINE
8
Image
10
210.651131
20
23.269594
11
211.707910
21
23.945623
0
LINE
8
Image
10
211.707910
20
23.945623
11
219.786236
21
29.464240
0
LINE
8
Image
10
219.786236
20
29.464240
11
222.247010
21
31.305073
0
LINE
8
Image
10
222.247010
20
31.305073
11
222.219026
21
31.811090
0
LINE
8
Image
10
222.219026
20
31.811090
11
221.858768
21
32.553623
0
LINE
8
Image
10
221.858768
20
32.553623
11
221.261888
21
33.854103
0
LINE
8
Image
10
221.261888
20
33.854103
11
221.324453
21
34.086993
0
LINE
8
Image
10
221.324453
20
34.086993
11
221.494567
21
34.219371
0
LINE
8
Image
10
221.494567
20
34.219371
11
222.051949
21
34.211160
0
LINE
8
Image
10
222.051949
20
34.211160
11
222.723056
21
33.886619
0
LINE
8
Image
10
222.723056
20
33.886619
11
223.296908
21
33.302895
0
LINE
8
Image
10
223.296908
20
33.302895
11
223.837972
21
32.638506
0
LINE
8
Image
10
223.837972
20
32.638506
11
224.273249
21
32.362164
0
LINE
8
Image
10
224.273249
20
32.362164
11
227.994393
21
35.443652
0
LINE
8
Image
10
227.994393
20
35.443652
11
234.594149
21
41.431674
0
LINE
8
Image
10
234.594149
20
41.431674
11
234.995805
21
41.845040
0
LINE
8
Image
10
234.995805
20
41.845040
11
235.131446
21
42.197840
0
LINE
8
Image
10
235.131446
20
42.197840
11
235.002525
21
42.667759
0
LINE
8
Image
10
235.002525
20
42.667759
11
234.610490
21
43.432484
0
LINE
8
Image
10
234.610490
20
43.432484
11
233.900538
21
44.750774
0
LINE
8
Image
10
233.900538
20
44.750774
11
236.643898
21
47.580024
0
LINE
8
Image
10
236.643898
20
47.580024
11
238.127488
21
49.148839
0
LINE
8
Image
10
238.127488
20
49.148839
11
238.919686
21
50.149221
0
LINE
8
Image
10
238.919686
20
50.149221
11
239.196040
21
50.862736
0
LINE
8
Image
10
239.196040
20
50.862736
11
239.132098
21
51.570954
0
LINE
8
Image
10
239.132098
20
51.570954
11
239.112341
21
52.623712
0
LINE
8
Image
10
239.112341
20
52.623712
11
239.520403
21
53.451539
0
LINE
8
Image
10
239.520403
20
53.451539
11
240.303013
21
53.993167
0
LINE
8
Image
10
240.303013
20
53.993167
11
241.406898
21
54.187324
0
LINE
8
Image
10
241.406898
20
54.187324
11
242.087059
21
54.262748
0
LINE
8
Image
10
242.087059
20
54.262748
11
242.678686
21
54.557667
0
LINE
8
Image
10
242.678686
20
54.557667
11
243.321064
21
55.175054
0
LINE
8
Image
10
243.321064
20
55.175054
11
244.153478
21
56.217884
0
LINE
8
Image
10
244.153478
20
56.217884
11
244.954623
21
57.334655
0
LINE
8
Image
10
244.954623
20
57.334655
11
245.386946
21
58.142688
0
LINE
8
Image
10
245.386946
20
58.142688
11
245.528651
21
58.848164
0
LINE
8
Image
10
245.528651
20
58.848164
11
245.457938
21
59.657264
0
LINE
8
Image
10
245.457938
20
59.657264
11
245.229313
21
61.066084
0
LINE
8
Image
10
245.229313
20
61.066084
11
246.603053
21
60.808359
0
LINE
8
Image
10
246.603053
20
60.808359
11
247.416379
21
60.700762
0
LINE
8
Image
10
247.416379
20
60.700762
11
247.990798
21
60.886489
0
LINE
8
Image
10
247.990798
20
60.886489
11
248.585339
21
61.554788
0
LINE
8
Image
10
248.585339
20
61.554788
11
249.459033
21
62.894909
0
LINE
8
Image
10
249.459033
20
62.894909
11
250.545380
21
64.875321
0
LINE
8
Image
10
250.545380
20
64.875321
11
250.683041
21
65.467645
0
LINE
8
Image
10
250.683041
20
65.467645
11
250.589003
21
65.897389
0
LINE
8
Image
10
250.589003
20
65.897389
11
250.236739
21
67.186659
0
LINE
8
Image
10
250.236739
20
67.186659
11
250.289352
21
67.489815
0
LINE
8
Image
10
250.289352
20
67.489815
11
250.479027
21
67.647341
0
LINE
8
Image
10
250.479027
20
67.647341
11
251.460579
21
67.588148
0
LINE
8
Image
10
251.460579
20
67.588148
11
252.158474
21
67.502473
0
LINE
8
Image
10
252.158474
20
67.502473
11
252.636894
21
67.644021
0
LINE
8
Image
10
252.636894
20
67.644021
11
253.058726
21
68.125515
0
LINE
8
Image
10
253.058726
20
68.125515
11
253.586859
21
69.059678
0
LINE
8
Image
10
253.586859
20
69.059678
11
254.243349
21
70.622486
0
LINE
8
Image
10
254.243349
20
70.622486
11
254.243700
21
71.160593
0
LINE
8
Image
10
254.243700
20
71.160593
11
254.056358
21
71.711008
0
LINE
8
Image
10
254.056358
20
71.711008
11
253.661257
21
72.762312
0
LINE
8
Image
10
253.661257
20
72.762312
11
253.650620
21
73.402538
0
LINE
8
Image
10
253.650620
20
73.402538
11
254.045503
21
73.682090
0
LINE
8
Image
10
254.045503
20
73.682090
11
254.866962
21
73.651368
0
LINE
8
Image
10
254.866962
20
73.651368
11
255.571192
21
73.586080
0
LINE
8
Image
10
255.571192
20
73.586080
11
256.078414
21
73.736074
0
LINE
8
Image
10
256.078414
20
73.736074
11
256.550105
21
74.203141
0
LINE
8
Image
10
256.550105
20
74.203141
11
257.147742
21
75.089068
0
LINE
8
Image
10
257.147742
20
75.089068
11
257.898940
21
76.550686
0
LINE
8
Image
10
257.898940
20
76.550686
11
257.938188
21
77.034362
0
LINE
8
Image
10
257.938188
20
77.034362
11
257.785665
21
77.474688
0
LINE
8
Image
10
257.785665
20
77.474688
11
257.503657
21
78.238745
0
LINE
8
Image
10
257.503657
20
78.238745
11
257.386363
21
79.028008
0
LINE
8
Image
10
257.386363
20
79.028008
11
257.424668
21
79.436677
0
LINE
8
Image
10
257.424668
20
79.436677
11
257.576921
21
79.648392
0
LINE
8
Image
10
257.576921
20
79.648392
11
258.447293
21
79.602217
0
LINE
8
Image
10
258.447293
20
79.602217
11
259.048148
21
79.527234
0
LINE
8
Image
10
259.048148
20
79.527234
11
259.495352
21
79.692130
0
LINE
8
Image
10
259.495352
20
79.692130
11
259.928704
21
80.204407
0
LINE
8
Image
10
259.928704
20
80.204407
11
260.488003
21
81.171567
0
LINE
8
Image
10
260.488003
20
81.171567
11
261.215308
21
82.795350
0
LINE
8
Image
10
261.215308
20
82.795350
11
261.186184
21
83.260015
0
LINE
8
Image
10
261.186184
20
83.260015
11
260.932254
21
83.704397
0
LINE
8
Image
10
260.932254
20
83.704397
11
260.484986
21
84.471525
0
LINE
8
Image
10
260.484986
20
84.471525
11
260.447318
21
85.006320
0
LINE
8
Image
10
260.447318
20
85.006320
11
260.823976
21
85.320626
0
LINE
8
Image
10
260.823976
20
85.320626
11
261.619688
21
85.426287
0
LINE
8
Image
10
261.619688
20
85.426287
11
262.307193
21
85.486106
0
LINE
8
Image
10
262.307193
20
85.486106
11
262.789378
21
85.751993
0
LINE
8
Image
10
262.789378
20
85.751993
11
263.213318
21
86.366930
0
LINE
8
Image
10
263.213318
20
86.366930
11
263.726088
21
87.473897
0
LINE
8
Image
10
263.726088
20
87.473897
11
264.385709
21
89.336746
0
LINE
8
Image
10
264.385709
20
89.336746
11
264.316134
21
89.850439
0
LINE
8
Image
10
264.316134
20
89.850439
11
264.008310
21
90.373417
0
LINE
8
Image
10
264.008310
20
90.373417
11
263.536286
21
91.192209
0
LINE
8
Image
10
263.536286
20
91.192209
11
263.453780
21
91.758382
0
LINE
8
Image
10
263.453780
20
91.758382
11
263.764642
21
92.087023
0
LINE
8
Image
10
263.764642
20
92.087023
11
264.472723
21
92.193217
0
LINE
8
Image
10
264.472723
20
92.193217
11
265.074969
21
92.266216
0
LINE
8
Image
10
265.074969
20
92.266216
11
265.527558
21
92.597589
0
LINE
8
Image
10
265.527558
20
92.597589
11
265.968749
21
93.355898
0
LINE
8
Image
10
265.968749
20
93.355898
11
266.536803
21
94.709707
0
LINE
8
Image
10
266.536803
20
94.709707
11
267.276447
21
96.910666
0
LINE
8
Image
10
267.276447
20
96.910666
11
267.242550
21
97.437193
0
LINE
8
Image
10
267.242550
20
97.437193
11
266.976352
21
97.843787
0
LINE
8
Image
10
266.976352
20
97.843787
11
266.516761
21
98.496005
0
LINE
8
Image
10
266.516761
20
98.496005
11
266.447889
21
98.974607
0
LINE
8
Image
10
266.447889
20
98.974607
11
266.758815
21
99.245777
0
LINE
8
Image
10
266.758815
20
99.245777
11
267.438620
21
99.275697
0
LINE
8
Image
10
267.438620
20
99.275697
11
268.005964
21
99.267641
0
LINE
8
Image
10
268.005964
20
99.267641
11
268.408716
21
99.482326
0
LINE
8
Image
10
268.408716
20
99.482326
11
268.758977
21
100.033814
0
LINE
8
Image
10
268.758977
20
100.033814
11
269.168850
21
101.036167
0
LINE
8
Image
10
269.168850
20
101.036167
11
269.678349
21
102.793347
0
LINE
8
Image
10
269.678349
20
102.793347
11
269.587427
21
103.351131
0
LINE
8
Image
10
269.587427
20
103.351131
11
269.276583
21
103.982957
0
LINE
8
Image
10
269.276583
20
103.982957
11
268.835782
21
104.910803
0
LINE
8
Image
10
268.835782
20
104.910803
11
268.706497
21
105.578035
0
LINE
8
Image
10
268.706497
20
105.578035
11
268.888549
21
105.981031
0
LINE
8
Image
10
268.888549
20
105.981031
11
269.381761
21
106.116167
0
LINE
8
Image
10
269.381761
20
106.116167
11
270.008928
21
106.246971
0
LINE
8
Image
10
270.008928
20
106.246971
11
270.497836
21
106.743741
0
LINE
8
Image
10
270.497836
20
106.743741
11
270.945156
21
107.763016
0
LINE
8
Image
10
270.945156
20
107.763016
11
271.447561
21
109.461337
0
LINE
8
Image
10
271.447561
20
109.461337
11
271.906978
21
111.655874
0
LINE
8
Image
10
271.906978
20
111.655874
11
271.751741
21
112.173576
0
LINE
8
Image
10
271.751741
20
112.173576
11
271.325514
21
112.684107
0
LINE
8
Image
10
271.325514
20
112.684107
11
270.744724
21
113.431309
0
LINE
8
Image
10
270.744724
20
113.431309
11
270.605348
21
113.965992
0
LINE
8
Image
10
270.605348
20
113.965992
11
270.907237
21
114.287376
0
LINE
8
Image
10
270.907237
20
114.287376
11
271.650239
21
114.394677
0
LINE
8
Image
10
271.650239
20
114.394677
11
272.247785
21
114.451085
0
LINE
8
Image
10
272.247785
20
114.451085
11
272.660424
21
114.691796
0
LINE
8
Image
10
272.660424
20
114.691796
11
272.991302
21
115.224039
0
LINE
8
Image
10
272.991302
20
115.224039
11
273.343569
21
116.155047
0
LINE
8
Image
10
273.343569
20
116.155047
11
273.766779
21
117.453504
0
LINE
8
Image
10
273.766779
20
117.453504
11
273.891307
21
118.164260
0
LINE
8
Image
10
273.891307
20
118.164260
11
273.703773
21
118.512170
0
LINE
8
Image
10
273.703773
20
118.512170
11
273.190794
21
118.722087
0
LINE
8
Image
10
273.190794
20
118.722087
11
272.615063
21
119.110667
0
LINE
8
Image
10
272.615063
20
119.110667
11
272.454131
21
119.661274
0
LINE
8
Image
10
272.454131
20
119.661274
11
272.695271
21
120.200914
0
LINE
8
Image
10
272.695271
20
120.200914
11
273.325753
21
120.556597
0
LINE
8
Image
10
273.325753
20
120.556597
11
273.789801
21
120.755998
0
LINE
8
Image
10
273.789801
20
120.755998
11
274.125889
21
121.148626
0
LINE
8
Image
10
274.125889
20
121.148626
11
274.644873
21
122.928337
0
LINE
8
Image
10
274.644873
20
122.928337
11
274.866158
21
124.527509
0
LINE
8
Image
10
274.866158
20
124.527509
11
274.792142
21
125.354607
0
LINE
8
Image
10
274.792142
20
125.354607
11
265.960931
21
129.036224
0
LINE
8
Image
10
265.960931
20
129.036224
11
257.011542
21
132.456897
0
LINE
8
Image
10
257.011542
20
132.456897
11
256.744768
21
132.605884
0
LINE
8
Image
10
256.744768
20
132.605884
11
256.633808
21
132.964084
0
LINE
8
Image
10
256.633808
20
132.964084
11
256.885717
21
133.241546
0
LINE
8
Image
10
256.885717
20
133.241546
11
257.642664
21
133.565936
0
LINE
8
Image
10
257.642664
20
133.565936
11
260.678988
21
134.358024
0
LINE
8
Image
10
260.678988
20
134.358024
11
267.469998
21
136.014544
0
LINE
8
Image
10
267.469998
20
136.014544
11
270.215828
21
136.784310
0
LINE
8
Image
10
270.215828
20
136.784310
11
270.190512
21
153.142010
0
LINE
8
Image
10
270.190512
20
153.142010
11
270.091974
21
164.767425
0
LINE
8
Image
10
270.091974
20
164.767425
11
269.890612
21
169.747510
0
LINE
8
Image
10
269.890612
20
169.747510
11
268.093913
21
170.217905
0
LINE
8
Image
10
268.093913
20
170.217905
11
264.159752
21
171.000860
0
LINE
8
Image
10
264.159752
20
171.000860
11
258.325761
21
172.158010
0
LINE
8
Image
10
258.325761
20
172.158010
11
257.527575
21
172.481633
0
LINE
8
Image
10
257.527575
20
172.481633
11
257.388332
21
172.839960
0
LINE
8
Image
10
257.388332
20
172.839960
11
257.990222
21
173.217607
0
LINE
8
Image
10
257.990222
20
173.217607
11
259.627523
21
173.916887
0
LINE
8
Image
10
259.627523
20
173.916887
11
265.008322
21
175.881180
0
LINE
8
Image
10
265.008322
20
175.881180
11
272.883262
21
178.703400
0
LINE
8
Image
10
272.883262
20
178.703400
11
272.885133
21
179.609145
0
LINE
8
Image
10
272.885133
20
179.609145
11
272.528927
21
181.469410
0
LINE
8
Image
10
272.528927
20
181.469410
11
271.872071
21
183.578634
0
LINE
8
Image
10
271.872071
20
183.578634
11
271.521899
21
183.927244
0
LINE
8
Image
10
271.521899
20
183.927244
11
271.037297
21
184.009410
0
LINE
8
Image
10
271.037297
20
184.009410
11
270.291502
21
184.192121
0
LINE
8
Image
10
270.291502
20
184.192121
11
269.923880
21
184.654293
0
LINE
8
Image
10
269.923880
20
184.654293
11
269.972677
21
185.266986
0
LINE
8
Image
10
269.972677
20
185.266986
11
270.476138
21
185.901260
0
LINE
8
Image
10
270.476138
20
185.901260
11
271.273596
21
186.547004
0
LINE
8
Image
10
271.273596
20
186.547004
11
270.256666
21
189.657094
0
LINE
8
Image
10
270.256666
20
189.657094
11
269.236480
21
192.266194
0
LINE
8
Image
10
269.236480
20
192.266194
11
268.774228
21
192.827651
0
LINE
8
Image
10
268.774228
20
192.827651
11
268.204926
21
193.128814
0
LINE
8
Image
10
268.204926
20
193.128814
11
267.523445
21
193.453258
0
LINE
8
Image
10
267.523445
20
193.453258
11
267.223588
21
193.837427
0
LINE
8
Image
10
267.223588
20
193.837427
11
267.296437
21
194.315177
0
LINE
8
Image
10
267.296437
20
194.315177
11
267.733076
21
194.920364
0
LINE
8
Image
10
267.733076
20
194.920364
11
268.006923
21
195.322703
0
LINE
8
Image
10
268.006923
20
195.322703
11
268.063774
21
195.821176
0
LINE
8
Image
10
268.063774
20
195.821176
11
267.456459
21
197.847694
0
LINE
8
Image
10
267.456459
20
197.847694
11
266.614060
21
199.688852
0
LINE
8
Image
10
266.614060
20
199.688852
11
266.208033
21
200.146722
0
LINE
8
Image
10
266.208033
20
200.146722
11
265.764609
21
200.366864
0
LINE
8
Image
10
265.764609
20
200.366864
11
265.213873
21
200.582713
0
LINE
8
Image
10
265.213873
20
200.582713
11
264.961296
21
200.909211
0
LINE
8
Image
10
264.961296
20
200.909211
11
264.993687
21
201.395028
0
LINE
8
Image
10
264.993687
20
201.395028
11
265.297851
21
202.088834
0
LINE
8
Image
10
265.297851
20
202.088834
11
265.431672
21
202.543899
0
LINE
8
Image
10
265.431672
20
202.543899
11
265.366041
21
203.129790
0
LINE
8
Image
10
265.366041
20
203.129790
11
264.539839
21
205.074464
0
LINE
8
Image
10
264.539839
20
205.074464
11
263.436469
21
206.902833
0
LINE
8
Image
10
263.436469
20
206.902833
11
262.977273
21
207.246706
0
LINE
8
Image
10
262.977273
20
207.246706
11
262.460989
21
207.339764
0
LINE
8
Image
10
262.460989
20
207.339764
11
261.871208
21
207.456843
0
LINE
8
Image
10
261.871208
20
207.456843
11
261.568323
21
207.766473
0
LINE
8
Image
10
261.568323
20
207.766473
11
261.576847
21
208.206249
0
LINE
8
Image
10
261.576847
20
208.206249
11
261.921293
21
208.713764
0
LINE
8
Image
10
261.921293
20
208.713764
11
262.062980
21
208.984352
0
LINE
8
Image
10
262.062980
20
208.984352
11
262.071614
21
209.393282
0
LINE
8
Image
10
262.071614
20
209.393282
11
261.680919
21
210.698914
0
LINE
8
Image
10
261.680919
20
210.698914
11
261.254389
21
212.087673
0
LINE
8
Image
10
261.254389
20
212.087673
11
261.321437
21
212.462528
0
LINE
8
Image
10
261.321437
20
212.462528
11
261.567514
21
212.767524
0
LINE
8
Image
10
261.567514
20
212.767524
11
268.110887
21
216.815649
0
LINE
8
Image
10
268.110887
20
216.815649
11
274.848014
21
220.649744
0
LINE
8
Image
10
274.848014
20
220.649744
11
275.077859
21
220.791401
0
LINE
8
Image
10
275.077859
20
220.791401
11
275.248480
21
221.165713
0
LINE
8
Image
10
275.248480
20
221.165713
11
275.431450
21
223.434322
0
LINE
8
Image
10
275.431450
20
223.434322
11
275.300111
21
239.805644
0
LINE
8
Image
10
275.300111
20
239.805644
11
275.035827
21
258.704144
0
LINE
8
Image
10
275.035827
20
258.704144
11
271.500437
21
269.616744
0
LINE
8
Image
10
271.500437
20
269.616744
11
268.969720
21
277.765902
0
LINE
8
Image
10
268.969720
20
277.765902
11
267.849827
21
282.034544
0
LINE
8
Image
10
267.849827
20
282.034544
11
267.734607
21
283.539724
0
LINE
8
Image
10
267.734607
20
283.539724
11
256.727907
21
283.639481
0
LINE
8
Image
10
256.727907
20
283.639481
11
245.721207
21
283.739241
0
LINE
8
Image
10
245.721207
20
283.739241
11
245.721000
21
282.676000
0
LINE
8
Image
10
245.721000
20
282.676000
11
244.560361
21
278.524902
0
LINE
8
Image
10
244.560361
20
278.524902
11
241.769890
21
270.037400
0
LINE
8
Image
10
241.769890
20
270.037400
11
237.818780
21
258.461900
0
LINE
8
Image
10
237.818780
20
258.461900
11
237.819000
21
252.657000
0
LINE
8
Image
10
237.819000
20
252.657000
11
237.717197
21
248.090566
0
LINE
8
Image
10
237.717197
20
248.090566
11
237.570330
21
247.134649
0
LINE
8
Image
10
237.570330
20
247.134649
11
237.342050
21
246.851380
0
LINE
8
Image
10
237.342050
20
246.851380
11
235.981798
21
248.177752
0
LINE
8
Image
10
235.981798
20
248.177752
11
233.381150
21
251.366690
0
LINE
8
Image
10
233.381150
20
251.366690
11
231.078214
21
254.470735
0
LINE
8
Image
10
231.078214
20
254.470735
11
228.559577
21
258.901466
0
LINE
8
Image
10
228.559577
20
258.901466
11
223.940802
21
268.313759
0
LINE
8
Image
10
223.940802
20
268.313759
11
215.337450
21
286.362490
0
LINE
8
Image
10
215.337450
20
286.362490
11
207.904740
21
301.978790
0
LINE
8
Image
10
207.904740
20
301.978790
11
186.544000
21
346.757000
0
LINE
8
Image
10
186.544000
20
346.757000
11
180.984000
21
358.423000
0
LINE
8
Image
10
180.984000
20
358.423000
11
174.456000
21
372.157000
0
LINE
8
Image
10
174.456000
20
372.157000
11
169.716570
21
382.128840
0
LINE
8
Image
10
169.716570
20
382.128840
11
167.173260
21
382.319130
0
LINE
8
Image
10
167.173260
20
382.319130
11
164.830490
21
382.693777
0
LINE
8
Image
10
164.830490
20
382.693777
11
163.932003
21
383.054213
0
LINE
8
Image
10
163.932003
20
383.054213
11
163.046200
21
383.581840
0
LINE
8
Image
10
163.046200
20
383.581840
11
162.105194
21
384.171155
0
LINE
8
Image
10
162.105194
20
384.171155
11
161.307580
21
384.459770
0
LINE
8
Image
10
161.307580
20
384.459770
11
160.320944
21
384.511005
0
LINE
8
Image
10
160.320944
20
384.511005
11
158.812870
21
384.388174
0
LINE
8
Image
10
158.812870
20
384.388174
11
156.163300
21
384.122088
0
LINE
8
Image
10
156.163300
20
384.122088
11
156.163000
21
376.598000
0
LINE
8
Image
10
156.163000
20
376.598000
11
156.163000
21
369.074000
0
LINE
8
Image
10
156.163000
20
369.074000
11
154.657820
21
367.364020
0
LINE
8
Image
10
154.657820
20
367.364020
11
153.152630
21
365.654040
0
LINE
8
Image
10
153.152630
20
365.654040
11
153.152000
21
344.447000
0
LINE
8
Image
10
153.152000
20
344.447000
11
153.152000
21
323.239000
0
LINE
8
Image
10
153.152000
20
323.239000
11
154.990000
21
323.239000
0
LINE
8
Image
10
154.990000
20
323.239000
11
156.019344
21
323.195754
0
LINE
8
Image
10
156.019344
20
323.195754
11
156.751444
21
322.998155
0
LINE
8
Image
10
156.751444
20
322.998155
11
157.402451
21
322.544411
0
LINE
8
Image
10
157.402451
20
322.544411
11
158.188520
21
321.732730
0
LINE
8
Image
10
158.188520
20
321.732730
11
159.549340
21
320.226460
0
LINE
8
Image
10
159.549340
20
320.226460
11
159.550000
21
311.446000
0
LINE
8
Image
10
159.550000
20
311.446000
11
159.798719
21
293.558900
0
LINE
8
Image
10
159.798719
20
293.558900
11
160.047444
21
284.452730
0
LINE
8
Image
10
160.047444
20
284.452730
11
158.387604
21
284.707379
0
LINE
8
Image
10
158.387604
20
284.707379
11
156.672414
21
285.003735
0
LINE
8
Image
10
156.672414
20
285.003735
11
156.355630
21
293.383539
0
LINE
8
Image
10
156.355630
20
293.383539
11
156.175565
21
308.849635
0
LINE
8
Image
10
156.175565
20
308.849635
11
156.163317
21
320.236135
0
LINE
8
Image
10
156.163317
20
320.236135
11
137.442617
21
320.138548
0
LINE
8
Image
10
137.442617
20
320.138548
11
118.721917
21
320.040962
0
LINE
8
Image
10
118.721917
20
320.040962
11
118.857903
21
302.449162
0
LINE
8
Image
10
118.857903
20
302.449162
11
118.993892
21
284.857362
0
LINE
8
Image
10
118.993892
20
284.857362
11
117.258000
21
284.857000
0
LINE
8
Image
10
117.258000
20
284.857000
11
115.523000
21
284.857000
0
LINE
8
Image
10
115.523000
20
284.857000
11
115.523000
21
302.843000
0
LINE
8
Image
10
115.523000
20
302.843000
11
115.523000
21
320.828000
0
LINE
8
Image
10
115.523000
20
320.828000
11
116.949980
21
322.221410
0
LINE
8
Image
10
116.949980
20
322.221410
11
117.755579
21
322.948593
0
LINE
8
Image
10
117.755579
20
322.948593
11
118.437254
21
323.370968
0
LINE
8
Image
10
118.437254
20
323.370968
11
119.174922
21
323.566913
0
LINE
8
Image
10
119.174922
20
323.566913
11
120.148500
21
323.614810
0
LINE
8
Image
10
120.148500
20
323.614810
11
121.920000
21
323.615000
0
LINE
8
Image
10
121.920000
20
323.615000
11
121.919153
21
333.304620
0
LINE
8
Image
10
121.919153
20
333.304620
11
121.669759
21
354.589820
0
LINE
8
Image
10
121.669759
20
354.589820
11
121.421028
21
366.185320
0
LINE
8
Image
10
121.421028
20
366.185320
11
120.168888
21
367.760140
0
LINE
8
Image
10
120.168888
20
367.760140
11
118.916838
21
369.334960
0
LINE
8
Image
10
118.916838
20
369.334960
11
118.913198
21
376.954950
0
LINE
8
Image
10
118.913198
20
376.954950
11
118.909557
21
384.574940
0
LINE
8
Image
10
118.909557
20
384.574940
11
116.043000
21
384.575000
0
LINE
8
Image
10
116.043000
20
384.575000
11
114.443890
21
384.545285
0
LINE
8
Image
10
114.443890
20
384.545285
11
113.419089
21
384.401685
0
LINE
8
Image
10
113.419089
20
384.401685
11
112.668156
21
384.062520
0
LINE
8
Image
10
112.668156
20
384.062520
11
111.890650
21
383.446110
0
LINE
8
Image
10
111.890650
20
383.446110
11
111.118450
21
382.834363
0
LINE
8
Image
10
111.118450
20
382.834363
11
110.378795
21
382.494680
0
LINE
8
Image
10
110.378795
20
382.494680
11
109.392585
21
382.348490
0
LINE
8
Image
10
109.392585
20
382.348490
11
107.880720
21
382.317220
0
LINE
8
Image
10
107.880720
20
382.317220
11
105.156000
21
382.317000
0
LINE
8
Image
10
105.156000
20
382.317000
11
103.325280
21
378.648110
0
LINE
8
Image
10
103.325280
20
378.648110
11
93.790070
21
358.986610
0
LINE
8
Image
10
93.790070
20
358.986610
11
80.997270
21
332.457710
0
LINE
8
Image
10
80.997270
20
332.457710
11
63.679670
21
296.145110
0
LINE
8
Image
10
63.679670
20
296.145110
11
55.493400
21
279.023610
0
LINE
8
Image
10
55.493400
20
279.023610
11
47.154020
21
261.582210
0
LINE
8
Image
10
47.154020
20
261.582210
11
45.764037
21
258.866448
0
LINE
8
Image
10
45.764037
20
258.866448
11
44.758320
21
257.277920
0
LINE
8
Image
10
44.758320
20
257.277920
11
44.241293
21
256.522725
0
LINE
8
Image
10
44.241293
20
256.522725
11
44.026245
21
255.810500
0
LINE
8
Image
10
44.026245
20
255.810500
11
43.933204
21
255.329092
0
LINE
8
Image
10
43.933204
20
255.329092
11
43.709513
21
255.128860
0
LINE
8
Image
10
43.709513
20
255.128860
11
43.355348
21
254.693388
0
LINE
8
Image
10
43.355348
20
254.693388
11
42.948623
21
253.646400
0
LINE
8
Image
10
42.948623
20
253.646400
11
42.429418
21
252.519495
0
LINE
8
Image
10
42.429418
20
252.519495
11
41.794933
21
251.938740
0
LINE
8
Image
10
41.794933
20
251.938740
11
41.241810
21
251.645732
0
LINE
8
Image
10
41.241810
20
251.645732
11
40.908324
21
251.257496
0
LINE
8
Image
10
40.908324
20
251.257496
11
37.095134
21
246.329346
0
LINE
8
Image
10
37.095134
20
246.329346
11
35.002647
21
243.724357
0
LINE
8
Image
10
35.002647
20
243.724357
11
33.949704
21
242.214835
0
LINE
8
Image
10
33.949704
20
242.214835
11
33.622034
21
241.233865
0
LINE
8
Image
10
33.622034
20
241.233865
11
33.705364
21
240.214536
0
LINE
8
Image
10
33.705364
20
240.214536
11
33.951701
21
238.571826
0
LINE
8
Image
10
33.951701
20
238.571826
11
32.247800
21
238.572000
0
LINE
8
Image
10
32.247800
20
238.572000
11
30.543700
21
238.572000
0
LINE
8
Image
10
30.543700
20
238.572000
11
27.425980
21
234.338670
0
LINE
8
Image
10
27.425980
20
234.338670
11
25.241756
21
231.183076
0
LINE
8
Image
10
25.241756
20
231.183076
11
24.368390
21
229.540900
0
LINE
8
Image
10
24.368390
20
229.540900
11
24.676410
21
227.741950
0
LINE
8
Image
10
24.676410
20
227.741950
11
24.924301
21
226.507440
0
LINE
8
Image
10
24.924301
20
226.507440
11
23.414981
21
226.748788
0
LINE
8
Image
10
23.414981
20
226.748788
11
22.533917
21
226.854891
0
LINE
8
Image
10
22.533917
20
226.854891
11
21.966707
21
226.725362
0
LINE
8
Image
10
21.966707
20
226.725362
11
21.485486
21
226.222828
0
LINE
8
Image
10
21.485486
20
226.222828
11
20.862391
21
225.209918
0
LINE
8
Image
10
20.862391
20
225.209918
11
20.103483
21
223.636563
0
LINE
8
Image
10
20.103483
20
223.636563
11
20.079616
21
223.153055
0
LINE
8
Image
10
20.079616
20
223.153055
11
20.257674
21
222.727438
0
LINE
8
Image
10
20.257674
20
222.727438
11
20.692769
21
221.836843
0
LINE
8
Image
10
20.692769
20
221.836843
11
20.677271
21
221.268188
0
LINE
8
Image
10
20.677271
20
221.268188
11
20.205818
21
221.012395
0
LINE
8
Image
10
20.205818
20
221.012395
11
19.273049
21
221.060388
0
LINE
8
Image
10
19.273049
20
221.060388
11
17.849859
21
221.300835
0
LINE
8
Image
10
17.849859
20
221.300835
11
16.571289
21
218.657885
0
LINE
8
Image
10
16.571289
20
218.657885
11
15.572308
21
216.299475
0
LINE
8
Image
10
15.572308
20
216.299475
11
15.604769
21
215.765940
0
LINE
8
Image
10
15.604769
20
215.765940
11
15.924849
21
215.316445
0
LINE
8
Image
10
15.924849
20
215.316445
11
16.493785
21
214.494469
0
LINE
8
Image
10
16.493785
20
214.494469
11
16.545352
21
213.879365
0
LINE
8
Image
10
16.545352
20
213.879365
11
16.088696
21
213.493731
0
LINE
8
Image
10
16.088696
20
213.493731
11
15.132965
21
213.360165
0
LINE
8
Image
10
15.132965
20
213.360165
11
14.330030
21
213.320371
0
LINE
8
Image
10
14.330030
20
213.320371
11
13.827234
21
213.114920
0
LINE
8
Image
10
13.827234
20
213.114920
11
13.466605
21
212.614709
0
LINE
8
Image
10
13.466605
20
212.614709
11
13.090175
21
211.690635
0
LINE
8
Image
10
13.090175
20
211.690635
11
12.675034
21
210.236530
0
LINE
8
Image
10
12.675034
20
210.236530
11
12.750631
21
209.865306
0
LINE
8
Image
10
12.750631
20
209.865306
11
13.009008
21
209.574935
0
LINE
8
Image
10
13.009008
20
209.574935
11
13.461517
21
209.037825
0
LINE
8
Image
10
13.461517
20
209.037825
11
13.494860
21
208.568045
0
LINE
8
Image
10
13.494860
20
208.568045
11
13.128365
21
208.213425
0
LINE
8
Image
10
13.128365
20
208.213425
11
12.381362
21
208.021795
0
LINE
8
Image
10
12.381362
20
208.021795
11
11.735343
21
207.888684
0
LINE
8
Image
10
11.735343
20
207.888684
11
11.256088
21
207.551123
0
LINE
8
Image
10
11.256088
20
207.551123
11
10.816061
21
206.867428
0
LINE
8
Image
10
10.816061
20
206.867428
11
10.287722
21
205.695915
0
LINE
8
Image
10
10.287722
20
205.695915
11
9.359332
21
203.487955
0
LINE
8
Image
10
9.359332
20
203.487955
11
10.135937
21
202.661296
0
LINE
8
Image
10
10.135937
20
202.661296
11
10.734169
21
201.900132
0
LINE
8
Image
10
10.734169
20
201.900132
11
10.832793
21
201.368395
0
LINE
8
Image
10
10.832793
20
201.368395
11
10.410761
21
201.008023
0
LINE
8
Image
10
10.410761
20
201.008023
11
9.447024
21
200.760956
0
LINE
8
Image
10
9.447024
20
200.760956
11
8.602771
21
200.576582
0
LINE
8
Image
10
8.602771
20
200.576582
11
8.099179
21
200.236981
0
LINE
8
Image
10
8.099179
20
200.236981
11
7.757145
21
199.517936
0
LINE
8
Image
10
7.757145
20
199.517936
11
7.397564
21
198.195226
0
LINE
8
Image
10
7.397564
20
198.195226
11
7.008355
21
196.173401
0
LINE
8
Image
10
7.008355
20
196.173401
11
7.091934
21
195.668766
0
LINE
8
Image
10
7.091934
20
195.668766
11
7.357898
21
195.275676
0
LINE
8
Image
10
7.357898
20
195.275676
11
7.796281
21
194.660325
0
LINE
8
Image
10
7.796281
20
194.660325
11
7.828912
21
194.201841
0
LINE
8
Image
10
7.828912
20
194.201841
11
7.442489
21
193.870529
0
LINE
8
Image
10
7.442489
20
193.870529
11
6.623711
21
193.636696
0
LINE
8
Image
10
6.623711
20
193.636696
11
5.885612
21
193.440033
0
LINE
8
Image
10
5.885612
20
193.440033
11
5.408320
21
193.013427
0
LINE
8
Image
10
5.408320
20
193.013427
11
5.014411
21
192.079876
0
LINE
8
Image
10
5.014411
20
192.079876
11
4.526461
21
190.362376
0
LINE
8
Image
10
4.526461
20
190.362376
11
3.930489
21
187.703815
0
LINE
8
Image
10
3.930489
20
187.703815
11
4.002289
21
187.112548
0
LINE
8
Image
10
4.002289
20
187.112548
11
4.299738
21
186.673676
0
LINE
8
Image
10
4.299738
20
186.673676
11
4.751980
21
186.068227
0
LINE
8
Image
10
4.751980
20
186.068227
11
4.834198
21
185.609820
0
LINE
8
Image
10
4.834198
20
185.609820
11
4.530808
21
185.240112
0
LINE
8
Image
10
4.530808
20
185.240112
11
3.826229
21
184.900756
0
LINE
8
Image
10
3.826229
20
184.900756
11
3.258913
21
184.614220
0
LINE
8
Image
10
3.258913
20
184.614220
11
2.872556
21
184.179138
0
LINE
8
Image
10
2.872556
20
184.179138
11
2.586740
21
183.457070
0
LINE
8
Image
10
2.586740
20
183.457070
11
2.321049
21
182.309576
0
LINE
8
Image
10
2.321049
20
182.309576
11
1.881441
21
179.841616
0
LINE
8
Image
10
1.881441
20
179.841616
11
2.517028
21
179.421916
0
LINE
8
Image
10
2.517028
20
179.421916
11
4.045141
21
178.804626
0
LINE
8
Image
10
4.045141
20
178.804626
11
11.476991
21
175.994466
0
LINE
8
Image
10
11.476991
20
175.994466
11
14.779653
21
174.620227
0
LINE
8
Image
10
14.779653
20
174.620227
11
16.518049
21
173.650565
0
LINE
8
Image
10
16.518049
20
173.650565
11
16.833938
21
173.290736
0
LINE
8
Image
10
16.833938
20
173.290736
11
16.798711
21
172.999996
0
LINE
8
Image
10
16.798711
20
172.999996
11
16.425683
21
172.767658
0
LINE
8
Image
10
16.425683
20
172.767658
11
15.728171
21
172.583036
0
LINE
8
Image
10
15.728171
20
172.583036
11
9.497431
21
171.182066
0
LINE
8
Image
10
9.497431
20
171.182066
11
4.507491
21
170.019486
0
LINE
8
Image
10
4.507491
20
170.019486
11
4.605580
21
154.008086
0
LINE
8
Image
10
4.605580
20
154.008086
11
4.703668
21
137.996686
0
LINE
8
Image
10
4.703668
20
137.996686
11
11.209788
21
136.102026
0
LINE
8
Image
10
11.209788
20
136.102026
11
16.344484
21
134.478427
0
LINE
8
Image
10
16.344484
20
134.478427
11
17.355631
21
133.993749
0
LINE
8
Image
10
17.355631
20
133.993749
11
17.602978
21
133.620946
0
LINE
8
Image
10
17.602978
20
133.620946
11
17.015026
21
133.155343
0
LINE
8
Image
10
17.015026
20
133.155343
11
15.390984
21
132.341986
0
LINE
8
Image
10
15.390984
20
132.341986
11
9.215378
21
129.755306
0
LINE
8
Image
10
9.215378
20
129.755306
11
0.658488
21
126.455916
0
LINE
8
Image
10
0.658488
20
126.455916
11
0.459364
21
126.579841
0
LINE
8
Image
10
0.459364
20
126.579841
11
0.376929
21
126.906114
0
LINE
8
Image
10
0.376929
20
126.906114
11
0.976039
21
127.324073
0
LINE
8
Image
10
0.976039
20
127.324073
11
2.617118
21
128.113326
0
LINE
8
Image
10
2.617118
20
128.113326
11
8.090999
21
130.384484
0
LINE
8
Image
10
8.090999
20
130.384484
11
13.538588
21
132.569866
0
LINE
8
Image
10
13.538588
20
132.569866
11
15.804399
21
133.600084
0
LINE
8
Image
10
15.804399
20
133.600084
11
14.063442
21
134.250403
0
LINE
8
Image
10
14.063442
20
134.250403
11
9.877739
21
135.522404
0
LINE
8
Image
10
9.877739
20
135.522404
11
3.951110
21
137.238000
0
LINE
8
Image
10
3.951110
20
137.238000
11
3.853180
21
154.003000
0
LINE
8
Image
10
3.853180
20
154.003000
11
3.755260
21
170.768000
0
LINE
8
Image
10
3.755260
20
170.768000
11
8.684310
21
171.933000
0
LINE
8
Image
10
8.684310
20
171.933000
11
14.144450
21
173.097210
0
LINE
8
Image
10
14.144450
20
173.097210
11
14.646823
21
173.158343
0
LINE
8
Image
10
14.646823
20
173.158343
11
14.683969
21
173.349772
0
LINE
8
Image
10
14.683969
20
173.349772
11
13.257705
21
174.171685
0
LINE
8
Image
10
13.257705
20
174.171685
11
9.655914
21
175.659291
0
LINE
8
Image
10
9.655914
20
175.659291
11
3.668850
21
177.908930
0
LINE
8
Image
10
3.668850
20
177.908930
11
2.295722
21
178.443107
0
LINE
8
Image
10
2.295722
20
178.443107
11
1.531070
21
178.862031
0
LINE
8
Image
10
1.531070
20
178.862031
11
1.200307
21
179.302704
0
LINE
8
Image
10
1.200307
20
179.302704
11
1.128850
21
179.902130
0
LINE
8
Image
10
1.128850
20
179.902130
11
1.265696
21
181.507466
0
LINE
8
Image
10
1.265696
20
181.507466
11
1.613905
21
183.203569
0
LINE
8
Image
10
1.613905
20
183.203569
11
2.079984
21
184.631724
0
LINE
8
Image
10
2.079984
20
184.631724
11
2.570440
21
185.433220
0
LINE
8
Image
10
2.570440
20
185.433220
11
2.991627
21
186.078807
0
LINE
8
Image
10
2.991627
20
186.078807
11
3.073497
21
187.006090
0
LINE
8
Image
10
3.073497
20
187.006090
11
3.230848
21
188.658482
0
LINE
8
Image
10
3.230848
20
188.658482
11
3.769739
21
191.100370
0
LINE
8
Image
10
3.769739
20
191.100370
11
4.592207
21
193.578939
0
LINE
8
Image
10
4.592207
20
193.578939
11
4.979424
21
194.093965
0
LINE
8
Image
10
4.979424
20
194.093965
11
5.453849
21
194.323710
0
LINE
8
Image
10
5.453849
20
194.323710
11
6.089649
21
194.660426
0
LINE
8
Image
10
6.089649
20
194.660426
11
6.131873
21
195.290490
0
LINE
8
Image
10
6.131873
20
195.290490
11
6.180960
21
196.582119
0
LINE
8
Image
10
6.180960
20
196.582119
11
6.573490
21
198.637790
0
LINE
8
Image
10
6.573490
20
198.637790
11
6.951573
21
200.064108
0
LINE
8
Image
10
6.951573
20
200.064108
11
7.288375
21
200.874178
0
LINE
8
Image
10
7.288375
20
200.874178
11
7.713159
21
201.273221
0
LINE
8
Image
10
7.713159
20
201.273221
11
8.355190
21
201.466460
0
LINE
8
Image
10
8.355190
20
201.466460
11
9.204893
21
201.757226
0
LINE
8
Image
10
9.204893
20
201.757226
11
9.227938
21
201.963138
0
LINE
8
Image
10
9.227938
20
201.963138
11
9.028561
21
202.263176
0
LINE
8
Image
10
9.028561
20
202.263176
11
8.799126
21
202.872728
0
LINE
8
Image
10
8.799126
20
202.872728
11
8.793202
21
203.771724
0
LINE
8
Image
10
8.793202
20
203.771724
11
9.296158
21
205.980998
0
LINE
8
Image
10
9.296158
20
205.980998
11
10.225981
21
207.976902
0
LINE
8
Image
10
10.225981
20
207.976902
11
10.753640
21
208.609184
0
LINE
8
Image
10
10.753640
20
208.609184
11
11.271221
21
208.845336
0
LINE
8
Image
10
11.271221
20
208.845336
11
11.768992
21
209.013153
0
LINE
8
Image
10
11.768992
20
209.013153
11
11.776735
21
209.588113
0
LINE
8
Image
10
11.776735
20
209.588113
11
11.839332
21
210.668266
0
LINE
8
Image
10
11.839332
20
210.668266
11
12.262595
21
212.222183
0
LINE
8
Image
10
12.262595
20
212.222183
11
12.670470
21
213.269235
0
LINE
8
Image
10
12.670470
20
213.269235
11
13.036325
21
213.835865
0
LINE
8
Image
10
13.036325
20
213.835865
11
13.514830
21
214.068480
0
LINE
8
Image
10
13.514830
20
214.068480
11
14.260655
21
214.113483
0
LINE
8
Image
10
14.260655
20
214.113483
11
15.209964
21
214.207557
0
LINE
8
Image
10
15.209964
20
214.207557
11
15.284001
21
214.346317
0
LINE
8
Image
10
15.284001
20
214.346317
11
15.127060
21
214.565038
0
LINE
8
Image
10
15.127060
20
214.565038
11
14.746331
21
215.305971
0
LINE
8
Image
10
14.746331
20
215.305971
11
14.745854
21
216.386432
0
LINE
8
Image
10
14.745854
20
216.386432
11
15.125505
21
217.805599
0
LINE
8
Image
10
15.125505
20
217.805599
11
15.885158
21
219.562648
0
LINE
8
Image
10
15.885158
20
219.562648
11
16.555027
21
220.850104
0
LINE
8
Image
10
16.555027
20
220.850104
11
17.066972
21
221.592877
0
LINE
8
Image
10
17.066972
20
221.592877
11
17.552454
21
221.933798
0
LINE
8
Image
10
17.552454
20
221.933798
11
18.142938
21
222.015698
0
LINE
8
Image
10
18.142938
20
222.015698
11
18.697220
21
222.053841
0
LINE
8
Image
10
18.697220
20
222.053841
11
19.014120
21
222.216571
0
LINE
8
Image
10
19.014120
20
222.216571
11
19.157460
21
222.576339
0
LINE
8
Image
10
19.157460
20
222.576339
11
19.191058
21
223.205598
0
LINE
8
Image
10
19.191058
20
223.205598
11
19.472060
21
224.525462
0
LINE
8
Image
10
19.472060
20
224.525462
11
20.147660
21
226.027818
0
LINE
8
Image
10
20.147660
20
226.027818
11
20.690055
21
226.878682
0
LINE
8
Image
10
20.690055
20
226.878682
11
21.158464
21
227.373590
0
LINE
8
Image
10
21.158464
20
227.373590
11
21.676964
21
227.603693
0
LINE
8
Image
10
21.676964
20
227.603693
11
22.369630
21
227.660138
0
LINE
8
Image
10
22.369630
20
227.660138
11
23.088528
21
227.685683
0
LINE
8
Image
10
23.088528
20
227.685683
11
23.444972
21
227.845851
0
LINE
8
Image
10
23.444972
20
227.845851
11
23.535470
21
228.265939
0
LINE
8
Image
10
23.535470
20
228.265939
11
23.456530
21
229.071248
0
LINE
8
Image
10
23.456530
20
229.071248
11
23.447892
21
229.958301
0
LINE
8
Image
10
23.447892
20
229.958301
11
23.812574
21
230.951268
0
LINE
8
Image
10
23.812574
20
230.951268
11
24.767874
21
232.462372
0
LINE
8
Image
10
24.767874
20
232.462372
11
26.531090
21
234.903838
0
LINE
8
Image
10
26.531090
20
234.903838
11
28.436195
21
237.459787
0
LINE
8
Image
10
28.436195
20
237.459787
11
29.574106
21
238.772438
0
LINE
8
Image
10
29.574106
20
238.772438
11
30.397162
21
239.256159
0
LINE
8
Image
10
30.397162
20
239.256159
11
31.357700
21
239.325318
0
LINE
8
Image
10
31.357700
20
239.325318
11
32.931300
21
239.325000
0
LINE
8
Image
10
32.931300
20
239.325000
11
32.802291
21
240.947080
0
LINE
8
Image
10
32.802291
20
240.947080
11
32.806595
21
241.953023
0
LINE
8
Image
10
32.806595
20
241.953023
11
33.200465
21
242.969313
0
LINE
8
Image
10
33.200465
20
242.969313
11
34.276213
21
244.503188
0
LINE
8
Image
10
34.276213
20
244.503188
11
36.326151
21
247.061890
0
LINE
8
Image
10
36.326151
20
247.061890
11
40.156091
21
252.010670
0
LINE
8
Image
10
40.156091
20
252.010670
11
40.489577
21
252.398906
0
LINE
8
Image
10
40.489577
20
252.398906
11
41.042700
21
252.691914
0
LINE
8
Image
10
41.042700
20
252.691914
11
41.677185
21
253.272666
0
LINE
8
Image
10
41.677185
20
253.272666
11
42.196390
21
254.399574
0
LINE
8
Image
10
42.196390
20
254.399574
11
42.603117
21
255.446561
0
LINE
8
Image
10
42.603117
20
255.446561
11
42.957280
21
255.882034
0
LINE
8
Image
10
42.957280
20
255.882034
11
43.180972
21
256.082266
0
LINE
8
Image
10
43.180972
20
256.082266
11
43.274012
21
256.563671
0
LINE
8
Image
10
43.274012
20
256.563671
11
43.489059
21
257.275903
0
LINE
8
Image
10
43.489059
20
257.275903
11
44.006087
21
258.031101
0
LINE
8
Image
10
44.006087
20
258.031101
11
45.011806
21
259.619626
0
LINE
8
Image
10
45.011806
20
259.619626
11
46.401787
21
262.335381
0
LINE
8
Image
10
46.401787
20
262.335381
11
54.741167
21
279.776781
0
LINE
8
Image
10
54.741167
20
279.776781
11
62.927447
21
296.898281
0
LINE
8
Image
10
62.927447
20
296.898281
11
80.245047
21
333.210881
0
LINE
8
Image
10
80.245047
20
333.210881
11
93.037847
21
359.739781
0
LINE
8
Image
10
93.037847
20
359.739781
11
102.573057
21
379.401281
0
LINE
8
Image
10
102.573057
20
379.401281
11
104.403777
21
383.070171
0
LINE
8
Image
10
104.403777
20
383.070171
11
107.128000
21
383.070000
0
LINE
8
Image
10
107.128000
20
383.070000
11
108.639869
21
383.101269
0
LINE
8
Image
10
108.639869
20
383.101269
11
109.626079
21
383.247458
0
LINE
8
Image
10
109.626079
20
383.247458
11
110.365732
21
383.587140
0
LINE
8
Image
10
110.365732
20
383.587140
11
111.137930
21
384.198890
0
LINE
8
Image
10
111.137930
20
384.198890
11
111.936551
21
384.833836
0
LINE
8
Image
10
111.936551
20
384.833836
11
112.747854
21
385.170941
0
LINE
8
Image
10
112.747854
20
385.170941
11
113.980430
21
385.304243
0
LINE
8
Image
10
113.980430
20
385.304243
11
116.042870
21
385.327780
0
LINE
8
Image
10
116.042870
20
385.327780
11
119.662000
21
385.328000
0
LINE
8
Image
10
119.662000
20
385.328000
11
119.665754
21
377.708010
0
LINE
8
Image
10
119.665754
20
377.708010
11
119.669507
21
370.088020
0
LINE
8
Image
10
119.669507
20
370.088020
11
120.921647
21
368.513200
0
LINE
8
Image
10
120.921647
20
368.513200
11
122.173777
21
366.938380
0
LINE
8
Image
10
122.173777
20
366.938380
11
122.422511
21
355.342880
0
LINE
8
Image
10
122.422511
20
355.342880
11
122.671905
21
333.305080
0
LINE
8
Image
10
122.671905
20
333.305080
11
122.672470
21
322.862880
0
LINE
8
Image
10
122.672470
20
322.862880
11
120.867000
21
322.863000
0
LINE
8
Image
10
120.867000
20
322.863000
11
119.867904
21
322.817196
0
LINE
8
Image
10
119.867904
20
322.817196
11
119.131439
21
322.621940
0
LINE
8
Image
10
119.131439
20
322.621940
11
118.463124
21
322.190470
0
LINE
8
Image
10
118.463124
20
322.190470
11
117.668480
21
321.436020
0
LINE
8
Image
10
117.668480
20
321.436020
11
116.275070
21
320.009040
0
LINE
8
Image
10
116.275070
20
320.009040
11
116.276000
21
302.809000
0
LINE
8
Image
10
116.276000
20
302.809000
11
116.276000
21
285.609000
0
LINE
8
Image
10
116.276000
20
285.609000
11
117.249000
21
285.609000
0
LINE
8
Image
10
117.249000
20
285.609000
11
118.223000
21
285.609000
0
LINE
8
Image
10
118.223000
20
285.609000
11
118.095972
21
303.200800
0
LINE
8
Image
10
118.095972
20
303.200800
11
117.968941
21
320.792600
0
LINE
8
Image
10
117.968941
20
320.792600
11
137.442241
21
320.890062
0
LINE
8
Image
10
137.442241
20
320.890062
11
156.915541
21
320.987522
0
LINE
8
Image
10
156.915541
20
320.987522
11
156.916000
21
310.697000
0
LINE
8
Image
10
156.916000
20
310.697000
11
157.163774
21
293.007700
0
LINE
8
Image
10
157.163774
20
293.007700
11
157.411551
21
285.609410
0
LINE
8
Image
10
157.411551
20
285.609410
11
158.352000
21
285.609000
0
LINE
8
Image
10
158.352000
20
285.609000
11
159.293000
21
285.609000
0
LINE
8
Image
10
159.293000
20
285.609000
11
159.046112
21
293.229000
0
LINE
8
Image
10
159.046112
20
293.229000
11
158.798239
21
310.161200
0
LINE
8
Image
10
158.798239
20
310.161200
11
158.797110
21
319.473440
0
LINE
8
Image
10
158.797110
20
319.473440
11
157.436290
21
320.979710
0
LINE
8
Image
10
157.436290
20
320.979710
11
156.650227
21
321.791388
0
LINE
8
Image
10
156.650227
20
321.791388
11
155.999221
21
322.245132
0
LINE
8
Image
10
155.999221
20
322.245132
11
155.267120
21
322.442733
0
LINE
8
Image
10
155.267120
20
322.442733
11
154.237770
21
322.485980
0
LINE
8
Image
10
154.237770
20
322.485980
11
152.400000
21
322.486000
0
LINE
8
Image
10
152.400000
20
322.486000
11
152.400000
21
344.447000
0
LINE
8
Image
10
152.400000
20
344.447000
11
152.400000
21
366.407000
0
LINE
8
Image
10
152.400000
20
366.407000
11
153.905180
21
368.116980
0
LINE
8
Image
10
153.905180
20
368.116980
11
155.410360
21
369.826960
0
LINE
8
Image
10
155.410360
20
369.826960
11
155.410000
21
377.337000
0
LINE
8
Image
10
155.410000
20
377.337000
11
155.410000
21
384.847000
0
LINE
8
Image
10
155.410000
20
384.847000
11
157.385550
21
385.084292
0
LINE
8
Image
10
157.385550
20
385.084292
11
159.751064
21
385.303619
0
LINE
8
Image
10
159.751064
20
385.303619
11
161.438330
21
385.267321
0
LINE
8
Image
10
161.438330
20
385.267321
11
162.723664
21
384.941764
0
LINE
8
Image
10
162.723664
20
384.941764
11
163.883380
21
384.293311
0
LINE
8
Image
10
163.883380
20
384.293311
11
164.726634
21
383.785911
0
LINE
8
Image
10
164.726634
20
383.785911
11
165.602052
21
383.436944
0
LINE
8
Image
10
165.602052
20
383.436944
11
167.925150
21
383.070351
0
LINE
8
Image
10
167.925150
20
383.070351
11
170.469000
21
382.882000
0
LINE
8
Image
10
170.469000
20
382.882000
11
175.208000
21
372.910000
0
LINE
8
Image
10
175.208000
20
372.910000
11
181.736300
21
359.175200
0
LINE
8
Image
10
181.736300
20
359.175200
11
187.296690
21
347.510000
0
LINE
8
Image
10
187.296690
20
347.510000
11
208.657290
21
302.730800
0
LINE
8
Image
10
208.657290
20
302.730800
11
216.090000
21
287.114500
0
LINE
8
Image
10
216.090000
20
287.114500
11
224.598358
21
269.268425
0
LINE
8
Image
10
224.598358
20
269.268425
11
229.204738
21
259.862250
0
LINE
8
Image
10
229.204738
20
259.862250
11
231.672698
21
255.451600
0
LINE
8
Image
10
231.672698
20
255.451600
11
233.765800
21
252.592100
0
LINE
8
Image
10
233.765800
20
252.592100
11
236.878200
21
248.557890
0
LINE
8
Image
10
236.878200
20
248.557890
11
237.084389
21
254.383600
0
LINE
8
Image
10
237.084389
20
254.383600
11
237.290572
21
260.209310
0
LINE
8
Image
10
237.290572
20
260.209310
11
241.129572
21
271.281210
0
LINE
8
Image
10
241.129572
20
271.281210
11
243.840866
21
279.414783
0
LINE
8
Image
10
243.840866
20
279.414783
11
244.968572
21
283.422110
0
LINE
8
Image
10
244.968572
20
283.422110
11
244.969000
21
284.491000
0
LINE
8
Image
10
244.969000
20
284.491000
11
256.728300
21
284.391568
0
LINE
8
Image
10
256.728300
20
284.391568
11
268.487500
21
284.292132
0
LINE
8
Image
10
268.487500
20
284.292132
11
268.602717
21
282.786942
0
LINE
8
Image
10
268.602717
20
282.786942
11
269.723333
21
278.518330
0
LINE
8
Image
10
269.723333
20
278.518330
11
272.255787
21
270.369142
0
LINE
8
Image
10
272.255787
20
270.369142
11
275.793637
21
259.456542
0
LINE
8
Image
10
275.793637
20
259.456542
11
276.056761
21
239.805942
0
LINE
8
Image
10
276.056761
20
239.805942
11
276.187288
21
222.776830
0
LINE
8
Image
10
276.187288
20
222.776830
11
276.003768
21
220.424738
0
LINE
8
Image
10
276.003768
20
220.424738
11
275.832688
21
220.039242
0
LINE
8
Image
10
275.832688
20
220.039242
11
275.602206
21
219.895042
0
LINE
8
Image
10
275.602206
20
219.895042
11
268.566556
21
215.867272
0
LINE
8
Image
10
268.566556
20
215.867272
11
263.633465
21
212.770185
0
LINE
8
Image
10
263.633465
20
212.770185
11
262.676094
21
211.972865
0
LINE
8
Image
10
262.676094
20
211.972865
11
262.488826
21
211.507042
0
LINE
8
Image
10
262.488826
20
211.507042
11
262.929685
21
209.503192
0
LINE
8
Image
10
262.929685
20
209.503192
11
263.216034
21
208.483757
0
LINE
8
Image
10
263.216034
20
208.483757
11
263.418073
21
208.194863
0
LINE
8
Image
10
263.418073
20
208.194863
11
263.639784
21
208.092082
0
LINE
8
Image
10
263.639784
20
208.092082
11
263.994791
21
207.898949
0
LINE
8
Image
10
263.994791
20
207.898949
11
264.426691
21
207.378555
0
LINE
8
Image
10
264.426691
20
207.378555
11
265.356098
21
205.710008
0
LINE
8
Image
10
265.356098
20
205.710008
11
266.097855
21
203.794496
0
LINE
8
Image
10
266.097855
20
203.794496
11
266.321814
21
202.340072
0
LINE
8
Image
10
266.321814
20
202.340072
11
266.334381
21
201.437547
0
LINE
8
Image
10
266.334381
20
201.437547
11
266.495360
21
201.192910
0
LINE
8
Image
10
266.495360
20
201.192910
11
266.769221
21
201.058012
0
LINE
8
Image
10
266.769221
20
201.058012
11
267.113185
21
200.788658
0
LINE
8
Image
10
267.113185
20
200.788658
11
267.497329
21
200.202888
0
LINE
8
Image
10
267.497329
20
200.202888
11
268.263115
21
198.431674
0
LINE
8
Image
10
268.263115
20
198.431674
11
268.820501
21
196.443522
0
LINE
8
Image
10
268.820501
20
196.443522
11
268.923411
21
194.937582
0
LINE
8
Image
10
268.923411
20
194.937582
11
268.895950
21
194.066667
0
LINE
8
Image
10
268.895950
20
194.066667
11
269.058093
21
193.836544
0
LINE
8
Image
10
269.058093
20
193.836544
11
269.351446
21
193.703042
0
LINE
8
Image
10
269.351446
20
193.703042
11
269.695574
21
193.426905
0
LINE
8
Image
10
269.695574
20
193.426905
11
270.092366
21
192.770310
0
LINE
8
Image
10
270.092366
20
192.770310
11
271.027496
21
190.348682
0
LINE
8
Image
10
271.027496
20
190.348682
11
271.722220
21
188.077411
0
LINE
8
Image
10
271.722220
20
188.077411
11
272.002174
21
186.669386
0
LINE
8
Image
10
272.002174
20
186.669386
11
271.888863
21
185.835229
0
LINE
8
Image
10
271.888863
20
185.835229
11
271.403791
21
185.285562
0
LINE
8
Image
10
271.403791
20
185.285562
11
271.000415
21
184.862305
0
LINE
8
Image
10
271.000415
20
184.862305
11
271.711286
21
184.773704
0
LINE
8
Image
10
271.711286
20
184.773704
11
272.253863
21
184.693351
0
LINE
8
Image
10
272.253863
20
184.693351
11
272.626293
21
184.339320
0
LINE
8
Image
10
272.626293
20
184.339320
11
272.942239
21
183.517453
0
LINE
8
Image
10
272.942239
20
183.517453
11
273.315366
21
182.033594
0
LINE
8
Image
10
273.315366
20
182.033594
11
273.914155
21
178.784624
0
LINE
8
Image
10
273.914155
20
178.784624
11
273.820376
21
178.098043
0
LINE
8
Image
10
273.820376
20
178.098043
11
273.473422
21
177.797114
0
LINE
8
Image
10
273.473422
20
177.797114
11
266.066072
21
175.233144
0
LINE
8
Image
10
266.066072
20
175.233144
11
259.129092
21
172.836844
0
LINE
8
Image
10
259.129092
20
172.836844
11
264.749032
21
171.794164
0
LINE
8
Image
10
264.749032
20
171.794164
11
270.631122
21
170.512914
0
LINE
8
Image
10
270.631122
20
170.512914
11
270.835063
21
165.314998
0
LINE
8
Image
10
270.835063
20
165.314998
11
270.957269
21
153.152914
0
LINE
8
Image
10
270.957269
20
153.152914
11
271.021274
21
136.031414
0
LINE
8
Image
10
271.021274
20
136.031414
11
268.061054
21
135.221617
0
LINE
8
Image
10
268.061054
20
135.221617
11
261.902324
21
133.701887
0
LINE
8
Image
10
261.902324
20
133.701887
11
258.703804
21
132.991946
0
LINE
8
Image
10
258.703804
20
132.991946
11
267.119514
21
129.632296
0
LINE
8
Image
10
267.119514
20
129.632296
11
273.122458
21
127.104892
0
LINE
8
Image
10
273.122458
20
127.104892
11
274.994760
21
126.215692
0
LINE
8
Image
10
274.994760
20
126.215692
11
275.737254
21
125.746176
0
LINE
8
Image
10
275.737254
20
125.746176
11
275.770423
21
124.501500
0
LINE
8
Image
10
275.770423
20
124.501500
11
275.449747
21
122.618645
0
LINE
8
Image
10
275.449747
20
122.618645
11
274.936551
21
120.811509
0
LINE
8
Image
10
274.936551
20
120.811509
11
274.392164
21
119.793986
0
LINE
8
Image
10
274.392164
20
119.793986
11
274.048714
21
119.435110
0
LINE
8
Image
10
274.048714
20
119.435110
11
274.226009
21
119.298212
0
LINE
8
Image
10
274.226009
20
119.298212
11
274.436287
21
119.212695
0
LINE
8
Image
10
274.436287
20
119.212695
11
274.580768
21
118.979510
0
LINE
8
Image
10
274.580768
20
118.979510
11
274.674526
21
118.136053
0
LINE
8
Image
10
274.674526
20
118.136053
11
274.511665
21
116.899666
0
LINE
8
Image
10
274.511665
20
116.899666
11
274.096565
21
115.402172
0
LINE
8
Image
10
274.096565
20
115.402172
11
273.455787
21
114.016052
0
LINE
8
Image
10
273.455787
20
114.016052
11
273.113398
21
113.727134
0
LINE
8
Image
10
273.113398
20
113.727134
11
272.704265
21
113.641802
0
LINE
8
Image
10
272.704265
20
113.641802
11
272.170960
21
113.547728
0
LINE
8
Image
10
272.170960
20
113.547728
11
272.363341
21
113.190247
0
LINE
8
Image
10
272.363341
20
113.190247
11
272.697009
21
112.583128
0
LINE
8
Image
10
272.697009
20
112.583128
11
272.768530
21
111.633156
0
LINE
8
Image
10
272.768530
20
111.633156
11
272.573511
21
110.257583
0
LINE
8
Image
10
272.573511
20
110.257583
11
272.107558
21
108.373657
0
LINE
8
Image
10
272.107558
20
108.373657
11
271.401248
21
106.431728
0
LINE
8
Image
10
271.401248
20
106.431728
11
271.030590
21
105.855104
0
LINE
8
Image
10
271.030590
20
105.855104
11
270.642478
21
105.530147
0
LINE
8
Image
10
270.642478
20
105.530147
11
270.118807
21
105.098931
0
LINE
8
Image
10
270.118807
20
105.098931
11
270.201946
21
104.589399
0
LINE
8
Image
10
270.201946
20
104.589399
11
270.446340
21
103.921521
0
LINE
8
Image
10
270.446340
20
103.921521
11
270.551357
21
103.078469
0
LINE
8
Image
10
270.551357
20
103.078469
11
270.369373
21
101.776914
0
LINE
8
Image
10
270.369373
20
101.776914
11
269.915392
21
100.265822
0
LINE
8
Image
10
269.915392
20
100.265822
11
269.346172
21
98.974528
0
LINE
8
Image
10
269.346172
20
98.974528
11
268.818467
21
98.332369
0
LINE
8
Image
10
268.818467
20
98.332369
11
268.451835
21
97.957526
0
LINE
8
Image
10
268.451835
20
97.957526
11
268.299342
21
97.336069
0
LINE
8
Image
10
268.299342
20
97.336069
11
268.005538
21
96.024260
0
LINE
8
Image
10
268.005538
20
96.024260
11
267.299152
21
93.989649
0
LINE
8
Image
10
267.299152
20
93.989649
11
266.306550
21
91.883495
0
LINE
8
Image
10
266.306550
20
91.883495
11
265.876813
21
91.526857
0
LINE
8
Image
10
265.876813
20
91.526857
11
265.342412
21
91.440339
0
LINE
8
Image
10
265.342412
20
91.440339
11
264.679220
21
91.346261
0
LINE
8
Image
10
264.679220
20
91.346261
11
264.837421
21
90.988784
0
LINE
8
Image
10
264.837421
20
90.988784
11
265.196523
21
90.330060
0
LINE
8
Image
10
265.196523
20
90.330060
11
265.250326
21
89.382497
0
LINE
8
Image
10
265.250326
20
89.382497
11
264.999465
21
88.153132
0
LINE
8
Image
10
264.999465
20
88.153132
11
264.444579
21
86.649004
0
LINE
8
Image
10
264.444579
20
86.649004
11
263.960556
21
85.609527
0
LINE
8
Image
10
263.960556
20
85.609527
11
263.551314
21
85.013042
0
LINE
8
Image
10
263.551314
20
85.013042
11
263.098951
21
84.740650
0
LINE
8
Image
10
263.098951
20
84.740650
11
262.485569
21
84.673454
0
LINE
8
Image
10
262.485569
20
84.673454
11
261.700835
21
84.574253
0
LINE
8
Image
10
261.700835
20
84.574253
11
261.660363
21
84.434472
0
LINE
8
Image
10
261.660363
20
84.434472
11
261.827052
21
84.215464
0
LINE
8
Image
10
261.827052
20
84.215464
11
262.188273
21
83.621630
0
LINE
8
Image
10
262.188273
20
83.621630
11
262.223147
21
82.842422
0
LINE
8
Image
10
262.223147
20
82.842422
11
261.922727
21
81.817020
0
LINE
8
Image
10
261.922727
20
81.817020
11
261.278062
21
80.484604
0
LINE
8
Image
10
261.278062
20
80.484604
11
260.309129
21
79.051894
0
LINE
8
Image
10
260.309129
20
79.051894
11
259.875138
21
78.740947
0
LINE
8
Image
10
259.875138
20
78.740947
11
259.420242
21
78.646294
0
LINE
8
Image
10
259.420242
20
78.646294
11
258.969005
21
78.606831
0
LINE
8
Image
10
258.969005
20
78.606831
11
258.738516
21
78.432843
0
LINE
8
Image
10
258.738516
20
78.432843
11
258.773694
21
77.347704
0
LINE
8
Image
10
258.773694
20
77.347704
11
258.790218
21
76.627313
0
LINE
8
Image
10
258.790218
20
76.627313
11
258.639813
21
75.849622
0
LINE
8
Image
10
258.639813
20
75.849622
11
257.954727
21
74.311340
0
LINE
8
Image
10
257.954727
20
74.311340
11
256.951468
21
73.110868
0
LINE
8
Image
10
256.951468
20
73.110868
11
256.403345
21
72.755439
0
LINE
8
Image
10
256.403345
20
72.755439
11
255.863064
21
72.626214
0
LINE
8
Image
10
255.863064
20
72.626214
11
255.347520
21
72.589168
0
LINE
8
Image
10
255.347520
20
72.589168
11
255.079053
21
72.416185
0
LINE
8
Image
10
255.079053
20
72.416185
11
255.001718
21
72.014496
0
LINE
8
Image
10
255.001718
20
72.014496
11
255.059572
21
71.291334
0
LINE
8
Image
10
255.059572
20
71.291334
11
254.960020
21
69.867538
0
LINE
8
Image
10
254.960020
20
69.867538
11
254.325496
21
68.256034
0
LINE
8
Image
10
254.325496
20
68.256034
11
253.809339
21
67.337739
0
LINE
8
Image
10
253.809339
20
67.337739
11
253.383392
21
66.843714
0
LINE
8
Image
10
253.383392
20
66.843714
11
252.900383
21
66.664952
0
LINE
8
Image
10
252.900383
20
66.664952
11
252.213036
21
66.692444
0
LINE
8
Image
10
252.213036
20
66.692444
11
251.390419
21
66.701412
0
LINE
8
Image
10
251.390419
20
66.701412
11
251.278501
21
66.609712
0
LINE
8
Image
10
251.278501
20
66.609712
11
251.366370
21
66.453966
0
LINE
8
Image
10
251.366370
20
66.453966
11
251.695318
21
65.825866
0
LINE
8
Image
10
251.695318
20
65.825866
11
251.628305
21
64.944820
0
LINE
8
Image
10
251.628305
20
64.944820
11
251.149515
21
63.750686
0
LINE
8
Image
10
251.149515
20
63.750686
11
250.243130
21
62.183326
0
LINE
8
Image
10
250.243130
20
62.183326
11
249.425406
21
60.956112
0
LINE
8
Image
10
249.425406
20
60.956112
11
248.812984
21
60.243194
0
LINE
8
Image
10
248.812984
20
60.243194
11
248.258010
21
59.912382
0
LINE
8
Image
10
248.258010
20
59.912382
11
247.612630
21
59.831486
0
LINE
8
Image
10
247.612630
20
59.831486
11
247.005426
21
59.796510
0
LINE
8
Image
10
247.005426
20
59.796510
11
246.661786
21
59.642796
0
LINE
8
Image
10
246.661786
20
59.642796
11
246.508956
21
59.297170
0
LINE
8
Image
10
246.508956
20
59.297170
11
246.474180
21
58.686456
0
LINE
8
Image
10
246.474180
20
58.686456
11
246.376319
21
58.058019
0
LINE
8
Image
10
246.376319
20
58.058019
11
246.084017
21
57.312808
0
LINE
8
Image
10
246.084017
20
57.312808
11
244.923780
21
55.487946
0
LINE
8
Image
10
244.923780
20
55.487946
11
244.084926
21
54.436581
0
LINE
8
Image
10
244.084926
20
54.436581
11
243.438419
21
53.811857
0
LINE
8
Image
10
243.438419
20
53.811857
11
242.847853
21
53.511804
0
LINE
8
Image
10
242.847853
20
53.511804
11
242.176820
21
53.434446
0
LINE
8
Image
10
242.176820
20
53.434446
11
241.183549
21
53.314434
0
LINE
8
Image
10
241.183549
20
53.314434
11
240.535695
21
52.916946
0
LINE
8
Image
10
240.535695
20
52.916946
11
240.183483
21
52.185803
0
LINE
8
Image
10
240.183483
20
52.185803
11
240.077140
21
51.064826
0
LINE
8
Image
10
240.077140
20
51.064826
11
239.997302
21
50.205262
0
LINE
8
Image
10
239.997302
20
50.205262
11
239.654713
21
49.407146
0
LINE
8
Image
10
239.654713
20
49.407146
11
238.894763
21
48.420151
0
LINE
8
Image
10
238.894763
20
48.420151
11
237.562840
21
46.993946
0
LINE
8
Image
10
237.562840
20
46.993946
11
235.674525
21
44.846495
0
LINE
8
Image
10
235.674525
20
44.846495
11
235.400329
21
44.283932
0
LINE
8
Image
10
235.400329
20
44.283932
11
235.493210
21
43.944936
0
LINE
8
Image
10
235.493210
20
43.944936
11
235.806984
21
43.293737
0
LINE
8
Image
10
235.806984
20
43.293737
11
235.936948
21
42.352556
0
LINE
8
Image
10
235.936948
20
42.352556
11
235.756122
21
41.589082
0
LINE
8
Image
10
235.756122
20
41.589082
11
235.014272
21
40.569027
0
LINE
8
Image
10
235.014272
20
40.569027
11
230.643668
21
36.407066
0
LINE
8
Image
10
230.643668
20
36.407066
11
226.224389
21
32.598969
0
LINE
8
Image
10
226.224389
20
32.598969
11
225.051280
21
31.830493
0
LINE
8
Image
10
225.051280
20
31.830493
11
224.291458
21
31.609296
0
LINE
8
Image
10
224.291458
20
31.609296
11
223.455850
21
31.440640
0
LINE
8
Image
10
223.455850
20
31.440640
11
223.057408
21
30.943224
0
LINE
8
Image
10
223.057408
20
30.943224
11
222.534847
21
30.300609
0
LINE
8
Image
10
222.534847
20
30.300609
11
220.893138
21
29.013035
0
LINE
8
Image
10
220.893138
20
29.013035
11
212.460908
21
23.192754
0
LINE
8
Image
10
212.460908
20
23.192754
11
211.221576
21
22.492964
0
LINE
8
Image
10
211.221576
20
22.492964
11
210.297208
21
22.201901
0
LINE
8
Image
10
210.297208
20
22.201901
11
209.802777
21
22.054945
0
LINE
8
Image
10
209.802777
20
22.054945
11
209.597128
21
21.701634
0
LINE
8
Image
10
209.597128
20
21.701634
11
209.070539
21
21.086875
0
LINE
8
Image
10
209.070539
20
21.086875
11
207.664848
21
20.112023
0
LINE
8
Image
10
207.664848
20
20.112023
11
203.260616
21
17.625534
0
LINE
8
Image
10
203.260616
20
17.625534
11
198.473339
21
15.329148
0
LINE
8
Image
10
198.473339
20
15.329148
11
196.588844
21
14.591924
0
LINE
8
Image
10
196.588844
20
14.591924
11
195.391928
21
14.309844
0
LINE
8
Image
10
195.391928
20
14.309844
11
194.779217
21
14.143301
0
LINE
8
Image
10
194.779217
20
14.143301
11
194.545262
21
13.723415
0
LINE
8
Image
10
194.545262
20
13.723415
11
194.407091
21
13.269948
0
LINE
8
Image
10
194.407091
20
13.269948
11
194.074891
21
12.988904
0
LINE
8
Image
10
194.074891
20
12.988904
11
186.896811
21
10.366634
0
LINE
8
Image
10
186.896811
20
10.366634
11
181.887049
21
8.626434
0
LINE
8
Image
10
181.887049
20
8.626434
11
179.261641
21
7.902634
0
LINE
8
Image
10
179.261641
20
7.902634
11
176.625874
21
7.405218
0
LINE
8
Image
10
176.625874
20
7.405218
11
171.591211
21
6.209304
0
LINE
8
Image
10
171.591211
20
6.209304
11
166.515029
21
5.013389
0
LINE
8
Image
10
166.515029
20
5.013389
11
163.779431
21
4.515974
0
LINE
8
Image
10
163.779431
20
4.515974
11
162.914513
21
4.405900
0
LINE
8
Image
10
162.914513
20
4.405900
11
162.335911
21
4.141268
0
LINE
8
Image
10
162.335911
20
4.141268
11
160.802053
21
3.673249
0
LINE
8
Image
10
160.802053
20
3.673249
11
157.442275
21
3.174237
0
LINE
8
Image
10
157.442275
20
3.174237
11
147.424015
21
2.241754
0
LINE
8
Image
10
147.424015
20
2.241754
11
136.639253
21
1.660858
0
LINE
8
Image
10
136.639253
20
1.660858
11
132.321347
21
1.601330
0
LINE
8
Image
10
132.321347
20
1.601330
11
129.446111
21
1.748588
0
LINE
8
Image
10
129.446111
20
1.748588
11
129.446000
21
1.748870
0
LINE
8
Image
10
145.887500
20
4.415020
11
145.760894
21
4.553534
0
LINE
8
Image
10
145.760894
20
4.553534
11
145.700090
21
3.951809
0
LINE
8
Image
10
145.700090
20
3.951809
11
145.745291
21
3.290591
0
LINE
8
Image
10
145.745291
20
3.290591
11
145.801888
21
3.195342
0
LINE
8
Image
10
145.801888
20
3.195342
11
145.873558
21
3.286132
0
LINE
8
Image
10
145.873558
20
3.286132
11
145.887528
21
4.415022
0
LINE
8
Image
10
145.887528
20
4.415022
11
145.887500
21
4.415020
0
LINE
8
Image
10
177.988200
20
9.972540
11
178.154006
21
10.371179
0
LINE
8
Image
10
178.154006
20
10.371179
11
178.552644
21
10.536984
0
LINE
8
Image
10
178.552644
20
10.536984
11
178.951283
21
10.371179
0
LINE
8
Image
10
178.951283
20
10.371179
11
179.117088
21
9.972540
0
LINE
8
Image
10
179.117088
20
9.972540
11
178.951283
21
9.573901
0
LINE
8
Image
10
178.951283
20
9.573901
11
178.552644
21
9.408096
0
LINE
8
Image
10
178.552644
20
9.408096
11
178.154006
21
9.573901
0
LINE
8
Image
10
178.154006
20
9.573901
11
177.988200
21
9.972540
0
LINE
8
Image
10
177.988200
20
9.972540
11
177.988200
21
9.972540
 0 
ENDSEC
 0 
EOF