999
"DXF R12 Output" (www.mydxf.blogspot.com)
 0 
SECTION
 2 
HEADER
 9 
$ACADVER
 1 
AC1009
 9 
$EXTMIN
 10 
 0 
 20 
 0 
 9 
$EXTMAX
 10 
 8.5 
 20 
 11 
 0 
ENDSEC
 0 
SECTION
 2 
ENTITIES
0
LINE
8
Image
10
242.668000
20
2.163990
11
241.535478
21
5.398256
0
LINE
8
Image
10
241.535478
20
5.398256
11
239.484530
21
12.651090
0
LINE
8
Image
10
239.484530
20
12.651090
11
238.949659
21
14.145379
0
LINE
8
Image
10
238.949659
20
14.145379
11
238.406590
21
15.032970
0
LINE
8
Image
10
238.406590
20
15.032970
11
238.193133
21
15.142808
0
LINE
8
Image
10
238.193133
20
15.142808
11
237.957948
21
15.074639
0
LINE
8
Image
10
237.957948
20
15.074639
11
237.280808
21
14.153307
0
LINE
8
Image
10
237.280808
20
14.153307
11
234.108390
21
7.413890
0
LINE
8
Image
10
234.108390
20
7.413890
11
232.957790
21
4.855610
0
LINE
8
Image
10
232.957790
20
4.855610
11
229.273600
21
5.068942
0
LINE
8
Image
10
229.273600
20
5.068942
11
209.841337
21
6.313717
0
LINE
8
Image
10
209.841337
20
6.313717
11
203.649714
21
6.798957
0
LINE
8
Image
10
203.649714
20
6.798957
11
201.233600
21
7.089992
0
LINE
8
Image
10
201.233600
20
7.089992
11
200.789435
21
8.684955
0
LINE
8
Image
10
200.789435
20
8.684955
11
200.104710
21
12.144702
0
LINE
8
Image
10
200.104710
20
12.144702
11
199.421251
21
15.526201
0
LINE
8
Image
10
199.421251
20
15.526201
11
198.980130
21
16.933032
0
LINE
8
Image
10
198.980130
20
16.933032
11
198.066248
21
15.509198
0
LINE
8
Image
10
198.066248
20
15.509198
11
196.246160
21
12.085142
0
LINE
8
Image
10
196.246160
20
12.085142
11
194.258926
21
8.277576
0
LINE
8
Image
10
194.258926
20
8.277576
11
192.944797
21
6.239063
0
LINE
8
Image
10
192.944797
20
6.239063
11
192.394498
21
5.711270
0
LINE
8
Image
10
192.394498
20
5.711270
11
191.837696
21
5.419423
0
LINE
8
Image
10
191.837696
20
5.419423
11
190.471540
21
5.268472
0
LINE
8
Image
10
190.471540
20
5.268472
11
189.034735
21
5.460509
0
LINE
8
Image
10
189.034735
20
5.460509
11
187.019330
21
6.007359
0
LINE
8
Image
10
187.019330
20
6.007359
11
181.676636
21
7.989912
0
LINE
8
Image
10
181.676636
20
7.989912
11
175.291295
21
10.864973
0
LINE
8
Image
10
175.291295
20
10.864973
11
168.711140
21
14.281382
0
LINE
8
Image
10
168.711140
20
14.281382
11
166.143854
21
15.801749
0
LINE
8
Image
10
166.143854
20
15.801749
11
164.808030
21
16.757052
0
LINE
8
Image
10
164.808030
20
16.757052
11
164.105121
21
17.147535
0
LINE
8
Image
10
164.105121
20
17.147535
11
163.059520
21
17.309950
0
LINE
8
Image
10
163.059520
20
17.309950
11
161.978568
21
17.454560
0
LINE
8
Image
10
161.978568
20
17.454560
11
160.771476
21
17.875471
0
LINE
8
Image
10
160.771476
20
17.875471
11
159.464781
21
18.553305
0
LINE
8
Image
10
159.464781
20
18.553305
11
158.085022
21
19.468684
0
LINE
8
Image
10
158.085022
20
19.468684
11
155.212468
21
21.934565
0
LINE
8
Image
10
155.212468
20
21.934565
11
152.366120
21
25.118090
0
LINE
8
Image
10
152.366120
20
25.118090
11
151.737287
21
25.450290
0
LINE
8
Image
10
151.737287
20
25.450290
11
150.748140
21
25.588461
0
LINE
8
Image
10
150.748140
20
25.588461
11
149.637449
21
25.822031
0
LINE
8
Image
10
149.637449
20
25.822031
11
148.340060
21
26.476961
0
LINE
8
Image
10
148.340060
20
26.476961
11
146.966306
21
27.484578
0
LINE
8
Image
10
146.966306
20
27.484578
11
145.626520
21
28.776211
0
LINE
8
Image
10
145.626520
20
28.776211
11
141.030974
21
33.199328
0
LINE
8
Image
10
141.030974
20
33.199328
11
134.280251
21
39.165326
0
LINE
8
Image
10
134.280251
20
39.165326
11
128.007888
21
44.407642
0
LINE
8
Image
10
128.007888
20
44.407642
11
125.874071
21
46.049117
0
LINE
8
Image
10
125.874071
20
46.049117
11
124.847420
21
46.659711
0
LINE
8
Image
10
124.847420
20
46.659711
11
124.145129
21
46.329067
0
LINE
8
Image
10
124.145129
20
46.329067
11
123.365550
21
45.532121
0
LINE
8
Image
10
123.365550
20
45.532121
11
122.698890
21
44.754825
0
LINE
8
Image
10
122.698890
20
44.754825
11
122.028229
21
44.478151
0
LINE
8
Image
10
122.028229
20
44.478151
11
121.059816
21
44.690583
0
LINE
8
Image
10
121.059816
20
44.690583
11
119.499900
21
45.380604
0
LINE
8
Image
10
119.499900
20
45.380604
11
117.699740
21
46.302589
0
LINE
8
Image
10
117.699740
20
46.302589
11
117.177448
21
46.727497
0
LINE
8
Image
10
117.177448
20
46.727497
11
116.870711
21
47.226027
0
LINE
8
Image
10
116.870711
20
47.226027
11
116.752304
21
47.871437
0
LINE
8
Image
10
116.752304
20
47.871437
11
116.794999
21
48.736988
0
LINE
8
Image
10
116.794999
20
48.736988
11
117.254790
21
51.421544
0
LINE
8
Image
10
117.254790
20
51.421544
11
117.273956
21
52.483337
0
LINE
8
Image
10
117.273956
20
52.483337
11
116.783036
21
53.236544
0
LINE
8
Image
10
116.783036
20
53.236544
11
107.909721
21
58.684566
0
LINE
8
Image
10
107.909721
20
58.684566
11
88.617636
21
69.990844
0
LINE
8
Image
10
88.617636
20
69.990844
11
73.105180
21
79.098997
0
LINE
8
Image
10
73.105180
20
79.098997
11
60.395436
21
86.749944
0
LINE
8
Image
10
60.395436
20
86.749944
11
40.263636
21
98.865544
0
LINE
8
Image
10
40.263636
20
98.865544
11
5.457660
21
119.906000
0
LINE
8
Image
10
5.457660
20
119.906000
11
3.717665
21
121.011906
0
LINE
8
Image
10
3.717665
20
121.011906
11
2.755011
21
121.817250
0
LINE
8
Image
10
2.755011
20
121.817250
11
2.237956
21
122.700219
0
LINE
8
Image
10
2.237956
20
122.700219
11
1.834760
21
124.039000
0
LINE
8
Image
10
1.834760
20
124.039000
11
0.798580
21
127.102000
0
LINE
8
Image
10
0.798580
20
127.102000
11
0.471479
21
128.897839
0
LINE
8
Image
10
0.471479
20
128.897839
11
0.375386
21
131.830159
0
LINE
8
Image
10
0.375386
20
131.830159
11
0.503706
21
134.709527
0
LINE
8
Image
10
0.503706
20
134.709527
11
0.649960
21
135.757656
0
LINE
8
Image
10
0.649960
20
135.757656
11
0.849844
21
136.346510
0
LINE
8
Image
10
0.849844
20
136.346510
11
1.288519
21
136.689585
0
LINE
8
Image
10
1.288519
20
136.689585
11
2.309427
21
136.827110
0
LINE
8
Image
10
2.309427
20
136.827110
11
8.281694
21
136.543346
0
LINE
8
Image
10
8.281694
20
136.543346
11
14.535349
21
136.258646
0
LINE
8
Image
10
14.535349
20
136.258646
11
15.794571
21
136.450440
0
LINE
8
Image
10
15.794571
20
136.450440
11
16.824264
21
136.908392
0
LINE
8
Image
10
16.824264
20
136.908392
11
18.338190
21
137.494522
0
LINE
8
Image
10
18.338190
20
137.494522
11
20.878895
21
137.657462
0
LINE
8
Image
10
20.878895
20
137.657462
11
26.042735
21
137.371781
0
LINE
8
Image
10
26.042735
20
137.371781
11
35.426064
21
136.612048
0
LINE
8
Image
10
35.426064
20
136.612048
11
53.708364
21
135.098098
0
LINE
8
Image
10
53.708364
20
135.098098
11
57.016943
21
134.803889
0
LINE
8
Image
10
57.016943
20
134.803889
11
58.860330
21
134.529424
0
LINE
8
Image
10
58.860330
20
134.529424
11
59.659337
21
134.174467
0
LINE
8
Image
10
59.659337
20
134.174467
11
59.834774
21
133.638778
0
LINE
8
Image
10
59.834774
20
133.638778
11
60.129613
21
132.457172
0
LINE
8
Image
10
60.129613
20
132.457172
11
60.824516
21
130.942904
0
LINE
8
Image
10
60.824516
20
130.942904
11
61.650110
21
129.601821
0
LINE
8
Image
10
61.650110
20
129.601821
11
62.337024
21
128.939768
0
LINE
8
Image
10
62.337024
20
128.939768
11
71.308124
21
128.131047
0
LINE
8
Image
10
71.308124
20
128.131047
11
86.048824
21
126.979827
0
LINE
8
Image
10
86.048824
20
126.979827
11
91.349794
21
126.563675
0
LINE
8
Image
10
91.349794
20
126.563675
11
94.338220
21
126.447489
0
LINE
8
Image
10
94.338220
20
126.447489
11
95.658626
21
126.643159
0
LINE
8
Image
10
95.658626
20
126.643159
11
95.894735
21
126.861655
0
LINE
8
Image
10
95.894735
20
126.861655
11
95.955534
21
127.162574
0
LINE
8
Image
10
95.955534
20
127.162574
11
95.806741
21
127.722031
0
LINE
8
Image
10
95.806741
20
127.722031
11
95.135418
21
128.072337
0
LINE
8
Image
10
95.135418
20
128.072337
11
93.604153
21
128.302399
0
LINE
8
Image
10
93.604153
20
128.302399
11
90.875534
21
128.501124
0
LINE
8
Image
10
90.875534
20
128.501124
11
80.903694
21
129.268466
0
LINE
8
Image
10
80.903694
20
129.268466
11
69.238494
21
130.228043
0
LINE
8
Image
10
69.238494
20
130.228043
11
65.223374
21
130.617045
0
LINE
8
Image
10
65.223374
20
130.617045
11
63.232024
21
130.955620
0
LINE
8
Image
10
63.232024
20
130.955620
11
63.023894
21
131.255141
0
LINE
8
Image
10
63.023894
20
131.255141
11
62.874946
21
131.882100
0
LINE
8
Image
10
62.874946
20
131.882100
11
62.754641
21
134.057996
0
LINE
8
Image
10
62.754641
20
134.057996
11
62.871194
21
137.362628
0
LINE
8
Image
10
62.871194
20
137.362628
11
63.224686
21
141.675320
0
LINE
8
Image
10
63.224686
20
141.675320
11
64.548926
21
157.273120
0
LINE
8
Image
10
64.548926
20
157.273120
11
65.666396
21
169.273020
0
LINE
8
Image
10
65.666396
20
169.273020
11
75.907596
21
168.634182
0
LINE
8
Image
10
75.907596
20
168.634182
11
95.219721
21
167.197381
0
LINE
8
Image
10
95.219721
20
167.197381
11
98.281653
21
167.146084
0
LINE
8
Image
10
98.281653
20
167.146084
11
98.826373
21
167.252755
0
LINE
8
Image
10
98.826373
20
167.252755
11
98.965896
21
167.434512
0
LINE
8
Image
10
98.965896
20
167.434512
11
98.896181
21
167.610031
0
LINE
8
Image
10
98.896181
20
167.610031
11
98.590799
21
167.763772
0
LINE
8
Image
10
98.590799
20
167.763772
11
96.695637
21
168.070017
0
LINE
8
Image
10
96.695637
20
168.070017
11
83.725896
21
169.126202
0
LINE
8
Image
10
83.725896
20
169.126202
11
68.220096
21
170.305442
0
LINE
8
Image
10
68.220096
20
170.305442
11
66.083749
21
170.388936
0
LINE
8
Image
10
66.083749
20
170.388936
11
64.755376
21
170.284078
0
LINE
8
Image
10
64.755376
20
170.284078
11
63.876690
21
169.508998
0
LINE
8
Image
10
63.876690
20
169.508998
11
62.821496
21
167.981118
0
LINE
8
Image
10
62.821496
20
167.981118
11
61.640616
21
165.917148
0
LINE
8
Image
10
61.640616
20
165.917148
11
59.512896
21
166.118008
0
LINE
8
Image
10
59.512896
20
166.118008
11
47.127125
21
167.118251
0
LINE
8
Image
10
47.127125
20
167.118251
11
31.608900
21
168.198000
0
LINE
8
Image
10
31.608900
20
168.198000
11
25.482642
21
168.612375
0
LINE
8
Image
10
25.482642
20
168.612375
11
22.062487
21
168.978750
0
LINE
8
Image
10
22.062487
20
168.978750
11
20.267564
21
169.476000
0
LINE
8
Image
10
20.267564
20
169.476000
11
19.017000
21
170.283000
0
LINE
8
Image
10
19.017000
20
170.283000
11
18.000633
21
170.983467
0
LINE
8
Image
10
18.000633
20
170.983467
11
16.839929
21
171.393389
0
LINE
8
Image
10
16.839929
20
171.393389
11
14.851298
21
171.659504
0
LINE
8
Image
10
14.851298
20
171.659504
11
11.351150
21
171.928550
0
LINE
8
Image
10
11.351150
20
171.928550
11
4.107500
21
172.594777
0
LINE
8
Image
10
4.107500
20
172.594777
11
3.445976
21
172.758444
0
LINE
8
Image
10
3.445976
20
172.758444
11
3.127563
21
173.019772
0
LINE
8
Image
10
3.127563
20
173.019772
11
3.071015
21
173.550350
0
LINE
8
Image
10
3.071015
20
173.550350
11
3.195091
21
174.521767
0
LINE
8
Image
10
3.195091
20
174.521767
11
3.760511
21
176.779720
0
LINE
8
Image
10
3.760511
20
176.779720
11
4.763261
21
179.830017
0
LINE
8
Image
10
4.763261
20
179.830017
11
6.666771
21
185.070027
0
LINE
8
Image
10
6.666771
20
185.070027
11
7.316049
21
186.368722
0
LINE
8
Image
10
7.316049
20
186.368722
11
8.049521
21
187.208557
0
LINE
8
Image
10
8.049521
20
187.208557
11
16.745171
21
190.980777
0
LINE
8
Image
10
16.745171
20
190.980777
11
27.657771
21
195.494547
0
LINE
8
Image
10
27.657771
20
195.494547
11
49.859271
21
204.509267
0
LINE
8
Image
10
49.859271
20
204.509267
11
63.782271
21
210.157077
0
LINE
8
Image
10
63.782271
20
210.157077
11
83.725971
21
218.245767
0
LINE
8
Image
10
83.725971
20
218.245767
11
125.281971
21
234.677367
0
LINE
8
Image
10
125.281971
20
234.677367
11
131.833368
21
237.444343
0
LINE
8
Image
10
131.833368
20
237.444343
11
137.093307
21
240.074756
0
LINE
8
Image
10
137.093307
20
240.074756
11
139.092493
21
241.257412
0
LINE
8
Image
10
139.092493
20
241.257412
11
140.593028
21
242.308319
0
LINE
8
Image
10
140.593028
20
242.308319
11
141.536319
21
243.194943
0
LINE
8
Image
10
141.536319
20
243.194943
11
141.863771
21
243.884747
0
LINE
8
Image
10
141.863771
20
243.884747
11
141.559795
21
244.123791
0
LINE
8
Image
10
141.559795
20
244.123791
11
140.828961
21
244.232794
0
LINE
8
Image
10
140.828961
20
244.232794
11
136.031191
21
244.568836
0
LINE
8
Image
10
136.031191
20
244.568836
11
133.665900
21
244.846873
0
LINE
8
Image
10
133.665900
20
244.846873
11
131.140820
21
245.504845
0
LINE
8
Image
10
131.140820
20
245.504845
11
127.133326
21
246.973274
0
LINE
8
Image
10
127.133326
20
246.973274
11
120.320791
21
249.682686
0
LINE
8
Image
10
120.320791
20
249.682686
11
108.373391
21
254.476896
0
LINE
8
Image
10
108.373391
20
254.476896
11
108.372262
21
256.214046
0
LINE
8
Image
10
108.372262
20
256.214046
11
108.815576
21
265.568286
0
LINE
8
Image
10
108.815576
20
265.568286
11
109.524782
21
273.926346
0
LINE
8
Image
10
109.524782
20
273.926346
11
109.877173
21
275.476336
0
LINE
8
Image
10
109.877173
20
275.476336
11
110.223806
21
276.321086
0
LINE
8
Image
10
110.223806
20
276.321086
11
111.387160
21
276.758982
0
LINE
8
Image
10
111.387160
20
276.758982
11
113.703156
21
277.330786
0
LINE
8
Image
10
113.703156
20
277.330786
11
123.613386
21
279.621956
0
LINE
8
Image
10
123.613386
20
279.621956
11
127.624246
21
280.552393
0
LINE
8
Image
10
127.624246
20
280.552393
11
130.534714
21
281.052949
0
LINE
8
Image
10
130.534714
20
281.052949
11
133.653392
21
281.281978
0
LINE
8
Image
10
133.653392
20
281.281978
11
138.288886
21
281.397836
0
LINE
8
Image
10
138.288886
20
281.397836
11
147.974566
21
281.283043
0
LINE
8
Image
10
147.974566
20
281.283043
11
158.699624
21
280.749183
0
LINE
8
Image
10
158.699624
20
280.749183
11
167.601113
21
279.985528
0
LINE
8
Image
10
167.601113
20
279.985528
11
170.473348
21
279.576673
0
LINE
8
Image
10
170.473348
20
279.576673
11
171.816086
21
279.181346
0
LINE
8
Image
10
171.816086
20
279.181346
11
173.131133
21
277.027062
0
LINE
8
Image
10
173.131133
20
277.027062
11
175.429836
21
272.563846
0
LINE
8
Image
10
175.429836
20
272.563846
11
177.704392
21
268.120673
0
LINE
8
Image
10
177.704392
20
268.120673
11
178.961386
21
266.014576
0
LINE
8
Image
10
178.961386
20
266.014576
11
179.814109
21
265.648807
0
LINE
8
Image
10
179.814109
20
265.648807
11
181.116706
21
265.389828
0
LINE
8
Image
10
181.116706
20
265.389828
11
181.996074
21
265.324389
0
LINE
8
Image
10
181.996074
20
265.324389
11
182.574577
21
265.403170
0
LINE
8
Image
10
182.574577
20
265.403170
11
182.990707
21
265.674990
0
LINE
8
Image
10
182.990707
20
265.674990
11
183.382956
21
266.188666
0
LINE
8
Image
10
183.382956
20
266.188666
11
183.805941
21
266.725567
0
LINE
8
Image
10
183.805941
20
266.725567
11
184.345612
21
267.020439
0
LINE
8
Image
10
184.345612
20
267.020439
11
185.248198
21
267.144867
0
LINE
8
Image
10
185.248198
20
267.144867
11
186.759926
21
267.170436
0
LINE
8
Image
10
186.759926
20
267.170436
11
188.272351
21
267.202097
0
LINE
8
Image
10
188.272351
20
267.202097
11
189.265886
21
267.347665
0
LINE
8
Image
10
189.265886
20
267.347665
11
190.015566
21
267.683016
0
LINE
8
Image
10
190.015566
20
267.683016
11
190.796426
21
268.284026
0
LINE
8
Image
10
190.796426
20
268.284026
11
191.578205
21
268.884916
0
LINE
8
Image
10
191.578205
20
268.884916
11
192.333819
21
269.222335
0
LINE
8
Image
10
192.333819
20
269.222335
11
193.339576
21
269.372822
0
LINE
8
Image
10
193.339576
20
269.372822
11
194.871786
21
269.412916
0
LINE
8
Image
10
194.871786
20
269.412916
11
196.412597
21
269.452502
0
LINE
8
Image
10
196.412597
20
269.452502
11
197.414409
21
269.604482
0
LINE
8
Image
10
197.414409
20
269.604482
11
198.163474
21
269.950232
0
LINE
8
Image
10
198.163474
20
269.950232
11
198.946046
21
270.571126
0
LINE
8
Image
10
198.946046
20
270.571126
11
199.738920
21
271.205771
0
LINE
8
Image
10
199.738920
20
271.205771
11
200.492296
21
271.540047
0
LINE
8
Image
10
200.492296
20
271.540047
11
201.547457
21
271.659593
0
LINE
8
Image
10
201.547457
20
271.659593
11
203.245686
21
271.650046
0
LINE
8
Image
10
203.245686
20
271.650046
11
205.892179
21
271.741099
0
LINE
8
Image
10
205.892179
20
271.741099
11
206.577090
21
271.991271
0
LINE
8
Image
10
206.577090
20
271.991271
11
207.155266
21
272.442497
0
LINE
8
Image
10
207.155266
20
272.442497
11
207.697825
21
272.881737
0
LINE
8
Image
10
207.697825
20
272.881737
11
208.246961
21
273.109018
0
LINE
8
Image
10
208.246961
20
273.109018
11
210.008446
21
273.068999
0
LINE
8
Image
10
210.008446
20
273.068999
11
212.107627
21
272.595295
0
LINE
8
Image
10
212.107627
20
272.595295
11
212.899358
21
272.185246
0
LINE
8
Image
10
212.899358
20
272.185246
11
213.551051
21
271.624917
0
LINE
8
Image
10
213.551051
20
271.624917
11
214.086606
21
270.888198
0
LINE
8
Image
10
214.086606
20
270.888198
11
214.529925
21
269.948976
0
LINE
8
Image
10
214.529925
20
269.948976
11
215.235456
21
267.358579
0
LINE
8
Image
10
215.235456
20
267.358579
11
216.458626
21
262.834386
0
LINE
8
Image
10
216.458626
20
262.834386
11
217.095095
21
261.093536
0
LINE
8
Image
10
217.095095
20
261.093536
11
217.519496
21
260.397099
0
LINE
8
Image
10
217.519496
20
260.397099
11
218.168216
21
261.834079
0
LINE
8
Image
10
218.168216
20
261.834079
11
219.366456
21
265.288949
0
LINE
8
Image
10
219.366456
20
265.288949
11
220.647085
21
268.818028
0
LINE
8
Image
10
220.647085
20
268.818028
11
221.125424
21
269.822630
0
LINE
8
Image
10
221.125424
20
269.822630
11
221.436616
21
270.180799
0
LINE
8
Image
10
221.436616
20
270.180799
11
234.289716
21
269.055749
0
LINE
8
Image
10
234.289716
20
269.055749
11
249.401316
21
267.693479
0
LINE
8
Image
10
249.401316
20
267.693479
11
251.287061
21
267.466424
0
LINE
8
Image
10
251.287061
20
267.466424
11
251.900878
21
267.229753
0
LINE
8
Image
10
251.900878
20
267.229753
11
252.373749
21
266.811897
0
LINE
8
Image
10
252.373749
20
266.811897
11
252.764489
21
266.138537
0
LINE
8
Image
10
252.764489
20
266.138537
11
253.131917
21
265.135355
0
LINE
8
Image
10
253.131917
20
265.135355
11
254.032106
21
261.842249
0
LINE
8
Image
10
254.032106
20
261.842249
11
255.324235
21
257.503984
0
LINE
8
Image
10
255.324235
20
257.503984
11
255.785395
21
256.553047
0
LINE
8
Image
10
255.785395
20
256.553047
11
256.176916
21
256.275039
0
LINE
8
Image
10
256.176916
20
256.275039
11
256.595149
21
256.751911
0
LINE
8
Image
10
256.595149
20
256.751911
11
257.222966
21
257.874299
0
LINE
8
Image
10
257.222966
20
257.874299
11
261.311184
21
265.769705
0
LINE
8
Image
10
261.311184
20
265.769705
11
263.015934
21
268.841608
0
LINE
8
Image
10
263.015934
20
268.841608
11
263.842296
21
270.122899
0
LINE
8
Image
10
263.842296
20
270.122899
11
265.060367
21
270.095197
0
LINE
8
Image
10
265.060367
20
270.095197
11
267.398900
21
269.682308
0
LINE
8
Image
10
267.398900
20
269.682308
11
273.745866
21
268.054279
0
LINE
8
Image
10
273.745866
20
268.054279
11
277.638224
21
266.719015
0
LINE
8
Image
10
277.638224
20
266.719015
11
282.812201
21
264.725193
0
LINE
8
Image
10
282.812201
20
264.725193
11
288.372660
21
262.430431
0
LINE
8
Image
10
288.372660
20
262.430431
11
293.424466
21
260.192349
0
LINE
8
Image
10
293.424466
20
260.192349
11
294.968905
21
259.274074
0
LINE
8
Image
10
294.968905
20
259.274074
11
295.822166
21
258.360749
0
LINE
8
Image
10
295.822166
20
258.360749
11
296.227001
21
257.764892
0
LINE
8
Image
10
296.227001
20
257.764892
11
296.826529
21
257.347722
0
LINE
8
Image
10
296.826529
20
257.347722
11
297.638723
21
257.100783
0
LINE
8
Image
10
297.638723
20
257.100783
11
298.681556
21
257.015619
0
LINE
8
Image
10
298.681556
20
257.015619
11
299.139058
21
256.894001
0
LINE
8
Image
10
299.139058
20
256.894001
11
299.722935
21
256.554707
0
LINE
8
Image
10
299.722935
20
256.554707
11
301.088456
21
255.348699
0
LINE
8
Image
10
301.088456
20
255.348699
11
302.601772
21
254.030968
0
LINE
8
Image
10
302.601772
20
254.030968
11
303.310723
21
253.650038
0
LINE
8
Image
10
303.310723
20
253.650038
11
304.008326
21
253.441029
0
LINE
8
Image
10
304.008326
20
253.441029
11
305.397307
21
252.971088
0
LINE
8
Image
10
305.397307
20
252.971088
11
306.832496
21
252.186519
0
LINE
8
Image
10
306.832496
20
252.186519
11
310.219156
21
250.237149
0
LINE
8
Image
10
310.219156
20
250.237149
11
311.248240
21
249.688448
0
LINE
8
Image
10
311.248240
20
249.688448
11
311.875334
21
249.190580
0
LINE
8
Image
10
311.875334
20
249.190580
11
312.241273
21
248.587386
0
LINE
8
Image
10
312.241273
20
248.587386
11
312.486896
21
247.722709
0
LINE
8
Image
10
312.486896
20
247.722709
11
312.723421
21
246.868356
0
LINE
8
Image
10
312.723421
20
246.868356
11
313.050148
21
246.308340
0
LINE
8
Image
10
313.050148
20
246.308340
11
313.589588
21
245.906629
0
LINE
8
Image
10
313.589588
20
245.906629
11
314.464256
21
245.527189
0
LINE
8
Image
10
314.464256
20
245.527189
11
316.917617
21
244.290609
0
LINE
8
Image
10
316.917617
20
244.290609
11
320.013316
21
241.977164
0
LINE
8
Image
10
320.013316
20
241.977164
11
324.520935
21
237.944532
0
LINE
8
Image
10
324.520935
20
237.944532
11
331.210056
21
231.550389
0
LINE
8
Image
10
331.210056
20
231.550389
11
334.954329
21
228.013453
0
LINE
8
Image
10
334.954329
20
228.013453
11
337.590342
21
225.779582
0
LINE
8
Image
10
337.590342
20
225.779582
11
339.439390
21
224.604572
0
LINE
8
Image
10
339.439390
20
224.604572
11
340.169206
21
224.337826
0
LINE
8
Image
10
340.169206
20
224.337826
11
340.822766
21
224.244219
0
LINE
8
Image
10
340.822766
20
224.244219
11
341.460090
21
224.084405
0
LINE
8
Image
10
341.460090
20
224.084405
11
342.233237
21
223.569845
0
LINE
8
Image
10
342.233237
20
223.569845
11
344.687286
21
221.064849
0
LINE
8
Image
10
344.687286
20
221.064849
11
346.784017
21
218.592132
0
LINE
8
Image
10
346.784017
20
218.592132
11
348.110991
21
216.658714
0
LINE
8
Image
10
348.110991
20
216.658714
11
348.798478
21
215.034528
0
LINE
8
Image
10
348.798478
20
215.034528
11
348.976746
21
213.489509
0
LINE
8
Image
10
348.976746
20
213.489509
11
348.990186
21
212.652755
0
LINE
8
Image
10
348.990186
20
212.652755
11
349.112858
21
212.150495
0
LINE
8
Image
10
349.112858
20
212.150495
11
349.403335
21
211.872067
0
LINE
8
Image
10
349.403335
20
211.872067
11
349.920186
21
211.706809
0
LINE
8
Image
10
349.920186
20
211.706809
11
350.502354
21
211.410904
0
LINE
8
Image
10
350.502354
20
211.410904
11
351.244861
21
210.729865
0
LINE
8
Image
10
351.244861
20
210.729865
11
353.342096
21
208.073039
0
LINE
8
Image
10
353.342096
20
208.073039
11
355.332088
21
205.230590
0
LINE
8
Image
10
355.332088
20
205.230590
11
356.394567
21
203.392726
0
LINE
8
Image
10
356.394567
20
203.392726
11
356.821686
21
201.907749
0
LINE
8
Image
10
356.821686
20
201.907749
11
356.905596
21
200.123959
0
LINE
8
Image
10
356.905596
20
200.123959
11
356.932504
21
198.698370
0
LINE
8
Image
10
356.932504
20
198.698370
11
357.056789
21
197.925101
0
LINE
8
Image
10
357.056789
20
197.925101
11
357.368558
21
197.571266
0
LINE
8
Image
10
357.368558
20
197.571266
11
357.957916
21
197.403979
0
LINE
8
Image
10
357.957916
20
197.403979
11
358.802822
21
197.013744
0
LINE
8
Image
10
358.802822
20
197.013744
11
359.343286
21
196.340949
0
LINE
8
Image
10
359.343286
20
196.340949
11
361.075736
21
192.287599
0
LINE
8
Image
10
361.075736
20
192.287599
11
362.455411
21
189.018190
0
LINE
8
Image
10
362.455411
20
189.018190
11
363.180609
21
186.950318
0
LINE
8
Image
10
363.180609
20
186.950318
11
363.388250
21
185.579186
0
LINE
8
Image
10
363.388250
20
185.579186
11
363.215256
21
184.399999
0
LINE
8
Image
10
363.215256
20
184.399999
11
363.028496
21
183.568876
0
LINE
8
Image
10
363.028496
20
183.568876
11
363.031304
21
183.084968
0
LINE
8
Image
10
363.031304
20
183.084968
11
363.267707
21
182.808283
0
LINE
8
Image
10
363.267707
20
182.808283
11
363.781732
21
182.598829
0
LINE
8
Image
10
363.781732
20
182.598829
11
364.458466
21
182.157343
0
LINE
8
Image
10
364.458466
20
182.157343
11
365.107946
21
180.924840
0
LINE
8
Image
10
365.107946
20
180.924840
11
365.978231
21
178.266204
0
LINE
8
Image
10
365.978231
20
178.266204
11
367.317382
21
173.546319
0
LINE
8
Image
10
367.317382
20
173.546319
11
368.197756
21
169.912336
0
LINE
8
Image
10
368.197756
20
169.912336
11
368.228674
21
169.028822
0
LINE
8
Image
10
368.228674
20
169.028822
11
368.034762
21
168.424809
0
LINE
8
Image
10
368.034762
20
168.424809
11
367.821800
21
167.936800
0
LINE
8
Image
10
367.821800
20
167.936800
11
367.813154
21
167.542343
0
LINE
8
Image
10
367.813154
20
167.542343
11
368.524784
21
166.602819
0
LINE
8
Image
10
368.524784
20
166.602819
11
369.092585
21
165.920546
0
LINE
8
Image
10
369.092585
20
165.920546
11
369.572392
21
165.087574
0
LINE
8
Image
10
369.572392
20
165.087574
11
370.284029
21
162.894988
0
LINE
8
Image
10
370.284029
20
162.894988
11
370.691714
21
159.875967
0
LINE
8
Image
10
370.691714
20
159.875967
11
370.827464
21
155.881419
0
LINE
8
Image
10
370.827464
20
155.881419
11
370.923949
21
152.094554
0
LINE
8
Image
10
370.923949
20
152.094554
11
371.138586
21
150.519199
0
LINE
8
Image
10
371.138586
20
150.519199
11
371.317063
21
145.991518
0
LINE
8
Image
10
371.317063
20
145.991518
11
371.326715
21
135.106499
0
LINE
8
Image
10
371.326715
20
135.106499
11
371.128034
21
121.733136
0
LINE
8
Image
10
371.128034
20
121.733136
11
370.890514
21
119.764016
0
LINE
8
Image
10
370.890514
20
119.764016
11
370.705271
21
119.368012
0
LINE
8
Image
10
370.705271
20
119.368012
11
370.463539
21
119.139299
0
LINE
8
Image
10
370.463539
20
119.139299
11
369.954827
21
118.599849
0
LINE
8
Image
10
369.954827
20
118.599849
11
369.981527
21
118.367320
0
LINE
8
Image
10
369.981527
20
118.367320
11
370.181317
21
118.107379
0
LINE
8
Image
10
370.181317
20
118.107379
11
370.513524
21
117.462440
0
LINE
8
Image
10
370.513524
20
117.462440
11
370.651696
21
116.581519
0
LINE
8
Image
10
370.651696
20
116.581519
11
370.278575
21
113.771856
0
LINE
8
Image
10
370.278575
20
113.771856
11
369.403686
21
109.577776
0
LINE
8
Image
10
369.403686
20
109.577776
11
368.393737
21
105.590919
0
LINE
8
Image
10
368.393737
20
105.590919
11
367.615436
21
103.402919
0
LINE
8
Image
10
367.615436
20
103.402919
11
367.057663
21
102.110191
0
LINE
8
Image
10
367.057663
20
102.110191
11
366.888743
21
100.188729
0
LINE
8
Image
10
366.888743
20
100.188729
11
366.800149
21
98.908676
0
LINE
8
Image
10
366.800149
20
98.908676
11
366.514824
21
97.387184
0
LINE
8
Image
10
366.514824
20
97.387184
11
365.236733
21
93.117949
0
LINE
8
Image
10
365.236733
20
93.117949
11
363.331423
21
87.703989
0
LINE
8
Image
10
363.331423
20
87.703989
11
362.933000
21
87.023413
0
LINE
8
Image
10
362.933000
20
87.023413
11
362.573343
21
86.924729
0
LINE
8
Image
10
362.573343
20
86.924729
11
362.359321
21
86.779755
0
LINE
8
Image
10
362.359321
20
86.779755
11
362.172820
21
86.356327
0
LINE
8
Image
10
362.172820
20
86.356327
11
361.903574
21
84.743089
0
LINE
8
Image
10
361.903574
20
84.743089
11
361.621331
21
83.131498
0
LINE
8
Image
10
361.621331
20
83.131498
11
361.079901
21
81.305050
0
LINE
8
Image
10
361.079901
20
81.305050
11
359.457540
21
77.480663
0
LINE
8
Image
10
359.457540
20
77.480663
11
358.495643
21
75.719264
0
LINE
8
Image
10
358.495643
20
75.719264
11
357.512622
21
74.216089
0
LINE
8
Image
10
357.512622
20
74.216089
11
356.567994
21
73.089407
0
LINE
8
Image
10
356.567994
20
73.089407
11
355.721274
21
72.457489
0
LINE
8
Image
10
355.721274
20
72.457489
11
355.329422
21
72.228696
0
LINE
8
Image
10
355.329422
20
72.228696
11
355.114328
21
71.933039
0
LINE
8
Image
10
355.114328
20
71.933039
11
355.115880
21
70.885339
0
LINE
8
Image
10
355.115880
20
70.885339
11
355.052865
21
69.974295
0
LINE
8
Image
10
355.052865
20
69.974295
11
354.435591
21
68.475438
0
LINE
8
Image
10
354.435591
20
68.475438
11
350.506350
21
61.645899
0
LINE
8
Image
10
350.506350
20
61.645899
11
345.457396
21
53.365445
0
LINE
8
Image
10
345.457396
20
53.365445
11
344.071160
21
51.354524
0
LINE
8
Image
10
344.071160
20
51.354524
11
342.617650
21
49.490199
0
LINE
8
Image
10
342.617650
20
49.490199
11
341.203614
21
47.822988
0
LINE
8
Image
10
341.203614
20
47.822988
11
340.033766
21
46.689716
0
LINE
8
Image
10
340.033766
20
46.689716
11
338.956418
21
45.964966
0
LINE
8
Image
10
338.956418
20
45.964966
11
337.819880
21
45.523319
0
LINE
8
Image
10
337.819880
20
45.523319
11
337.107513
21
45.284050
0
LINE
8
Image
10
337.107513
20
45.284050
11
336.677098
21
45.016624
0
LINE
8
Image
10
336.677098
20
45.016624
11
336.465296
21
44.659442
0
LINE
8
Image
10
336.465296
20
44.659442
11
336.408770
21
44.150899
0
LINE
8
Image
10
336.408770
20
44.150899
11
336.179474
21
43.014239
0
LINE
8
Image
10
336.179474
20
43.014239
11
335.476648
21
41.755150
0
LINE
8
Image
10
335.476648
20
41.755150
11
334.277888
21
40.342148
0
LINE
8
Image
10
334.277888
20
40.342148
11
332.560790
21
38.743749
0
LINE
8
Image
10
332.560790
20
38.743749
11
328.694690
21
35.267259
0
LINE
8
Image
10
328.694690
20
35.267259
11
327.855095
21
34.507795
0
LINE
8
Image
10
327.855095
20
34.507795
11
327.205536
21
34.093195
0
LINE
8
Image
10
327.205536
20
34.093195
11
326.571504
21
33.947247
0
LINE
8
Image
10
326.571504
20
33.947247
11
325.778490
21
33.993739
0
LINE
8
Image
10
325.778490
20
33.993739
11
324.719789
21
34.018796
0
LINE
8
Image
10
324.719789
20
34.018796
11
324.155880
21
33.829283
0
LINE
8
Image
10
324.155880
20
33.829283
11
321.803950
21
32.016863
0
LINE
8
Image
10
321.803950
20
32.016863
11
319.537604
21
30.302673
0
LINE
8
Image
10
319.537604
20
30.302673
11
317.094340
21
28.245733
0
LINE
8
Image
10
317.094340
20
28.245733
11
314.487006
21
26.222129
0
LINE
8
Image
10
314.487006
20
26.222129
11
311.826190
21
24.588083
0
LINE
8
Image
10
311.826190
20
24.588083
11
307.890318
21
22.369410
0
LINE
8
Image
10
307.890318
20
22.369410
11
303.106570
21
19.001033
0
LINE
8
Image
10
303.106570
20
19.001033
11
299.179517
21
16.421465
0
LINE
8
Image
10
299.179517
20
16.421465
11
294.420378
21
13.838077
0
LINE
8
Image
10
294.420378
20
13.838077
11
289.009819
21
11.319363
0
LINE
8
Image
10
289.009819
20
11.319363
11
283.128508
21
8.933819
0
LINE
8
Image
10
283.128508
20
8.933819
11
276.957110
21
6.749939
0
LINE
8
Image
10
276.957110
20
6.749939
11
270.676294
21
4.836218
0
LINE
8
Image
10
270.676294
20
4.836218
11
264.466725
21
3.261151
0
LINE
8
Image
10
264.466725
20
3.261151
11
258.509070
21
2.093233
0
LINE
8
Image
10
258.509070
20
2.093233
11
253.151190
21
0.912073
0
LINE
8
Image
10
253.151190
20
0.912073
11
251.224858
21
0.465422
0
LINE
8
Image
10
251.224858
20
0.465422
11
250.631100
21
0.512643
0
LINE
8
Image
10
250.631100
20
0.512643
11
250.093780
21
0.728854
0
LINE
8
Image
10
250.093780
20
0.728854
11
249.227804
21
1.009887
0
LINE
8
Image
10
249.227804
20
1.009887
11
248.427230
21
0.791344
0
LINE
8
Image
10
248.427230
20
0.791344
11
247.260817
21
0.498457
0
LINE
8
Image
10
247.260817
20
0.498457
11
245.544600
21
0.376636
0
LINE
8
Image
10
245.544600
20
0.376636
11
243.437000
21
0.376584
0
LINE
8
Image
10
243.437000
20
0.376584
11
242.668000
21
2.163990
0
LINE
8
Image
10
247.182000
20
1.597345
11
248.173037
21
2.174892
0
LINE
8
Image
10
248.173037
20
2.174892
11
248.863419
21
2.416793
0
LINE
8
Image
10
248.863419
20
2.416793
11
249.485481
21
2.354920
0
LINE
8
Image
10
249.485481
20
2.354920
11
250.271560
21
2.021141
0
LINE
8
Image
10
250.271560
20
2.021141
11
250.856294
21
1.806586
0
LINE
8
Image
10
250.856294
20
1.806586
11
251.487895
21
1.766539
0
LINE
8
Image
10
251.487895
20
1.766539
11
253.521490
21
2.255354
0
LINE
8
Image
10
253.521490
20
2.255354
11
255.636589
21
2.815129
0
LINE
8
Image
10
255.636589
20
2.815129
11
257.527970
21
3.166934
0
LINE
8
Image
10
257.527970
20
3.166934
11
259.955942
21
3.525063
0
LINE
8
Image
10
259.955942
20
3.525063
11
265.476780
21
4.707324
0
LINE
8
Image
10
265.476780
20
4.707324
11
270.556780
21
5.983054
0
LINE
8
Image
10
270.556780
20
5.983054
11
274.696040
21
7.311054
0
LINE
8
Image
10
274.696040
20
7.311054
11
278.879560
21
8.662524
0
LINE
8
Image
10
278.879560
20
8.662524
11
282.974540
21
9.961734
0
LINE
8
Image
10
282.974540
20
9.961734
11
284.381730
21
10.654047
0
LINE
8
Image
10
284.381730
20
10.654047
11
285.886900
21
11.350794
0
LINE
8
Image
10
285.886900
20
11.350794
11
289.611035
21
12.968655
0
LINE
8
Image
10
289.611035
20
12.968655
11
294.639730
21
15.405264
0
LINE
8
Image
10
294.639730
20
15.405264
11
298.367740
21
17.374124
0
LINE
8
Image
10
298.367740
20
17.374124
11
300.625520
21
18.744754
0
LINE
8
Image
10
300.625520
20
18.744754
11
303.144083
21
20.684788
0
LINE
8
Image
10
303.144083
20
20.684788
11
305.989056
21
22.690900
0
LINE
8
Image
10
305.989056
20
22.690900
11
308.450459
21
24.281814
0
LINE
8
Image
10
308.450459
20
24.281814
11
309.818310
21
24.976254
0
LINE
8
Image
10
309.818310
20
24.976254
11
311.188950
21
25.691131
0
LINE
8
Image
10
311.188950
20
25.691131
11
311.969052
21
26.150113
0
LINE
8
Image
10
311.969052
20
26.150113
11
312.541700
21
26.341018
0
LINE
8
Image
10
312.541700
20
26.341018
11
313.604294
21
27.019361
0
LINE
8
Image
10
313.604294
20
27.019361
11
315.562410
21
28.650278
0
LINE
8
Image
10
315.562410
20
28.650278
11
318.860481
21
31.456202
0
LINE
8
Image
10
318.860481
20
31.456202
11
321.582439
21
33.499212
0
LINE
8
Image
10
321.582439
20
33.499212
11
323.686785
21
34.750977
0
LINE
8
Image
10
323.686785
20
34.750977
11
324.494385
21
35.071290
0
LINE
8
Image
10
324.494385
20
35.071290
11
325.132020
21
35.183168
0
LINE
8
Image
10
325.132020
20
35.183168
11
325.949497
21
35.311623
0
LINE
8
Image
10
325.949497
20
35.311623
11
326.890524
21
35.778690
0
LINE
8
Image
10
326.890524
20
35.778690
11
330.101440
21
38.336718
0
LINE
8
Image
10
330.101440
20
38.336718
11
332.587900
21
40.554983
0
LINE
8
Image
10
332.587900
20
40.554983
11
334.113258
21
42.157086
0
LINE
8
Image
10
334.113258
20
42.157086
11
334.927274
21
43.452352
0
LINE
8
Image
10
334.927274
20
43.452352
11
335.279710
21
44.750108
0
LINE
8
Image
10
335.279710
20
44.750108
11
335.431827
21
45.441358
0
LINE
8
Image
10
335.431827
20
45.441358
11
335.710032
21
45.904971
0
LINE
8
Image
10
335.710032
20
45.904971
11
336.215086
21
46.244229
0
LINE
8
Image
10
336.215086
20
46.244229
11
337.047750
21
46.562418
0
LINE
8
Image
10
337.047750
20
46.562418
11
338.008349
21
46.973593
0
LINE
8
Image
10
338.008349
20
46.973593
11
338.970106
21
47.586261
0
LINE
8
Image
10
338.970106
20
47.586261
11
339.963548
21
48.435752
0
LINE
8
Image
10
339.963548
20
48.435752
11
341.019203
21
49.557397
0
LINE
8
Image
10
341.019203
20
49.557397
11
343.439260
21
52.758469
0
LINE
8
Image
10
343.439260
20
52.758469
11
346.474500
21
57.472118
0
LINE
8
Image
10
346.474500
20
57.472118
11
348.450050
21
60.879818
0
LINE
8
Image
10
348.450050
20
60.879818
11
349.300216
21
62.241808
0
LINE
8
Image
10
349.300216
20
62.241808
11
351.049456
21
65.099548
0
LINE
8
Image
10
351.049456
20
65.099548
11
352.411686
21
67.357328
0
LINE
8
Image
10
352.411686
20
67.357328
11
353.183602
21
68.462023
0
LINE
8
Image
10
353.183602
20
68.462023
11
353.659361
21
69.514863
0
LINE
8
Image
10
353.659361
20
69.514863
11
353.824140
21
70.469370
0
LINE
8
Image
10
353.824140
20
70.469370
11
353.663116
21
71.279068
0
LINE
8
Image
10
353.663116
20
71.279068
11
353.488350
21
72.040172
0
LINE
8
Image
10
353.488350
20
72.040172
11
353.632104
21
72.713577
0
LINE
8
Image
10
353.632104
20
72.713577
11
354.043938
21
73.194478
0
LINE
8
Image
10
354.043938
20
73.194478
11
354.673416
21
73.378068
0
LINE
8
Image
10
354.673416
20
73.378068
11
355.185403
21
73.608448
0
LINE
8
Image
10
355.185403
20
73.608448
11
355.838935
21
74.251148
0
LINE
8
Image
10
355.838935
20
74.251148
11
357.395676
21
76.482864
0
LINE
8
Image
10
357.395676
20
76.482864
11
358.993720
21
79.491927
0
LINE
8
Image
10
358.993720
20
79.491927
11
360.283146
21
82.697048
0
LINE
8
Image
10
360.283146
20
82.697048
11
360.708832
21
84.558249
0
LINE
8
Image
10
360.708832
20
84.558249
11
360.679245
21
86.174718
0
LINE
8
Image
10
360.679245
20
86.174718
11
360.569610
21
86.993153
0
LINE
8
Image
10
360.569610
20
86.993153
11
360.617526
21
87.490906
0
LINE
8
Image
10
360.617526
20
87.490906
11
360.870701
21
87.795019
0
LINE
8
Image
10
360.870701
20
87.795019
11
361.376841
21
88.032538
0
LINE
8
Image
10
361.376841
20
88.032538
11
362.054810
21
88.464438
0
LINE
8
Image
10
362.054810
20
88.464438
11
362.684567
21
89.103481
0
LINE
8
Image
10
362.684567
20
89.103481
11
363.048376
21
89.682690
0
LINE
8
Image
10
363.048376
20
89.682690
11
363.062507
21
89.866426
0
LINE
8
Image
10
363.062507
20
89.866426
11
362.928501
21
89.935088
0
LINE
8
Image
10
362.928501
20
89.935088
11
362.856901
21
90.073260
0
LINE
8
Image
10
362.856901
20
90.073260
11
362.998746
21
90.405459
0
LINE
8
Image
10
362.998746
20
90.405459
11
363.356152
21
91.252125
0
LINE
8
Image
10
363.356152
20
91.252125
11
364.574702
21
95.113515
0
LINE
8
Image
10
364.574702
20
95.113515
11
365.349980
21
97.721483
0
LINE
8
Image
10
365.349980
20
97.721483
11
365.750490
21
99.743469
0
LINE
8
Image
10
365.750490
20
99.743469
11
365.778442
21
101.197418
0
LINE
8
Image
10
365.778442
20
101.197418
11
365.436044
21
102.101275
0
LINE
8
Image
10
365.436044
20
102.101275
11
365.244624
21
102.430124
0
LINE
8
Image
10
365.244624
20
102.430124
11
365.266739
21
102.770274
0
LINE
8
Image
10
365.266739
20
102.770274
11
366.062972
21
103.783365
0
LINE
8
Image
10
366.062972
20
103.783365
11
366.613675
21
104.462702
0
LINE
8
Image
10
366.613675
20
104.462702
11
367.060005
21
105.303801
0
LINE
8
Image
10
367.060005
20
105.303801
11
367.806172
21
107.861055
0
LINE
8
Image
10
367.806172
20
107.861055
11
368.664663
21
111.760255
0
LINE
8
Image
10
368.664663
20
111.760255
11
369.001975
21
113.453585
0
LINE
8
Image
10
369.001975
20
113.453585
11
369.310165
21
115.016385
0
LINE
8
Image
10
369.310165
20
115.016385
11
369.622186
21
115.761205
0
LINE
8
Image
10
369.622186
20
115.761205
11
369.590842
21
116.341304
0
LINE
8
Image
10
369.590842
20
116.341304
11
369.141223
21
117.137595
0
LINE
8
Image
10
369.141223
20
117.137595
11
368.607967
21
117.932364
0
LINE
8
Image
10
368.607967
20
117.932364
11
368.440212
21
118.580149
0
LINE
8
Image
10
368.440212
20
118.580149
11
368.641137
21
119.202897
0
LINE
8
Image
10
368.641137
20
119.202897
11
369.213924
21
119.922555
0
LINE
8
Image
10
369.213924
20
119.922555
11
369.663856
21
120.575744
0
LINE
8
Image
10
369.663856
20
120.575744
11
369.961153
21
121.666084
0
LINE
8
Image
10
369.961153
20
121.666084
11
370.407924
21
126.994885
0
LINE
8
Image
10
370.407924
20
126.994885
11
370.619583
21
132.304781
0
LINE
8
Image
10
370.619583
20
132.304781
11
370.479242
21
133.334332
0
LINE
8
Image
10
370.479242
20
133.334332
11
370.152174
21
133.889795
0
LINE
8
Image
10
370.152174
20
133.889795
11
369.682996
21
134.580224
0
LINE
8
Image
10
369.682996
20
134.580224
11
369.558368
21
135.228915
0
LINE
8
Image
10
369.558368
20
135.228915
11
369.777766
21
135.828969
0
LINE
8
Image
10
369.777766
20
135.828969
11
370.340670
21
136.373485
0
LINE
8
Image
10
370.340670
20
136.373485
11
370.804642
21
136.806996
0
LINE
8
Image
10
370.804642
20
136.806996
11
371.003584
21
137.672673
0
LINE
8
Image
10
371.003584
20
137.672673
11
370.760673
21
143.213005
0
LINE
8
Image
10
370.760673
20
143.213005
11
370.351931
21
147.905339
0
LINE
8
Image
10
370.351931
20
147.905339
11
370.136341
21
149.214752
0
LINE
8
Image
10
370.136341
20
149.214752
11
369.923800
21
149.750785
0
LINE
8
Image
10
369.923800
20
149.750785
11
369.643407
21
150.033195
0
LINE
8
Image
10
369.643407
20
150.033195
11
369.530181
21
150.634461
0
LINE
8
Image
10
369.530181
20
150.634461
11
369.756386
21
154.047425
0
LINE
8
Image
10
369.756386
20
154.047425
11
369.789326
21
156.690336
0
LINE
8
Image
10
369.789326
20
156.690336
11
369.545675
21
159.788559
0
LINE
8
Image
10
369.545675
20
159.788559
11
369.107856
21
162.624339
0
LINE
8
Image
10
369.107856
20
162.624339
11
368.558296
21
164.479925
0
LINE
8
Image
10
368.558296
20
164.479925
11
367.921512
21
165.356065
0
LINE
8
Image
10
367.921512
20
165.356065
11
367.095966
21
166.087855
0
LINE
8
Image
10
367.095966
20
166.087855
11
366.469375
21
166.649908
0
LINE
8
Image
10
366.469375
20
166.649908
11
366.182486
21
167.286452
0
LINE
8
Image
10
366.182486
20
167.286452
11
366.237035
21
167.987476
0
LINE
8
Image
10
366.237035
20
167.987476
11
366.634759
21
168.742965
0
LINE
8
Image
10
366.634759
20
168.742965
11
366.854205
21
169.227351
0
LINE
8
Image
10
366.854205
20
169.227351
11
366.859665
21
169.958962
0
LINE
8
Image
10
366.859665
20
169.958962
11
366.123627
21
173.048215
0
LINE
8
Image
10
366.123627
20
173.048215
11
364.770572
21
177.856804
0
LINE
8
Image
10
364.770572
20
177.856804
11
363.977948
21
180.319719
0
LINE
8
Image
10
363.977948
20
180.319719
11
363.403763
21
181.297954
0
LINE
8
Image
10
363.403763
20
181.297954
11
362.706027
21
181.652505
0
LINE
8
Image
10
362.706027
20
181.652505
11
362.040937
21
182.086800
0
LINE
8
Image
10
362.040937
20
182.086800
11
361.649503
21
182.692315
0
LINE
8
Image
10
361.649503
20
182.692315
11
361.590773
21
183.308772
0
LINE
8
Image
10
361.590773
20
183.308772
11
361.923792
21
183.775895
0
LINE
8
Image
10
361.923792
20
183.775895
11
362.187496
21
184.423149
0
LINE
8
Image
10
362.187496
20
184.423149
11
362.157133
21
185.619884
0
LINE
8
Image
10
362.157133
20
185.619884
11
361.872642
21
187.034781
0
LINE
8
Image
10
361.872642
20
187.034781
11
361.373967
21
188.336525
0
LINE
8
Image
10
361.373967
20
188.336525
11
360.300197
21
190.782445
0
LINE
8
Image
10
360.300197
20
190.782445
11
358.951377
21
194.048445
0
LINE
8
Image
10
358.951377
20
194.048445
11
357.892232
21
195.965628
0
LINE
8
Image
10
357.892232
20
195.965628
11
357.416337
21
196.344027
0
LINE
8
Image
10
357.416337
20
196.344027
11
356.839147
21
196.494365
0
LINE
8
Image
10
356.839147
20
196.494365
11
356.250814
21
196.601880
0
LINE
8
Image
10
356.250814
20
196.601880
11
355.948520
21
196.860961
0
LINE
8
Image
10
355.948520
20
196.860961
11
355.853464
21
197.437279
0
LINE
8
Image
10
355.853464
20
197.437279
11
355.886845
21
198.496505
0
LINE
8
Image
10
355.886845
20
198.496505
11
355.834125
21
200.267445
0
LINE
8
Image
10
355.834125
20
200.267445
11
355.568386
21
201.883165
0
LINE
8
Image
10
355.568386
20
201.883165
11
355.165835
21
202.839041
0
LINE
8
Image
10
355.165835
20
202.839041
11
354.447292
21
204.088893
0
LINE
8
Image
10
354.447292
20
204.088893
11
352.444170
21
206.967993
0
LINE
8
Image
10
352.444170
20
206.967993
11
350.322910
21
209.515393
0
LINE
8
Image
10
350.322910
20
209.515393
11
349.456696
21
210.350622
0
LINE
8
Image
10
349.456696
20
210.350622
11
348.847406
21
210.726025
0
LINE
8
Image
10
348.847406
20
210.726025
11
348.350673
21
210.906789
0
LINE
8
Image
10
348.350673
20
210.906789
11
348.053537
21
211.269880
0
LINE
8
Image
10
348.053537
20
211.269880
11
347.779566
21
213.184045
0
LINE
8
Image
10
347.779566
20
213.184045
11
347.543896
21
214.852498
0
LINE
8
Image
10
347.543896
20
214.852498
11
346.898800
21
216.333308
0
LINE
8
Image
10
346.898800
20
216.333308
11
345.557545
21
218.094448
0
LINE
8
Image
10
345.557545
20
218.094448
11
343.233396
21
220.603895
0
LINE
8
Image
10
343.233396
20
220.603895
11
341.226674
21
222.475487
0
LINE
8
Image
10
341.226674
20
222.475487
11
340.494616
21
222.972686
0
LINE
8
Image
10
340.494616
20
222.972686
11
339.986000
21
223.144000
0
LINE
8
Image
10
339.986000
20
223.144000
11
339.366555
21
223.255045
0
LINE
8
Image
10
339.366555
20
223.255045
11
338.589426
21
223.597351
0
LINE
8
Image
10
338.589426
20
223.597351
11
336.492106
21
225.030761
0
LINE
8
Image
10
336.492106
20
225.030761
11
333.554008
21
227.554269
0
LINE
8
Image
10
333.554008
20
227.554269
11
329.635100
21
231.277910
0
LINE
8
Image
10
329.635100
20
231.277910
11
323.813050
21
236.884114
0
LINE
8
Image
10
323.813050
20
236.884114
11
319.755000
21
240.511480
0
LINE
8
Image
10
319.755000
20
240.511480
11
316.742375
21
242.756836
0
LINE
8
Image
10
316.742375
20
242.756836
11
314.056600
21
244.217010
0
LINE
8
Image
10
314.056600
20
244.217010
11
312.236806
21
245.236930
0
LINE
8
Image
10
312.236806
20
245.236930
11
311.870895
21
245.702914
0
LINE
8
Image
10
311.870895
20
245.702914
11
311.727000
21
246.263100
0
LINE
8
Image
10
311.727000
20
246.263100
11
311.463404
21
247.333540
0
LINE
8
Image
10
311.463404
20
247.333540
11
310.949761
21
248.256724
0
LINE
8
Image
10
310.949761
20
248.256724
11
310.244096
21
248.955468
0
LINE
8
Image
10
310.244096
20
248.955468
11
309.404430
21
249.352590
0
LINE
8
Image
10
309.404430
20
249.352590
11
308.124281
21
249.899387
0
LINE
8
Image
10
308.124281
20
249.899387
11
306.492910
21
250.854430
0
LINE
8
Image
10
306.492910
20
250.854430
11
304.794175
21
251.808216
0
LINE
8
Image
10
304.794175
20
251.808216
11
303.352060
21
252.351980
0
LINE
8
Image
10
303.352060
20
252.351980
11
301.938815
21
253.022888
0
LINE
8
Image
10
301.938815
20
253.022888
11
300.248780
21
254.447680
0
LINE
8
Image
10
300.248780
20
254.447680
11
298.808000
21
255.724173
0
LINE
8
Image
10
298.808000
20
255.724173
11
297.933320
21
256.203850
0
LINE
8
Image
10
297.933320
20
256.203850
11
297.021790
21
256.211340
0
LINE
8
Image
10
297.021790
20
256.211340
11
296.057705
21
256.487723
0
LINE
8
Image
10
296.057705
20
256.487723
11
295.229790
21
256.954713
0
LINE
8
Image
10
295.229790
20
256.954713
11
294.726770
21
257.534020
0
LINE
8
Image
10
294.726770
20
257.534020
11
294.323417
21
258.152249
0
LINE
8
Image
10
294.323417
20
258.152249
11
293.310372
21
258.816679
0
LINE
8
Image
10
293.310372
20
258.816679
11
286.737380
21
261.702000
0
LINE
8
Image
10
286.737380
20
261.702000
11
279.775900
21
264.709930
0
LINE
8
Image
10
279.775900
20
264.709930
11
276.663264
21
265.894779
0
LINE
8
Image
10
276.663264
20
265.894779
11
270.646770
21
267.761000
0
LINE
8
Image
10
270.646770
20
267.761000
11
270.082326
21
267.938770
0
LINE
8
Image
10
270.082326
20
267.938770
11
266.882561
21
268.554997
0
LINE
8
Image
10
266.882561
20
268.554997
11
265.076391
21
268.772184
0
LINE
8
Image
10
265.076391
20
268.772184
11
264.253306
21
268.769120
0
LINE
8
Image
10
264.253306
20
268.769120
11
260.083376
21
260.616220
0
LINE
8
Image
10
260.083376
20
260.616220
11
257.860316
21
256.382890
0
LINE
8
Image
10
257.860316
20
256.382890
11
257.180603
21
255.333827
0
LINE
8
Image
10
257.180603
20
255.333827
11
256.505031
21
254.818910
0
LINE
8
Image
10
256.505031
20
254.818910
11
255.835604
21
254.835667
0
LINE
8
Image
10
255.835604
20
254.835667
11
255.174324
21
255.381627
0
LINE
8
Image
10
255.174324
20
255.381627
11
254.523194
21
256.454322
0
LINE
8
Image
10
254.523194
20
256.454322
11
253.884217
21
258.051279
0
LINE
8
Image
10
253.884217
20
258.051279
11
252.650736
21
262.808100
0
LINE
8
Image
10
252.650736
20
262.808100
11
252.160082
21
264.776777
0
LINE
8
Image
10
252.160082
20
264.776777
11
251.736193
21
265.860470
0
LINE
8
Image
10
251.736193
20
265.860470
11
251.049316
21
266.193177
0
LINE
8
Image
10
251.049316
20
266.193177
11
249.741112
21
266.519459
0
LINE
8
Image
10
249.741112
20
266.519459
11
246.661863
21
266.873130
0
LINE
8
Image
10
246.661863
20
266.873130
11
236.313763
21
267.757443
0
LINE
8
Image
10
236.313763
20
267.757443
11
227.658953
21
268.474860
0
LINE
8
Image
10
227.658953
20
268.474860
11
223.456503
21
268.895144
0
LINE
8
Image
10
223.456503
20
268.895144
11
222.685650
21
268.979790
0
LINE
8
Image
10
222.685650
20
268.979790
11
222.201817
21
268.886098
0
LINE
8
Image
10
222.201817
20
268.886098
11
221.862334
21
268.537409
0
LINE
8
Image
10
221.862334
20
268.537409
11
221.524533
21
267.857064
0
LINE
8
Image
10
221.524533
20
267.857064
11
220.334703
21
264.348464
0
LINE
8
Image
10
220.334703
20
264.348464
11
219.192073
21
260.842835
0
LINE
8
Image
10
219.192073
20
260.842835
11
218.676130
21
259.739653
0
LINE
8
Image
10
218.676130
20
259.739653
11
218.179441
21
259.052166
0
LINE
8
Image
10
218.179441
20
259.052166
11
217.688757
21
258.767332
0
LINE
8
Image
10
217.688757
20
258.767332
11
217.190834
21
258.872105
0
LINE
8
Image
10
217.190834
20
258.872105
11
216.672425
21
259.353440
0
LINE
8
Image
10
216.672425
20
259.353440
11
216.120283
21
260.198294
0
LINE
8
Image
10
216.120283
20
260.198294
11
215.576610
21
261.301928
0
LINE
8
Image
10
215.576610
20
261.301928
11
215.446523
21
261.857004
0
LINE
8
Image
10
215.446523
20
261.857004
11
215.449569
21
262.109402
0
LINE
8
Image
10
215.449569
20
262.109402
11
215.225972
21
262.485321
0
LINE
8
Image
10
215.225972
20
262.485321
11
214.808927
21
263.548888
0
LINE
8
Image
10
214.808927
20
263.548888
11
214.343958
21
266.606241
0
LINE
8
Image
10
214.343958
20
266.606241
11
214.031594
21
267.725373
0
LINE
8
Image
10
214.031594
20
267.725373
11
213.443214
21
269.127511
0
LINE
8
Image
10
213.443214
20
269.127511
11
212.768693
21
270.409154
0
LINE
8
Image
10
212.768693
20
270.409154
11
212.197908
21
271.166801
0
LINE
8
Image
10
212.197908
20
271.166801
11
211.395351
21
271.541411
0
LINE
8
Image
10
211.395351
20
271.541411
11
210.212198
21
271.850450
0
LINE
8
Image
10
210.212198
20
271.850450
11
209.437892
21
271.950211
0
LINE
8
Image
10
209.437892
20
271.950211
11
208.859262
21
271.902767
0
LINE
8
Image
10
208.859262
20
271.902767
11
208.365087
21
271.680118
0
LINE
8
Image
10
208.365087
20
271.680118
11
207.844148
21
271.254261
0
LINE
8
Image
10
207.844148
20
271.254261
11
207.263185
21
270.799000
0
LINE
8
Image
10
207.263185
20
270.799000
11
206.576350
21
270.551787
0
LINE
8
Image
10
206.576350
20
270.551787
11
203.867778
21
270.484605
0
LINE
8
Image
10
203.867778
20
270.484605
11
202.130778
21
270.508179
0
LINE
8
Image
10
202.130778
20
270.508179
11
201.042682
21
270.396864
0
LINE
8
Image
10
201.042682
20
270.396864
11
200.247811
21
270.067399
0
LINE
8
Image
10
200.247811
20
270.067399
11
199.390488
21
269.436525
0
LINE
8
Image
10
199.390488
20
269.436525
11
198.553862
21
268.827349
0
LINE
8
Image
10
198.553862
20
268.827349
11
197.775956
21
268.484470
0
LINE
8
Image
10
197.775956
20
268.484470
11
196.790858
21
268.333381
0
LINE
8
Image
10
196.790858
20
268.333381
11
195.332658
21
268.299575
0
LINE
8
Image
10
195.332658
20
268.299575
11
193.870421
21
268.267346
0
LINE
8
Image
10
193.870421
20
268.267346
11
192.906058
21
268.119557
0
LINE
8
Image
10
192.906058
20
268.119557
11
192.172800
21
267.779555
0
LINE
8
Image
10
192.172800
20
267.779555
11
191.403878
21
267.170685
0
LINE
8
Image
10
191.403878
20
267.170685
11
190.635285
21
266.562106
0
LINE
8
Image
10
190.635285
20
266.562106
11
189.902647
21
266.222071
0
LINE
8
Image
10
189.902647
20
266.222071
11
188.940394
21
266.074121
0
LINE
8
Image
10
188.940394
20
266.074121
11
187.482958
21
266.041795
0
LINE
8
Image
10
187.482958
20
266.041795
11
185.193686
21
265.896406
0
LINE
8
Image
10
185.193686
20
265.896406
11
184.663657
21
265.633989
0
LINE
8
Image
10
184.663657
20
265.633989
11
184.278758
21
265.173374
0
LINE
8
Image
10
184.278758
20
265.173374
11
183.929440
21
264.808990
0
LINE
8
Image
10
183.929440
20
264.808990
11
183.430767
21
264.525628
0
LINE
8
Image
10
183.430767
20
264.525628
11
182.104730
21
264.213028
0
LINE
8
Image
10
182.104730
20
264.213028
11
180.539396
21
264.257695
0
LINE
8
Image
10
180.539396
20
264.257695
11
178.973518
21
264.681753
0
LINE
8
Image
10
178.973518
20
264.681753
11
178.166515
21
265.167646
0
LINE
8
Image
10
178.166515
20
265.167646
11
177.341940
21
266.194969
0
LINE
8
Image
10
177.341940
20
266.194969
11
176.188774
21
268.248246
0
LINE
8
Image
10
176.188774
20
268.248246
11
174.396000
21
271.812000
0
LINE
8
Image
10
174.396000
20
271.812000
11
172.298469
21
276.020469
0
LINE
8
Image
10
172.298469
20
276.020469
11
171.554426
21
277.255840
0
LINE
8
Image
10
171.554426
20
277.255840
11
170.842750
21
278.054500
0
LINE
8
Image
10
170.842750
20
278.054500
11
170.035355
21
278.523348
0
LINE
8
Image
10
170.035355
20
278.523348
11
169.004156
21
278.769281
0
LINE
8
Image
10
169.004156
20
278.769281
11
165.758000
21
279.020000
0
LINE
8
Image
10
165.758000
20
279.020000
11
161.619000
21
279.404000
0
LINE
8
Image
10
161.619000
20
279.404000
11
155.622290
21
279.782153
0
LINE
8
Image
10
155.622290
20
279.782153
11
152.049005
21
280.040069
0
LINE
8
Image
10
152.049005
20
280.040069
11
150.293570
21
280.370756
0
LINE
8
Image
10
150.293570
20
280.370756
11
149.909082
21
280.545471
0
LINE
8
Image
10
149.909082
20
280.545471
11
149.631892
21
280.428391
0
LINE
8
Image
10
149.631892
20
280.428391
11
148.722921
21
280.280920
0
LINE
8
Image
10
148.722921
20
280.280920
11
146.819482
21
280.382568
0
LINE
8
Image
10
146.819482
20
280.382568
11
139.366772
21
280.783244
0
LINE
8
Image
10
139.366772
20
280.783244
11
136.345139
21
280.826351
0
LINE
8
Image
10
136.345139
20
280.826351
11
133.825424
21
280.610570
0
LINE
8
Image
10
133.825424
20
280.610570
11
130.279084
21
279.903311
0
LINE
8
Image
10
130.279084
20
279.903311
11
124.177572
21
278.471984
0
LINE
8
Image
10
124.177572
20
278.471984
11
117.404242
21
276.906894
0
LINE
8
Image
10
117.404242
20
276.906894
11
113.243148
21
275.964766
0
LINE
8
Image
10
113.243148
20
275.964766
11
112.035756
21
275.592591
0
LINE
8
Image
10
112.035756
20
275.592591
11
111.266917
21
275.168971
0
LINE
8
Image
10
111.266917
20
275.168971
11
110.828969
21
274.605875
0
LINE
8
Image
10
110.828969
20
274.605875
11
110.614248
21
273.815275
0
LINE
8
Image
10
110.614248
20
273.815275
11
110.423842
21
271.199444
0
LINE
8
Image
10
110.423842
20
271.199444
11
110.049576
21
267.546354
0
LINE
8
Image
10
110.049576
20
267.546354
11
109.677754
21
261.935404
0
LINE
8
Image
10
109.677754
20
261.935404
11
109.437267
21
256.667264
0
LINE
8
Image
10
109.437267
20
256.667264
11
109.445033
21
256.017519
0
LINE
8
Image
10
109.445033
20
256.017519
11
109.646342
21
255.520343
0
LINE
8
Image
10
109.646342
20
255.520343
11
110.065043
21
255.142060
0
LINE
8
Image
10
110.065043
20
255.142060
11
110.724987
21
254.848994
0
LINE
8
Image
10
110.724987
20
254.848994
11
123.424987
21
249.858454
0
LINE
8
Image
10
123.424987
20
249.858454
11
132.585194
21
246.275692
0
LINE
8
Image
10
132.585194
20
246.275692
11
134.528149
21
245.648043
0
LINE
8
Image
10
134.528149
20
245.648043
11
135.229987
21
245.610174
0
LINE
8
Image
10
135.229987
20
245.610174
11
136.430079
21
245.674329
0
LINE
8
Image
10
136.430079
20
245.674329
11
139.030317
21
245.543488
0
LINE
8
Image
10
139.030317
20
245.543488
11
142.026426
21
245.188660
0
LINE
8
Image
10
142.026426
20
245.188660
11
142.678044
21
244.928028
0
LINE
8
Image
10
142.678044
20
244.928028
11
143.015197
21
244.549609
0
LINE
8
Image
10
143.015197
20
244.549609
11
143.184443
21
243.899261
0
LINE
8
Image
10
143.184443
20
243.899261
11
143.032009
21
243.185216
0
LINE
8
Image
10
143.032009
20
243.185216
11
142.559756
21
242.409174
0
LINE
8
Image
10
142.559756
20
242.409174
11
141.769550
21
241.572837
0
LINE
8
Image
10
141.769550
20
241.572837
11
139.242724
21
239.726079
0
LINE
8
Image
10
139.242724
20
239.726079
11
135.466437
21
237.658549
0
LINE
8
Image
10
135.466437
20
237.658549
11
128.113648
21
234.493218
0
LINE
8
Image
10
128.113648
20
234.493218
11
124.513638
21
233.119609
0
LINE
8
Image
10
124.513638
20
233.119609
11
122.636137
21
232.550829
0
LINE
8
Image
10
122.636137
20
232.550829
11
122.020821
21
232.391361
0
LINE
8
Image
10
122.020821
20
232.391361
11
121.312207
21
232.007961
0
LINE
8
Image
10
121.312207
20
232.007961
11
116.618857
21
229.915901
0
LINE
8
Image
10
116.618857
20
229.915901
11
110.583877
21
227.448401
0
LINE
8
Image
10
110.583877
20
227.448401
11
108.090697
21
226.530093
0
LINE
8
Image
10
108.090697
20
226.530093
11
105.595997
21
225.593322
0
LINE
8
Image
10
105.595997
20
225.593322
11
103.296237
21
224.641286
0
LINE
8
Image
10
103.296237
20
224.641286
11
101.510587
21
223.941793
0
LINE
8
Image
10
101.510587
20
223.941793
11
98.401307
21
222.775163
0
LINE
8
Image
10
98.401307
20
222.775163
11
96.519827
21
222.017524
0
LINE
8
Image
10
96.519827
20
222.017524
11
88.429467
21
218.794004
0
LINE
8
Image
10
88.429467
20
218.794004
11
86.547987
21
217.999106
0
LINE
8
Image
10
86.547987
20
217.999106
11
82.973177
21
216.573536
0
LINE
8
Image
10
82.973177
20
216.573536
11
79.210217
21
215.060336
0
LINE
8
Image
10
79.210217
20
215.060336
11
76.387997
21
213.950816
0
LINE
8
Image
10
76.387997
20
213.950816
11
74.318367
21
213.173636
0
LINE
8
Image
10
74.318367
20
213.173636
11
67.921337
21
210.528156
0
LINE
8
Image
10
67.921337
20
210.528156
11
63.405787
21
208.648376
0
LINE
8
Image
10
63.405787
20
208.648376
11
59.652057
21
207.159876
0
LINE
8
Image
10
59.652057
20
207.159876
11
57.394277
21
206.247303
0
LINE
8
Image
10
57.394277
20
206.247303
11
54.750977
21
205.099493
0
LINE
8
Image
10
54.750977
20
205.099493
11
50.988017
21
203.583423
0
LINE
8
Image
10
50.988017
20
203.583423
11
47.977647
21
202.420983
0
LINE
8
Image
10
47.977647
20
202.420983
11
46.114977
21
201.617751
0
LINE
8
Image
10
46.114977
20
201.617751
11
45.269903
21
201.318271
0
LINE
8
Image
10
45.269903
20
201.318271
11
41.931013
21
200.001231
0
LINE
8
Image
10
41.931013
20
200.001231
11
38.898413
21
198.684201
0
LINE
8
Image
10
38.898413
20
198.684201
11
37.138483
21
197.974356
0
LINE
8
Image
10
37.138483
20
197.974356
11
32.843713
21
196.293436
0
LINE
8
Image
10
32.843713
20
196.293436
11
28.328163
21
194.420586
0
LINE
8
Image
10
28.328163
20
194.420586
11
25.023583
21
193.044406
0
LINE
8
Image
10
25.023583
20
193.044406
11
21.448773
21
191.624996
0
LINE
8
Image
10
21.448773
20
191.624996
11
15.992483
21
189.267736
0
LINE
8
Image
10
15.992483
20
189.267736
11
11.194713
21
187.244056
0
LINE
8
Image
10
11.194713
20
187.244056
11
10.198117
21
186.882522
0
LINE
8
Image
10
10.198117
20
186.882522
11
9.783603
21
186.871901
0
LINE
8
Image
10
9.783603
20
186.871901
11
9.605403
21
186.893000
0
LINE
8
Image
10
9.605403
20
186.893000
11
9.176965
21
186.607710
0
LINE
8
Image
10
9.176965
20
186.607710
11
8.534767
21
185.768425
0
LINE
8
Image
10
8.534767
20
185.768425
11
7.744651
21
184.223676
0
LINE
8
Image
10
7.744651
20
184.223676
11
5.852065
21
179.306320
0
LINE
8
Image
10
5.852065
20
179.306320
11
4.531605
21
175.919660
0
LINE
8
Image
10
4.531605
20
175.919660
11
4.343554
21
175.376593
0
LINE
8
Image
10
4.343554
20
175.376593
11
4.310481
21
174.601260
0
LINE
8
Image
10
4.310481
20
174.601260
11
4.365870
21
174.252341
0
LINE
8
Image
10
4.365870
20
174.252341
11
4.536903
21
173.979805
0
LINE
8
Image
10
4.536903
20
173.979805
11
4.927810
21
173.765172
0
LINE
8
Image
10
4.927810
20
173.765172
11
5.642820
21
173.589963
0
LINE
8
Image
10
5.642820
20
173.589963
11
8.462075
21
173.283899
0
LINE
8
Image
10
8.462075
20
173.283899
11
13.828511
21
172.913780
0
LINE
8
Image
10
13.828511
20
172.913780
11
16.221320
21
172.731665
0
LINE
8
Image
10
16.221320
20
172.731665
11
17.685910
21
172.498027
0
LINE
8
Image
10
17.685910
20
172.498027
11
18.687230
21
172.092315
0
LINE
8
Image
10
18.687230
20
172.092315
11
19.690231
21
171.393980
0
LINE
8
Image
10
19.690231
20
171.393980
11
20.711647
21
170.687142
0
LINE
8
Image
10
20.711647
20
170.687142
11
21.797859
21
170.266324
0
LINE
8
Image
10
21.797859
20
170.266324
11
23.500139
21
169.994611
0
LINE
8
Image
10
23.500139
20
169.994611
11
26.369761
21
169.735090
0
LINE
8
Image
10
26.369761
20
169.735090
11
44.214661
21
168.444070
0
LINE
8
Image
10
44.214661
20
168.444070
11
51.826479
21
167.929745
0
LINE
8
Image
10
51.826479
20
167.929745
11
54.939061
21
167.611995
0
LINE
8
Image
10
54.939061
20
167.611995
11
58.361361
21
167.349046
0
LINE
8
Image
10
58.361361
20
167.349046
11
60.842921
21
167.263488
0
LINE
8
Image
10
60.842921
20
167.263488
11
61.936171
21
169.091758
0
LINE
8
Image
10
61.936171
20
169.091758
11
62.984619
21
170.491581
0
LINE
8
Image
10
62.984619
20
170.491581
11
63.970161
21
171.289748
0
LINE
8
Image
10
63.970161
20
171.289748
11
65.553761
21
171.485388
0
LINE
8
Image
10
65.553761
20
171.485388
11
68.109421
21
171.417803
0
LINE
8
Image
10
68.109421
20
171.417803
11
73.942011
21
171.017988
0
LINE
8
Image
10
73.942011
20
171.017988
11
88.439406
21
169.958224
0
LINE
8
Image
10
88.439406
20
169.958224
11
98.589411
21
169.034928
0
LINE
8
Image
10
98.589411
20
169.034928
11
99.664837
21
168.626852
0
LINE
8
Image
10
99.664837
20
168.626852
11
99.905834
21
168.287089
0
LINE
8
Image
10
99.905834
20
168.287089
11
100.019551
21
167.795728
0
LINE
8
Image
10
100.019551
20
167.795728
11
100.051031
21
167.163799
0
LINE
8
Image
10
100.051031
20
167.163799
11
99.930514
21
166.685638
0
LINE
8
Image
10
99.930514
20
166.685638
11
99.584353
21
166.347453
0
LINE
8
Image
10
99.584353
20
166.347453
11
98.938901
21
166.135449
0
LINE
8
Image
10
98.938901
20
166.135449
11
96.455536
21
166.034812
0
LINE
8
Image
10
96.455536
20
166.034812
11
91.891241
21
166.273378
0
LINE
8
Image
10
91.891241
20
166.273378
11
79.155229
21
167.162197
0
LINE
8
Image
10
79.155229
20
167.162197
11
73.753841
21
167.705188
0
LINE
8
Image
10
73.753841
20
167.705188
11
72.258458
21
167.892382
0
LINE
8
Image
10
72.258458
20
167.892382
11
69.842674
21
168.002002
0
LINE
8
Image
10
69.842674
20
168.002002
11
67.594687
21
168.007247
0
LINE
8
Image
10
67.594687
20
168.007247
11
66.602691
21
167.881317
0
LINE
8
Image
10
66.602691
20
167.881317
11
66.036463
21
161.430907
0
LINE
8
Image
10
66.036463
20
161.430907
11
64.239731
21
139.681869
0
LINE
8
Image
10
64.239731
20
139.681869
11
63.937008
21
133.932490
0
LINE
8
Image
10
63.937008
20
133.932490
11
63.939926
21
132.418962
0
LINE
8
Image
10
63.939926
20
132.418962
11
64.047743
21
131.843307
0
LINE
8
Image
10
64.047743
20
131.843307
11
65.703027
21
131.591504
0
LINE
8
Image
10
65.703027
20
131.591504
11
72.060513
21
131.148612
0
LINE
8
Image
10
72.060513
20
131.148612
11
81.656063
21
130.389076
0
LINE
8
Image
10
81.656063
20
130.389076
11
91.439753
21
129.612968
0
LINE
8
Image
10
91.439753
20
129.612968
11
94.599426
21
129.353145
0
LINE
8
Image
10
94.599426
20
129.353145
11
96.296844
21
128.975427
0
LINE
8
Image
10
96.296844
20
128.975427
11
96.730559
21
128.682097
0
LINE
8
Image
10
96.730559
20
128.682097
11
96.958732
21
128.286980
0
LINE
8
Image
10
96.958732
20
128.286980
11
97.011813
21
127.094968
0
LINE
8
Image
10
97.011813
20
127.094968
11
96.896048
21
125.494638
0
LINE
8
Image
10
96.896048
20
125.494638
11
93.113258
21
125.458513
0
LINE
8
Image
10
93.113258
20
125.458513
11
89.839536
21
125.520276
0
LINE
8
Image
10
89.839536
20
125.520276
11
87.280668
21
125.719503
0
LINE
8
Image
10
87.280668
20
125.719503
11
81.467918
21
126.242867
0
LINE
8
Image
10
81.467918
20
126.242867
11
68.504388
21
127.188351
0
LINE
8
Image
10
68.504388
20
127.188351
11
63.700135
21
127.642491
0
LINE
8
Image
10
63.700135
20
127.642491
11
61.476418
21
127.958727
0
LINE
8
Image
10
61.476418
20
127.958727
11
60.822471
21
128.546825
0
LINE
8
Image
10
60.822471
20
128.546825
11
60.020833
21
129.739163
0
LINE
8
Image
10
60.020833
20
129.739163
11
59.219435
21
131.283221
0
LINE
8
Image
10
59.219435
20
131.283221
11
58.566208
21
132.926477
0
LINE
8
Image
10
58.566208
20
132.926477
11
58.392466
21
133.223048
0
LINE
8
Image
10
58.392466
20
133.223048
11
58.089340
21
133.427894
0
LINE
8
Image
10
58.089340
20
133.427894
11
57.042678
21
133.584994
0
LINE
8
Image
10
57.042678
20
133.584994
11
56.056276
21
133.687886
0
LINE
8
Image
10
56.056276
20
133.687886
11
55.519558
21
133.935263
0
LINE
8
Image
10
55.519558
20
133.935263
11
55.069795
21
134.128805
0
LINE
8
Image
10
55.069795
20
134.128805
11
54.292438
21
134.102262
0
LINE
8
Image
10
54.292438
20
134.102262
11
51.583701
21
134.156728
0
LINE
8
Image
10
51.583701
20
134.156728
11
46.490418
21
134.545023
0
LINE
8
Image
10
46.490418
20
134.545023
11
35.747918
21
135.499831
0
LINE
8
Image
10
35.747918
20
135.499831
11
27.383208
21
136.126494
0
LINE
8
Image
10
27.383208
20
136.126494
11
19.582938
21
136.731383
0
LINE
8
Image
10
19.582938
20
136.731383
11
17.707238
21
135.852851
0
LINE
8
Image
10
17.707238
20
135.852851
11
16.544879
21
135.369205
0
LINE
8
Image
10
16.544879
20
135.369205
11
15.355466
21
135.136971
0
LINE
8
Image
10
15.355466
20
135.136971
11
10.643818
21
135.227345
0
LINE
8
Image
10
10.643818
20
135.227345
11
3.720028
21
135.703239
0
LINE
8
Image
10
3.720028
20
135.703239
11
2.725685
21
135.806573
0
LINE
8
Image
10
2.725685
20
135.806573
11
2.159194
21
135.731969
0
LINE
8
Image
10
2.159194
20
135.731969
11
1.832195
21
135.392040
0
LINE
8
Image
10
1.832195
20
135.392040
11
1.556328
21
134.699399
0
LINE
8
Image
10
1.556328
20
134.699399
11
1.199360
21
133.082171
0
LINE
8
Image
10
1.199360
20
133.082171
11
1.201272
21
131.230569
0
LINE
8
Image
10
1.201272
20
131.230569
11
1.570521
21
129.052763
0
LINE
8
Image
10
1.570521
20
129.052763
11
2.315566
21
126.456919
0
LINE
8
Image
10
2.315566
20
126.456919
11
3.144989
21
124.015824
0
LINE
8
Image
10
3.144989
20
124.015824
11
3.757341
21
122.668158
0
LINE
8
Image
10
3.757341
20
122.668158
11
4.456056
21
121.931538
0
LINE
8
Image
10
4.456056
20
121.931538
11
5.544566
21
121.323579
0
LINE
8
Image
10
5.544566
20
121.323579
11
7.149436
21
120.389791
0
LINE
8
Image
10
7.149436
20
120.389791
11
9.407216
21
118.959111
0
LINE
8
Image
10
9.407216
20
118.959111
11
14.818556
21
115.691371
0
LINE
8
Image
10
14.818556
20
115.691371
11
18.291986
21
113.641311
0
LINE
8
Image
10
18.291986
20
113.641311
11
20.406566
21
112.373921
0
LINE
8
Image
10
20.406566
20
112.373921
11
27.817282
21
107.802325
0
LINE
8
Image
10
27.817282
20
107.802325
11
32.642066
21
104.986501
0
LINE
8
Image
10
32.642066
20
104.986501
11
34.019086
21
104.112132
0
LINE
8
Image
10
34.019086
20
104.112132
11
35.747936
21
102.992062
0
LINE
8
Image
10
35.747936
20
102.992062
11
38.946456
21
101.063742
0
LINE
8
Image
10
38.946456
20
101.063742
11
43.462006
21
98.378752
0
LINE
8
Image
10
43.462006
20
98.378752
11
45.937556
21
96.854032
0
LINE
8
Image
10
45.937556
20
96.854032
11
46.823725
21
96.331696
0
LINE
8
Image
10
46.823725
20
96.331696
11
48.788515
21
95.202806
0
LINE
8
Image
10
48.788515
20
95.202806
11
50.628415
21
94.073916
0
LINE
8
Image
10
50.628415
20
94.073916
11
64.534615
21
85.722506
0
LINE
8
Image
10
64.534615
20
85.722506
11
68.109425
21
83.540406
0
LINE
8
Image
10
68.109425
20
83.540406
11
74.318305
21
79.863056
0
LINE
8
Image
10
74.318305
20
79.863056
11
82.220525
21
75.257646
0
LINE
8
Image
10
82.220525
20
75.257646
11
86.998275
21
72.371416
0
LINE
8
Image
10
86.998275
20
72.371416
11
89.749215
21
70.743566
0
LINE
8
Image
10
89.749215
20
70.743566
11
97.713382
21
66.204836
0
LINE
8
Image
10
97.713382
20
66.204836
11
106.502315
21
60.942596
0
LINE
8
Image
10
106.502315
20
60.942596
11
109.136385
21
59.362636
0
LINE
8
Image
10
109.136385
20
59.362636
11
114.524758
21
56.295021
0
LINE
8
Image
10
114.524758
20
56.295021
11
117.928495
21
54.186506
0
LINE
8
Image
10
117.928495
20
54.186506
11
118.243793
21
53.333810
0
LINE
8
Image
10
118.243793
20
53.333810
11
118.360620
21
51.908798
0
LINE
8
Image
10
118.360620
20
51.908798
11
118.274143
21
50.381718
0
LINE
8
Image
10
118.274143
20
50.381718
11
117.979524
21
49.222816
0
LINE
8
Image
10
117.979524
20
49.222816
11
117.733947
21
48.450725
0
LINE
8
Image
10
117.733947
20
48.450725
11
117.955621
21
47.815750
0
LINE
8
Image
10
117.955621
20
47.815750
11
118.771084
21
47.160471
0
LINE
8
Image
10
118.771084
20
47.160471
11
120.306874
21
46.327466
0
LINE
8
Image
10
120.306874
20
46.327466
11
121.726119
21
45.736044
0
LINE
8
Image
10
121.726119
20
45.736044
11
122.023640
21
45.851577
0
LINE
8
Image
10
122.023640
20
45.851577
11
122.267144
21
46.230334
0
LINE
8
Image
10
122.267144
20
46.230334
11
122.873510
21
46.998821
0
LINE
8
Image
10
122.873510
20
46.998821
11
123.704639
21
47.607574
0
LINE
8
Image
10
123.704639
20
47.607574
11
124.589269
21
47.960592
0
LINE
8
Image
10
124.589269
20
47.960592
11
125.356134
21
47.961874
0
LINE
8
Image
10
125.356134
20
47.961874
11
127.382377
21
46.680446
0
LINE
8
Image
10
127.382377
20
46.680446
11
131.192496
21
43.589541
0
LINE
8
Image
10
131.192496
20
43.589541
11
136.692534
21
38.769003
0
LINE
8
Image
10
136.692534
20
38.769003
11
143.788534
21
32.298674
0
LINE
8
Image
10
143.788534
20
32.298674
11
147.916404
21
28.611808
0
LINE
8
Image
10
147.916404
20
28.611808
11
150.028964
21
26.969314
0
LINE
8
Image
10
150.028964
20
26.969314
11
152.116564
21
26.544784
0
LINE
8
Image
10
152.116564
20
26.544784
11
153.335715
21
26.120672
0
LINE
8
Image
10
153.335715
20
26.120672
11
153.747930
21
25.748589
0
LINE
8
Image
10
153.747930
20
25.748589
11
154.081174
21
25.234744
0
LINE
8
Image
10
154.081174
20
25.234744
11
154.797799
21
24.188305
0
LINE
8
Image
10
154.797799
20
24.188305
11
155.870184
21
23.045322
0
LINE
8
Image
10
155.870184
20
23.045322
11
158.655760
21
20.770668
0
LINE
8
Image
10
158.655760
20
20.770668
11
161.584948
21
19.012671
0
LINE
8
Image
10
161.584948
20
19.012671
11
162.836848
21
18.515511
0
LINE
8
Image
10
162.836848
20
18.515511
11
163.804794
21
18.373224
0
LINE
8
Image
10
163.804794
20
18.373224
11
164.852402
21
18.207668
0
LINE
8
Image
10
164.852402
20
18.207668
11
165.877344
21
17.673658
0
LINE
8
Image
10
165.877344
20
17.673658
11
168.215758
21
16.093448
0
LINE
8
Image
10
168.215758
20
16.093448
11
171.338268
21
14.301718
0
LINE
8
Image
10
171.338268
20
14.301718
11
178.795421
21
10.604237
0
LINE
8
Image
10
178.795421
20
10.604237
11
182.559984
21
8.958754
0
LINE
8
Image
10
182.559984
20
8.958754
11
185.968485
21
7.622291
0
LINE
8
Image
10
185.968485
20
7.622291
11
188.735885
21
6.724980
0
LINE
8
Image
10
188.735885
20
6.724980
11
190.577144
21
6.396958
0
LINE
8
Image
10
190.577144
20
6.396958
11
190.995119
21
6.466335
0
LINE
8
Image
10
190.995119
20
6.466335
11
191.419371
21
6.696977
0
LINE
8
Image
10
191.419371
20
6.696977
11
192.380455
21
7.777130
0
LINE
8
Image
10
192.380455
20
7.777130
11
193.647908
21
9.907565
0
LINE
8
Image
10
193.647908
20
9.907565
11
195.409244
21
13.358428
0
LINE
8
Image
10
195.409244
20
13.358428
11
196.701253
21
15.841470
0
LINE
8
Image
10
196.701253
20
15.841470
11
197.750127
21
17.535903
0
LINE
8
Image
10
197.750127
20
17.535903
11
198.601472
21
18.505671
0
LINE
8
Image
10
198.601472
20
18.505671
11
199.300894
21
18.814718
0
LINE
8
Image
10
199.300894
20
18.814718
11
199.860021
21
18.603982
0
LINE
8
Image
10
199.860021
20
18.603982
11
200.274749
21
17.719119
0
LINE
8
Image
10
200.274749
20
17.719119
11
200.651315
21
15.781143
0
LINE
8
Image
10
200.651315
20
15.781143
11
201.095954
21
12.411068
0
LINE
8
Image
10
201.095954
20
12.411068
11
201.386651
21
11.470329
0
LINE
8
Image
10
201.386651
20
11.470329
11
201.872279
21
9.501389
0
LINE
8
Image
10
201.872279
20
9.501389
11
202.204029
21
8.340272
0
LINE
8
Image
10
202.204029
20
8.340272
11
202.418395
21
8.016456
0
LINE
8
Image
10
202.418395
20
8.016456
11
202.646532
21
7.902129
0
LINE
8
Image
10
202.646532
20
7.902129
11
214.372732
21
7.173672
0
LINE
8
Image
10
214.372732
20
7.173672
11
228.812832
21
6.278882
0
LINE
8
Image
10
228.812832
20
6.278882
11
232.036372
21
6.112549
0
LINE
8
Image
10
232.036372
20
6.112549
11
232.807820
21
7.665859
0
LINE
8
Image
10
232.807820
20
7.665859
11
234.287980
21
10.907829
0
LINE
8
Image
10
234.287980
20
10.907829
11
235.381646
21
13.354116
0
LINE
8
Image
10
235.381646
20
13.354116
11
236.308567
21
15.067850
0
LINE
8
Image
10
236.308567
20
15.067850
11
237.099329
21
16.097894
0
LINE
8
Image
10
237.099329
20
16.097894
11
237.784520
21
16.493109
0
LINE
8
Image
10
237.784520
20
16.493109
11
238.714075
21
16.383006
0
LINE
8
Image
10
238.714075
20
16.383006
11
239.489575
21
15.699567
0
LINE
8
Image
10
239.489575
20
15.699567
11
240.168054
21
14.363574
0
LINE
8
Image
10
240.168054
20
14.363574
11
240.806550
21
12.295809
0
LINE
8
Image
10
240.806550
20
12.295809
11
242.291962
21
6.906771
0
LINE
8
Image
10
242.291962
20
6.906771
11
243.498836
21
3.427814
0
LINE
8
Image
10
243.498836
20
3.427814
11
244.044677
21
2.293840
0
LINE
8
Image
10
244.044677
20
2.293840
11
244.577109
21
1.504455
0
LINE
8
Image
10
244.577109
20
1.504455
11
245.114876
21
1.015348
0
LINE
8
Image
10
245.114876
20
1.015348
11
245.676720
21
0.782209
0
LINE
8
Image
10
245.676720
20
0.782209
11
247.181900
21
1.596967
0
LINE
8
Image
10
247.181900
20
1.596967
11
247.182000
21
1.597345
 0 
ENDSEC
 0 
EOF