<?xml version="1.0" encoding="UTF-8" standalone="no"?>
<svg
   xmlns:dc="http://purl.org/dc/elements/1.1/"
   xmlns:cc="http://creativecommons.org/ns#"
   xmlns:rdf="http://www.w3.org/1999/02/22-rdf-syntax-ns#"
   xmlns:svg="http://www.w3.org/2000/svg"
   xmlns="http://www.w3.org/2000/svg"
   xmlns:sodipodi="http://sodipodi.sourceforge.net/DTD/sodipodi-0.dtd"
   xmlns:inkscape="http://www.inkscape.org/namespaces/inkscape"
   version="1.1"
   id="svg52"
   width="1317.3333"
   height="998.66669"
   viewBox="0 0 1317.3333 998.66669"
   sodipodi:docname="PinClipart.com_darth-vader-clipart_526242.svg"
   inkscape:version="1.0.1 (3bc2e813f5, 2020-09-07)">
  <metadata
     id="metadata58">
    <rdf:RDF>
      <cc:Work
         rdf:about="">
        <dc:format>image/svg+xml</dc:format>
        <dc:type
           rdf:resource="http://purl.org/dc/dcmitype/StillImage" />
        <dc:title></dc:title>
      </cc:Work>
    </rdf:RDF>
  </metadata>
  <defs
     id="defs56" />
  <sodipodi:namedview
     pagecolor="#ffffff"
     bordercolor="#666666"
     borderopacity="1"
     objecttolerance="10"
     gridtolerance="10"
     guidetolerance="10"
     inkscape:pageopacity="0"
     inkscape:pageshadow="2"
     inkscape:window-width="1366"
     inkscape:window-height="705"
     id="namedview54"
     showgrid="false"
     inkscape:zoom="0.53871828"
     inkscape:cx="658.66663"
     inkscape:cy="350.83272"
     inkscape:window-x="-8"
     inkscape:window-y="-8"
     inkscape:window-maximized="1"
     inkscape:current-layer="g60" />
  <g
     inkscape:groupmode="layer"
     inkscape:label="Image"
     id="g60">
    <path
       style="fill:#000000;stroke-width:1.31457"
       d="m 854.58083,987.35833 c -2.37981,-5.566 -4.44358,-12.40438 -11.08887,-36.7433 -1.01352,-3.71207 -2.70315,-7.46749 -3.75475,-8.34535 -1.99142,-1.6624 -3.47506,0.98295 -14.97178,26.69482 l -4.00785,8.9634 -12.83302,-0.74745 c -51.07114,-2.97457 -96.87226,-6.29515 -97.67073,-7.0811 -0.52274,-0.51452 -2.29224,-8.48408 -3.93222,-17.71011 -1.63998,-9.22602 -3.40273,-16.77556 -3.9172,-16.77676 -0.51449,-9.9e-4 -4.79992,7.64226 -9.52316,16.98546 -11.51403,22.77621 -12.44651,23.88342 -20.11453,23.88342 -10.33071,0 -46.09676,-14.9007 -75.79727,-31.57834 -6.59846,-3.70521 -12.71647,-7.60848 -13.59557,-8.67394 -0.87909,-1.06544 -3.61984,-1.93718 -6.09053,-1.93718 -9.37263,0 -24.41802,-11.05028 -37.24794,-27.35724 -0.71315,-0.90642 -3.24928,-1.64803 -5.63587,-1.64803 -4.55408,0 -11.86719,-4.57844 -17.83995,-11.16887 -12.26161,-13.52962 -69.00416,-62.65135 -72.37906,-62.65816 -1.24001,-0.003 -3.56279,1.77532 -5.16176,3.95072 -3.54169,4.81846 -4.39193,4.85198 -13.46508,0.53086 -10.9529,-5.21635 -10.86206,-4.97054 -7.82031,-21.16551 0.57697,-3.07191 0.14881,-4.72884 -1.64324,-6.35916 -2.54595,-2.31615 -47.17301,-29.01829 -98.10743,-58.70154 -33.28068,-19.39511 -78.04155,-46.13102 -98.30539,-58.71837 -7.20906,-4.47807 -38.76509,-23.58013 -70.12451,-42.44903 C 96.807579,616.81087 53.996041,590.77929 28.314256,574.82836 17.914414,568.36903 17.816518,568.2567 15.694743,560.34857 c -1.1761,-4.38349 -2.80028,-9.21403 -3.609289,-10.73454 -2.065828,-3.88265 -1.924617,-29.49666 0.178566,-32.3898 1.53049,-2.10534 3.398112,-2.1551 25.887086,-0.68965 23.842036,1.5536 24.327654,1.53272 29.756014,-1.27901 7.118207,-3.68702 8.945755,-3.65774 64.79484,1.0383 25.48835,2.14317 54.14534,4.53016 63.68216,5.30441 19.42011,1.57663 21.32169,2.03225 21.3399,5.11299 0.0233,3.95523 6.26479,15.74476 8.716,16.46383 1.32687,0.38924 15.38878,1.66431 31.24872,2.8335 15.85993,1.16919 38.96549,2.98426 51.34566,4.03351 30.9875,2.62623 34.50771,2.56091 34.50771,-0.64029 0,-3.24052 -1.71949,-3.69625 -17.69497,-4.68985 -7.20906,-0.44837 -22.83962,-1.65821 -34.73457,-2.68852 -11.89495,-1.03032 -30.17976,-2.54325 -40.63289,-3.36205 -10.45315,-0.81882 -19.8681,-1.96596 -20.92213,-2.5492 -2.2081,-1.22183 -2.21765,-15.24466 -0.0256,-37.55844 0.71235,-7.25132 2.78806,-31.84372 4.61267,-54.64976 1.82461,-22.80606 3.57622,-41.72581 3.89245,-42.04389 0.31621,-0.31809 16.36894,0.68915 35.67272,2.23828 72.29384,5.80161 80.31824,6.22154 80.31824,4.20328 0,-1.79154 -3.39279,-2.17036 -53.08491,-5.92715 -24.51081,-1.85304 -48.81567,-3.71229 -54.01079,-4.13167 -5.19513,-0.41937 -10.62596,-0.38568 -12.06853,0.0748 -1.44259,0.46055 -4.47387,4.09152 -6.7362,8.06884 l -4.11333,7.23149 -7.41142,-0.70375 c -17.93988,-1.70344 -64.7088,-5.20898 -97.19706,-7.28533 -36.40984,-2.32699 -37.643655,-2.53251 -43.860801,-7.30598 -5.443476,-4.17944 -5.877965,-4.27326 -26.702195,-5.76549 -11.642774,-0.83432 -22.99697,-1.88473 -25.231547,-2.33425 -3.994897,-0.80366 -4.048066,-0.91661 -3.178161,-6.75156 0.486588,-3.26382 2.94465,-11.6331 5.462362,-18.59842 2.517711,-6.96532 5.501399,-15.22701 6.630419,-18.35932 1.129017,-3.1323 3.296441,-6.50404 4.816498,-7.49271 1.520057,-0.9887 15.150218,-6.93619 30.289248,-13.21665 15.139029,-6.28045 32.244167,-13.39712 38.011417,-15.81483 10.97957,-4.60277 17.50769,-7.26901 77.33357,-31.5847 20.18538,-8.20416 42.00917,-17.10881 48.49732,-19.78811 32.37965,-13.37126 49.10877,-20.19596 69.46915,-28.34019 46.21345,-18.48556 124.0058,-49.4256 144.7504,-57.57099 32.70028,-12.83982 57.75869,-26.83558 57.75869,-32.25972 0,-0.63909 -1.62204,-1.18785 -3.60452,-1.21945 -1.9825,-0.0316 -9.50286,-0.56143 -16.71192,-1.17738 -12.66175,-1.08183 -14.52229,-1.691 -54.72334,-17.91728 l -41.61594,-16.79738 -0.004,-6.086426 c -0.007,-11.764459 2.78651,-54.947519 4.01452,-62.058283 0.68297,-3.954654 1.77866,-7.730342 2.43489,-8.390416 0.65623,-0.660075 6.10999,-2.252029 12.11948,-3.537678 6.0098,-1.285648 21.54364,-4.898029 34.51995,-8.027512 23.20902,-5.5972966 24.0416,-5.6986366 51.1188,-6.2221166 38.13789,-0.737315 112.52339,4.2091516 116.78399,7.7658706 1.17738,0.982864 6.84182,11.416382 12.58765,23.185598 5.74584,11.769216 11.28142,22.095168 12.30132,22.94656 1.01989,0.851392 4.39828,1.836406 7.50754,2.188919 4.99717,0.566555 5.91326,0.241744 7.89395,-2.798875 2.07471,-3.184968 2.94615,-3.439808 11.76287,-3.439808 8.65496,0 9.93542,-0.355325 14.0602,-3.901681 4.11937,-3.541681 5.42916,-3.906625 14.19558,-3.955262 8.85086,-0.04912 10.03622,-0.38805 14.19172,-4.058005 4.30245,-3.799746 5.06795,-3.992962 14.97678,-3.780198 9.2326,0.198245 10.81053,-0.123469 13.61809,-2.776496 2.75361,-2.60204 4.07404,-2.893679 9.93839,-2.195064 11.56815,1.378108 15.26908,5.445007 18.20707,20.007497 1.9669,9.749135 6.7428,24.390787 7.95593,24.390787 0.49312,0 3.38816,-7.712762 6.43344,-17.139473 3.26927,-10.12007 6.22248,-17.139473 7.21092,-17.139473 0.92073,0 21.06753,1.773817 44.77065,3.941815 23.70314,2.168001 47.39008,4.315837 52.63767,4.772975 11.34206,0.98805 10.89124,0.415083 16.13025,20.50083 3.75987,14.414913 5.75204,19.616219 7.47094,19.505739 0.51531,-0.0331 2.15497,-2.554608 3.64366,-5.603294 8.27269,-16.94153 22.01594,-42.521398 23.0569,-42.915061 2.40058,-0.907844 19.13672,2.608423 34.49675,7.24778 13.71555,4.142652 47.65026,17.779587 68.54576,27.54569 4.0589,1.897063 7.5029,4.543408 8.3518,6.417352 1.4559,3.214128 4.5533,4.679762 9.96,4.712905 1.7611,0.01081 5.1173,2.348778 8.3839,5.840344 3.7331,3.99037 6.9334,6.09341 10.1706,6.68386 2.598,0.47383 7.0249,2.45177 9.8374,4.39541 2.8126,1.94366 8.1211,5.01714 11.7966,6.82996 5.931,2.9252 6.8198,3.91643 7.8991,8.80979 1.0788,4.8905 1.8573,5.76001 6.8877,7.69242 11.0941,4.26166 21.0062,12.58332 58.3302,48.9703 20.4607,19.94703 27.6427,25.43768 33.4836,25.5985 2.8382,0.0782 5.7762,2.5094 13.4612,11.13949 11.7271,13.16943 15.0942,19.15055 14.9413,26.54158 -0.1006,4.86257 0.2695,5.56601 3.2863,6.24601 2.3822,0.537 5.9491,4.34688 11.9194,12.73159 11.8483,16.64003 12.3676,17.80513 12.4126,27.85103 0.038,8.54608 0.1442,8.82154 3.6655,9.52995 2.1128,0.42501 4.1268,1.9795 4.8256,3.72453 0.6598,1.64729 3.3754,8.03803 6.0346,14.20164 8.1395,18.86588 8.9279,21.78926 7.4525,27.63563 -1.2394,4.91168 -1.1269,5.27128 1.9732,6.31072 3.5903,1.20379 4.6233,3.86417 12.3156,31.71711 3.4789,12.59654 3.8658,15.37492 2.4989,17.94413 -1.4187,2.66618 -1.2088,3.45095 1.7068,6.38368 5.6953,5.72862 7.9723,16.39274 8.0209,37.56426 0.024,10.33219 0.5114,18.78657 1.0837,18.7875 0.5722,9.3e-4 0.8671,24.30147 0.6553,54.00118 -0.3726,52.23861 -0.4707,54.06289 -3.0067,55.94414 -2.1013,1.5588 -2.2963,2.27618 -0.983,3.61551 0.9011,0.91898 1.6384,3.32475 1.6384,5.34614 0,7.41338 -8.067,42.63258 -10.5761,46.17357 -1.8059,2.54858 -2.5312,5.77574 -2.5312,11.26149 0,5.61131 -1.5551,12.30602 -5.7544,24.77376 -7.2925,21.65134 -7.313,21.69905 -9.2773,21.69905 -1.0497,0 -1.893,2.76274 -2.333,7.64376 -1.2336,13.68527 -14.3086,39.82026 -21.5346,43.0447 -2.2685,1.01223 -2.6663,2.05168 -2.1087,5.5083 0.595,3.68823 -1.562,8.03717 -16.0562,32.37206 -18.1264,30.43284 -19.6125,32.73612 -27.4785,42.58957 -7.3691,9.23097 -11.0611,12.30148 -16.7119,13.89868 -4.0613,1.14793 -4.9153,1.98336 -4.9153,4.80852 0,5.07304 -4.1903,10.99581 -13.4035,18.94494 -4.523,3.90245 -10.583,9.38368 -13.4667,12.18051 -4.6108,4.47208 -5.8355,5.01003 -10.1579,4.46201 -2.7033,-0.34272 -5.2466,-0.0835 -5.6519,0.5762 -0.4053,0.65964 -4.0919,3.5172 -8.1924,6.35016 -4.1005,2.83293 -11.4827,8.77872 -16.4048,13.21284 -4.9222,4.43412 -13.1798,10.20098 -18.3504,12.81524 -10.1987,5.15656 -16.2362,9.04771 -30.3727,19.57523 -32.0534,23.87013 -101.73546,50.44296 -155.34478,59.2397 -6.11549,1.00347 -14.5138,2.86576 -18.66293,4.13841 -6.27832,1.92573 -8.06491,2.03342 -10.64976,0.64194 -2.31955,-1.24866 -3.78924,-1.3041 -5.80503,-0.21895 -1.48453,0.79915 -6.00296,1.45301 -10.04097,1.45301 h -7.3418 z m 15.72344,1.98535 c 5.66059,-3.53167 6.37037,-3.6296 10.76175,-1.48485 2.85063,1.39226 4.67409,1.26007 11.32036,-0.82061 4.35731,-1.36409 10.63734,-2.80134 13.95563,-3.19388 6.85172,-0.81055 6.47175,-0.73649 27.68779,-5.39704 8.65087,-1.90034 16.61361,-3.91174 17.69497,-4.46976 1.08136,-0.55801 7.56951,-2.65182 14.41813,-4.65289 6.84861,-2.00109 13.40615,-4.13189 14.57232,-4.73511 1.67512,-0.86649 10.76619,-3.7677 14.26388,-4.55201 0.36049,-0.0808 2.56617,-1.17237 4.90161,-2.42564 2.33529,-1.25328 4.69469,-2.3518 5.24289,-2.44118 1.6536,-0.26956 22.776,-10.11116 30.4885,-14.20557 3.9649,-2.10495 9.8085,-5.20916 12.9856,-6.89825 3.1772,-1.68908 6.7161,-3.85009 7.8645,-4.80224 9.8399,-8.15922 29.3067,-21.43248 32.0209,-21.83317 0.8483,-0.12525 2.9967,-1.25235 4.7743,-2.5047 1.7775,-1.25234 3.8979,-2.27699 4.7119,-2.27699 0.814,0 5.5489,-3.6409 10.522,-8.0909 16.591,-14.84597 28.2161,-22.8286 33.3335,-22.88915 3.8806,-0.0459 6.6836,-1.83516 17.3098,-11.04903 14.1665,-12.2837 17.0856,-15.92041 18.0372,-22.47048 0.5697,-3.92176 1.3746,-4.7517 6.1586,-6.34976 9.0118,-3.01041 16.9325,-12.23076 32.8358,-38.22398 3.7848,-6.18597 6.8814,-11.55874 6.8814,-11.93948 0,-0.38076 1.3326,-2.52813 2.9614,-4.77198 1.6287,-2.24383 4.3706,-6.74951 6.093,-10.0126 1.7224,-3.26309 3.8577,-6.82283 4.745,-7.91052 4.2499,-5.20943 5.8865,-10.36859 4.3591,-13.74053 -1.6294,-3.5972 0.1683,-7.35422 3.5191,-7.35422 3.9629,0 14.81,-18.12501 19.5402,-32.65073 1.5216,-4.67271 1.9726,-8.65522 1.3797,-12.18464 -0.8012,-4.77025 -0.5821,-5.35733 2.4299,-6.5092 2.9236,-1.11807 7.4219,-6.66594 5.4049,-6.66594 -0.4285,0 -0.3183,-0.74161 0.2446,-1.64803 0.563,-0.90642 1.1232,-2.24132 1.245,-2.96645 0.1218,-0.72512 2.0318,-6.81321 4.2445,-13.52906 4.4744,-13.57999 5.4471,-21.51739 3.0003,-24.48289 -1.3418,-1.62621 -0.9588,-2.65986 2.1837,-5.89351 2.8646,-2.94746 4.3727,-6.4959 6.0721,-14.28692 1.2435,-5.70103 2.5892,-11.84874 2.9903,-13.66156 0.4012,-1.81283 0.9299,-4.48263 1.175,-5.9329 0.893,-5.28601 1.2495,-6.62042 2.1603,-8.08516 0.5106,-0.82119 -0.2433,-2.99128 -1.6753,-4.82243 -3.3205,-4.24603 -3.2754,-5.97942 0.2532,-9.7576 2.5641,-2.74534 2.9904,-5.28498 4.1591,-24.77917 1.1749,-19.60043 1.088,-21.9582 -0.8909,-24.15757 -2.9799,-3.31214 -2.7546,-6.29879 0.6566,-8.70205 2.83,-1.99383 2.8399,-2.15685 1.463,-23.96351 -0.8778,-13.90108 -1.9473,-22.30463 -2.9151,-22.9063 -1.7093,-1.06265 -1.7525,-2.17564 -0.5831,-15.05403 0.9229,-10.16537 -1.4891,-31.29086 -4.1733,-36.55203 -0.9624,-1.88644 -3.2546,-4.42159 -5.0937,-5.63368 -3.6963,-2.43609 -4.2533,-5.6617 -1.6065,-9.30266 1.4755,-2.02966 1.2071,-4.30348 -1.7804,-15.08422 -8.1149,-29.28342 -7.8475,-28.60642 -11.9044,-30.14668 -3.633,-1.37933 -5.2725,-5.85588 -2.7247,-7.43969 1.9694,-1.22431 0.8364,-10.67802 -1.9152,-15.97899 -1.5056,-2.90052 -3.1886,-6.7569 -3.7402,-8.56974 -0.5517,-1.81282 -2.6659,-6.96219 -4.6983,-11.44303 -3.1032,-6.84122 -4.2824,-8.21474 -7.3575,-8.56974 -3.5187,-0.40621 -3.6484,-0.68065 -3.3171,-7.01485 0.1896,-3.62566 -0.3096,-8.96527 -1.1093,-11.86579 -1.9759,-7.16631 -19.2403,-30.01448 -23.4109,-30.98256 -2.8783,-0.66812 -3.2559,-1.54251 -3.7196,-8.6121 -0.5877,-8.96135 -2.315,-11.79711 -15.8355,-25.99678 -5.3519,-5.62064 -9.5191,-8.89935 -11.3109,-8.89935 -5.0757,0 -15.3597,-8.12875 -36.0549,-28.49862 -32.2484,-31.7413 -41.4369,-39.41771 -54.2641,-45.3343 -6.4001,-2.95205 -7.7986,-4.18759 -8.1146,-7.16885 -0.5538,-5.2244 -3.9691,-9.79411 -8.0902,-10.82459 -1.9733,-0.49346 -6.5371,-2.86136 -10.1416,-5.26199 -3.6045,-2.40063 -8.5277,-4.76176 -10.9404,-5.24695 -2.7694,-0.55693 -6.7545,-3.2639 -10.8095,-7.34267 -3.5326,-3.553286 -7.162,-6.322156 -8.0654,-6.153046 -3.8193,0.715 -9.8797,-1.813771 -11.1693,-4.660476 -1.5093,-3.33216 -2.3707,-3.78415 -27.8292,-14.603256 -9.73218,-4.135909 -20.64411,-8.878379 -24.24863,-10.538821 -5.42523,-2.49915 -12.88742,-5.007727 -31.79917,-10.689969 -0.9087,-0.273029 -1.79345,-0.553309 -1.96611,-0.622849 -2.88832,-1.163254 -20.06535,-3.624485 -20.30403,-2.909282 -0.4191,1.255852 -8.28306,16.7213 -14.52497,28.565139 -2.64389,5.016715 -6.12848,11.691221 -7.74352,14.832234 -6.32668,12.304526 -12.57393,4.554356 -18.14635,-22.511875 -1.03109,-5.008142 -2.4646,-9.820674 -3.1856,-10.694515 -1.20498,-1.460411 -11.43501,-3.513934 -17.67524,-3.54803 -2.97341,-0.01625 -29.07818,-2.260136 -36.04531,-3.098351 -4.61738,-0.555515 -12.01947,-1.172688 -30.14698,-2.513601 -5.4068,-0.399946 -11.99403,-1.062589 -14.63827,-1.472539 -4.4675,-0.692618 -4.94373,-0.435234 -6.72955,3.637113 -1.057,2.410364 -2.92203,7.942215 -4.14451,12.293004 -5.77272,20.545109 -9.35359,24.092049 -14.67995,14.540857 -1.60582,-2.879503 -2.6619,-5.494717 -2.34688,-5.811589 0.31504,-0.31687 -0.0307,-1.307511 -0.76824,-2.201422 -1.18537,-1.436649 -1.66435,-3.68764 -3.07229,-14.438371 -0.51582,-3.93874 -5.35917,-14.291623 -7.47526,-15.978748 -1.0183,-0.811864 -4.13083,-1.889744 -6.91674,-2.395287 -4.22273,-0.766277 -5.59479,-0.418815 -8.24853,2.088856 -2.84606,2.689397 -4.31323,2.975042 -13.85075,2.696629 -10.12472,-0.295553 -10.91823,-0.108716 -15.59558,3.672129 -4.43361,3.583836 -5.85182,3.983526 -14.1345,3.983526 -8.36031,0 -9.61802,0.363512 -13.68497,3.955263 -4.06423,3.58936 -5.32771,3.955263 -13.65761,3.955263 -8.14079,0 -9.40326,0.344169 -11.16109,3.042669 -2.45864,3.774363 -11.57541,4.624137 -18.47956,1.722484 -4.1907,-1.761243 -5.65207,-4.051011 -15.94439,-24.982742 -12.819,-26.070252 -10.1576,-23.836485 -30.08782,-25.253233 -5.76725,-0.409966 -12.25541,-1.016673 -14.41813,-1.348237 -2.16271,-0.331564 -11.56237,-0.927781 -20.88812,-1.324929 -9.32574,-0.397147 -17.67835,-1.325172 -18.56133,-2.062278 -0.88298,-0.737105 -1.92015,-0.827977 -2.3048,-0.201935 -0.38467,0.626041 -4.79303,0.698288 -9.79637,0.160549 -5.00334,-0.537739 -16.68523,-1.169468 -25.95976,-1.403842 -17.56544,-0.44389 -16.27052,-0.642086 -52.90809,8.0979 -6.1277,1.461779 -16.74469,3.92939 -23.5933,5.483581 -25.73262,5.839642 -23.17031,3.732317 -24.31457,19.99708 -0.41872,5.951891 -1.00537,11.711552 -1.30366,12.79925 -0.2983,1.087697 -0.88113,9.934235 -1.29516,19.658971 -0.41404,9.724736 -0.79099,18.030788 -0.83768,18.457893 -0.37645,3.444137 0.82333,5.148153 4.48546,6.370633 5.25508,1.75422 10.36165,3.77264 44.23743,17.48525 31.23762,12.64471 40.14234,15.86804 41.12003,14.88461 0.38894,-0.39121 6.34583,-0.28607 13.23755,0.23365 10.44847,0.78795 12.75471,1.36652 13.88039,3.48223 3.07185,5.77344 -5.87752,13.99096 -26.29434,24.14407 -11.4884,5.71308 -41.91247,17.89584 -44.69141,17.89584 -1.05153,0 -3.12676,0.85592 -4.6116,1.90203 -1.48485,1.04613 -8.84152,4.34458 -16.34819,7.32991 -7.50666,2.98532 -16.96631,6.87572 -21.02145,8.64533 -4.05512,1.7696 -7.96311,3.21746 -8.68439,3.21746 -0.72127,0 -4.63164,1.47696 -8.68969,3.28215 -4.05805,1.80518 -7.66284,3.30621 -8.01067,3.33563 -0.3478,0.0294 -3.14675,1.13227 -6.21988,2.4508 -3.07313,1.31851 -7.94684,3.15789 -10.83046,4.08749 -2.88363,0.92961 -5.83279,2.12416 -6.5537,2.65453 -1.10734,0.81467 -26.22725,10.8821 -28.18087,11.29419 -0.36045,0.076 -3.30962,1.32931 -6.55369,2.78507 -3.24408,1.45578 -8.84749,3.7034 -12.45202,4.99476 -3.60453,1.29134 -9.50285,3.67715 -13.10738,5.30177 -3.60454,1.6246 -8.02828,3.37396 -9.83054,3.88741 -1.80227,0.51346 -5.04634,1.7388 -7.20906,2.72299 -6.95676,3.16578 -12.89932,5.63771 -22.28256,9.26892 -5.04634,1.95288 -12.12433,4.91664 -15.72886,6.58615 -3.60454,1.6695 -9.4884,4.01636 -13.07525,5.21524 -3.58686,1.19889 -7.12585,2.63769 -7.86443,3.19736 -0.73859,0.55967 -4.88188,2.36937 -9.2073,4.02157 -4.32544,1.65219 -10.22376,4.0425 -13.10739,5.31182 -2.88363,1.26929 -7.60229,3.10207 -10.48591,4.07281 -2.88363,0.97075 -5.8033,2.23717 -6.48815,2.81427 -0.68487,0.5771 -2.0095,1.04928 -2.94362,1.04928 -0.93414,0 -6.16774,2.07651 -11.63023,4.61448 -5.46248,2.53795 -10.216,4.61446 -10.56335,4.61446 -0.34736,0 -3.106,1.11918 -6.1303,2.48707 -3.02429,1.36789 -9.75622,4.01813 -14.95982,5.88941 -5.20359,1.87128 -12.28158,4.82412 -15.72886,6.56188 -3.44727,1.73776 -8.627095,3.90751 -11.510721,4.82169 -2.883624,0.91417 -8.487031,3.15208 -12.452015,4.97315 -3.964984,1.82105 -12.517553,5.53764 -19.005708,8.25909 -6.488156,2.72143 -14.008518,5.91207 -16.711916,7.09033 -2.703398,1.17823 -4.915269,1.76499 -4.915269,1.30391 0,-0.46109 -0.950887,-0.0446 -2.11308,0.92564 -2.588251,2.16064 -6.855574,11.5865 -11.581507,25.58173 -1.958018,5.79841 -4.027792,11.13802 -4.599496,11.86579 -0.571703,0.72776 -0.918308,2.80643 -0.770234,4.61926 0.300129,3.67437 1.024304,3.80353 33.153805,5.91238 13.98835,0.91813 15.035924,1.19134 20.417931,5.32489 5.446782,4.18331 6.374842,4.41514 23.26656,5.81222 25.47713,2.10716 35.55846,2.84078 62.15859,4.52333 24.08697,1.52357 34.16497,2.31007 37.35605,2.91533 1.80227,0.34183 7.16662,0.7564 11.92079,0.92129 l 8.64392,0.29977 3.8081,-6.40568 c 2.09443,-3.52313 5.28265,-6.98861 7.08491,-7.70105 1.88107,-0.74362 8.0225,-0.93473 14.41813,-0.44867 6.1277,0.46571 15.2701,1.09607 20.31644,1.40083 24.26103,1.46515 81.78306,6.12036 85.85337,6.94802 3.66171,0.7446 4.6671,1.62086 4.98155,4.34177 0.7703,6.66551 -1.37046,7.0688 -28.31306,5.33383 -36.2855,-2.33659 -60.95638,-4.29559 -63.17722,-5.0166 -3.1231,-1.01395 -24.90347,-1.55353 -24.90936,-0.6171 -0.003,0.46543 -0.89046,10.63551 -1.97232,22.60018 -5.95959,65.90975 -8.42065,102.73944 -6.92722,103.66551 0.94931,0.58868 5.1226,0.95261 27.91058,2.43399 7.20905,0.46864 22.24978,1.66617 33.42383,2.66117 11.17404,0.99498 26.50968,2.21863 34.07919,2.71923 18.73089,1.23869 19.91558,1.77719 19.40895,8.82226 l -0.40324,5.60703 -13.17647,0.12657 c -7.24706,0.0696 -16.38946,-0.34186 -20.31644,-0.91443 -3.92699,-0.57253 -13.03831,-1.39771 -20.24736,-1.8337 -30.20436,-1.82667 -66.99811,-5.00318 -69.63562,-6.01184 -2.46517,-0.94274 -7.6763,-9.89032 -10.13704,-17.40541 -0.5267,-1.6085 -2.13385,-2.30723 -5.30685,-2.30723 -2.50325,0 -4.89069,-0.55226 -5.30542,-1.22723 -0.41473,-0.67498 -2.33819,-0.93828 -4.2744,-0.58511 -1.93619,0.35314 -14.16562,-0.34493 -27.17649,-1.5513 -33.46309,-3.1027 -35.2247,-3.26019 -37.41892,-3.34534 -1.08135,-0.0419 -14.19279,-1.02999 -29.13651,-2.19562 l -27.170406,-2.11934 -6.533562,3.07809 c -6.207051,2.92427 -7.436614,3.03379 -24.603764,2.19157 -9.93861,-0.48759 -20.791435,-1.23791 -24.117388,-1.66738 -5.903219,-0.76228 -6.082651,-0.67852 -7.536747,3.51714 -2.478167,7.15054 -1.701386,15.63291 2.644626,28.87902 4.825962,14.70895 4.817114,14.69481 11.247454,17.98558 2.714145,1.38899 5.229725,2.86125 5.590178,3.2717 0.360453,0.41046 3.899447,2.66614 7.864431,5.01264 3.964984,2.34651 12.447092,7.49861 18.849127,11.44912 6.402038,3.95052 11.846534,7.18276 12.098881,7.18276 0.252347,0 3.566886,1.99823 7.365642,4.44052 12.757849,8.2022 41.871478,25.88317 42.619488,25.88317 0.40732,0 2.56575,1.37857 4.79651,3.06351 2.23077,1.68493 4.94069,3.45089 6.02204,3.92438 1.08136,0.47348 6.09494,3.51377 11.14129,6.7562 5.04634,3.24241 12.12433,7.47572 15.72886,9.40734 3.60453,1.93164 7.48488,4.33559 8.62301,5.34215 1.13813,1.00655 2.52716,1.8301 3.08676,1.8301 0.55959,0 3.63933,1.77987 6.84388,3.95526 3.20453,2.1754 6.08852,3.95527 6.40886,3.95527 0.55246,0 25.67882,15.1782 48.43884,29.26066 5.76726,3.5684 11.37066,7.00883 12.45202,7.64539 1.08136,0.63656 10.81359,6.43448 21.62719,12.88427 10.81359,6.44979 23.20007,13.71092 27.52551,16.13587 4.32543,2.42494 11.8144,6.97554 16.64216,10.11244 4.82774,3.13691 9.13976,5.70347 9.58223,5.70347 0.95656,0 53.56835,30.95954 58.35551,34.33945 1.82278,1.28694 5.9516,3.77801 9.17518,5.53569 10.42141,5.6824 29.42119,16.93359 30.62523,18.1355 1.91775,1.91436 2.03689,13.56953 0.17775,17.39118 -2.02969,4.17228 -0.89459,5.59268 8.10678,10.14438 5.34049,2.70053 5.56639,2.71178 6.82816,0.34032 2.0291,-3.81363 7.73677,-7.03184 10.75976,-6.06676 5.12267,1.6354 27.68796,20.92299 64.20493,54.87892 10.65759,9.91012 20.43926,18.31269 21.73707,18.67237 1.2978,0.35968 4.57004,1.02901 7.27165,1.48741 3.62538,0.61516 5.41785,1.81741 6.84324,4.58996 4.67411,9.09169 26.52787,24.60329 33.86995,24.04057 2.11097,-0.16179 5.21353,0.89159 7.21924,2.45106 17.19667,13.37072 74.11689,39.50993 86.03605,39.50993 3.92589,0 7.21403,-4.76491 16.83149,-24.39078 6.63577,-13.54132 10.58947,-19.11711 13.55565,-19.11711 3.09657,0 3.86505,2.75756 6.25267,22.43633 0.13352,1.10045 0.58918,2.58367 1.01257,3.29605 0.42339,0.71239 1.18461,3.81673 1.69157,6.89854 0.55561,3.37742 1.62695,5.60329 2.69693,5.60329 0.97631,0 19.35673,1.14853 40.84536,2.55228 21.48862,1.40376 44.12303,2.81453 50.29867,3.13506 l 11.22843,0.58278 2.68716,-5.4423 c 1.47793,-2.99326 3.79805,-8.10472 5.1558,-11.35882 5.51394,-13.21516 9.19491,-19.12951 12.17936,-19.56903 4.76323,-0.70147 7.56568,3.21366 10.52652,14.706 7.77772,30.18882 11.57543,39.21965 16.96409,40.33994 0.27537,0.0573 2.6347,-1.22735 5.24295,-2.85465 z"
       id="path64" />
  </g>
</svg>
