999
"DXF R12 Output" (www.mydxf.blogspot.com)
 0 
SECTION
 2 
HEADER
 9 
$ACADVER
 1 
AC1009
 9 
$EXTMIN
 10 
 0 
 20 
 0 
 9 
$EXTMAX
 10 
 8.5 
 20 
 11 
 0 
ENDSEC
 0 
SECTION
 2 
ENTITIES
0
LINE
8
Image
10
31.074800
20
7.725980
11
31.199154
21
8.024959
0
LINE
8
Image
10
31.199154
20
8.024959
11
31.498133
21
8.149313
0
LINE
8
Image
10
31.498133
20
8.149313
11
31.797112
21
8.024959
0
LINE
8
Image
10
31.797112
20
8.024959
11
31.921466
21
7.725980
0
LINE
8
Image
10
31.921466
20
7.725980
11
31.797112
21
7.427001
0
LINE
8
Image
10
31.797112
20
7.427001
11
31.498133
21
7.302647
0
LINE
8
Image
10
31.498133
20
7.302647
11
31.199154
21
7.427001
0
LINE
8
Image
10
31.199154
20
7.427001
11
31.074800
21
7.725980
0
LINE
8
Image
10
31.074800
20
7.725980
11
31.074800
21
7.725980
0
LINE
8
Image
10
39.823680
20
7.725980
11
39.948034
21
8.024959
0
LINE
8
Image
10
39.948034
20
8.024959
11
40.247013
21
8.149313
0
LINE
8
Image
10
40.247013
20
8.149313
11
40.545992
21
8.024959
0
LINE
8
Image
10
40.545992
20
8.024959
11
40.670346
21
7.725980
0
LINE
8
Image
10
40.670346
20
7.725980
11
40.545992
21
7.427001
0
LINE
8
Image
10
40.545992
20
7.427001
11
40.247013
21
7.302647
0
LINE
8
Image
10
40.247013
20
7.302647
11
39.948034
21
7.427001
0
LINE
8
Image
10
39.948034
20
7.427001
11
39.823680
21
7.725980
0
LINE
8
Image
10
39.823680
20
7.725980
11
39.823680
21
7.725980
0
LINE
8
Image
10
61.554780
20
7.725980
11
61.679134
21
8.024959
0
LINE
8
Image
10
61.679134
20
8.024959
11
61.978113
21
8.149313
0
LINE
8
Image
10
61.978113
20
8.149313
11
62.277092
21
8.024959
0
LINE
8
Image
10
62.277092
20
8.024959
11
62.401446
21
7.725980
0
LINE
8
Image
10
62.401446
20
7.725980
11
62.277092
21
7.427001
0
LINE
8
Image
10
62.277092
20
7.427001
11
61.978113
21
7.302647
0
LINE
8
Image
10
61.978113
20
7.302647
11
61.679134
21
7.427001
0
LINE
8
Image
10
61.679134
20
7.427001
11
61.554780
21
7.725980
0
LINE
8
Image
10
61.554780
20
7.725980
11
61.554780
21
7.725980
0
LINE
8
Image
10
65.788110
20
11.818200
11
35.308200
21
16.333800
0
LINE
8
Image
10
35.308200
20
16.333800
11
26.700400
21
16.333800
0
LINE
8
Image
10
26.700400
20
16.333800
11
18.092600
21
16.333800
0
LINE
8
Image
10
18.092600
20
16.333800
11
18.092600
21
18.591500
0
LINE
8
Image
10
18.092600
20
18.591500
11
18.092600
21
20.849300
0
LINE
8
Image
10
18.092600
20
20.849300
11
13.718200
21
20.849300
0
LINE
8
Image
10
13.718200
20
20.849300
11
9.343750
21
20.849300
0
LINE
8
Image
10
9.343750
20
20.849300
11
9.343750
21
34.678200
0
LINE
8
Image
10
9.343750
20
34.678200
11
9.343750
21
48.507100
0
LINE
8
Image
10
9.343750
20
48.507100
11
11.460400
21
48.507100
0
LINE
8
Image
10
11.460400
20
48.507100
11
13.577100
21
48.507100
0
LINE
8
Image
10
13.577100
20
48.507100
11
13.577100
21
50.764800
0
LINE
8
Image
10
13.577100
20
50.764800
11
13.577100
21
53.022600
0
LINE
8
Image
10
13.577100
20
53.022600
11
15.834900
21
53.022600
0
LINE
8
Image
10
15.834900
20
53.022600
11
18.092600
21
53.022600
0
LINE
8
Image
10
18.092600
20
53.022600
11
18.092600
21
55.280400
0
LINE
8
Image
10
18.092600
20
55.280400
11
18.092600
21
57.538200
0
LINE
8
Image
10
18.092600
20
57.538200
11
20.209300
21
57.538200
0
LINE
8
Image
10
20.209300
20
57.538200
11
22.326000
21
57.538200
0
LINE
8
Image
10
22.326000
20
57.538200
11
22.326000
21
59.753600
0
LINE
8
Image
10
22.326000
20
59.753600
11
22.326000
21
61.968900
0
LINE
8
Image
10
22.326000
20
61.968900
11
24.435310
21
61.833532
0
LINE
8
Image
10
24.435310
20
61.833532
11
26.544620
21
61.698164
0
LINE
8
Image
10
26.544620
20
61.698164
11
26.622527
21
66.179804
0
LINE
8
Image
10
26.622527
20
66.179804
11
26.700435
21
70.661444
0
LINE
8
Image
10
26.700435
20
70.661444
11
28.817095
21
70.802555
0
LINE
8
Image
10
28.817095
20
70.802555
11
30.933765
21
70.943666
0
LINE
8
Image
10
30.933765
20
70.943666
11
31.009618
21
77.364216
0
LINE
8
Image
10
31.009618
20
77.364216
11
31.085473
21
83.784766
0
LINE
8
Image
10
31.085473
20
83.784766
11
28.822400
21
83.784800
0
LINE
8
Image
10
28.822400
20
83.784800
11
26.559300
21
83.784800
0
LINE
8
Image
10
26.559300
20
83.784800
11
26.559300
21
86.042600
0
LINE
8
Image
10
26.559300
20
86.042600
11
26.559300
21
88.300400
0
LINE
8
Image
10
26.559300
20
88.300400
11
24.442600
21
88.300400
0
LINE
8
Image
10
24.442600
20
88.300400
11
22.326000
21
88.300400
0
LINE
8
Image
10
22.326000
20
88.300400
11
22.326000
21
90.558100
0
LINE
8
Image
10
22.326000
20
90.558100
11
22.326000
21
92.815900
0
LINE
8
Image
10
22.326000
20
92.815900
11
20.209300
21
92.815900
0
LINE
8
Image
10
20.209300
20
92.815900
11
18.092600
21
92.815900
0
LINE
8
Image
10
18.092600
20
92.815900
11
18.092600
21
99.871500
0
LINE
8
Image
10
18.092600
20
99.871500
11
18.092600
21
106.927000
0
LINE
8
Image
10
18.092600
20
106.927000
11
20.209300
21
106.927000
0
LINE
8
Image
10
20.209300
20
106.927000
11
22.326000
21
106.927000
0
LINE
8
Image
10
22.326000
20
106.927000
11
22.326000
21
109.044000
0
LINE
8
Image
10
22.326000
20
109.044000
11
22.419324
21
110.856648
0
LINE
8
Image
10
22.419324
20
110.856648
11
22.609583
21
111.131620
0
LINE
8
Image
10
22.609583
20
111.131620
11
22.960999
21
111.208730
0
LINE
8
Image
10
22.960999
20
111.208730
11
29.310989
21
111.418404
0
LINE
8
Image
10
29.310989
20
111.418404
11
31.074879
21
111.442890
0
LINE
8
Image
10
31.074879
20
111.442890
11
31.074800
21
113.559000
0
LINE
8
Image
10
31.074800
20
113.559000
11
31.074800
21
115.676000
0
LINE
8
Image
10
31.074800
20
115.676000
11
33.180100
21
115.676000
0
LINE
8
Image
10
33.180100
20
115.676000
11
35.285400
21
115.676000
0
LINE
8
Image
10
35.285400
20
115.676000
11
35.367369
21
118.004330
0
LINE
8
Image
10
35.367369
20
118.004330
11
35.449337
21
120.332660
0
LINE
8
Image
10
35.449337
20
120.332660
11
37.636557
21
120.415087
0
LINE
8
Image
10
37.636557
20
120.415087
11
39.823777
21
120.497514
0
LINE
8
Image
10
39.823777
20
120.497514
11
39.823700
21
122.679000
0
LINE
8
Image
10
39.823700
20
122.679000
11
39.823700
21
124.860000
0
LINE
8
Image
10
39.823700
20
124.860000
11
50.830300
21
124.854240
0
LINE
8
Image
10
50.830300
20
124.854240
11
61.836900
21
124.848480
0
LINE
8
Image
10
61.836900
20
124.848480
11
61.836959
21
122.661260
0
LINE
8
Image
10
61.836959
20
122.661260
11
61.837019
21
120.474040
0
LINE
8
Image
10
61.837019
20
120.474040
11
63.318689
21
120.444135
0
LINE
8
Image
10
63.318689
20
120.444135
11
65.564729
21
120.464172
0
LINE
8
Image
10
65.564729
20
120.464172
11
66.329102
21
120.514116
0
LINE
8
Image
10
66.329102
20
120.514116
11
66.411395
21
118.165746
0
LINE
8
Image
10
66.411395
20
118.165746
11
66.493688
21
115.817376
0
LINE
8
Image
10
66.493688
20
115.817376
11
68.528148
21
115.734692
0
LINE
8
Image
10
68.528148
20
115.734692
11
70.562608
21
115.652008
0
LINE
8
Image
10
70.562608
20
115.652008
11
70.644816
21
113.479378
0
LINE
8
Image
10
70.644816
20
113.479378
11
70.727025
21
111.306748
0
LINE
8
Image
10
70.727025
20
111.306748
11
72.843695
21
111.304292
0
LINE
8
Image
10
72.843695
20
111.304292
11
74.960355
21
111.301837
0
LINE
8
Image
10
74.960355
20
111.301837
11
74.960400
21
109.185000
0
LINE
8
Image
10
74.960400
20
109.185000
11
74.960400
21
107.068000
0
LINE
8
Image
10
74.960400
20
107.068000
11
77.147620
21
106.985573
0
LINE
8
Image
10
77.147620
20
106.985573
11
79.334840
21
106.903146
0
LINE
8
Image
10
79.334840
20
106.903146
11
79.334800
21
102.400000
0
LINE
8
Image
10
79.334800
20
102.400000
11
79.334800
21
97.895900
0
LINE
8
Image
10
79.334800
20
97.895900
11
81.439600
21
97.895900
0
LINE
8
Image
10
81.439600
20
97.895900
11
83.544400
21
97.895900
0
LINE
8
Image
10
83.544400
20
97.895900
11
83.626829
21
95.708680
0
LINE
8
Image
10
83.626829
20
95.708680
11
83.709254
21
93.521460
0
LINE
8
Image
10
83.709254
20
93.521460
11
85.896474
21
93.439034
0
LINE
8
Image
10
85.896474
20
93.439034
11
88.083694
21
93.356606
0
LINE
8
Image
10
88.083694
20
93.356606
11
88.083700
21
88.570700
0
LINE
8
Image
10
88.083700
20
88.570700
11
88.083700
21
83.784800
0
LINE
8
Image
10
88.083700
20
83.784800
11
85.825900
21
83.784800
0
LINE
8
Image
10
85.825900
20
83.784800
11
83.568100
21
83.784800
0
LINE
8
Image
10
83.568100
20
83.784800
11
83.568100
21
77.293700
0
LINE
8
Image
10
83.568100
20
77.293700
11
83.568100
21
70.802600
0
LINE
8
Image
10
83.568100
20
70.802600
11
85.825900
21
70.802600
0
LINE
8
Image
10
85.825900
20
70.802600
11
88.083700
21
70.802600
0
LINE
8
Image
10
88.083700
20
70.802600
11
88.083700
21
66.004900
0
LINE
8
Image
10
88.083700
20
66.004900
11
88.083700
21
61.207100
0
LINE
8
Image
10
88.083700
20
61.207100
11
85.825900
21
61.207100
0
LINE
8
Image
10
85.825900
20
61.207100
11
83.568100
21
61.207100
0
LINE
8
Image
10
83.568100
20
61.207100
11
83.568100
21
57.114900
0
LINE
8
Image
10
83.568100
20
57.114900
11
83.568100
21
53.022600
0
LINE
8
Image
10
83.568100
20
53.022600
11
85.825900
21
53.022600
0
LINE
8
Image
10
85.825900
20
53.022600
11
88.083700
21
53.022600
0
LINE
8
Image
10
88.083700
20
53.022600
11
88.083700
21
50.777200
0
LINE
8
Image
10
88.083700
20
50.777200
11
88.083700
21
48.531800
0
LINE
8
Image
10
88.083700
20
48.531800
11
90.129810
21
48.448880
0
LINE
8
Image
10
90.129810
20
48.448880
11
92.175920
21
48.365961
0
LINE
8
Image
10
92.175920
20
48.365961
11
92.249642
21
36.865461
0
LINE
8
Image
10
92.249642
20
36.865461
11
92.323361
21
25.364961
0
LINE
8
Image
10
92.323361
20
25.364961
11
90.203500
21
25.364900
0
LINE
8
Image
10
90.203500
20
25.364900
11
88.083700
21
25.364900
0
LINE
8
Image
10
88.083700
20
25.364900
11
88.083700
21
23.119000
0
LINE
8
Image
10
88.083700
20
23.119000
11
88.083700
21
20.873100
0
LINE
8
Image
10
88.083700
20
20.873100
11
85.896480
21
20.790671
0
LINE
8
Image
10
85.896480
20
20.790671
11
83.709260
21
20.708246
0
LINE
8
Image
10
83.709260
20
20.708246
11
83.633596
21
14.005476
0
LINE
8
Image
10
83.633596
20
14.005476
11
83.557933
21
7.302706
0
LINE
8
Image
10
83.557933
20
7.302706
11
72.415300
21
7.302670
0
LINE
8
Image
10
72.415300
20
7.302670
11
61.272600
21
7.302670
0
LINE
8
Image
10
61.272600
20
7.302670
11
61.272600
21
11.818200
0
LINE
8
Image
10
61.272600
20
11.818200
11
61.272600
21
16.333800
0
LINE
8
Image
10
61.272600
20
16.333800
11
59.438200
21
16.333800
0
LINE
8
Image
10
59.438200
20
16.333800
11
57.603700
21
16.333800
0
LINE
8
Image
10
57.603700
20
16.333800
11
57.603700
21
11.818200
0
LINE
8
Image
10
57.603700
20
11.818200
11
57.603700
21
7.302670
0
LINE
8
Image
10
57.603700
20
7.302670
11
46.455900
21
7.302670
0
LINE
8
Image
10
46.455900
20
7.302670
11
35.308200
21
7.302670
0
LINE
8
Image
10
35.308200
20
7.302670
11
35.308200
21
11.818200
0
LINE
8
Image
10
35.308200
20
11.818200
11
65.788110
21
11.818200
0
LINE
8
Image
10
87.582610
20
12.594311
11
87.660331
21
17.039311
0
LINE
8
Image
10
87.660331
20
17.039311
11
89.732551
21
17.122758
0
LINE
8
Image
10
89.732551
20
17.122758
11
91.356716
21
17.095697
0
LINE
8
Image
10
91.356716
20
17.095697
11
92.201991
21
16.876533
0
LINE
8
Image
10
92.201991
20
16.876533
11
92.394382
21
16.519989
0
LINE
8
Image
10
92.394382
20
16.519989
11
92.516448
21
15.740660
0
LINE
8
Image
10
92.516448
20
15.740660
11
92.599218
21
12.348093
0
LINE
8
Image
10
92.599218
20
12.348093
11
57.885900
21
4.057100
0
LINE
8
Image
10
57.885900
20
4.057100
11
68.323000
21
4.057100
0
LINE
8
Image
10
68.323000
20
4.057100
11
78.760100
21
4.057100
0
LINE
8
Image
10
78.760100
20
4.057100
11
78.835764
21
10.759870
0
LINE
8
Image
10
78.835764
20
10.759870
11
78.911427
21
17.462640
0
LINE
8
Image
10
78.911427
20
17.462640
11
80.957537
21
17.545560
0
LINE
8
Image
10
80.957537
20
17.545560
11
83.003647
21
17.628479
0
LINE
8
Image
10
83.003647
20
17.628479
11
83.003700
21
19.309500
0
LINE
8
Image
10
83.003700
20
19.309500
11
83.003700
21
20.990400
0
LINE
8
Image
10
83.003700
20
20.990400
11
79.052600
21
20.990400
0
LINE
8
Image
10
79.052600
20
20.990400
11
75.101500
21
20.990400
0
LINE
8
Image
10
75.101500
20
20.990400
11
75.097182
21
14.710960
0
LINE
8
Image
10
75.097182
20
14.710960
11
75.027388
21
10.170885
0
LINE
8
Image
10
75.027388
20
10.170885
11
74.865503
21
8.073320
0
LINE
8
Image
10
74.865503
20
8.073320
11
74.446455
21
7.904486
0
LINE
8
Image
10
74.446455
20
7.904486
11
73.321291
21
7.806687
0
LINE
8
Image
10
73.321291
20
7.806687
11
68.167053
21
7.791098
0
LINE
8
Image
10
68.167053
20
7.791098
11
61.695953
21
7.867081
0
LINE
8
Image
10
61.695953
20
7.867081
11
61.618232
21
12.312081
0
LINE
8
Image
10
61.618232
20
12.312081
11
61.540508
21
16.757081
0
LINE
8
Image
10
61.540508
20
16.757081
11
90.059200
21
16.757100
0
LINE
8
Image
10
90.059200
20
16.757100
11
83.864700
21
16.757100
0
LINE
8
Image
10
83.864700
20
16.757100
11
83.786976
21
12.312100
0
LINE
8
Image
10
83.786976
20
12.312100
11
83.709255
21
7.867100
0
LINE
8
Image
10
83.709255
20
7.867100
11
77.077000
21
7.867100
0
LINE
8
Image
10
77.077000
20
7.867100
11
70.444800
21
7.867100
0
LINE
8
Image
10
70.444800
20
7.867100
11
70.367079
21
12.312100
0
LINE
8
Image
10
70.367079
20
12.312100
11
70.289355
21
16.757100
0
LINE
8
Image
10
70.289355
20
16.757100
11
68.377400
21
16.757100
0
LINE
8
Image
10
68.377400
20
16.757100
11
66.909337
21
16.852651
0
LINE
8
Image
10
66.909337
20
16.852651
11
66.126790
21
17.095766
0
LINE
8
Image
10
66.126790
20
17.095766
11
65.885557
21
17.848525
0
LINE
8
Image
10
65.885557
20
17.848525
11
65.788124
21
19.212426
0
LINE
8
Image
10
65.788124
20
19.212426
11
65.788200
21
20.990400
0
LINE
8
Image
10
65.788200
20
20.990400
11
61.695900
21
20.990400
0
LINE
8
Image
10
61.695900
20
20.990400
11
57.603700
21
20.990400
0
LINE
8
Image
10
57.603700
20
20.990400
11
57.603700
21
19.052000
0
LINE
8
Image
10
57.603700
20
19.052000
11
57.603700
21
17.113600
0
LINE
8
Image
10
57.603700
20
17.113600
11
56.545370
21
16.990481
0
LINE
8
Image
10
56.545370
20
16.990481
11
52.453150
21
16.903447
0
LINE
8
Image
10
52.453150
20
16.903447
11
49.419260
21
16.939529
0
LINE
8
Image
10
49.419260
20
16.939529
11
49.419300
21
15.018000
0
LINE
8
Image
10
49.419300
20
15.018000
11
49.419300
21
13.096500
0
LINE
8
Image
10
49.419300
20
13.096500
11
57.956520
21
13.021804
0
LINE
8
Image
10
57.956520
20
13.021804
11
66.493740
21
12.947111
0
LINE
8
Image
10
66.493740
20
12.947111
11
66.571461
21
8.502111
0
LINE
8
Image
10
66.571461
20
8.502111
11
66.649185
21
4.057111
0
LINE
8
Image
10
66.649185
20
4.057111
11
77.077000
21
4.057100
0
LINE
8
Image
10
77.077000
20
4.057100
11
87.504900
21
4.057100
0
LINE
8
Image
10
87.504900
20
4.057100
11
87.582610
21
12.594311
0
LINE
8
Image
10
83.003670
20
17.180421
11
26.495900
21
16.827600
0
LINE
8
Image
10
26.495900
20
16.827600
11
33.480890
21
16.827795
0
LINE
8
Image
10
33.480890
20
16.827795
11
40.465880
21
16.827989
0
LINE
8
Image
10
40.465880
20
16.827989
11
40.393518
21
12.312239
0
LINE
8
Image
10
40.393518
20
12.312239
11
40.321154
21
7.796489
0
LINE
8
Image
10
40.321154
20
7.796489
11
46.375200
21
7.796540
0
LINE
8
Image
10
46.375200
20
7.796540
11
52.429300
21
7.796540
0
LINE
8
Image
10
52.429300
20
7.796540
11
52.374250
21
14.075980
0
LINE
8
Image
10
52.374250
20
14.075980
11
52.319200
21
20.355420
0
LINE
8
Image
10
52.319200
20
20.355420
11
31.293700
21
20.355400
0
LINE
8
Image
10
31.293700
20
20.355400
11
10.268100
21
20.355400
0
LINE
8
Image
10
10.268100
20
20.355400
11
10.183459
21
18.567660
0
LINE
8
Image
10
10.183459
20
18.567660
11
10.098818
21
16.779920
0
LINE
8
Image
10
10.098818
20
16.779920
11
12.280868
21
16.871433
0
LINE
8
Image
10
12.280868
20
16.871433
11
14.462918
21
16.962947
0
LINE
8
Image
10
14.462918
20
16.962947
11
14.412171
21
12.379737
0
LINE
8
Image
10
14.412171
20
12.379737
11
14.361425
21
7.796527
0
LINE
8
Image
10
14.361425
20
7.796527
11
20.428700
21
7.796540
0
LINE
8
Image
10
20.428700
20
7.796540
11
26.495900
21
7.796540
0
LINE
8
Image
10
26.495900
20
7.796540
11
83.003670
21
17.180421
0
LINE
8
Image
10
100.430870
20
16.520665
11
101.136425
21
16.520665
0
LINE
8
Image
10
101.136425
20
16.520665
11
101.178317
21
16.420131
0
LINE
8
Image
10
101.178317
20
16.420131
11
100.783647
21
16.378315
0
LINE
8
Image
10
100.783647
20
16.378315
11
100.388977
21
16.420131
0
LINE
8
Image
10
100.388977
20
16.420131
11
100.430870
21
16.520665
0
LINE
8
Image
10
100.430870
20
16.520665
11
100.430870
21
16.520665
0
LINE
8
Image
10
74.254770
20
17.009115
11
74.389123
21
17.181168
0
LINE
8
Image
10
74.389123
20
17.181168
11
74.695993
21
17.280379
0
LINE
8
Image
10
74.695993
20
17.280379
11
75.031101
21
17.283703
0
LINE
8
Image
10
75.031101
20
17.283703
11
75.250164
21
17.168096
0
LINE
8
Image
10
75.250164
20
17.168096
11
75.197274
21
16.977481
0
LINE
8
Image
10
75.197274
20
16.977481
11
74.835871
21
16.898199
0
LINE
8
Image
10
74.835871
20
16.898199
11
74.254770
21
17.009115
0
LINE
8
Image
10
74.254770
20
17.009115
11
74.254770
21
17.009115
0
LINE
8
Image
10
100.430870
20
17.085109
11
101.136425
21
17.085109
0
LINE
8
Image
10
101.136425
20
17.085109
11
101.178317
21
16.984575
0
LINE
8
Image
10
101.178317
20
16.984575
11
100.783647
21
16.942759
0
LINE
8
Image
10
100.783647
20
16.942759
11
100.388977
21
16.984575
0
LINE
8
Image
10
100.388977
20
16.984575
11
100.430869
21
17.085109
0
LINE
8
Image
10
100.430869
20
17.085109
11
100.430870
21
17.085109
0
LINE
8
Image
10
104.586030
20
17.168096
11
104.825535
21
17.312010
0
LINE
8
Image
10
104.825535
20
17.312010
11
105.167131
21
17.279012
0
LINE
8
Image
10
105.167131
20
17.279012
11
105.558038
21
17.004656
0
LINE
8
Image
10
105.558038
20
17.004656
11
105.000324
21
16.898199
0
LINE
8
Image
10
105.000324
20
16.898199
11
104.638921
21
16.977482
0
LINE
8
Image
10
104.638921
20
16.977482
11
104.586031
21
17.168096
0
LINE
8
Image
10
104.586031
20
17.168096
11
104.586030
21
17.168096
0
LINE
8
Image
10
74.254800
20
20.874300
11
74.434422
21
21.055984
0
LINE
8
Image
10
74.434422
20
21.055984
11
74.866282
21
21.131551
0
LINE
8
Image
10
74.866282
20
21.131551
11
75.240471
21
21.073884
0
LINE
8
Image
10
75.240471
20
21.073884
11
75.281445
21
20.935235
0
LINE
8
Image
10
75.281445
20
20.935235
11
74.653740
21
20.682786
0
LINE
8
Image
10
74.653740
20
20.682786
11
74.372323
21
20.719881
0
LINE
8
Image
10
74.372323
20
20.719881
11
74.254805
21
20.874300
0
LINE
8
Image
10
74.254805
20
20.874300
11
74.254800
21
20.874300
0
LINE
8
Image
10
104.586000
20
20.861657
11
104.638890
21
21.052269
0
LINE
8
Image
10
104.638890
20
21.052269
11
105.000293
21
21.131552
0
LINE
8
Image
10
105.000293
20
21.131552
11
105.558007
21
21.025095
0
LINE
8
Image
10
105.558007
20
21.025095
11
105.167100
21
20.750739
0
LINE
8
Image
10
105.167100
20
20.750739
11
104.825504
21
20.717741
0
LINE
8
Image
10
104.825504
20
20.717741
11
104.585999
21
20.861655
0
LINE
8
Image
10
104.585999
20
20.861655
11
104.586000
21
20.861657
0
LINE
8
Image
10
100.430840
20
21.036240
11
101.136395
21
21.036240
0
LINE
8
Image
10
101.136395
20
21.036240
11
101.178287
21
20.935705
0
LINE
8
Image
10
101.178287
20
20.935705
11
100.783617
21
20.893890
0
LINE
8
Image
10
100.783617
20
20.893890
11
100.388947
21
20.935705
0
LINE
8
Image
10
100.388947
20
20.935705
11
100.430840
21
21.036240
0
LINE
8
Image
10
100.430840
20
21.036240
11
100.430840
21
21.036240
0
LINE
8
Image
10
100.430840
20
21.600684
11
101.136395
21
21.600684
0
LINE
8
Image
10
101.136395
20
21.600684
11
101.178288
21
21.500149
0
LINE
8
Image
10
101.178288
20
21.500149
11
100.783618
21
21.458334
0
LINE
8
Image
10
100.783618
20
21.458334
11
100.388948
21
21.500149
0
LINE
8
Image
10
100.388948
20
21.500149
11
100.430840
21
21.600684
0
LINE
8
Image
10
100.430840
20
21.600684
11
100.430840
21
21.600684
0
LINE
8
Image
10
57.039240
20
23.530444
11
57.180351
21
25.505994
0
LINE
8
Image
10
57.180351
20
25.505994
11
54.993131
21
25.413947
0
LINE
8
Image
10
54.993131
20
25.413947
11
52.805911
21
25.321903
0
LINE
8
Image
10
52.805911
20
25.321903
11
-16.550100
21
22.701100
0
LINE
8
Image
10
-16.550100
20
22.701100
11
-16.475298
21
31.544148
0
LINE
8
Image
10
-16.475298
20
31.544148
11
-16.370698
21
33.553983
0
LINE
8
Image
10
-16.370698
20
33.553983
11
-16.211434
21
34.293700
0
LINE
8
Image
10
-16.211434
20
34.293700
11
-15.458675
21
34.534933
0
LINE
8
Image
10
-15.458675
20
34.534933
11
-14.094774
21
34.632366
0
LINE
8
Image
10
-14.094774
20
34.632366
11
-12.316800
21
34.632400
0
LINE
8
Image
10
-12.316800
20
34.632400
11
-12.283379
21
36.678510
0
LINE
8
Image
10
-12.283379
20
36.678510
11
-12.283379
21
38.936290
0
LINE
8
Image
10
-12.283379
20
38.936290
11
-12.105133
21
39.114536
0
LINE
8
Image
10
-12.105133
20
39.114536
11
-9.847353
21
39.114536
0
LINE
8
Image
10
-9.847353
20
39.114536
11
-7.801243
21
39.147957
0
LINE
8
Image
10
-7.801243
20
39.147957
11
-7.801230
21
40.982400
0
LINE
8
Image
10
-7.801230
20
40.982400
11
-7.801230
21
42.816800
0
LINE
8
Image
10
-7.801230
20
42.816800
11
-11.752300
21
42.816800
0
LINE
8
Image
10
-11.752300
20
42.816800
11
-15.703500
21
42.816800
0
LINE
8
Image
10
-15.703500
20
42.816800
11
-15.703500
21
40.700200
0
LINE
8
Image
10
-15.703500
20
40.700200
11
-15.786601
21
39.076584
0
LINE
8
Image
10
-15.786601
20
39.076584
11
-15.896207
21
38.691486
0
LINE
8
Image
10
-15.896207
20
38.691486
11
-16.056278
21
38.559960
0
LINE
8
Image
10
-16.056278
20
38.559960
11
-18.384608
21
38.523291
0
LINE
8
Image
10
-18.384608
20
38.523291
11
-20.360158
21
38.510196
0
LINE
8
Image
10
-20.360158
20
38.510196
11
-20.265932
21
36.390926
0
LINE
8
Image
10
-20.265932
20
36.390926
11
-20.278585
21
34.698728
0
LINE
8
Image
10
-20.278585
20
34.698728
11
-20.548154
21
34.033026
0
LINE
8
Image
10
-20.548154
20
34.033026
11
-21.332163
21
33.863225
0
LINE
8
Image
10
-21.332163
20
33.863225
11
-22.688484
21
33.790075
0
LINE
8
Image
10
-22.688484
20
33.790075
11
-24.452374
21
33.785757
0
LINE
8
Image
10
-24.452374
20
33.785757
11
-24.452300
21
22.920200
0
LINE
8
Image
10
-24.452300
20
22.920200
11
-24.452300
21
12.054600
0
LINE
8
Image
10
-24.452300
20
12.054600
11
-22.314200
21
12.054600
0
LINE
8
Image
10
-22.314200
20
12.054600
11
-20.176000
21
12.054600
0
LINE
8
Image
10
-20.176000
20
12.054600
11
-20.268044
21
9.830930
0
LINE
8
Image
10
-20.268044
20
9.830930
11
-20.360091
21
7.607260
0
LINE
8
Image
10
-20.360091
20
7.607260
11
-16.408981
21
7.643709
0
LINE
8
Image
10
-16.408981
20
7.643709
11
-12.457871
21
7.680155
0
LINE
8
Image
10
-12.457871
20
7.680155
11
57.039240
21
23.530444
0
LINE
8
Image
10
48.572580
20
23.518082
11
22.608200
21
25.340100
0
LINE
8
Image
10
22.608200
20
25.340100
11
20.562090
21
25.423020
0
LINE
8
Image
10
20.562090
20
25.423020
11
18.515980
21
25.505939
0
LINE
8
Image
10
18.515980
20
25.505939
11
18.442148
21
36.583139
0
LINE
8
Image
10
18.442148
20
36.583139
11
18.368319
21
47.660339
0
LINE
8
Image
10
18.368319
20
47.660339
11
16.537100
21
47.660400
0
LINE
8
Image
10
16.537100
20
47.660400
11
14.706000
21
47.660400
0
LINE
8
Image
10
14.706000
20
47.660400
11
14.706000
21
34.678200
0
LINE
8
Image
10
14.706000
20
34.678200
11
14.706000
21
21.696000
0
LINE
8
Image
10
14.706000
20
21.696000
11
18.657100
21
21.696000
0
LINE
8
Image
10
18.657100
20
21.696000
11
22.608200
21
21.696000
0
LINE
8
Image
10
22.608200
20
21.696000
11
48.572580
21
23.518082
0
LINE
8
Image
10
57.052070
20
32.420432
11
57.064911
21
41.310422
0
LINE
8
Image
10
57.064911
20
41.310422
11
57.052070
21
45.839442
0
LINE
8
Image
10
57.052070
20
45.839442
11
57.039257
21
47.969572
0
LINE
8
Image
10
57.039257
20
47.969572
11
55.275367
21
47.885552
0
LINE
8
Image
10
55.275367
20
47.885552
11
53.511477
21
47.801529
0
LINE
8
Image
10
53.511477
20
47.801529
11
53.437608
21
36.865429
0
LINE
8
Image
10
53.437608
20
36.865429
11
53.363737
21
25.929329
0
LINE
8
Image
10
53.363737
20
25.929329
11
37.703800
21
10.137200
0
LINE
8
Image
10
37.703800
20
10.137200
11
39.541500
21
10.137200
0
LINE
8
Image
10
39.541500
20
10.137200
11
57.052070
21
32.420432
0
LINE
8
Image
10
65.788130
20
27.924902
11
39.810900
21
5.185990
0
LINE
8
Image
10
39.810900
20
5.185990
11
37.694200
21
5.185990
0
LINE
8
Image
10
37.694200
20
5.185990
11
35.577600
21
5.185990
0
LINE
8
Image
10
35.577600
20
5.185990
11
35.577600
21
7.443760
0
LINE
8
Image
10
35.577600
20
7.443760
11
35.577600
21
9.701540
0
LINE
8
Image
10
35.577600
20
9.701540
11
33.743100
21
9.701540
0
LINE
8
Image
10
33.743100
20
9.701540
11
31.908700
21
9.701540
0
LINE
8
Image
10
31.908700
20
9.701540
11
31.908700
21
5.484590
0
LINE
8
Image
10
31.908700
20
5.484590
11
31.908700
21
1.267650
0
LINE
8
Image
10
31.908700
20
1.267650
11
35.859810
21
1.271291
0
LINE
8
Image
10
35.859810
20
1.271291
11
39.810920
21
1.274931
0
LINE
8
Image
10
39.810920
20
1.274931
11
39.810900
21
3.230460
0
LINE
8
Image
10
39.810900
20
3.230460
11
65.788130
21
27.924902
0
LINE
8
Image
10
83.061830
20
27.975434
11
83.052714
21
32.208764
0
LINE
8
Image
10
83.052714
20
32.208764
11
82.960670
21
34.395984
0
LINE
8
Image
10
82.960670
20
34.395984
11
39.821300
21
14.197100
0
LINE
8
Image
10
39.821300
20
14.197100
11
32.667716
21
14.273101
0
LINE
8
Image
10
32.667716
20
14.273101
11
31.546991
21
14.421507
0
LINE
8
Image
10
31.546991
20
14.421507
11
31.238710
21
14.690988
0
LINE
8
Image
10
31.238710
20
14.690988
11
31.096027
21
19.277098
0
LINE
8
Image
10
31.096027
20
19.277098
11
31.092330
21
25.415428
0
LINE
8
Image
10
31.092330
20
25.415428
11
31.074889
21
27.461538
0
LINE
8
Image
10
31.074889
20
27.461538
11
29.240400
21
27.461500
0
LINE
8
Image
10
29.240400
20
27.461500
11
27.406000
21
27.461500
0
LINE
8
Image
10
27.406000
20
27.461500
11
27.406000
21
22.284700
0
LINE
8
Image
10
27.406000
20
22.284700
11
27.589865
21
13.688430
0
LINE
8
Image
10
27.589865
20
13.688430
11
27.773727
21
10.268960
0
LINE
8
Image
10
27.773727
20
10.268960
11
29.777087
21
10.186904
0
LINE
8
Image
10
29.777087
20
10.186904
11
31.780447
21
10.104848
0
LINE
8
Image
10
31.780447
20
10.104848
11
31.862873
21
7.917628
0
LINE
8
Image
10
31.862873
20
7.917628
11
31.945301
21
5.730408
0
LINE
8
Image
10
31.945301
20
5.730408
11
40.105500
21
5.730410
0
LINE
8
Image
10
40.105500
20
5.730410
11
48.265700
21
5.730410
0
LINE
8
Image
10
48.265700
20
5.730410
11
83.061830
21
27.975434
0
LINE
8
Image
10
95.951630
20
30.166844
11
95.955017
21
34.076174
0
LINE
8
Image
10
95.955017
20
34.076174
11
92.019317
21
34.079589
0
LINE
8
Image
10
92.019317
20
34.079589
11
88.601187
21
34.000256
0
LINE
8
Image
10
88.601187
20
34.000256
11
88.140075
21
33.816094
0
LINE
8
Image
10
88.140075
20
33.816094
11
88.045177
21
33.463380
0
LINE
8
Image
10
88.045177
20
33.463380
11
87.990398
21
33.061648
0
LINE
8
Image
10
87.990398
20
33.061648
11
87.868898
21
33.549325
0
LINE
8
Image
10
87.868898
20
33.549325
11
87.717651
21
34.064406
0
LINE
8
Image
10
87.717651
20
34.064406
11
87.503835
21
33.690436
0
LINE
8
Image
10
87.503835
20
33.690436
11
87.314271
21
33.318156
0
LINE
8
Image
10
87.314271
20
33.318156
11
87.256781
21
33.619880
0
LINE
8
Image
10
87.256781
20
33.619880
11
87.181360
21
33.871400
0
LINE
8
Image
10
87.181360
20
33.871400
11
86.925341
21
34.021798
0
LINE
8
Image
10
86.925341
20
34.021798
11
85.543601
21
34.113757
0
LINE
8
Image
10
85.543601
20
34.113757
11
31.863300
21
13.864300
0
LINE
8
Image
10
31.863300
20
13.864300
11
31.863300
21
12.218000
0
LINE
8
Image
10
31.863300
20
12.218000
11
32.059616
21
10.375390
0
LINE
8
Image
10
32.059616
20
10.375390
11
32.312065
21
9.747684
0
LINE
8
Image
10
32.312065
20
9.747684
11
32.274970
21
9.466268
0
LINE
8
Image
10
32.274970
20
9.466268
11
32.120551
21
9.348750
0
LINE
8
Image
10
32.120551
20
9.348750
11
31.938867
21
8.851334
0
LINE
8
Image
10
31.938867
20
8.851334
11
31.863300
21
7.655420
0
LINE
8
Image
10
31.863300
20
7.655420
11
31.863300
21
5.962100
0
LINE
8
Image
10
31.863300
20
5.962100
11
33.556700
21
5.962100
0
LINE
8
Image
10
33.556700
20
5.962100
11
34.841799
21
6.048283
0
LINE
8
Image
10
34.841799
20
6.048283
11
35.272310
21
6.314878
0
LINE
8
Image
10
35.272310
20
6.314878
11
35.325138
21
6.495268
0
LINE
8
Image
10
35.325138
20
6.495268
11
35.447584
21
6.282945
0
LINE
8
Image
10
35.447584
20
6.282945
11
35.617220
21
6.039344
0
LINE
8
Image
10
35.617220
20
6.039344
11
35.844315
21
6.282945
0
LINE
8
Image
10
35.844315
20
6.282945
11
36.034089
21
6.501432
0
LINE
8
Image
10
36.034089
20
6.501432
11
36.092374
21
6.314878
0
LINE
8
Image
10
36.092374
20
6.314878
11
36.201362
21
6.156146
0
LINE
8
Image
10
36.201362
20
6.156146
11
36.533974
21
6.046391
0
LINE
8
Image
10
36.533974
20
6.046391
11
37.931134
21
5.962100
0
LINE
8
Image
10
37.931134
20
5.962100
11
39.328301
21
6.046391
0
LINE
8
Image
10
39.328301
20
6.046391
11
39.660914
21
6.156146
0
LINE
8
Image
10
39.660914
20
6.156146
11
39.769894
21
6.314878
0
LINE
8
Image
10
39.769894
20
6.314878
11
39.825286
21
6.503700
0
LINE
8
Image
10
39.825286
20
6.503700
11
39.981560
21
6.368579
0
LINE
8
Image
10
39.981560
20
6.368579
11
40.542512
21
6.134254
0
LINE
8
Image
10
40.542512
20
6.134254
11
41.600020
21
5.990859
0
LINE
8
Image
10
41.600020
20
5.990859
11
43.109280
21
5.815495
0
LINE
8
Image
10
43.109280
20
5.815495
11
43.584381
21
5.863422
0
LINE
8
Image
10
43.584381
20
5.863422
11
43.765418
21
6.122008
0
LINE
8
Image
10
43.765418
20
6.122008
11
43.881999
21
6.807606
0
LINE
8
Image
10
43.881999
20
6.807606
11
43.964717
21
9.917402
0
LINE
8
Image
10
43.964717
20
9.917402
11
95.951630
21
30.166844
0
LINE
8
Image
10
87.819980
20
29.033764
11
87.733546
21
29.545226
0
LINE
8
Image
10
87.733546
20
29.545226
11
87.519160
21
29.174875
0
LINE
8
Image
10
87.519160
20
29.174875
11
87.404611
21
28.983589
0
LINE
8
Image
10
87.404611
20
28.983589
11
87.327023
21
29.049106
0
LINE
8
Image
10
87.327023
20
29.049106
11
87.261096
21
30.021541
0
LINE
8
Image
10
87.261096
20
30.021541
11
87.312549
21
31.007731
0
LINE
8
Image
10
87.312549
20
31.007731
11
87.394681
21
31.124796
0
LINE
8
Image
10
87.394681
20
31.124796
11
87.519160
21
31.009318
0
LINE
8
Image
10
87.519160
20
31.009318
11
87.749293
21
30.727097
0
LINE
8
Image
10
87.749293
20
30.727097
11
87.805644
21
31.009318
0
LINE
8
Image
10
87.805644
20
31.009318
11
87.892781
21
31.203754
0
LINE
8
Image
10
87.892781
20
31.203754
11
88.151801
21
30.868207
0
LINE
8
Image
10
88.151801
20
30.868207
11
88.529626
21
29.964162
0
LINE
8
Image
10
88.529626
20
29.964162
11
88.516412
21
29.695753
0
LINE
8
Image
10
88.516412
20
29.695753
11
88.360484
21
29.598207
0
LINE
8
Image
10
88.360484
20
29.598207
11
88.156737
21
29.411676
0
LINE
8
Image
10
88.156737
20
29.411676
11
88.000555
21
28.963208
0
LINE
8
Image
10
88.000555
20
28.963208
11
87.887453
21
28.520859
0
LINE
8
Image
10
87.887453
20
28.520859
11
87.819981
21
29.033764
0
LINE
8
Image
10
87.819981
20
29.033764
11
87.819980
21
29.033764
0
LINE
8
Image
10
91.454910
20
29.909121
11
91.317278
21
30.373575
0
LINE
8
Image
10
91.317278
20
30.373575
11
91.599207
21
30.620368
0
LINE
8
Image
10
91.599207
20
30.620368
11
92.066234
21
30.705045
0
LINE
8
Image
10
92.066234
20
30.705045
11
92.455641
21
30.607263
0
LINE
8
Image
10
92.455641
20
30.607263
11
92.708266
21
30.358917
0
LINE
8
Image
10
92.708266
20
30.358917
11
92.764947
21
29.991902
0
LINE
8
Image
10
92.764947
20
29.991902
11
92.567221
21
29.598909
0
LINE
8
Image
10
92.567221
20
29.598909
11
92.203665
21
29.449103
0
LINE
8
Image
10
92.203665
20
29.449103
11
91.793240
21
29.550001
0
LINE
8
Image
10
91.793240
20
29.550001
11
91.454907
21
29.909121
0
LINE
8
Image
10
91.454907
20
29.909121
11
91.454910
21
29.909121
0
LINE
8
Image
10
89.724020
20
29.790997
11
90.264946
21
29.768730
0
LINE
8
Image
10
90.264946
20
29.768730
11
90.226470
21
29.654853
0
LINE
8
Image
10
90.226470
20
29.654853
11
89.894530
21
29.620501
0
LINE
8
Image
10
89.894530
20
29.620501
11
89.601558
21
29.677050
0
LINE
8
Image
10
89.601558
20
29.677050
11
89.724020
21
29.791008
0
LINE
8
Image
10
89.724020
20
29.791008
11
89.724020
21
29.790997
0
LINE
8
Image
10
89.724020
20
30.355441
11
90.264946
21
30.333174
0
LINE
8
Image
10
90.264946
20
30.333174
11
90.226470
21
30.219297
0
LINE
8
Image
10
90.226470
20
30.219297
11
89.894530
21
30.184945
0
LINE
8
Image
10
89.894530
20
30.184945
11
89.601558
21
30.241494
0
LINE
8
Image
10
89.601558
20
30.241494
11
89.724020
21
30.355452
0
LINE
8
Image
10
89.724020
20
30.355452
11
89.724020
21
30.355441
0
LINE
8
Image
10
93.957350
20
30.355441
11
94.498276
21
30.333174
0
LINE
8
Image
10
94.498276
20
30.333174
11
94.459800
21
30.219297
0
LINE
8
Image
10
94.459800
20
30.219297
11
94.127860
21
30.184945
0
LINE
8
Image
10
94.127860
20
30.184945
11
93.834888
21
30.241494
0
LINE
8
Image
10
93.834888
20
30.241494
11
93.957350
21
30.355452
0
LINE
8
Image
10
93.957350
20
30.355452
11
93.957350
21
30.355441
0
LINE
8
Image
10
109.026750
20
28.116541
11
109.109176
21
30.303761
0
LINE
8
Image
10
109.109176
20
30.303761
11
111.225836
21
30.444872
0
LINE
8
Image
10
111.225836
20
30.444872
11
113.342506
21
30.585983
0
LINE
8
Image
10
113.342506
20
30.585983
11
113.417199
21
39.123203
0
LINE
8
Image
10
113.417199
20
39.123203
11
113.491894
21
47.660423
0
LINE
8
Image
10
113.491894
20
47.660423
11
48.770800
21
25.031000
0
LINE
8
Image
10
48.770800
20
25.031000
11
46.932200
21
25.031000
0
LINE
8
Image
10
46.932200
20
25.031000
11
46.916396
21
22.984890
0
LINE
8
Image
10
46.916396
20
22.984890
11
46.917807
21
16.802740
0
LINE
8
Image
10
46.917807
20
16.802740
11
46.762317
21
12.216630
0
LINE
8
Image
10
46.762317
20
12.216630
11
46.460991
21
11.980340
0
LINE
8
Image
10
46.460991
20
11.980340
11
45.530975
21
11.844070
0
LINE
8
Image
10
45.530975
20
11.844070
11
40.269787
21
11.766562
0
LINE
8
Image
10
40.269787
20
11.766562
11
33.950000
21
11.766500
0
LINE
8
Image
10
33.950000
20
11.766500
11
33.950000
21
7.533200
0
LINE
8
Image
10
33.950000
20
7.533200
11
33.950000
21
3.299870
0
LINE
8
Image
10
33.950000
20
3.299870
11
40.005900
21
3.299870
0
LINE
8
Image
10
40.005900
20
3.299870
11
46.061800
21
3.299870
0
LINE
8
Image
10
46.061800
20
3.299870
11
109.026750
21
28.116541
0
LINE
8
Image
10
117.716950
20
30.162651
11
39.765000
21
14.005400
0
LINE
8
Image
10
39.765000
20
14.005400
11
37.930600
21
14.005400
0
LINE
8
Image
10
37.930600
20
14.005400
11
36.096200
21
14.005400
0
LINE
8
Image
10
36.096200
20
14.005400
11
36.096200
21
11.747600
0
LINE
8
Image
10
36.096200
20
11.747600
11
36.096200
21
9.489870
0
LINE
8
Image
10
36.096200
20
9.489870
11
33.979500
21
9.489870
0
LINE
8
Image
10
33.979500
20
9.489870
11
31.862800
21
9.489870
0
LINE
8
Image
10
31.862800
20
9.489870
11
31.862800
21
7.514320
0
LINE
8
Image
10
31.862800
20
7.514320
11
31.862800
21
5.538760
0
LINE
8
Image
10
31.862800
20
5.538760
11
35.813900
21
5.538760
0
LINE
8
Image
10
35.813900
20
5.538760
11
39.765000
21
5.538760
0
LINE
8
Image
10
39.765000
20
5.538760
11
117.716950
21
30.162651
0
LINE
8
Image
10
121.950280
20
36.949451
11
35.308200
21
25.250700
0
LINE
8
Image
10
35.308200
20
25.250700
11
33.594960
21
25.166680
0
LINE
8
Image
10
33.594960
20
25.166680
11
31.881710
21
25.082657
0
LINE
8
Image
10
31.881710
20
25.082657
11
31.864636
21
20.567107
0
LINE
8
Image
10
31.864636
20
20.567107
11
31.884561
21
9.913207
0
LINE
8
Image
10
31.884561
20
9.913207
11
31.921534
21
3.774877
0
LINE
8
Image
10
31.921534
20
3.774877
11
33.614800
21
3.774880
0
LINE
8
Image
10
33.614800
20
3.774880
11
35.308200
21
3.774880
0
LINE
8
Image
10
35.308200
20
3.774880
11
121.950280
21
36.949451
0
LINE
8
Image
10
61.461980
20
41.239871
11
61.413630
21
47.519311
0
LINE
8
Image
10
61.413630
20
47.519311
11
59.649740
21
47.603334
0
LINE
8
Image
10
59.649740
20
47.603334
11
57.885850
21
47.687354
0
LINE
8
Image
10
57.885850
20
47.687354
11
-32.989500
21
12.100400
0
LINE
8
Image
10
-32.989500
20
12.100400
11
-32.989500
21
5.736960
0
LINE
8
Image
10
-32.989500
20
5.736960
11
-31.177300
21
5.736960
0
LINE
8
Image
10
-31.177300
20
5.736960
11
-29.365100
21
5.736960
0
LINE
8
Image
10
-29.365100
20
5.736960
11
61.461980
21
41.239871
0
LINE
8
Image
10
83.003580
20
36.959141
11
52.616500
21
5.115430
0
LINE
8
Image
10
52.616500
20
5.115430
11
50.711500
21
5.134085
0
LINE
8
Image
10
50.711500
20
5.134085
11
46.337060
21
5.117095
0
LINE
8
Image
10
46.337060
20
5.117095
11
43.867620
21
5.081467
0
LINE
8
Image
10
43.867620
20
5.081467
11
43.867600
21
7.375680
0
LINE
8
Image
10
43.867600
20
7.375680
11
43.867600
21
9.669890
0
LINE
8
Image
10
43.867600
20
9.669890
11
42.103710
21
9.628209
0
LINE
8
Image
10
42.103710
20
9.628209
11
39.987050
21
9.608764
0
LINE
8
Image
10
39.987050
20
9.608764
11
39.826050
21
9.745806
0
LINE
8
Image
10
39.826050
20
9.745806
11
39.716546
21
10.152355
0
LINE
8
Image
10
39.716546
20
10.152355
11
39.634272
21
11.888753
0
LINE
8
Image
10
39.634272
20
11.888753
11
39.634300
21
14.146500
0
LINE
8
Image
10
39.634300
20
14.146500
11
37.961300
21
14.146500
0
LINE
8
Image
10
37.961300
20
14.146500
11
36.288300
21
14.146500
0
LINE
8
Image
10
36.288300
20
14.146500
11
36.280765
21
7.942980
0
LINE
8
Image
10
36.280765
20
7.942980
11
36.273229
21
1.739460
0
LINE
8
Image
10
36.273229
20
1.739460
11
42.398759
21
1.663539
0
LINE
8
Image
10
42.398759
20
1.663539
11
50.570399
21
1.681348
0
LINE
8
Image
10
50.570399
20
1.681348
11
52.616509
21
1.775062
0
LINE
8
Image
10
52.616509
20
1.775062
11
52.616500
21
3.445270
0
LINE
8
Image
10
52.616500
20
3.445270
11
83.003580
21
36.959141
0
LINE
8
Image
10
70.065880
20
39.193761
11
70.107696
21
39.588431
0
LINE
8
Image
10
70.107696
20
39.588431
11
70.208230
21
39.546539
0
LINE
8
Image
10
70.208230
20
39.546539
11
70.208230
21
38.840984
0
LINE
8
Image
10
70.208230
20
38.840984
11
70.107696
21
38.799091
0
LINE
8
Image
10
70.107696
20
38.799091
11
70.065880
21
39.193761
0
LINE
8
Image
10
70.065880
20
39.193761
11
70.065880
21
39.193761
0
LINE
8
Image
10
70.630324
20
39.193761
11
70.672140
21
39.588431
0
LINE
8
Image
10
70.672140
20
39.588431
11
70.772674
21
39.546538
0
LINE
8
Image
10
70.772674
20
39.546538
11
70.772674
21
38.840983
0
LINE
8
Image
10
70.772674
20
38.840983
11
70.672140
21
38.799091
0
LINE
8
Image
10
70.672140
20
38.799091
11
70.630324
21
39.193761
0
LINE
8
Image
10
70.630324
20
39.193761
11
70.630324
21
39.193761
0
LINE
8
Image
10
96.210924
20
36.865431
11
96.294944
21
38.629321
0
LINE
8
Image
10
96.294944
20
38.629321
11
50.517100
21
7.161540
0
LINE
8
Image
10
50.517100
20
7.161540
11
44.294700
21
7.161540
0
LINE
8
Image
10
44.294700
20
7.161540
11
44.294700
21
5.321590
0
LINE
8
Image
10
44.294700
20
5.321590
11
44.294700
21
3.481650
0
LINE
8
Image
10
44.294700
20
3.481650
11
50.433030
21
3.557709
0
LINE
8
Image
10
50.433030
20
3.557709
11
56.571360
21
3.633768
0
LINE
8
Image
10
56.571360
20
3.633768
11
96.210924
21
36.865431
0
LINE
8
Image
10
117.716924
20
41.310431
11
52.580800
21
18.521000
0
LINE
8
Image
10
52.580800
20
18.521000
11
50.887500
21
18.521000
0
LINE
8
Image
10
50.887500
20
18.521000
11
49.194100
21
18.521000
0
LINE
8
Image
10
49.194100
20
18.521000
11
49.194100
21
12.171000
0
LINE
8
Image
10
49.194100
20
12.171000
11
49.194100
21
5.820990
0
LINE
8
Image
10
49.194100
20
5.820990
11
50.887500
21
5.820990
0
LINE
8
Image
10
50.887500
20
5.820990
11
52.580800
21
5.820990
0
LINE
8
Image
10
52.580800
20
5.820990
11
117.716924
21
41.310431
0
LINE
8
Image
10
108.934914
20
41.451542
11
108.927379
21
47.660422
0
LINE
8
Image
10
108.927379
20
47.660422
11
20.612300
21
14.076000
0
LINE
8
Image
10
20.612300
20
14.076000
11
18.939300
21
14.076000
0
LINE
8
Image
10
18.939300
20
14.076000
11
18.939300
21
11.818200
0
LINE
8
Image
10
18.939300
20
11.818200
11
18.939300
21
9.560430
0
LINE
8
Image
10
18.939300
20
9.560430
11
16.822600
21
9.560430
0
LINE
8
Image
10
16.822600
20
9.560430
11
14.706000
21
9.560430
0
LINE
8
Image
10
14.706000
20
9.560430
11
14.706000
21
7.302650
0
LINE
8
Image
10
14.706000
20
7.302650
11
14.706000
21
5.044880
0
LINE
8
Image
10
14.706000
20
5.044880
11
12.448200
21
5.044880
0
LINE
8
Image
10
12.448200
20
5.044880
11
10.190400
21
5.044880
0
LINE
8
Image
10
10.190400
20
5.044880
11
10.190400
21
3.351540
0
LINE
8
Image
10
10.190400
20
3.351540
11
10.190400
21
1.658210
0
LINE
8
Image
10
10.190400
20
1.658210
11
16.245400
21
1.658210
0
LINE
8
Image
10
16.245400
20
1.658210
11
22.300400
21
1.658210
0
LINE
8
Image
10
22.300400
20
1.658210
11
22.292865
21
7.867090
0
LINE
8
Image
10
22.292865
20
7.867090
11
108.934914
21
41.451542
0
LINE
8
Image
10
104.563364
20
39.044492
11
104.828453
21
39.648047
0
LINE
8
Image
10
104.828453
20
39.648047
11
104.960426
21
39.582965
0
LINE
8
Image
10
104.960426
20
39.582965
11
105.016931
21
39.240808
0
LINE
8
Image
10
105.016931
20
39.240808
11
104.941364
21
38.808949
0
LINE
8
Image
10
104.941364
20
38.808949
11
104.759680
21
38.629326
0
LINE
8
Image
10
104.759680
20
38.629326
11
104.595898
21
38.751281
0
LINE
8
Image
10
104.595898
20
38.751281
11
104.563364
21
39.044491
0
LINE
8
Image
10
104.563364
20
39.044491
11
104.563364
21
39.044492
0
LINE
8
Image
10
105.343713
20
39.193771
11
105.385529
21
39.588441
0
LINE
8
Image
10
105.385529
20
39.588441
11
105.486063
21
39.546549
0
LINE
8
Image
10
105.486063
20
39.546549
11
105.486063
21
38.840994
0
LINE
8
Image
10
105.486063
20
38.840994
11
105.385529
21
38.799102
0
LINE
8
Image
10
105.385529
20
38.799102
11
105.343713
21
39.193772
0
LINE
8
Image
10
105.343713
20
39.193772
11
105.343713
21
39.193771
0
LINE
8
Image
10
83.003613
20
41.310431
11
8.734750
21
11.677100
0
LINE
8
Image
10
8.734750
20
11.677100
11
4.783640
21
11.677100
0
LINE
8
Image
10
4.783640
20
11.677100
11
0.832532
21
11.677100
0
LINE
8
Image
10
0.832532
20
11.677100
11
0.832532
21
9.842650
0
LINE
8
Image
10
0.832532
20
9.842650
11
0.832532
21
8.008210
0
LINE
8
Image
10
0.832532
20
8.008210
11
4.783640
21
8.008210
0
LINE
8
Image
10
4.783640
20
8.008210
11
8.734750
21
8.008210
0
LINE
8
Image
10
8.734750
20
8.008210
11
83.003613
21
41.310431
0
LINE
8
Image
10
96.112913
20
41.804319
11
96.098887
21
43.991539
0
LINE
8
Image
10
96.098887
20
43.991539
11
46.371400
21
10.407100
0
LINE
8
Image
10
46.371400
20
10.407100
11
48.572600
21
10.407100
0
LINE
8
Image
10
48.572600
20
10.407100
11
48.572600
21
12.664900
0
LINE
8
Image
10
48.572600
20
12.664900
11
48.572600
21
14.922600
0
LINE
8
Image
10
48.572600
20
14.922600
11
50.689300
21
14.922600
0
LINE
8
Image
10
50.689300
20
14.922600
11
52.805900
21
14.922600
0
LINE
8
Image
10
52.805900
20
14.922600
11
52.805900
21
17.180400
0
LINE
8
Image
10
52.805900
20
17.180400
11
52.805900
21
19.438200
0
LINE
8
Image
10
52.805900
20
19.438200
11
54.922600
21
19.438200
0
LINE
8
Image
10
54.922600
20
19.438200
11
57.039300
21
19.438200
0
LINE
8
Image
10
57.039300
20
19.438200
11
57.071761
21
22.048750
0
LINE
8
Image
10
57.071761
20
22.048750
11
57.046700
21
26.410870
0
LINE
8
Image
10
57.046700
20
26.410870
11
56.989172
21
28.162430
0
LINE
8
Image
10
56.989172
20
28.162430
11
59.201452
21
28.245310
0
LINE
8
Image
10
59.201452
20
28.245310
11
61.413732
21
28.328187
0
LINE
8
Image
10
61.413732
20
28.328187
11
61.491831
21
32.490957
0
LINE
8
Image
10
61.491831
20
32.490957
11
61.569933
21
36.653727
0
LINE
8
Image
10
61.569933
20
36.653727
11
59.344300
21
36.653700
0
LINE
8
Image
10
59.344300
20
36.653700
11
57.118700
21
36.653700
0
LINE
8
Image
10
57.118700
20
36.653700
11
57.094485
21
39.969810
0
LINE
8
Image
10
57.094485
20
39.969810
11
57.054780
21
44.443580
0
LINE
8
Image
10
57.054780
20
44.443580
11
57.039286
21
45.601230
0
LINE
8
Image
10
57.039286
20
45.601230
11
35.872686
21
45.625896
0
LINE
8
Image
10
35.872686
20
45.625896
11
14.706086
21
45.650562
0
LINE
8
Image
10
14.706086
20
45.650562
11
14.706000
21
41.152200
0
LINE
8
Image
10
14.706000
20
41.152200
11
14.706000
21
36.653700
0
LINE
8
Image
10
14.706000
20
36.653700
11
12.455800
21
36.653700
0
LINE
8
Image
10
12.455800
20
36.653700
11
10.205600
21
36.653700
0
LINE
8
Image
10
10.205600
20
36.653700
11
10.268589
21
32.490930
0
LINE
8
Image
10
10.268589
20
32.490930
11
10.331575
21
28.328160
0
LINE
8
Image
10
10.331575
20
28.328160
11
12.518795
21
28.245734
0
LINE
8
Image
10
12.518795
20
28.245734
11
14.706015
21
28.163306
0
LINE
8
Image
10
14.706015
20
28.163306
11
14.706000
21
23.800800
0
LINE
8
Image
10
14.706000
20
23.800800
11
14.706000
21
19.438200
0
LINE
8
Image
10
14.706000
20
19.438200
11
16.822600
21
19.438200
0
LINE
8
Image
10
16.822600
20
19.438200
11
18.939300
21
19.438200
0
LINE
8
Image
10
18.939300
20
19.438200
11
18.939300
21
17.180400
0
LINE
8
Image
10
18.939300
20
17.180400
11
18.939300
21
14.922600
0
LINE
8
Image
10
18.939300
20
14.922600
11
21.056000
21
14.922600
0
LINE
8
Image
10
21.056000
20
14.922600
11
23.172600
21
14.922600
0
LINE
8
Image
10
23.172600
20
14.922600
11
23.172600
21
12.664900
0
LINE
8
Image
10
23.172600
20
12.664900
11
23.172600
21
10.407100
0
LINE
8
Image
10
23.172600
20
10.407100
11
27.547100
21
10.407100
0
LINE
8
Image
10
27.547100
20
10.407100
11
31.921500
21
10.407100
0
LINE
8
Image
10
31.921500
20
10.407100
11
31.921500
21
8.143810
0
LINE
8
Image
10
31.921500
20
8.143810
11
31.921500
21
5.880530
0
LINE
8
Image
10
31.921500
20
5.880530
11
38.059830
21
5.956589
0
LINE
8
Image
10
38.059830
20
5.956589
11
44.198160
21
6.032648
0
LINE
8
Image
10
44.198160
20
6.032648
11
44.184134
21
8.219868
0
LINE
8
Image
10
44.184134
20
8.219868
11
96.112913
21
41.804319
0
LINE
8
Image
10
87.519173
20
68.403719
11
22.481100
21
37.006500
0
LINE
8
Image
10
22.481100
20
37.006500
11
25.021100
21
37.006500
0
LINE
8
Image
10
25.021100
20
37.006500
11
27.561100
21
37.006500
0
LINE
8
Image
10
27.561100
20
37.006500
11
27.561100
21
34.325400
0
LINE
8
Image
10
27.561100
20
34.325400
11
27.561100
21
31.644300
0
LINE
8
Image
10
27.561100
20
31.644300
11
25.021100
21
31.644300
0
LINE
8
Image
10
25.021100
20
31.644300
11
22.481100
21
31.644300
0
LINE
8
Image
10
22.481100
20
31.644300
11
87.519173
21
68.403719
0
LINE
8
Image
10
91.752503
20
68.262608
11
91.737407
21
69.508833
0
LINE
8
Image
10
91.737407
20
69.508833
11
91.518250
21
70.116947
0
LINE
8
Image
10
91.518250
20
70.116947
11
90.834230
21
70.321663
0
LINE
8
Image
10
90.834230
20
70.321663
11
89.424543
21
70.357698
0
LINE
8
Image
10
89.424543
20
70.357698
11
88.084363
21
70.379260
0
LINE
8
Image
10
88.084363
20
70.379260
11
88.084081
21
68.333150
0
LINE
8
Image
10
88.084081
20
68.333150
11
88.083799
21
66.287040
0
LINE
8
Image
10
88.083799
20
66.287040
11
33.473900
21
5.609310
0
LINE
8
Image
10
33.473900
20
5.609310
11
35.308400
21
5.609310
0
LINE
8
Image
10
35.308400
20
5.609310
11
35.308400
21
7.584860
0
LINE
8
Image
10
35.308400
20
7.584860
11
91.752503
21
68.262608
0
LINE
8
Image
10
78.830303
20
72.848718
11
78.911450
21
75.459268
0
LINE
8
Image
10
78.911450
20
75.459268
11
81.380890
21
75.540810
0
LINE
8
Image
10
81.380890
20
75.540810
11
83.850330
21
75.622356
0
LINE
8
Image
10
83.850330
20
75.622356
11
23.172600
21
12.393600
0
LINE
8
Image
10
23.172600
20
12.393600
11
23.172600
21
9.701540
0
LINE
8
Image
10
23.172600
20
9.701540
11
20.622000
21
9.701540
0
LINE
8
Image
10
20.622000
20
9.701540
11
18.071500
21
9.701540
0
LINE
8
Image
10
18.071500
20
9.701540
11
78.830303
21
72.848718
0
LINE
8
Image
10
83.003673
20
72.919274
11
35.248200
21
9.630980
0
LINE
8
Image
10
35.248200
20
9.630980
11
33.554900
21
9.630980
0
LINE
8
Image
10
33.554900
20
9.630980
11
31.861500
21
9.630980
0
LINE
8
Image
10
31.861500
20
9.630980
11
31.861500
21
7.796540
0
LINE
8
Image
10
31.861500
20
7.796540
11
31.861500
21
5.962100
0
LINE
8
Image
10
31.861500
20
5.962100
11
33.554900
21
5.962100
0
LINE
8
Image
10
33.554900
20
5.962100
11
35.248200
21
5.962100
0
LINE
8
Image
10
35.248200
20
5.962100
11
83.003673
21
72.919274
0
LINE
8
Image
10
95.985873
20
72.919274
11
44.057100
21
10.407100
0
LINE
8
Image
10
44.057100
20
10.407100
11
46.729000
21
10.407100
0
LINE
8
Image
10
46.729000
20
10.407100
11
49.401000
21
10.407100
0
LINE
8
Image
10
49.401000
20
10.407100
11
49.356240
21
7.725990
0
LINE
8
Image
10
49.356240
20
7.725990
11
49.311482
21
5.044880
0
LINE
8
Image
10
49.311482
20
5.044880
11
46.684300
21
5.044880
0
LINE
8
Image
10
46.684300
20
5.044880
11
44.057100
21
5.044880
0
LINE
8
Image
10
44.057100
20
5.044880
11
95.985873
21
72.919274
0
LINE
8
Image
10
100.444333
20
72.848718
11
100.360310
21
74.612608
0
LINE
8
Image
10
100.360310
20
74.612608
11
33.756000
21
9.419320
0
LINE
8
Image
10
33.756000
20
9.419320
11
32.062600
21
9.419320
0
LINE
8
Image
10
32.062600
20
9.419320
11
31.978577
21
7.655430
0
LINE
8
Image
10
31.978577
20
7.655430
11
31.894557
21
5.891540
0
LINE
8
Image
10
31.894557
20
5.891540
11
33.756000
21
5.891540
0
LINE
8
Image
10
33.756000
20
5.891540
11
35.617300
21
5.891540
0
LINE
8
Image
10
35.617300
20
5.891540
11
100.444333
21
72.848718
0
LINE
8
Image
10
104.452533
20
75.177048
11
104.576887
21
75.476027
0
LINE
8
Image
10
104.576887
20
75.476027
11
104.875866
21
75.600381
0
LINE
8
Image
10
104.875866
20
75.600381
11
105.174845
21
75.476027
0
LINE
8
Image
10
105.174845
20
75.476027
11
105.299199
21
75.177048
0
LINE
8
Image
10
105.299199
20
75.177048
11
105.174845
21
74.878069
0
LINE
8
Image
10
105.174845
20
74.878069
11
104.875866
21
74.753715
0
LINE
8
Image
10
104.875866
20
74.753715
11
104.576887
21
74.878069
0
LINE
8
Image
10
104.576887
20
74.878069
11
104.452533
21
75.177048
0
LINE
8
Image
10
104.452533
20
75.177048
11
104.452533
21
75.177048
0
LINE
8
Image
10
100.501423
20
41.323848
11
27.123700
21
-24.279300
0
LINE
8
Image
10
27.123700
20
-24.279300
11
25.359810
21
-24.363320
0
LINE
8
Image
10
25.359810
20
-24.363320
11
23.595920
21
-24.447343
0
LINE
8
Image
10
23.595920
20
-24.447343
11
23.508485
21
-25.822593
0
LINE
8
Image
10
23.508485
20
-25.822593
11
23.478861
21
-27.021182
0
LINE
8
Image
10
23.478861
20
-27.021182
11
23.686365
21
-27.665305
0
LINE
8
Image
10
23.686365
20
-27.665305
11
24.283184
21
-27.926201
0
LINE
8
Image
10
24.283184
20
-27.926201
11
25.421505
21
-27.975113
0
LINE
8
Image
10
25.421505
20
-27.975113
11
27.123700
21
-27.975100
0
LINE
8
Image
10
27.123700
20
-27.975100
11
100.501423
21
41.323848
0
LINE
8
Image
10
74.301223
20
45.825338
11
74.206588
21
47.660378
0
LINE
8
Image
10
74.206588
20
47.660378
11
3.110790
21
14.062500
0
LINE
8
Image
10
3.110790
20
14.062500
11
1.441540
21
14.062500
0
LINE
8
Image
10
1.441540
20
14.062500
11
1.441540
21
12.228100
0
LINE
8
Image
10
1.441540
20
12.228100
11
1.441540
21
10.393600
0
LINE
8
Image
10
1.441540
20
10.393600
11
3.205430
21
10.393036
0
LINE
8
Image
10
3.205430
20
10.393036
11
4.969320
21
10.392471
0
LINE
8
Image
10
4.969320
20
10.392471
11
4.874682
21
12.227511
0
LINE
8
Image
10
4.874682
20
12.227511
11
74.301223
21
45.825338
0
LINE
8
Image
10
104.734723
20
45.825902
11
61.508300
21
9.560990
0
LINE
8
Image
10
61.508300
20
9.560990
11
59.815000
21
9.560990
0
LINE
8
Image
10
59.815000
20
9.560990
11
58.121700
21
9.560990
0
LINE
8
Image
10
58.121700
20
9.560990
11
58.121700
21
7.726550
0
LINE
8
Image
10
58.121700
20
7.726550
11
58.121700
21
5.892110
0
LINE
8
Image
10
58.121700
20
5.892110
11
59.815000
21
5.892110
0
LINE
8
Image
10
59.815000
20
5.892110
11
61.508300
21
5.892110
0
LINE
8
Image
10
61.508300
20
5.892110
11
104.734723
21
45.825902
0
LINE
8
Image
10
48.572523
20
50.200342
11
-25.087300
21
14.076000
0
LINE
8
Image
10
-25.087300
20
14.076000
11
-26.921800
21
14.076000
0
LINE
8
Image
10
-26.921800
20
14.076000
11
-28.756200
21
14.076000
0
LINE
8
Image
10
-28.756200
20
14.076000
11
-28.756200
21
12.100400
0
LINE
8
Image
10
-28.756200
20
12.100400
11
-28.756200
21
10.124900
0
LINE
8
Image
10
-28.756200
20
10.124900
11
-26.921800
21
10.124900
0
LINE
8
Image
10
-26.921800
20
10.124900
11
-25.087300
21
10.124900
0
LINE
8
Image
10
-25.087300
20
10.124900
11
48.572523
21
50.200342
0
LINE
8
Image
10
61.554723
20
50.426120
11
61.650180
21
51.899763
0
LINE
8
Image
10
61.650180
20
51.899763
11
61.893389
21
52.683900
0
LINE
8
Image
10
61.893389
20
52.683900
11
62.646149
21
52.925133
0
LINE
8
Image
10
62.646149
20
52.925133
11
64.010059
21
53.022566
0
LINE
8
Image
10
64.010059
20
53.022566
11
48.290400
21
10.548200
0
LINE
8
Image
10
48.290400
20
10.548200
11
48.290400
21
14.640400
0
LINE
8
Image
10
48.290400
20
14.640400
11
48.290400
21
18.732600
0
LINE
8
Image
10
48.290400
20
18.732600
11
46.180900
21
18.732600
0
LINE
8
Image
10
46.180900
20
18.732600
11
44.071400
21
18.732600
0
LINE
8
Image
10
44.071400
20
18.732600
11
43.993676
21
23.177600
0
LINE
8
Image
10
43.993676
20
23.177600
11
43.915955
21
27.622600
0
LINE
8
Image
10
43.915955
20
27.622600
11
42.159305
21
27.706434
0
LINE
8
Image
10
42.159305
20
27.706434
11
40.402655
21
27.790268
0
LINE
8
Image
10
40.402655
20
27.790268
11
40.324866
21
23.331988
0
LINE
8
Image
10
40.324866
20
23.331988
11
40.247077
21
18.873708
0
LINE
8
Image
10
40.247077
20
18.873708
11
38.200967
21
18.790788
0
LINE
8
Image
10
38.200967
20
18.790788
11
36.154857
21
18.707869
0
LINE
8
Image
10
36.154857
20
18.707869
11
36.154800
21
16.744700
0
LINE
8
Image
10
36.154800
20
16.744700
11
36.154800
21
14.781500
0
LINE
8
Image
10
36.154800
20
14.781500
11
40.388200
21
14.781500
0
LINE
8
Image
10
40.388200
20
14.781500
11
44.621500
21
14.781500
0
LINE
8
Image
10
44.621500
20
14.781500
11
44.621500
21
12.721300
0
LINE
8
Image
10
44.621500
20
12.721300
11
44.527749
21
11.137649
0
LINE
8
Image
10
44.527749
20
11.137649
11
44.282834
21
10.322410
0
LINE
8
Image
10
44.282834
20
10.322410
11
43.498699
21
10.079201
0
LINE
8
Image
10
43.498699
20
10.079201
11
42.025054
21
9.983744
0
LINE
8
Image
10
42.025054
20
9.983744
11
40.106000
21
9.983760
0
LINE
8
Image
10
40.106000
20
9.983760
11
40.106000
21
8.008210
0
LINE
8
Image
10
40.106000
20
8.008210
11
40.106000
21
6.032650
0
LINE
8
Image
10
40.106000
20
6.032650
11
42.081500
21
6.032650
0
LINE
8
Image
10
42.081500
20
6.032650
11
44.057100
21
6.032650
0
LINE
8
Image
10
44.057100
20
6.032650
11
61.554723
21
50.426120
0
LINE
8
Image
10
65.788053
20
50.341454
11
35.308200
21
9.475760
0
LINE
8
Image
10
35.308200
20
9.475760
11
33.614800
21
9.475760
0
LINE
8
Image
10
33.614800
20
9.475760
11
31.921500
21
9.475760
0
LINE
8
Image
10
31.921500
20
9.475760
11
31.921500
21
7.641320
0
LINE
8
Image
10
31.921500
20
7.641320
11
31.921500
21
5.806880
0
LINE
8
Image
10
31.921500
20
5.806880
11
33.614800
21
5.806880
0
LINE
8
Image
10
33.614800
20
5.806880
11
35.308200
21
5.806880
0
LINE
8
Image
10
35.308200
20
5.806880
11
65.788053
21
50.341454
0
LINE
8
Image
10
70.021383
20
50.341454
11
35.308200
21
9.560430
0
LINE
8
Image
10
35.308200
20
9.560430
11
33.645000
21
9.560430
0
LINE
8
Image
10
33.645000
20
9.560430
11
32.542302
21
9.517433
0
LINE
8
Image
10
32.542302
20
9.517433
11
31.979293
21
9.263503
0
LINE
8
Image
10
31.979293
20
9.263503
11
31.803099
21
8.611231
0
LINE
8
Image
10
31.803099
20
8.611231
11
31.860850
21
7.373210
0
LINE
8
Image
10
31.860850
20
7.373210
11
31.975946
21
5.891540
0
LINE
8
Image
10
31.975946
20
5.891540
11
33.642100
21
5.891540
0
LINE
8
Image
10
33.642100
20
5.891540
11
35.308200
21
5.891540
0
LINE
8
Image
10
35.308200
20
5.891540
11
70.021383
21
50.341454
0
LINE
8
Image
10
109.014483
20
50.340889
11
108.919848
21
52.175929
0
LINE
8
Image
10
108.919848
20
52.175929
11
68.304100
21
9.560460
0
LINE
8
Image
10
68.304100
20
9.560460
11
66.634800
21
9.560460
0
LINE
8
Image
10
66.634800
20
9.560460
11
66.634800
21
7.726010
0
LINE
8
Image
10
66.634800
20
7.726010
11
66.634800
21
5.891570
0
LINE
8
Image
10
66.634800
20
5.891570
11
68.398690
21
5.891006
0
LINE
8
Image
10
68.398690
20
5.891006
11
70.162580
21
5.890441
0
LINE
8
Image
10
70.162580
20
5.890441
11
70.067943
21
7.725481
0
LINE
8
Image
10
70.067943
20
7.725481
11
109.014483
21
50.340889
0
LINE
8
Image
10
113.483563
20
50.341454
11
35.543900
21
9.560990
0
LINE
8
Image
10
35.543900
20
9.560990
11
33.709500
21
9.560990
0
LINE
8
Image
10
33.709500
20
9.560990
11
31.875000
21
9.560990
0
LINE
8
Image
10
31.875000
20
9.560990
11
31.875000
21
7.726550
0
LINE
8
Image
10
31.875000
20
7.726550
11
31.875000
21
5.892110
0
LINE
8
Image
10
31.875000
20
5.892110
11
33.709500
21
5.892110
0
LINE
8
Image
10
33.709500
20
5.892110
11
35.543900
21
5.892110
0
LINE
8
Image
10
35.543900
20
5.892110
11
113.483563
21
50.341454
0
LINE
8
Image
10
117.716893
20
50.341454
11
35.308200
21
9.560430
0
LINE
8
Image
10
35.308200
20
9.560430
11
33.473700
21
9.560430
0
LINE
8
Image
10
33.473700
20
9.560430
11
31.639300
21
9.560430
0
LINE
8
Image
10
31.639300
20
9.560430
11
31.639300
21
7.725980
0
LINE
8
Image
10
31.639300
20
7.725980
11
31.639300
21
5.891540
0
LINE
8
Image
10
31.639300
20
5.891540
11
33.473700
21
5.891540
0
LINE
8
Image
10
33.473700
20
5.891540
11
35.308200
21
5.891540
0
LINE
8
Image
10
35.308200
20
5.891540
11
117.716893
21
50.341454
0
LINE
8
Image
10
53.030393
20
54.786454
11
53.113843
21
56.691454
0
LINE
8
Image
10
53.113843
20
56.691454
11
-35.375500
21
14.076000
0
LINE
8
Image
10
-35.375500
20
14.076000
11
-37.222900
21
14.076000
0
LINE
8
Image
10
-37.222900
20
14.076000
11
-37.222900
21
12.087000
0
LINE
8
Image
10
-37.222900
20
12.087000
11
-37.222900
21
10.097900
0
LINE
8
Image
10
-37.222900
20
10.097900
11
-35.459010
21
10.181920
0
LINE
8
Image
10
-35.459010
20
10.181920
11
-33.695120
21
10.265943
0
LINE
8
Image
10
-33.695120
20
10.265943
11
53.030393
21
54.786454
0
LINE
8
Image
10
113.483593
20
57.114784
11
91.528000
21
14.146500
0
LINE
8
Image
10
91.528000
20
14.146500
11
89.693600
21
14.146500
0
LINE
8
Image
10
89.693600
20
14.146500
11
87.859100
21
14.146500
0
LINE
8
Image
10
87.859100
20
14.146500
11
87.859100
21
10.054300
0
LINE
8
Image
10
87.859100
20
10.054300
11
87.859100
21
5.962100
0
LINE
8
Image
10
87.859100
20
5.962100
11
89.693600
21
5.962100
0
LINE
8
Image
10
89.693600
20
5.962100
11
91.528000
21
5.962100
0
LINE
8
Image
10
91.528000
20
5.962100
11
113.483593
21
57.114784
0
LINE
8
Image
10
117.716923
20
66.145884
11
35.308200
21
20.849300
0
LINE
8
Image
10
35.308200
20
20.849300
11
33.614800
21
20.849300
0
LINE
8
Image
10
33.614800
20
20.849300
11
31.921500
21
20.849300
0
LINE
8
Image
10
31.921500
20
20.849300
11
31.921500
21
16.757100
0
LINE
8
Image
10
31.921500
20
16.757100
11
31.921500
21
12.664900
0
LINE
8
Image
10
31.921500
20
12.664900
11
33.614800
21
12.664900
0
LINE
8
Image
10
33.614800
20
12.664900
11
35.308200
21
12.664900
0
LINE
8
Image
10
35.308200
20
12.664900
11
117.716923
21
66.145884
0
LINE
8
Image
10
65.788123
20
75.429014
11
65.868362
21
78.995014
0
LINE
8
Image
10
65.868362
20
78.995014
11
65.999569
21
79.686768
0
LINE
8
Image
10
65.999569
20
79.686768
11
66.218977
21
79.938594
0
LINE
8
Image
10
66.218977
20
79.938594
11
73.121034
21
80.055353
0
LINE
8
Image
10
73.121034
20
80.055353
11
87.813011
21
80.091673
0
LINE
8
Image
10
87.813011
20
80.091673
11
102.505096
21
80.049190
0
LINE
8
Image
10
102.505096
20
80.049190
11
109.407477
21
79.929535
0
LINE
8
Image
10
109.407477
20
79.929535
11
109.610520
21
79.668531
0
LINE
8
Image
10
109.610520
20
79.668531
11
109.735024
21
78.953586
0
LINE
8
Image
10
109.735024
20
78.953586
11
109.814732
21
75.429015
0
LINE
8
Image
10
109.814732
20
75.429015
11
23.172600
21
12.664900
0
LINE
8
Image
10
23.172600
20
12.664900
11
25.012500
21
12.664900
0
LINE
8
Image
10
25.012500
20
12.664900
11
26.852300
21
12.664900
0
LINE
8
Image
10
26.852300
20
12.664900
11
26.776346
21
18.944340
0
LINE
8
Image
10
26.776346
20
18.944340
11
26.700391
21
25.223780
0
LINE
8
Image
10
26.700391
20
25.223780
11
1.229891
21
25.295837
0
LINE
8
Image
10
1.229891
20
25.295837
11
-24.240609
21
25.367891
0
LINE
8
Image
10
-24.240609
20
25.367891
11
-24.240700
21
19.016400
0
LINE
8
Image
10
-24.240700
20
19.016400
11
-24.240700
21
12.664900
0
LINE
8
Image
10
-24.240700
20
12.664900
11
-22.547300
21
12.664900
0
LINE
8
Image
10
-22.547300
20
12.664900
11
-20.854000
21
12.664900
0
LINE
8
Image
10
-20.854000
20
12.664900
11
65.788123
21
75.429014
0
LINE
8
Image
10
113.483623
20
88.567214
11
78.770400
21
25.065100
0
LINE
8
Image
10
78.770400
20
25.065100
11
53.158800
21
25.018409
0
LINE
8
Image
10
53.158800
20
25.018409
11
27.547200
21
24.971718
0
LINE
8
Image
10
27.547200
20
24.971718
11
27.482526
21
21.161718
0
LINE
8
Image
10
27.482526
20
21.161718
11
27.541149
21
17.006948
0
LINE
8
Image
10
27.541149
20
17.006948
11
28.799207
21
16.839999
0
LINE
8
Image
10
28.799207
20
16.839999
11
32.963753
21
16.734132
0
LINE
8
Image
10
32.963753
20
16.734132
11
53.217449
21
16.662674
0
LINE
8
Image
10
53.217449
20
16.662674
11
78.770449
21
16.663239
0
LINE
8
Image
10
78.770449
20
16.663239
11
113.483623
21
88.567214
0
LINE
8
Image
10
61.553123
20
87.100914
11
61.536133
21
91.473874
0
LINE
8
Image
10
61.536133
20
91.473874
11
61.554760
21
93.377394
0
LINE
8
Image
10
61.554760
20
93.377394
11
87.448660
21
93.449428
0
LINE
8
Image
10
87.448660
20
93.449428
11
113.342560
21
93.521460
0
LINE
8
Image
10
113.342560
20
93.521460
11
113.426267
21
95.273240
0
LINE
8
Image
10
113.426267
20
95.273240
11
113.509977
21
97.025020
0
LINE
8
Image
10
113.509977
20
97.025020
11
111.309617
21
97.107685
0
LINE
8
Image
10
111.309617
20
97.107685
11
109.109247
21
97.190348
0
LINE
8
Image
10
109.109247
20
97.190348
11
109.031526
21
101.635348
0
LINE
8
Image
10
109.031526
20
101.635348
11
108.953802
21
106.080348
0
LINE
8
Image
10
108.953802
20
106.080348
11
24.717700
21
25.239100
0
LINE
8
Image
10
24.717700
20
25.239100
11
22.890400
21
25.239100
0
LINE
8
Image
10
22.890400
20
25.239100
11
22.890400
21
20.862800
0
LINE
8
Image
10
22.890400
20
20.862800
11
22.890400
21
16.486400
0
LINE
8
Image
10
22.890400
20
16.486400
11
3.205400
21
16.558875
0
LINE
8
Image
10
3.205400
20
16.558875
11
-16.479600
21
16.631349
0
LINE
8
Image
10
-16.479600
20
16.631349
11
-16.548202
21
20.979229
0
LINE
8
Image
10
-16.548202
20
20.979229
11
-16.520347
21
24.328737
0
LINE
8
Image
10
-16.520347
20
24.328737
11
-16.301980
21
25.706449
0
LINE
8
Image
10
-16.301980
20
25.706449
11
-15.948216
21
25.886148
0
LINE
8
Image
10
-15.948216
20
25.886148
11
-15.171913
21
26.003166
0
LINE
8
Image
10
-15.171913
20
26.003166
11
-11.929490
21
26.085792
0
LINE
8
Image
10
-11.929490
20
26.085792
11
-7.871790
21
26.085800
0
LINE
8
Image
10
-7.871790
20
26.085800
11
-7.871790
21
27.920200
0
LINE
8
Image
10
-7.871790
20
27.920200
11
-7.871790
21
29.754700
0
LINE
8
Image
10
-7.871790
20
29.754700
11
-11.907600
21
29.754700
0
LINE
8
Image
10
-11.907600
20
29.754700
11
-15.043874
21
29.837097
0
LINE
8
Image
10
-15.043874
20
29.837097
11
-16.282040
21
30.093366
0
LINE
8
Image
10
-16.282040
20
30.093366
11
-16.525249
21
30.877501
0
LINE
8
Image
10
-16.525249
20
30.877501
11
-16.620706
21
32.351146
0
LINE
8
Image
10
-16.620706
20
32.351146
11
-16.620700
21
34.270200
0
LINE
8
Image
10
-16.620700
20
34.270200
11
-18.302100
21
34.270200
0
LINE
8
Image
10
-18.302100
20
34.270200
11
-19.983600
21
34.270200
0
LINE
8
Image
10
-19.983600
20
34.270200
11
-20.066029
21
32.082980
0
LINE
8
Image
10
-20.066029
20
32.082980
11
-20.148454
21
29.895760
0
LINE
8
Image
10
-20.148454
20
29.895760
11
-24.452344
21
29.817854
0
LINE
8
Image
10
-24.452344
20
29.817854
11
-28.756234
21
29.739947
0
LINE
8
Image
10
-28.756234
20
29.739947
11
-28.756200
21
27.920200
0
LINE
8
Image
10
-28.756200
20
27.920200
11
-28.756200
21
26.100500
0
LINE
8
Image
10
-28.756200
20
26.100500
11
-24.452310
21
26.022594
0
LINE
8
Image
10
-24.452310
20
26.022594
11
-20.148420
21
25.944687
0
LINE
8
Image
10
-20.148420
20
25.944687
11
-20.067521
21
21.711357
0
LINE
8
Image
10
-20.067521
20
21.711357
11
-20.024617
21
18.408667
0
LINE
8
Image
10
-20.024617
20
18.408667
11
-20.230447
21
16.788319
0
LINE
8
Image
10
-20.230447
20
16.788319
11
-20.505652
21
16.422568
0
LINE
8
Image
10
-20.505652
20
16.422568
11
-20.937859
21
16.253658
0
LINE
8
Image
10
-20.937859
20
16.253658
11
-22.399701
21
16.208027
0
LINE
8
Image
10
-22.399701
20
16.208027
11
-24.499100
21
16.208000
0
LINE
8
Image
10
-24.499100
20
16.208000
11
-24.581529
21
14.020780
0
LINE
8
Image
10
-24.581529
20
14.020780
11
-24.663954
21
11.833560
0
LINE
8
Image
10
-24.663954
20
11.833560
11
-26.710064
21
11.750640
0
LINE
8
Image
10
-26.710064
20
11.750640
11
-28.756174
21
11.667721
0
LINE
8
Image
10
-28.756174
20
11.667721
11
-28.756200
21
9.986760
0
LINE
8
Image
10
-28.756200
20
9.986760
11
-28.756200
21
8.305790
0
LINE
8
Image
10
-28.756200
20
8.305790
11
-27.086000
21
8.305790
0
LINE
8
Image
10
-27.086000
20
8.305790
11
-25.613256
21
8.264982
0
LINE
8
Image
10
-25.613256
20
8.264982
11
-24.851337
21
7.994546
0
LINE
8
Image
10
-24.851337
20
7.994546
11
-24.565980
21
7.272461
0
LINE
8
Image
10
-24.565980
20
7.272461
11
-24.522920
21
5.876710
0
LINE
8
Image
10
-24.522920
20
5.876710
11
-24.522900
21
3.790240
0
LINE
8
Image
10
-24.522900
20
3.790240
11
-22.671500
21
3.790240
0
LINE
8
Image
10
-22.671500
20
3.790240
11
-20.820000
21
3.790240
0
LINE
8
Image
10
-20.820000
20
3.790240
11
61.553123
21
87.100914
0
LINE
8
Image
10
117.716923
20
88.582584
11
87.238700
21
13.158800
0
LINE
8
Image
10
87.238700
20
13.158800
11
85.545300
21
13.158800
0
LINE
8
Image
10
85.545300
20
13.158800
11
83.852000
21
13.158800
0
LINE
8
Image
10
83.852000
20
13.158800
11
83.852000
21
9.207650
0
LINE
8
Image
10
83.852000
20
9.207650
11
83.852000
21
5.256540
0
LINE
8
Image
10
83.852000
20
5.256540
11
85.545300
21
5.256540
0
LINE
8
Image
10
85.545300
20
5.256540
11
87.238700
21
5.256540
0
LINE
8
Image
10
87.238700
20
5.256540
11
117.716923
21
88.582584
0
LINE
8
Image
10
52.740723
20
99.800884
11
52.816677
21
106.080324
0
LINE
8
Image
10
52.816677
20
106.080324
11
-35.524100
21
25.223700
0
LINE
8
Image
10
-35.524100
20
25.223700
11
-37.222900
21
25.223700
0
LINE
8
Image
10
-37.222900
20
25.223700
11
-37.222900
21
18.859700
0
LINE
8
Image
10
-37.222900
20
18.859700
11
-37.222900
21
12.495600
0
LINE
8
Image
10
-37.222900
20
12.495600
11
-35.600120
21
12.580241
0
LINE
8
Image
10
-35.600120
20
12.580241
11
-33.977340
21
12.664880
0
LINE
8
Image
10
-33.977340
20
12.664880
11
52.740723
21
99.800884
0
LINE
8
Image
10
57.039213
20
95.638114
11
35.373300
21
5.820990
0
LINE
8
Image
10
35.373300
20
5.820990
11
37.638700
21
5.820990
0
LINE
8
Image
10
37.638700
20
5.820990
11
39.904000
21
5.820990
0
LINE
8
Image
10
39.904000
20
5.820990
11
39.825898
21
9.983760
0
LINE
8
Image
10
39.825898
20
9.983760
11
39.747799
21
14.146530
0
LINE
8
Image
10
39.747799
20
14.146530
11
36.078909
21
14.163359
0
LINE
8
Image
10
36.078909
20
14.163359
11
32.054989
21
14.061745
0
LINE
8
Image
10
32.054989
20
14.061745
11
31.886237
21
13.708351
0
LINE
8
Image
10
31.886237
20
13.708351
11
31.781704
21
12.668600
0
LINE
8
Image
10
31.781704
20
12.668600
11
31.728961
21
7.836355
0
LINE
8
Image
10
31.728961
20
7.836355
11
31.888981
21
1.517415
0
LINE
8
Image
10
31.888981
20
1.517415
11
32.474035
21
1.367697
0
LINE
8
Image
10
32.474035
20
1.367697
11
33.696671
21
1.305424
0
LINE
8
Image
10
33.696671
20
1.305424
11
35.373300
21
1.305430
0
LINE
8
Image
10
35.373300
20
1.305430
11
57.039213
21
95.638114
0
LINE
8
Image
10
104.734713
20
102.012684
11
78.770400
21
106.080000
0
LINE
8
Image
10
78.770400
20
106.080000
11
76.549200
21
106.080000
0
LINE
8
Image
10
76.549200
20
106.080000
11
74.328100
21
106.080000
0
LINE
8
Image
10
74.328100
20
106.080000
11
74.362020
21
108.267220
0
LINE
8
Image
10
74.362020
20
108.267220
11
74.395938
21
110.454440
0
LINE
8
Image
10
74.395938
20
110.454440
11
72.205198
21
110.595551
0
LINE
8
Image
10
72.205198
20
110.595551
11
70.659026
21
110.757388
0
LINE
8
Image
10
70.659026
20
110.757388
11
70.017978
21
110.948329
0
LINE
8
Image
10
70.017978
20
110.948329
11
70.021505
21
113.150459
0
LINE
8
Image
10
70.021505
20
113.150459
11
70.021500
21
115.141000
0
LINE
8
Image
10
70.021500
20
115.141000
11
68.041810
21
115.083194
0
LINE
8
Image
10
68.041810
20
115.083194
11
65.893250
21
115.194255
0
LINE
8
Image
10
65.893250
20
115.194255
11
65.685724
21
117.424375
0
LINE
8
Image
10
65.685724
20
117.424375
11
65.647054
21
119.485625
0
LINE
8
Image
10
65.647054
20
119.485625
11
55.252654
21
119.542884
0
LINE
8
Image
10
55.252654
20
119.542884
11
44.858254
21
119.600142
0
LINE
8
Image
10
44.858254
20
119.600142
11
44.947182
21
117.287382
0
LINE
8
Image
10
44.947182
20
117.287382
11
45.036113
21
114.974622
0
LINE
8
Image
10
45.036113
20
114.974622
11
42.853253
21
115.066169
0
LINE
8
Image
10
42.853253
20
115.066169
11
40.670393
21
115.157716
0
LINE
8
Image
10
40.670393
20
115.157716
11
40.670400
21
113.300000
0
LINE
8
Image
10
40.670400
20
113.300000
11
40.670400
21
111.443000
0
LINE
8
Image
10
40.670400
20
111.443000
11
44.974290
21
111.442825
0
LINE
8
Image
10
44.974290
20
111.442825
11
49.278180
21
111.442650
0
LINE
8
Image
10
49.278180
20
111.442650
11
49.278200
21
108.761000
0
LINE
8
Image
10
49.278200
20
108.761000
11
49.278200
21
106.080000
0
LINE
8
Image
10
49.278200
20
106.080000
11
44.974310
21
106.080081
0
LINE
8
Image
10
44.974310
20
106.080081
11
40.670420
21
106.080163
0
LINE
8
Image
10
40.670420
20
106.080163
11
40.670400
21
102.016000
0
LINE
8
Image
10
40.670400
20
102.016000
11
40.670400
21
97.951100
0
LINE
8
Image
10
40.670400
20
97.951100
11
59.720400
21
97.948052
0
LINE
8
Image
10
59.720400
20
97.948052
11
78.770400
21
97.945004
0
LINE
8
Image
10
78.770400
20
97.945004
11
78.770400
21
102.013000
0
LINE
8
Image
10
78.770400
20
102.013000
11
104.734713
21
102.012684
0
LINE
8
Image
10
70.066000
20
102.129000
11
70.107816
21
102.523670
0
LINE
8
Image
10
70.107816
20
102.523670
11
70.208350
21
102.481778
0
LINE
8
Image
10
70.208350
20
102.481778
11
70.208350
21
101.776223
0
LINE
8
Image
10
70.208350
20
101.776223
11
70.107816
21
101.734331
0
LINE
8
Image
10
70.107816
20
101.734331
11
70.066000
21
102.129001
0
LINE
8
Image
10
70.066000
20
102.129001
11
70.066000
21
102.129000
0
LINE
8
Image
10
70.630444
20
102.129000
11
70.672260
21
102.523670
0
LINE
8
Image
10
70.672260
20
102.523670
11
70.772794
21
102.481777
0
LINE
8
Image
10
70.772794
20
102.481777
11
70.772794
21
101.776222
0
LINE
8
Image
10
70.772794
20
101.776222
11
70.672260
21
101.734330
0
LINE
8
Image
10
70.672260
20
101.734330
11
70.630444
21
102.129000
0
LINE
8
Image
10
70.630444
20
102.129000
11
70.630444
21
102.129000
0
LINE
8
Image
10
74.299334
20
102.129000
11
74.341150
21
102.523670
0
LINE
8
Image
10
74.341150
20
102.523670
11
74.441684
21
102.481777
0
LINE
8
Image
10
74.441684
20
102.481777
11
74.441684
21
101.776222
0
LINE
8
Image
10
74.441684
20
101.776222
11
74.341150
21
101.734330
0
LINE
8
Image
10
74.341150
20
101.734330
11
74.299334
21
102.129000
0
LINE
8
Image
10
74.299334
20
102.129000
11
74.299334
21
102.129000
0
LINE
8
Image
10
74.863778
20
102.129000
11
74.905594
21
102.523670
0
LINE
8
Image
10
74.905594
20
102.523670
11
75.006128
21
102.481777
0
LINE
8
Image
10
75.006128
20
102.481777
11
75.006128
21
101.776222
0
LINE
8
Image
10
75.006128
20
101.776222
11
74.905594
21
101.734330
0
LINE
8
Image
10
74.905594
20
101.734330
11
74.863778
21
102.129000
0
LINE
8
Image
10
74.863778
20
102.129000
11
74.863778
21
102.129000
0
LINE
8
Image
10
96.005678
20
102.199556
11
96.055066
21
102.661210
0
LINE
8
Image
10
96.055066
20
102.661210
11
96.249856
21
102.270111
0
LINE
8
Image
10
96.249856
20
102.270111
11
96.474203
21
101.705667
0
LINE
8
Image
10
96.474203
20
101.705667
11
96.620617
21
102.270111
0
LINE
8
Image
10
96.620617
20
102.270111
11
96.749060
21
102.644947
0
LINE
8
Image
10
96.749060
20
102.644947
11
96.799769
21
102.199556
0
LINE
8
Image
10
96.799769
20
102.199556
11
96.709740
21
101.735488
0
LINE
8
Image
10
96.709740
20
101.735488
11
96.409174
21
101.564555
0
LINE
8
Image
10
96.409174
20
101.564555
11
96.106637
21
101.737639
0
LINE
8
Image
10
96.106637
20
101.737639
11
96.005678
21
102.199556
0
LINE
8
Image
10
96.005678
20
102.199556
11
96.005678
21
102.199556
0
LINE
8
Image
10
100.219168
20
102.129000
11
100.360279
21
102.552333
0
LINE
8
Image
10
100.360279
20
102.552333
11
100.783612
21
102.693444
0
LINE
8
Image
10
100.783612
20
102.693444
11
101.206945
21
102.552333
0
LINE
8
Image
10
101.206945
20
102.552333
11
101.348056
21
102.129000
0
LINE
8
Image
10
101.348056
20
102.129000
11
101.206945
21
101.705667
0
LINE
8
Image
10
101.206945
20
101.705667
11
100.783612
21
101.564556
0
LINE
8
Image
10
100.783612
20
101.564556
11
100.360279
21
101.705667
0
LINE
8
Image
10
100.360279
20
101.705667
11
100.219168
21
102.129000
0
LINE
8
Image
10
100.219168
20
102.129000
11
100.219168
21
102.129000
0
LINE
8
Image
10
96.197508
20
106.267020
11
96.903063
21
106.267020
0
LINE
8
Image
10
96.903063
20
106.267020
11
96.944955
21
106.166486
0
LINE
8
Image
10
96.944955
20
106.166486
11
96.550285
21
106.124671
0
LINE
8
Image
10
96.550285
20
106.124671
11
96.155615
21
106.166486
0
LINE
8
Image
10
96.155615
20
106.166486
11
96.197508
21
106.267020
0
LINE
8
Image
10
96.197508
20
106.267020
11
96.197508
21
106.267020
0
LINE
8
Image
10
96.197508
20
106.831464
11
96.903063
21
106.831464
0
LINE
8
Image
10
96.903063
20
106.831464
11
96.944956
21
106.730930
0
LINE
8
Image
10
96.944956
20
106.730930
11
96.550286
21
106.689115
0
LINE
8
Image
10
96.550286
20
106.689115
11
96.155616
21
106.730930
0
LINE
8
Image
10
96.155616
20
106.730930
11
96.197508
21
106.831464
0
LINE
8
Image
10
96.197508
20
106.831464
11
96.197508
21
106.831464
0
LINE
8
Image
10
74.299400
20
115.394000
11
74.341216
21
115.788670
0
LINE
8
Image
10
74.341216
20
115.788670
11
74.441750
21
115.746778
0
LINE
8
Image
10
74.441750
20
115.746778
11
74.441750
21
115.041223
0
LINE
8
Image
10
74.441750
20
115.041223
11
74.341216
21
114.999331
0
LINE
8
Image
10
74.341216
20
114.999331
11
74.299400
21
115.394001
0
LINE
8
Image
10
74.299400
20
115.394001
11
74.299400
21
115.394000
0
LINE
8
Image
10
74.819284
20
115.346963
11
74.894851
21
115.778822
0
LINE
8
Image
10
74.894851
20
115.778822
11
75.076535
21
115.958444
0
LINE
8
Image
10
75.076535
20
115.958444
11
75.230955
21
115.840925
0
LINE
8
Image
10
75.230955
20
115.840925
11
75.268050
21
115.559506
0
LINE
8
Image
10
75.268050
20
115.559506
11
75.015600
21
114.931794
0
LINE
8
Image
10
75.015600
20
114.931794
11
74.876952
21
114.972768
0
LINE
8
Image
10
74.876952
20
114.972768
11
74.819284
21
115.346958
0
LINE
8
Image
10
74.819284
20
115.346958
11
74.819284
21
115.346963
0
LINE
8
Image
10
104.734784
20
108.761783
11
60.990400
21
2.975250
0
LINE
8
Image
10
60.990400
20
2.975250
11
59.155900
21
2.975250
0
LINE
8
Image
10
59.155900
20
2.975250
11
57.321500
21
2.975250
0
LINE
8
Image
10
57.321500
20
2.975250
11
57.321500
21
1.140810
0
LINE
8
Image
10
57.321500
20
1.140810
11
57.321500
21
-0.693638
0
LINE
8
Image
10
57.321500
20
-0.693638
11
59.155900
21
-0.693638
0
LINE
8
Image
10
59.155900
20
-0.693638
11
60.990400
21
-0.693638
0
LINE
8
Image
10
60.990400
20
-0.693638
11
104.734784
21
108.761783
0
LINE
8
Image
10
100.380000
20
112.779000
11
100.486537
21
114.059786
0
LINE
8
Image
10
100.486537
20
114.059786
11
100.305954
21
114.759912
0
LINE
8
Image
10
100.305954
20
114.759912
11
99.701078
21
115.052808
0
LINE
8
Image
10
99.701078
20
115.052808
11
98.534730
21
115.111900
0
LINE
8
Image
10
98.534730
20
115.111900
11
96.832600
21
115.111000
0
LINE
8
Image
10
96.832600
20
115.111000
11
96.832600
21
113.297000
0
LINE
8
Image
10
96.832600
20
113.297000
11
96.871368
21
112.132458
0
LINE
8
Image
10
96.871368
20
112.132458
11
97.128988
21
111.532445
0
LINE
8
Image
10
97.128988
20
111.532445
11
97.817431
21
111.313462
0
LINE
8
Image
10
97.817431
20
111.313462
11
99.148670
21
111.292010
0
LINE
8
Image
10
99.148670
20
111.292010
11
100.194740
21
111.301814
0
LINE
8
Image
10
100.194740
20
111.301814
11
100.380000
21
112.779000
0
LINE
8
Image
10
70.246000
20
117.581000
11
70.162550
21
119.486000
0
LINE
8
Image
10
70.162550
20
119.486000
11
68.398660
21
119.570022
0
LINE
8
Image
10
68.398660
20
119.570022
11
66.634770
21
119.654045
0
LINE
8
Image
10
66.634770
20
119.654045
11
66.634800
21
117.665000
0
LINE
8
Image
10
66.634800
20
117.665000
11
66.634800
21
115.676000
0
LINE
8
Image
10
66.634800
20
115.676000
11
68.482200
21
115.676000
0
LINE
8
Image
10
68.482200
20
115.676000
11
70.329500
21
115.676000
0
LINE
8
Image
10
70.329500
20
115.676000
11
70.246000
21
117.581000
0
LINE
8
Image
10
95.985900
20
117.665022
11
56.814700
21
9.799030
0
LINE
8
Image
10
56.814700
20
9.799030
11
55.050810
21
9.715007
0
LINE
8
Image
10
55.050810
20
9.715007
11
53.286920
21
9.630985
0
LINE
8
Image
10
53.286920
20
9.630985
11
53.200334
21
8.112405
0
LINE
8
Image
10
53.200334
20
8.112405
11
53.170097
21
6.825440
0
LINE
8
Image
10
53.170097
20
6.825440
11
53.373206
21
6.140979
0
LINE
8
Image
10
53.373206
20
6.140979
11
53.967923
21
5.869376
0
LINE
8
Image
10
53.967923
20
5.869376
11
55.112504
21
5.820985
0
LINE
8
Image
10
55.112504
20
5.820985
11
56.814700
21
5.820990
0
LINE
8
Image
10
56.814700
20
5.820990
11
95.985900
21
117.665022
0
LINE
8
Image
10
89.988680
20
120.457022
11
91.752570
21
120.473781
0
LINE
8
Image
10
91.752570
20
120.473781
11
26.841500
21
12.369200
0
LINE
8
Image
10
26.841500
20
12.369200
11
26.841500
21
14.203600
0
LINE
8
Image
10
26.841500
20
14.203600
11
16.399300
21
14.203600
0
LINE
8
Image
10
16.399300
20
14.203600
11
5.957090
21
14.203600
0
LINE
8
Image
10
5.957090
20
14.203600
11
5.957090
21
12.382100
0
LINE
8
Image
10
5.957090
20
12.382100
11
5.957090
21
10.560500
0
LINE
8
Image
10
5.957090
20
10.560500
11
7.862090
21
10.477050
0
LINE
8
Image
10
7.862090
20
10.477050
11
25.077590
21
10.517953
0
LINE
8
Image
10
25.077590
20
10.517953
11
89.988680
21
120.457022
0
LINE
8
Image
10
126.465880
20
7.726022
11
126.590234
21
8.025001
0
LINE
8
Image
10
126.590234
20
8.025001
11
126.889213
21
8.149355
0
LINE
8
Image
10
126.889213
20
8.149355
11
127.188192
21
8.025001
0
LINE
8
Image
10
127.188192
20
8.025001
11
127.312546
21
7.726022
0
LINE
8
Image
10
127.312546
20
7.726022
11
127.188192
21
7.427043
0
LINE
8
Image
10
127.188192
20
7.427043
11
126.889213
21
7.302689
0
LINE
8
Image
10
126.889213
20
7.302689
11
126.590234
21
7.427043
0
LINE
8
Image
10
126.590234
20
7.427043
11
126.465880
21
7.726022
0
LINE
8
Image
10
126.465880
20
7.726022
11
126.465880
21
7.726022
0
LINE
8
Image
10
130.699210
20
7.726022
11
130.823564
21
8.025001
0
LINE
8
Image
10
130.823564
20
8.025001
11
131.122543
21
8.149355
0
LINE
8
Image
10
131.122543
20
8.149355
11
131.421522
21
8.025001
0
LINE
8
Image
10
131.421522
20
8.025001
11
131.545876
21
7.726022
0
LINE
8
Image
10
131.545876
20
7.726022
11
131.421522
21
7.427043
0
LINE
8
Image
10
131.421522
20
7.427043
11
131.122543
21
7.302689
0
LINE
8
Image
10
131.122543
20
7.302689
11
130.823564
21
7.427043
0
LINE
8
Image
10
130.823564
20
7.427043
11
130.699210
21
7.726022
0
LINE
8
Image
10
130.699210
20
7.726022
11
130.699210
21
7.726022
0
LINE
8
Image
10
134.932540
20
7.726022
11
135.056894
21
8.025001
0
LINE
8
Image
10
135.056894
20
8.025001
11
135.355873
21
8.149355
0
LINE
8
Image
10
135.355873
20
8.149355
11
135.654852
21
8.025001
0
LINE
8
Image
10
135.654852
20
8.025001
11
135.779206
21
7.726022
0
LINE
8
Image
10
135.779206
20
7.726022
11
135.654852
21
7.427043
0
LINE
8
Image
10
135.654852
20
7.427043
11
135.355873
21
7.302689
0
LINE
8
Image
10
135.355873
20
7.302689
11
135.056894
21
7.427043
0
LINE
8
Image
10
135.056894
20
7.427043
11
134.932540
21
7.726022
0
LINE
8
Image
10
134.932540
20
7.726022
11
134.932540
21
7.726022
0
LINE
8
Image
10
139.165870
20
7.726022
11
139.290224
21
8.025001
0
LINE
8
Image
10
139.290224
20
8.025001
11
139.589203
21
8.149355
0
LINE
8
Image
10
139.589203
20
8.149355
11
139.888182
21
8.025001
0
LINE
8
Image
10
139.888182
20
8.025001
11
140.012536
21
7.726022
0
LINE
8
Image
10
140.012536
20
7.726022
11
139.888182
21
7.427043
0
LINE
8
Image
10
139.888182
20
7.427043
11
139.589203
21
7.302689
0
LINE
8
Image
10
139.589203
20
7.302689
11
139.290224
21
7.427043
0
LINE
8
Image
10
139.290224
20
7.427043
11
139.165870
21
7.726022
0
LINE
8
Image
10
139.165870
20
7.726022
11
139.165870
21
7.726022
 0 
ENDSEC
 0 
EOF